<?xml version="1.0" encoding="UTF-8" standalone="no"?>
<!-- Created with Inkscape (http://www.inkscape.org/) -->

<svg
   width="236"
   height="419"
   viewBox="0 0 62.441668 110.86042"
   version="1.1"
   id="svg851"
   inkscape:version="1.2.2 (b0a8486541, 2022-12-01)"
   xml:space="preserve"
   sodipodi:docname="dog.svg"
   xmlns:inkscape="http://www.inkscape.org/namespaces/inkscape"
   xmlns:sodipodi="http://sodipodi.sourceforge.net/DTD/sodipodi-0.dtd"
   xmlns="http://www.w3.org/2000/svg"
   xmlns:svg="http://www.w3.org/2000/svg"><sodipodi:namedview
     id="namedview853"
     pagecolor="#ffffff"
     bordercolor="#666666"
     borderopacity="1.0"
     inkscape:pageshadow="2"
     inkscape:pageopacity="0.0"
     inkscape:pagecheckerboard="0"
     inkscape:document-units="mm"
     showgrid="false"
     units="px"
     inkscape:showpageshadow="2"
     inkscape:deskcolor="#d1d1d1"
     inkscape:zoom="1.31625"
     inkscape:cx="-193.73219"
     inkscape:cy="161.82336"
     inkscape:window-width="3440"
     inkscape:window-height="1408"
     inkscape:window-x="0"
     inkscape:window-y="0"
     inkscape:window-maximized="1"
     inkscape:current-layer="layer1" /><defs
     id="defs848" /><g
     inkscape:label="Layer 1"
     inkscape:groupmode="layer"
     id="layer1"
     transform="translate(-92.402145,-1.4564629)"><path
       style="fill:#000000;stroke-width:0.264583"
       d="m 92.877978,109.85482 v -2.35293 l 1.49811,-1.28509 c 0.82396,-0.7068 1.77646,-1.54758 2.11667,-1.86839 0.3402,-0.3208 0.61856,-0.52916 0.61856,-0.46302 0,0.0662 0.23812,-0.11786 0.52916,-0.4089 0.29104,-0.29104 0.52917,-0.61959 0.52917,-0.7301 0,-0.11052 0.24455,-0.35367 0.54345,-0.54033 0.35373,-0.22091 0.4902,-0.5072 0.3909,-0.82004 -0.086,-0.27085 0.022,-0.62553 0.24739,-0.81257 0.21996,-0.18255 0.33838,-0.43151 0.26314,-0.55324 -0.0752,-0.121744 0.10349,-0.34993 0.397162,-0.507095 0.29367,-0.157168 0.52103,-0.371502 0.50525,-0.476298 -0.14445,-0.95899 0.084,-1.645745 0.54751,-1.645745 0.28246,0 0.58023,-0.107884 0.66173,-0.239744 0.33397,-0.540385 1.16915,0.07153 1.53338,1.123479 0.2096,0.605353 0.59143,1.695949 0.84851,2.423563 0.65401,1.85096 0.92709,3.03289 0.93444,4.0443 0.006,0.77416 -0.11792,0.92254 -1.12885,1.35588 -0.62433,0.26762 -1.65266,1.02958 -2.28518,1.69325 -0.87232,0.91528 -1.41282,1.24911 -2.238282,1.38241 -0.69264,0.11185 -1.42491,0.48788 -2.0143,1.03438 -1.34752,1.24943 -2.72356,1.99915 -3.66925,1.99915 h -0.82867 z M 131.65657,95.380749 c -0.0999,-0.398087 -0.0556,-0.835173 0.10052,-0.99128 0.35504,-0.355047 0.36742,-2.290064 0.0146,-2.290064 -0.14552,0 -0.27645,0.506016 -0.29095,1.124479 -0.0145,0.618464 -0.1217,1.422136 -0.23821,1.785938 -0.18627,0.581607 -0.21727,0.533696 -0.25681,-0.396875 -0.0463,-1.08957 -0.47292,-2.475381 -0.52944,-1.719792 -0.0163,0.218281 -0.25783,-0.01984 -0.53667,-0.529167 l -0.50699,-0.926041 -0.0111,0.84428 c -0.006,0.464354 -0.13016,0.917866 -0.27568,1.007803 -0.14552,0.08994 -0.26458,0.03041 -0.26458,-0.132292 0,-0.162697 -0.11906,-0.222229 -0.26458,-0.132291 -0.14556,0.08996 -0.27398,-0.111311 -0.28547,-0.447405 -0.0115,-0.336011 -0.081,-0.462101 -0.15434,-0.2802 -0.0734,0.181902 -0.30213,0.33073 -0.50828,0.33073 -0.20616,0 -0.37483,0.231097 -0.37483,0.513551 0,0.282453 -0.13306,0.595791 -0.2957,0.696304 -0.20509,0.126751 -0.26415,-0.148022 -0.19275,-0.896718 0.0998,-1.046965 0.0876,-1.065938 -0.40556,-0.630156 -0.49313,0.435732 -0.5038,0.419325 -0.35305,-0.542877 0.16049,-1.024306 -0.1811,-1.381874 -0.46515,-0.486916 -0.0882,0.277903 -0.35403,0.664856 -0.59074,0.859896 -0.39055,0.321808 -0.41492,0.232199 -0.26333,-0.968293 l 0.16706,-1.322916 -0.50597,0.926041 -0.50597,0.926042 0.0287,-0.99337 c 0.0328,-1.136383 -0.22778,-1.551065 -0.61801,-0.983343 -0.2008,0.292129 -0.22838,0.224221 -0.11056,-0.272245 l 0.15696,-0.661459 -0.43649,0.595313 c -0.24006,0.327422 -0.61901,0.595312 -0.84209,0.595312 -0.34,0 -0.32815,-0.0856 0.0733,-0.529166 0.46292,-0.511522 0.46208,-0.530212 -0.0251,-0.560499 -0.66228,-0.04117 -0.6943,-0.03682 -1.21233,0.16492 -0.35669,0.138904 -0.41336,0.05672 -0.28894,-0.419058 0.13345,-0.510299 0.0727,-0.570402 -0.44054,-0.436176 -0.55353,0.144751 -0.56574,0.123013 -0.17407,-0.309777 0.5783,-0.639024 0.52831,-0.896588 -0.10795,-0.556077 -0.3856,0.206367 -0.52916,0.201213 -0.52916,-0.019 0,-0.169199 -0.18763,-0.230198 -0.42634,-0.1386 -0.30506,0.117065 -0.38268,0.04986 -0.27288,-0.236275 0.0844,-0.219935 0.0566,-0.399878 -0.0617,-0.399878 -0.34071,0 -1.62035,-1.177602 -1.62035,-1.491142 0,-0.156019 -0.29766,-0.604848 -0.66146,-0.997397 -0.75988,-0.819928 -0.85439,-2.119741 -0.37757,-5.192937 0.15614,-1.006346 0.24544,-2.070415 0.19844,-2.3646 -0.0807,-0.50527 -0.12844,-0.512445 -0.86181,-0.129596 -1.55915,0.813946 -1.86054,0.01773 -0.80529,-2.127454 0.79371,-1.613503 0.83058,-2.007391 0.11613,-1.240514 -0.71146,0.763669 -1.04803,0.73162 -1.04803,-0.0998 0,-0.978715 -0.41752,-1.617012 -1.18348,-1.809255 -0.39781,-0.09984 -0.94767,-0.6208 -1.35861,-1.287206 -0.37969,-0.615712 -0.85031,-1.247495 -1.04582,-1.403961 -0.19552,-0.156464 -0.29156,-0.528905 -0.21344,-0.827644 0.15829,-0.605297 1.41333,-1.303689 1.66071,-0.924128 0.0859,0.131879 0.59223,0.381854 1.12506,0.555503 1.22923,0.400598 1.349,0.740725 0.7399,2.101202 -0.55789,1.246079 -0.21765,1.515412 0.40161,0.31791 0.27538,-0.53253 0.71998,-0.869159 1.39585,-1.056857 1.55432,-0.431657 1.53139,-0.464537 0.91309,1.309121 -0.0862,0.247224 0.10853,0.1724 0.51638,-0.198437 1.04898,-0.953776 1.08724,-0.691248 0.0897,0.615579 -1.02566,1.343679 -1.07586,1.508946 -0.58271,1.918224 0.25797,0.214093 0.35096,0.159004 0.37989,-0.225041 0.0405,-0.538057 1.38262,-2.374887 1.73523,-2.3749 0.11426,-5e-6 0.0974,-0.208367 -0.0374,-0.463029 -0.19471,-0.367787 0.0275,-0.735118 1.08025,-1.785937 0.72896,-0.727605 1.26321,-1.144323 1.18724,-0.926042 -0.42799,1.229577 -0.39855,1.327102 0.0927,0.306993 0.51917,-1.078169 0.49021,-1.997654 -0.0335,-1.061923 -0.33018,0.589986 -1.58971,0.885626 -1.87262,0.439544 -0.16968,-0.267544 -0.2204,-0.250931 -0.22353,0.07321 -0.003,0.349401 -1.3665,1.829673 -1.68487,1.829673 -0.0538,0 -0.0407,-0.298961 0.0291,-0.664358 0.17049,-0.891837 1.48322,-1.975996 2.1739,-1.795378 0.33351,0.08721 0.53614,0.01143 0.53614,-0.200552 0,-0.187415 0.19704,-0.558488 0.43788,-0.824608 0.4904,-0.541888 0.11701,-0.657839 -0.7038,-0.218556 -0.76652,0.410228 -0.87884,-0.147813 -0.12869,-0.639332 0.65586,-0.429736 0.8821,-0.948883 0.41351,-0.948883 -0.13513,0 -0.42428,0.178594 -0.64256,0.396875 -0.58249,0.582488 -0.77903,0.486156 -0.58504,-0.286753 0.12941,-0.515628 0.0877,-0.634492 -0.16976,-0.483684 -0.18773,0.109966 -0.12131,-0.05115 0.14761,-0.358035 0.47419,-0.541144 0.38861,-1.285269 -0.11222,-0.975741 -0.13649,0.08436 -0.31455,-0.0196 -0.39568,-0.231029 -0.0921,-0.24003 -0.36468,-0.333282 -0.72574,-0.248287 -0.52126,0.122711 -0.53524,0.100285 -0.14192,-0.227677 0.23997,-0.200086 0.51589,-0.631685 0.61315,-0.959107 0.1433,-0.482417 0.0731,-0.595312 -0.37016,-0.595312 -0.66811,0 -0.68694,-0.196996 -0.084,-0.878681 0.44974,-0.508453 0.44296,-0.5186 -0.23625,-0.353632 -0.6873,0.166934 -0.69548,0.153017 -0.47764,-0.81285 0.25586,-1.134478 0.16072,-1.339398 -0.40419,-0.870561 -0.34666,0.287702 -0.40327,0.218712 -0.40327,-0.491464 0,-0.454379 -0.1318,-0.826146 -0.29289,-0.826146 -0.16109,0 -0.22993,-0.164086 -0.15297,-0.364632 0.077,-0.200549 0.0295,-0.475052 -0.10544,-0.610003 -0.15077,-0.150767 -0.0469,-0.458364 0.26932,-0.797827 0.55678,-0.59763 0.46776,-0.873371 -0.28196,-0.873371 -0.41405,0 -0.45885,-0.180112 -0.34553,-1.389062 0.20082,-2.142559 0.68419,-5.021387 0.96623,-5.754688 0.13993,-0.363802 0.54189,-1.646571 0.89325,-2.850597 0.92982,-3.186253 1.65034,-4.202195 4.61498,-6.507126 2.29401,-1.783543 2.70771,-2.001631 4.37743,-2.307677 0.86183,-0.157964 1.78165,-0.479558 2.04405,-0.71465 0.55709,-0.499113 0.87696,-0.504167 7.28306,-0.115105 2.66736,0.161999 4.98908,0.406556 5.15938,0.543462 0.17029,0.136906 0.72635,0.337005 1.23567,0.444662 0.50932,0.107659 1.24208,0.419063 1.62834,0.692012 0.38627,0.272947 0.80299,0.499441 0.92605,0.50332 0.12305,0.0039 0.92987,0.540242 1.79293,1.191921 2.45546,1.854076 4.11182,4.601525 4.93978,8.193736 0.1677,0.727604 0.47916,1.7531 0.69213,2.27888 0.21297,0.525778 0.42795,1.299684 0.47774,1.719792 0.0498,0.420105 0.23529,1.763697 0.41224,2.985757 0.24629,1.70098 0.24908,2.338253 0.0119,2.718072 -0.23146,0.370626 -0.23447,0.63699 -0.0119,1.052868 0.22615,0.422547 0.21943,0.605247 -0.0279,0.758073 -0.17918,0.110744 -0.24342,0.334643 -0.14274,0.497549 0.22917,0.37079 -0.40309,1.034037 -0.84523,0.886659 -0.1806,-0.0602 -0.32836,0.01953 -0.32836,0.177178 0,0.157647 0.10555,0.286631 0.23455,0.286631 0.12901,0 0.28721,0.358738 0.35156,0.797197 0.0993,0.676556 0.0438,0.773957 -0.36685,0.643629 -0.55718,-0.176845 -0.63605,0.15209 -0.15312,0.638601 0.26518,0.267139 0.23896,0.298235 -0.13229,0.1569 -0.48924,-0.186259 -0.653,0.260861 -0.19843,0.541798 0.14552,0.08994 0.26458,0.282583 0.26458,0.428104 0,0.145521 -0.12583,0.186817 -0.27962,0.09177 -0.15379,-0.09505 -0.56065,-0.102283 -0.90412,-0.01609 -0.53206,0.133538 -0.61327,0.298191 -0.54866,1.112428 0.0417,0.525631 0.18798,1.031853 0.32506,1.124942 0.38708,0.262869 0.29241,1.321549 -0.10457,1.169217 -0.18709,-0.07179 -0.34017,-0.296383 -0.34017,-0.499096 0,-0.202711 -0.17157,-0.368568 -0.38126,-0.368568 -0.71,0 -0.69169,0.494067 0.0448,1.208776 0.57757,0.560483 0.62093,0.669904 0.20416,0.51516 -1.4442,-0.53621 -1.59517,-0.452494 -0.70235,0.38945 0.9994,0.942438 0.96316,1.331389 -0.0615,0.660014 -0.6247,-0.409316 -0.71085,-0.410477 -1.10641,-0.01492 -0.40502,0.405021 -0.4546,2.105387 -0.0968,3.320658 0.0733,0.249031 -0.10336,0.423852 -0.48748,0.482359 -0.39043,0.05947 -0.57667,0.247918 -0.52916,0.535451 0.0539,0.326427 -0.15395,0.46559 -0.7866,0.526589 -0.56333,0.05431 -0.85989,0.223896 -0.85989,0.491705 0,0.30897 -0.16936,0.366289 -0.69353,0.23473 -0.51947,-0.130379 -0.78476,-0.0438 -1.05707,0.344967 -0.19994,0.285467 -0.57247,0.47906 -0.82782,0.430207 -0.25536,-0.04885 -0.54002,-0.09793 -0.63258,-0.109067 -0.0926,-0.01114 -0.37063,-0.446632 -0.61792,-0.967771 -0.58372,-1.230083 -0.75065,-1.048176 -0.27182,0.296198 0.43775,1.229035 0.50243,2.070902 0.142,1.848141 -0.14002,-0.08653 -0.36741,0.23386 -0.50531,0.711988 -0.19159,0.664282 -0.25636,0.728912 -0.27459,0.274014 -0.0131,-0.327422 -0.13464,-0.595313 -0.27004,-0.595313 -0.1354,0 -0.29778,-0.267891 -0.36085,-0.595312 -0.10042,-0.521404 -0.11913,-0.506918 -0.15069,0.116676 -0.0198,0.391593 0.0934,0.791985 0.2516,0.889756 0.1582,0.09777 0.22109,0.432221 0.13975,0.74322 -0.21958,0.839632 0.11817,2.679936 0.41122,2.240584 0.16471,-0.246948 0.22036,-0.154524 0.18618,0.309243 -0.0943,1.280025 0.0368,1.46444 1.38038,1.941645 1.29953,0.461552 1.36541,0.461523 1.87631,-7.94e-4 0.80074,-0.724657 1.49083,-2.33998 1.339,-3.134238 -0.0738,-0.386028 -0.39432,-0.820399 -0.71227,-0.965269 -0.45378,-0.206756 -0.59142,-0.520772 -0.64005,-1.460172 -0.0824,-1.590948 0.33725,-1.417797 1.37244,0.56633 0.44635,0.855517 0.85488,1.425498 0.90784,1.266621 0.053,-0.158877 -0.21527,-0.903705 -0.59607,-1.655172 -0.61585,-1.215322 -0.63944,-1.356408 -0.21351,-1.276729 0.2986,0.05586 0.62879,0.540518 0.87715,1.287495 0.42012,1.263536 1.3522,2.636575 1.78983,2.636575 0.14294,0 0.33161,0.625078 0.41928,1.389063 0.0877,0.763984 0.26985,2.043906 0.40486,2.844271 0.3175,1.882145 -0.25009,4.378603 -1.18002,5.190159 -0.35289,0.307972 -0.64162,0.694926 -0.64162,0.859896 0,0.16497 -0.17859,0.299945 -0.39687,0.299945 -0.21829,0 -0.39688,0.119062 -0.39688,0.264583 0,0.145521 -0.16586,0.264583 -0.36857,0.264583 -0.20271,0 -0.4371,0.178594 -0.52086,0.396876 -0.0838,0.218281 -0.38027,0.396875 -0.65891,0.396875 -0.27863,0 -0.56624,0.228036 -0.63913,0.506751 -0.0729,0.278712 -0.41307,0.546602 -0.75598,0.595312 -0.3701,0.05257 -0.76759,0.390187 -0.97811,0.830771 -0.29754,0.622694 -0.41922,0.688615 -0.75569,0.409374 -0.32984,-0.273741 -0.44896,-0.247208 -0.67093,0.149431 -0.2185,0.39043 -0.31362,0.413242 -0.49951,0.119793 -0.16729,-0.264081 -0.23072,-0.272698 -0.23367,-0.03175 -0.009,0.719191 -0.51203,1.389063 -1.04349,1.389063 -0.15592,0 -0.28348,0.119062 -0.28348,0.264583 0,0.430522 -0.50967,0.30358 -1.13554,-0.282824 l -0.58425,-0.547407 -0.0829,0.811991 c -0.103,1.00875 -0.5056,1.053584 -0.75781,0.08439 -0.16622,-0.638778 -0.2273,-0.533802 -0.50028,0.859896 -0.17869,0.912257 -0.32538,1.278014 -0.34487,0.859896 -0.0212,-0.455293 -0.18246,-0.727605 -0.4308,-0.727605 -0.22591,0 -0.41036,-0.256447 -0.42818,-0.595312 -0.0245,-0.466662 -0.0698,-0.423778 -0.20962,0.198437 l -0.17831,0.79375 -0.22881,-0.926041 c -0.21597,-0.874057 -0.23881,-0.825839 -0.4068,0.858946 -0.20079,2.013799 -0.38657,2.404972 -0.64782,1.364064 z m -4.01506,-3.942802 c 0.12966,-0.579681 0.10512,-0.686716 -0.091,-0.396875 -0.14771,0.218281 -0.27039,0.625078 -0.27262,0.903994 -0.005,0.67692 0.14603,0.465735 0.36364,-0.507119 z m 5.71772,0.79375 c 0,-0.07276 -0.0595,-0.132292 -0.13229,-0.132292 -0.0728,0 -0.13229,0.05953 -0.13229,0.132292 0,0.07276 0.0595,0.132291 0.13229,0.132291 0.0728,0 0.13229,-0.05953 0.13229,-0.132291 z m 5.20436,-7.84125 c 0.4613,-0.140587 0.99708,-0.447305 1.19063,-0.681602 0.3108,-0.37625 0.27465,-0.407066 -0.30957,-0.263935 -0.3638,0.08913 -1.46513,0.358963 -2.44739,0.599623 -0.98227,0.240662 -1.78594,0.529492 -1.78594,0.641845 0,0.249483 2.19982,0.05529 3.35227,-0.295931 z m -11.37797,-0.669515 c -0.097,-0.09701 -0.25576,-0.09701 -0.35278,0 -0.097,0.09701 -0.0176,0.176389 0.17639,0.176389 0.19403,0 0.27341,-0.07937 0.17639,-0.176389 z m -2.55764,-1.014236 c 0,-0.07276 -0.0595,-0.132291 -0.13229,-0.132291 -0.0728,0 -0.13229,0.05953 -0.13229,0.132291 0,0.07276 0.0595,0.132292 0.13229,0.132292 0.0728,0 0.13229,-0.05953 0.13229,-0.132292 z m -1.17131,-0.534847 c -0.28041,-0.212151 -0.57462,-0.320953 -0.65379,-0.241781 -0.16608,0.166076 0.50591,0.638354 0.89906,0.63187 0.14552,-0.0024 0.0352,-0.177941 -0.24527,-0.390089 z m 10.69631,-0.126611 c 0,-0.145521 -0.11203,-0.264583 -0.24896,-0.264583 -0.13694,0 -0.32256,0.119062 -0.41249,0.264583 -0.0899,0.145521 0.0221,0.264583 0.24896,0.264583 0.22687,0 0.41249,-0.119062 0.41249,-0.264583 z m -3.175,-0.132292 c 0,-0.07276 -0.0595,-0.132291 -0.13229,-0.132291 -0.0728,0 -0.13229,0.05953 -0.13229,0.132291 0,0.07276 0.0595,0.132292 0.13229,0.132292 0.0728,0 0.13229,-0.05953 0.13229,-0.132292 z m -8.46666,-0.264583 c 0,-0.07276 -0.0595,-0.132292 -0.13229,-0.132292 -0.0728,0 -0.1323,0.05953 -0.1323,0.132292 0,0.07276 0.0595,0.132292 0.1323,0.132292 0.0728,0 0.13229,-0.05953 0.13229,-0.132292 z m -1.19063,-0.785548 c -0.43656,-0.357846 -0.91281,-0.65432 -1.05833,-0.658831 -0.14552,-0.0045 0.0926,0.284583 0.52917,0.642427 0.43656,0.357846 0.91281,0.65432 1.05833,0.658831 0.14552,0.0045 -0.0926,-0.284583 -0.52917,-0.642427 z m 15.9191,0.212283 c -0.097,-0.09701 -0.17639,-0.01764 -0.17639,0.17639 0,0.194027 0.0794,0.273402 0.17639,0.17639 0.097,-0.09701 0.097,-0.255765 0,-0.35278 z m -2.71309,-0.777375 c 0.5385,-0.206645 0.27612,-0.633735 -0.38933,-0.633735 -0.28245,0 -0.51355,0.178594 -0.51355,0.396875 0,0.426752 0.24235,0.490328 0.90288,0.23686 z m 0.68462,-0.766027 c 0,-0.07276 -0.0595,-0.132291 -0.13229,-0.132291 -0.0728,0 -0.1323,0.05953 -0.1323,0.132291 0,0.07276 0.0595,0.132292 0.1323,0.132292 0.0728,0 0.13229,-0.05953 0.13229,-0.132292 z m 1.27833,-3.002497 c 0.0661,-1.237546 0.004,-1.62402 -0.25395,-1.568754 -0.41946,0.09003 -2.08272,1.999708 -2.08272,2.391278 0,0.598479 0.91552,1.171927 1.5875,0.994354 0.60237,-0.159176 0.6693,-0.321506 0.74917,-1.816878 z m -12.92349,-2.421461 c 0,-0.21961 -0.23479,-0.04234 -0.52568,0.396875 -0.28912,0.436562 -0.52567,0.972344 -0.52567,1.190625 0,0.219609 0.23479,0.04234 0.52567,-0.396875 0.28913,-0.436563 0.52568,-0.972344 0.52568,-1.190625 z m 14.19169,-1.498883 c -0.28763,-0.936226 -0.39795,-1.09473 -0.41144,-0.591119 -0.0218,0.814922 0.55905,2.606521 0.70406,2.171515 0.0552,-0.165635 -0.0765,-0.876814 -0.29262,-1.580396 z m -13.52674,0.175966 c 0.22576,-0.436562 0.31445,-0.79375 0.19709,-0.79375 -0.11735,0 -0.34819,0.357188 -0.51298,0.79375 -0.16478,0.436563 -0.25347,0.79375 -0.19709,0.79375 0.0564,0 0.28722,-0.357187 0.51298,-0.79375 z m -7.80521,0.396875 c 0,-0.07276 -0.0595,-0.132292 -0.13229,-0.132292 -0.0728,0 -0.13229,0.05953 -0.13229,0.132292 0,0.07276 0.0595,0.132292 0.13229,0.132292 0.0728,0 0.13229,-0.05953 0.13229,-0.132292 z m 8.08552,-3.512053 c -0.0746,-0.07456 -0.21564,0.08984 -0.31351,0.365329 -0.0979,0.275489 -0.3965,0.744739 -0.66361,1.042776 -0.26712,0.29804 -0.55787,0.952884 -0.6461,1.455208 -0.13128,0.747337 0.014,0.582459 0.79917,-0.907214 0.52779,-1.001294 0.89861,-1.881539 0.82405,-1.956099 z m 3.00433,2.45372 c 0.008,-0.145521 -0.10087,-0.08599 -0.24193,0.132291 -0.14107,0.218282 -0.24994,0.575469 -0.24194,0.79375 0.0153,0.419061 0.45632,-0.424862 0.48387,-0.926041 z M 122.1684,70.7343 c 1.11581,-2.395162 1.13438,-2.447396 0.87035,-2.447396 -0.27468,0 -1.00743,1.306709 -1.32663,2.365793 -0.11221,0.372304 -0.28869,0.885275 -0.39218,1.139937 -0.10348,0.254661 -0.11438,0.46302 -0.0242,0.46302 0.0902,0 0.48287,-0.684609 0.87268,-1.521354 z m 16.21792,1.124479 c 0,-0.07276 -0.0595,-0.132291 -0.13229,-0.132291 -0.0728,0 -0.1323,0.05953 -0.1323,0.132291 0,0.07276 0.0595,0.132292 0.1323,0.132292 0.0728,0 0.13229,-0.05953 0.13229,-0.132292 z m -2.72968,-0.711067 c -0.0845,-0.211066 -0.14716,-0.148373 -0.15985,0.159853 -0.0115,0.278913 0.051,0.435184 0.13896,0.347266 0.0879,-0.08792 0.0973,-0.316125 0.0209,-0.507119 z m -7.05991,-2.000581 c 0,-0.07718 -0.29962,0.301199 -0.66582,0.840835 -0.36621,0.539636 -0.59032,1.103342 -0.49802,1.252681 0.13785,0.223043 1.16384,-1.62251 1.16384,-2.093516 z m -5.11527,1.08005 c -0.097,-0.09701 -0.17639,-0.01764 -0.17639,0.17639 0,0.194027 0.0794,0.273402 0.17639,0.17639 0.097,-0.09701 0.097,-0.255765 0,-0.35278 z m 3.88861,-0.873882 c -0.178,-0.178001 -0.61833,0.577679 -0.61199,1.050272 0.003,0.230087 0.15907,0.119062 0.37117,-0.264184 0.20122,-0.363582 0.30959,-0.717322 0.24082,-0.786088 z m -0.50393,-0.531788 c 0.29842,-0.335151 0.29932,-0.456253 0.005,-0.725406 -0.28609,-0.261993 -0.38758,-0.164753 -0.53671,0.51421 -0.17271,0.786344 -0.20609,0.806955 -0.54851,0.338667 -0.30494,-0.417029 -0.36462,-0.428948 -0.36462,-0.07283 0,0.234193 -0.0818,0.643903 -0.18182,0.910465 -0.16007,0.426643 -0.12839,0.44119 0.26458,0.121537 0.38888,-0.316334 0.44857,-0.299284 0.46318,0.132291 0.0131,0.387779 0.0736,0.352888 0.27852,-0.160602 0.14395,-0.36081 0.42294,-0.83706 0.61995,-1.058333 z m 10.99101,1.185185 c 0,-0.07276 -0.0595,-0.132292 -0.13229,-0.132292 -0.0728,0 -0.13229,0.05953 -0.13229,0.132292 0,0.07276 0.0595,0.132292 0.13229,0.132292 0.0728,0 0.13229,-0.05953 0.13229,-0.132292 z m 6.47738,-0.846307 c -0.52888,-1.265796 -0.72267,-1.445638 -0.5537,-0.51386 0.12184,0.671917 0.59419,1.492459 0.85914,1.492459 0.0569,0 -0.0805,-0.44037 -0.30544,-0.978599 z m -3.57101,0.515578 c -0.002,-0.109141 -0.11947,-0.377031 -0.26054,-0.595313 -0.20739,-0.320929 -0.25725,-0.282956 -0.26053,0.198438 -0.002,0.327422 0.11501,0.595312 0.26053,0.595312 0.14553,0 0.26276,-0.0893 0.26054,-0.198437 z M 124.3553,68.419196 c 0,-0.145521 -0.11542,-0.08599 -0.25648,0.132292 -0.14107,0.218281 -0.25648,0.515937 -0.25648,0.661458 0,0.145521 0.11541,0.08599 0.25648,-0.132292 0.14106,-0.218281 0.25648,-0.515937 0.25648,-0.661458 z m -5.81273,0.529167 c 0,-0.07276 -0.0595,-0.132292 -0.13229,-0.132292 -0.0728,0 -0.1323,0.05953 -0.1323,0.132292 0,0.07276 0.0595,0.132291 0.1323,0.132291 0.0728,0 0.13229,-0.05953 0.13229,-0.132291 z m 1.05833,-0.990836 c 0,-0.147592 -0.17549,-0.118941 -0.39687,0.06479 -0.21828,0.181157 -0.39688,0.44844 -0.39688,0.59396 0,0.147593 0.17549,0.118941 0.39688,-0.06479 0.21828,-0.181158 0.39687,-0.44844 0.39687,-0.59396 z m 2.08161,-0.0675 c 0.30051,-0.509323 0.48515,-0.926041 0.41032,-0.926041 -0.19456,0 -1.41523,1.416301 -1.42523,1.653645 -0.0211,0.499947 0.51914,0.112665 1.01491,-0.727604 z m 0.916,0.07027 c 0.14575,-0.578315 0.13755,-0.58134 -0.23264,-0.08584 -0.42497,0.568801 -0.51317,1.052854 -0.15107,0.829064 0.12795,-0.07908 0.30062,-0.41353 0.38371,-0.74322 z m 20.20188,0.276998 c -0.0845,-0.211066 -0.14716,-0.148373 -0.15985,0.159853 -0.0115,0.278913 0.051,0.435184 0.13896,0.347266 0.0879,-0.08792 0.0973,-0.316124 0.0209,-0.507119 z m -21.508,-0.898073 c 0.24837,-0.647245 0.19452,-0.732763 -0.23628,-0.375234 -0.43984,0.365032 -0.52658,0.79375 -0.1606,0.79375 0.12995,0 0.30855,-0.188331 0.39688,-0.418516 z m 0.68976,-0.772109 c 0,-0.07276 -0.0595,-0.132292 -0.13229,-0.132292 -0.0728,0 -0.13229,0.05953 -0.13229,0.132292 0,0.07276 0.0595,0.132291 0.13229,0.132291 0.0728,0 0.13229,-0.05953 0.13229,-0.132291 z m -2.91042,-4.926021 c 0,-0.145521 -0.11906,-0.191 -0.26458,-0.101063 -0.14552,0.08994 -0.26458,0.282583 -0.26458,0.428104 0,0.145521 0.11906,0.191 0.26458,0.101063 0.14552,-0.08994 0.26458,-0.282583 0.26458,-0.428104 z m 27.2556,-3.681421 c 0.39489,-0.953336 0.10861,-1.405665 -0.413,-0.65256 -0.20142,0.290814 -0.48934,0.672555 -0.63982,0.848312 -0.394,0.460177 -0.34009,0.606481 0.22346,0.606481 0.30401,0 0.62612,-0.311576 0.82936,-0.802233 z m -1.65581,0.210961 c -0.0599,-0.179679 -0.44527,-0.352542 -0.85639,-0.384144 -0.41112,-0.0316 -0.92466,-0.125439 -1.1412,-0.208534 -0.31876,-0.122319 -0.33253,-0.07737 -0.0723,0.236146 0.17675,0.212974 0.64008,0.435986 1.02961,0.495581 0.38953,0.0596 0.80746,0.126193 0.92873,0.147997 0.12127,0.0218 0.17148,-0.107368 0.11159,-0.287046 z M 124.3634,57.851478 c 0,-0.06417 -0.11906,-0.190262 -0.26458,-0.280199 -0.14552,-0.08994 -0.26459,-0.03743 -0.26459,0.116676 0,0.154109 0.11907,0.280199 0.26459,0.280199 0.14552,0 0.26458,-0.0525 0.26458,-0.116676 z m 21.02308,-0.430773 c -0.0837,-0.135464 -0.33837,-0.246301 -0.56588,-0.246301 -0.33634,0 -0.35254,0.07364 -0.0867,0.393962 0.34162,0.41162 0.91767,0.281273 0.65258,-0.147661 z m -23.27204,0.01828 c -0.0899,-0.145521 -0.33509,-0.264583 -0.54478,-0.264583 -0.20969,0 -0.38126,0.119062 -0.38126,0.264583 0,0.145521 0.24515,0.264584 0.54478,0.264584 0.29963,0 0.4712,-0.119063 0.38126,-0.264584 z m 3.57188,-0.264583 c 0,-0.145521 -0.16867,-0.264583 -0.37483,-0.264583 -0.20615,0 -0.42939,-0.148829 -0.49609,-0.33073 -0.0955,-0.260363 -0.19414,-0.26208 -0.46378,-0.0081 -0.27674,0.260712 -0.21959,0.371789 0.29766,0.57854 0.84485,0.337698 1.03704,0.342302 1.03704,0.02484 z m 18.52083,-0.132292 c 0,-0.07276 -0.0595,-0.132291 -0.13229,-0.132291 -0.0728,0 -0.13229,0.05953 -0.13229,0.132291 0,0.07276 0.0595,0.132292 0.13229,0.132292 0.0728,0 0.13229,-0.05953 0.13229,-0.132292 z m -27.51667,-0.264583 c 0,-0.07276 -0.0595,-0.132292 -0.13229,-0.132292 -0.0728,0 -0.13229,0.05953 -0.13229,0.132292 0,0.07276 0.0595,0.132292 0.13229,0.132292 0.0728,0 0.13229,-0.05953 0.13229,-0.132292 z m 6.74688,-0.132292 c -0.0899,-0.145521 -0.34211,-0.264583 -0.5604,-0.264583 -0.21828,0 -0.32329,0.119062 -0.23335,0.264583 0.0899,0.145521 0.34211,0.264584 0.5604,0.264584 0.21828,0 0.32329,-0.119063 0.23335,-0.264584 z m -1.45521,-0.246753 c 0,-0.135715 -0.23985,-0.322881 -0.53301,-0.415925 -0.70311,-0.22316 -0.42838,-0.639654 0.33484,-0.507608 0.32727,0.05662 0.15281,-0.04506 -0.38771,-0.225949 -0.54051,-0.180896 -1.15585,-0.565634 -1.36743,-0.85498 -0.21157,-0.289343 -0.47321,-0.437539 -0.58143,-0.329322 -0.10821,0.108215 -0.58626,-0.100332 -1.06231,-0.463436 -1.03809,-0.791787 -1.16545,-0.8094 -1.16545,-0.161173 0,0.312372 0.3544,0.667194 0.94753,0.94865 0.52114,0.247298 0.87936,0.5178 0.79605,0.601117 -0.25725,0.257244 0.40931,0.861629 0.95027,0.861629 0.28181,0 0.44437,0.110051 0.36123,0.24456 -0.0831,0.134506 0.0587,0.299289 0.31512,0.366183 0.82558,0.215353 1.3923,0.189405 1.3923,-0.06375 z m 1.83004,-0.381836 c -0.31028,-0.279829 -1.30087,-0.433184 -1.30087,-0.201393 0,0.145206 0.26789,0.306798 0.59531,0.359093 0.59943,0.09574 0.90969,0.0264 0.70556,-0.1577 z m -5.00504,-12.73287 c 0,-0.07276 -0.0595,-0.132291 -0.13229,-0.132291 -0.0728,0 -0.13229,0.05953 -0.13229,0.132291 0,0.07276 0.0595,0.132292 0.13229,0.132292 0.0728,0 0.13229,-0.05953 0.13229,-0.132292 z m 0,-0.79375 c 0,-0.07276 -0.0595,-0.132291 -0.13229,-0.132291 -0.0728,0 -0.13229,0.05953 -0.13229,0.132291 0,0.07276 0.0595,0.132292 0.13229,0.132292 0.0728,0 0.13229,-0.05953 0.13229,-0.132292 z m 5.99722,-0.573264 c -0.097,-0.09701 -0.17639,-0.01764 -0.17639,0.176389 0,0.194027 0.0794,0.273402 0.17639,0.17639 0.097,-0.09701 0.097,-0.255765 0,-0.352779 z m -3.61597,-0.220486 c 0,-0.07276 -0.0595,-0.132291 -0.13229,-0.132291 -0.0728,0 -0.13229,0.05953 -0.13229,0.132291 0,0.07276 0.0595,0.132292 0.13229,0.132292 0.0728,0 0.13229,-0.05953 0.13229,-0.132292 z m 8.99583,-0.529166 c 0,-0.07276 -0.0595,-0.132292 -0.13229,-0.132292 -0.0728,0 -0.13229,0.05953 -0.13229,0.132292 0,0.07276 0.0595,0.132291 0.13229,0.132291 0.0728,0 0.13229,-0.05953 0.13229,-0.132291 z m -2.46944,-0.573265 c -0.097,-0.09701 -0.17639,-0.01764 -0.17639,0.17639 0,0.194027 0.0794,0.273402 0.17639,0.17639 0.097,-0.09701 0.097,-0.255765 0,-0.35278 z m -4.40972,-0.485069 c 0,-0.07276 -0.0595,-0.132291 -0.13229,-0.132291 -0.0728,0 -0.1323,0.05953 -0.1323,0.132291 0,0.07276 0.0595,0.132292 0.1323,0.132292 0.0728,0 0.13229,-0.05953 0.13229,-0.132292 z m 5.55625,0 c 0,-0.07276 -0.0595,-0.132291 -0.13229,-0.132291 -0.0728,0 -0.1323,0.05953 -0.1323,0.132291 0,0.07276 0.0595,0.132292 0.1323,0.132292 0.0728,0 0.13229,-0.05953 0.13229,-0.132292 z m 1.05833,-0.248967 c 0,-0.06417 -0.11906,-0.190262 -0.26458,-0.280199 -0.14552,-0.08994 -0.26459,-0.03743 -0.26459,0.116676 0,0.154109 0.11907,0.280199 0.26459,0.280199 0.14552,0 0.26458,-0.0525 0.26458,-0.116676 z m -5.55625,-0.264584 c 0,-0.06417 -0.13746,-0.201631 -0.30546,-0.305464 -0.18926,-0.116967 -0.23365,-0.07258 -0.11668,0.116676 0.1885,0.304999 0.42214,0.409488 0.42214,0.188788 z m 3.70417,-0.01561 c 0,-0.07276 -0.0595,-0.132292 -0.13229,-0.132292 -0.0728,0 -0.1323,0.05953 -0.1323,0.132292 0,0.07276 0.0595,0.132292 0.1323,0.132292 0.0728,0 0.13229,-0.05953 0.13229,-0.132292 z m 1.60839,55.275871 c 0.0127,-0.308227 0.0754,-0.37092 0.15985,-0.159854 0.0764,0.190995 0.067,0.419201 -0.0209,0.507119 -0.0879,0.08792 -0.15045,-0.06835 -0.13896,-0.347265 z m -3.19589,-0.507125 c 0,-0.07276 0.0595,-0.132291 0.13229,-0.132291 0.0728,0 0.13229,0.05953 0.13229,0.132291 0,0.07276 -0.0595,0.132292 -0.13229,0.132292 -0.0728,0 -0.13229,-0.05953 -0.13229,-0.132292 z m 1.08098,-0.132291 c -0.008,-0.218282 0.10087,-0.575469 0.24193,-0.79375 0.31256,-0.483651 0.31256,-0.06591 0,0.661458 -0.14993,0.348917 -0.23234,0.39398 -0.24193,0.132292 z m 11.35443,-19.050001 c 0,-0.194027 0.0794,-0.273402 0.17639,-0.17639 0.097,0.09701 0.097,0.255765 0,0.35278 -0.097,0.09701 -0.17639,0.01764 -0.17639,-0.17639 z M 92.877978,59.973878 V 47.158313 l 1.38906,-0.141422 c 0.76399,-0.07778 2.44647,-0.212889 3.73886,-0.300236 2.197902,-0.148553 2.336912,-0.127815 2.150682,0.32082 -0.830702,2.001208 -1.086952,2.992941 -0.989352,3.828987 0.10649,0.912183 0.0328,1.019146 -1.43485,2.083988 -1.85971,1.349253 -3.37495,2.750283 -4.13906,3.827079 -0.38383,0.540903 -0.0607,0.338172 1.01435,-0.636418 1.98881,-1.802951 4.23568,-3.305464 4.60327,-3.078279 0.49122,0.303588 0.30535,1.087072 -0.41524,1.750348 -1.00399,0.924134 -2.78437,3.201514 -2.62637,3.359518 0.0739,0.07387 0.77444,-0.537244 1.55681,-1.358035 0.78238,-0.820788 1.54668,-1.492342 1.69845,-1.492342 0.55078,0 0.594462,0.880162 0.0837,1.687393 -0.83509,1.319906 -2.6616,5.469231 -2.6616,6.046412 0,0.123822 0.62508,-0.999583 1.38906,-2.496458 1.58498,-3.105441 2.093572,-3.454503 2.745462,-1.884272 0.23119,0.556903 0.58613,1.107763 0.78875,1.224134 0.62604,0.359556 0.40801,1.30555 -0.70541,3.060698 -0.58783,0.926629 -1.0157,1.73786 -0.95083,1.802738 0.0649,0.06488 0.63401,-0.66694 1.26473,-1.626264 1.19927,-1.82409 1.95735,-2.172906 1.94259,-0.893839 -0.007,0.636072 0.0337,0.661019 0.54075,0.32879 0.48215,-0.315921 0.59446,-0.295992 0.92624,0.164327 0.20766,0.288113 0.52988,0.523841 0.71603,0.523841 0.592,0 0.37276,0.382987 -0.98445,1.719791 -0.7276,0.716664 -1.32292,1.378363 -1.32292,1.470441 0,0.09208 0.48127,-0.290399 1.06948,-0.84995 0.58821,-0.559552 1.18058,-1.017366 1.31637,-1.017366 0.27055,0 -0.12506,1.227331 -0.56742,1.760353 -0.1472,0.177366 -0.34868,0.597985 -0.44772,0.934712 -0.36595,1.244137 -2.05152,3.895008 -2.73241,4.297222 -0.52151,0.308057 -1.16331,0.382874 -2.489352,0.290185 -1.1939,-0.08345 -2.05845,-0.0037 -2.60583,0.240321 -0.45054,0.200864 -1.50377,0.436917 -2.34052,0.52456 l -1.52135,0.159353 z m 7.672922,7.916151 c 0,-0.07276 -0.0595,-0.132291 -0.13229,-0.132291 -0.0728,0 -0.13229,0.05953 -0.13229,0.132291 0,0.07276 0.0595,0.132292 0.13229,0.132292 0.0728,0 0.13229,-0.05953 0.13229,-0.132292 z m 1.05833,-2.116666 c 0,-0.07276 -0.0595,-0.132292 -0.13229,-0.132292 -0.0728,0 -0.13229,0.05953 -0.13229,0.132292 0,0.07276 0.0595,0.132291 0.13229,0.132291 0.0728,0 0.13229,-0.05953 0.13229,-0.132291 z m 0.92605,-1.455209 c 0.0899,-0.145521 0.10399,-0.264583 0.0312,-0.264583 -0.0728,0 -0.20588,0.119062 -0.29582,0.264583 -0.0899,0.145521 -0.10399,0.264583 -0.0312,0.264583 0.0728,0 0.20588,-0.119062 0.29582,-0.264583 z m -5.776742,-0.705556 c -0.097,-0.09701 -0.17639,-0.01764 -0.17639,0.176389 0,0.194027 0.0794,0.273402 0.17639,0.17639 0.097,-0.09702 0.097,-0.255765 0,-0.352779 z m 6.305902,-0.08819 c 0.0899,-0.145521 0.10399,-0.264583 0.0312,-0.264583 -0.0728,0 -0.20587,0.119062 -0.29581,0.264583 -0.0899,0.145521 -0.10399,0.264583 -0.0312,0.264583 0.0728,0 0.20588,-0.119062 0.29581,-0.264583 z m -7.143752,-4.233333 c 0.0899,-0.145521 0.10399,-0.264584 0.0312,-0.264584 -0.0728,0 -0.20588,0.119063 -0.29581,0.264584 -0.0899,0.14552 -0.10399,0.264583 -0.0312,0.264583 0.0728,0 0.20587,-0.119063 0.29581,-0.264583 z m 0.39688,-0.661459 c 0,-0.07276 -0.0595,-0.132291 -0.1323,-0.132291 -0.0728,0 -0.13229,0.05953 -0.13229,0.132291 0,0.07276 0.0595,0.132292 0.13229,0.132292 0.0728,0 0.1323,-0.05953 0.1323,-0.132292 z m 54.359222,11.968679 c -0.22172,-0.577778 -0.0572,-1.318252 0.32093,-1.44413 0.51594,-0.171773 0.72204,0.993944 0.2578,1.458179 -0.37607,0.376074 -0.42953,0.374775 -0.57873,-0.01405 z m -3.82381,-2.972845 c 0,-0.07276 0.0595,-0.132292 0.1323,-0.132292 0.0728,0 0.13229,0.05953 0.13229,0.132292 0,0.07276 -0.0595,0.132292 -0.13229,0.132292 -0.0728,0 -0.1323,-0.05953 -0.1323,-0.132292 z m 0.38034,-0.848085 c -0.30335,-0.303347 -0.34997,-0.484952 -0.14229,-0.55418 0.34448,-0.114827 1.08487,0.412858 1.08487,0.773202 0,0.373856 -0.45556,0.267999 -0.94258,-0.219022 z m -30.27825,-1.400874 c 0,-0.14552 0.18562,-0.264583 0.41249,-0.264583 0.22687,0 0.3389,0.119063 0.24897,0.264583 -0.0899,0.145521 -0.27556,0.264584 -0.41249,0.264584 -0.13694,0 -0.24897,-0.119063 -0.24897,-0.264584 z m -1.85209,-0.631028 c 0,-0.05602 0.30637,-0.302604 0.68083,-0.547955 0.66513,-0.435808 0.67406,-0.433461 0.38756,0.101862 -0.24224,0.452628 -1.06839,0.797576 -1.06839,0.446093 z m 2.11667,-0.222703 c 0,-0.482319 0.46906,-0.88207 0.72946,-0.621673 0.0908,0.0908 -0.0362,0.366358 -0.28219,0.61236 -0.41247,0.41247 -0.44727,0.413195 -0.44727,0.0093 z M 114.8384,63.6567 c 0.18116,-0.218281 0.44844,-0.396875 0.59396,-0.396875 0.14759,0 0.11894,0.175487 -0.0648,0.396875 -0.18116,0.218281 -0.44844,0.396875 -0.59396,0.396875 -0.14759,0 -0.11894,-0.175488 0.0648,-0.396875 z m 1.65352,-0.463021 c 0.0606,-0.181901 0.33459,-0.374227 0.60894,-0.427392 0.43156,-0.08363 0.451,-0.03904 0.14412,0.330729 -0.41968,0.505688 -0.91021,0.568651 -0.75306,0.09666 z m 33.90767,-0.503902 c -0.11696,-0.189256 -0.0726,-0.233643 0.11668,-0.116676 0.16801,0.103833 0.30546,0.241292 0.30546,0.305464 0,0.2207 -0.23364,0.116211 -0.42214,-0.188788 z m -36.00082,-0.651881 c 0.41305,-0.223843 0.82632,-0.331664 0.91838,-0.239605 0.23557,0.235575 -0.50705,0.660961 -1.14021,0.653135 -0.43633,-0.0054 -0.39741,-0.07794 0.22183,-0.41353 z m 1.23338,-0.76245 c 0,-0.07276 0.0595,-0.132292 0.13229,-0.132292 0.0728,0 0.13229,0.05953 0.13229,0.132292 0,0.07276 -0.0595,0.132291 -0.13229,0.132291 -0.0728,0 -0.13229,-0.05953 -0.13229,-0.132291 z m 35.18958,0 c 0,-0.07276 0.0595,-0.132292 0.1323,-0.132292 0.0728,0 0.13229,0.05953 0.13229,0.132292 0,0.07276 -0.0595,0.132291 -0.13229,0.132291 -0.0728,0 -0.1323,-0.05953 -0.1323,-0.132291 z m -36.11562,-0.396875 c 0.0899,-0.145521 0.21603,-0.264584 0.2802,-0.264584 0.0642,0 0.11667,0.119063 0.11667,0.264584 0,0.145521 -0.12608,0.264583 -0.28019,0.264583 -0.15411,0 -0.20662,-0.119062 -0.11668,-0.264583 z m 0.79375,-0.529167 c 0.0899,-0.145521 0.22305,-0.264583 0.29581,-0.264583 0.0728,0 0.0587,0.119062 -0.0312,0.264583 -0.0899,0.145521 -0.22305,0.264583 -0.29581,0.264583 -0.0728,0 -0.0587,-0.119062 0.0312,-0.264583 z m 0.39687,-1.719792 c 0,-0.07276 0.0595,-0.132291 0.1323,-0.132291 0.0728,0 0.13229,0.05953 0.13229,0.132291 0,0.07276 -0.0595,0.132292 -0.13229,0.132292 -0.0728,0 -0.1323,-0.05953 -0.1323,-0.132292 z M 92.877978,45.686087 v -0.9471 h 1.71979 c 1.41105,0 1.8227,0.102904 2.29298,0.573188 0.55415,0.554141 0.55634,0.579334 0.0662,0.758156 -0.27887,0.101732 -1.31071,0.269994 -2.29298,0.373911 l -1.78593,0.188947 z m 5.82084,0.271833 c 0,-0.250992 0.79199,-0.377487 0.93318,-0.149045 0.086,0.139165 -0.0888,0.253029 -0.3884,0.253029 -0.29963,0 -0.54478,-0.04679 -0.54478,-0.103984 z m 1.322912,-0.1606 c 0,-0.145521 0.12609,-0.264583 0.2802,-0.264583 0.15411,0 0.20662,0.119062 0.11668,0.264583 -0.0899,0.145521 -0.21603,0.264584 -0.2802,0.264584 -0.0642,0 -0.11668,-0.119063 -0.11668,-0.264584 z M 92.877978,22.940307 V 1.3473189 h 7.317052 7.31705 l -0.47889,0.529167 c -0.26339,0.291042 -0.69856,0.529167 -0.96705,0.529167 -0.3449,0 -0.48816,0.194995 -0.48816,0.664493 0,0.561002 -0.26919,0.787787 -1.72845,1.456141 -0.95065,0.435406 -1.80601,0.999587 -1.9008,1.253736 -0.0948,0.254148 -0.38924,0.618144 -0.65431,0.808879 -0.26508,0.190734 -0.65137,0.666984 -0.85843,1.058333 -0.20706,0.391349 -0.723922,1.085867 -1.148572,1.543374 -0.71142,0.766465 -0.78408,1.0326921 -0.92459,3.3879671 -0.0839,1.405874 -0.26352,2.698425 -0.39921,2.872335 -0.46937,0.601582 -0.52762,1.474882 -0.13571,2.034423 0.35466,0.50634 0.33638,0.697492 -0.18506,1.935346 -0.31822,0.755433 -0.86096,1.810364 -1.2061,2.344292 -0.34514,0.533928 -0.70444,1.277246 -0.79845,1.651818 -0.094,0.374571 -0.26195,0.624789 -0.37319,0.556039 -0.32379,-0.200113 -0.51913,1.988146 -0.24244,2.715892 0.13858,0.364493 0.17729,1.151868 0.086,1.74972 -0.0913,0.597853 -0.26713,2.33716 -0.39079,3.865129 -0.12366,1.527969 -0.35011,3.419454 -0.50321,4.2033 -0.39467,2.02057 -0.34549,3.596249 0.14776,4.734886 0.55536,1.281999 0.88727,2.678134 0.66879,2.813161 -0.0951,0.05878 -0.61849,0.190453 -1.16308,0.292621 l -0.99016,0.185756 z m 33.602092,9.230971 c 0,-0.07276 0.0595,-0.132292 0.13229,-0.132292 0.0728,0 0.13229,0.05953 0.13229,0.132292 0,0.07276 -0.0595,0.132292 -0.13229,0.132292 -0.0728,0 -0.13229,-0.05953 -0.13229,-0.132292 z m -25.15408,-16.89174 c 1.08849,-2.426043 1.36828,-2.809178 2.46521,-3.375834 2.48602,-1.284235 5.24297,-0.766505 7.17781,1.347929 0.6002,0.655909 1.59944,1.53767 2.22054,1.95947 0.6211,0.4218 1.08635,0.809829 1.03389,0.862287 -0.0876,0.08761 -3.48672,0.286702 -8.77775,0.514131 -1.16416,0.05004 -2.73503,0.149946 -3.49081,0.222012 l -1.37414,0.131029 z m 48.84317,-0.769198 c 0.2913,-0.980629 0.81957,-1.187144 3.03678,-1.187144 h 2.11371 v 0.891229 0.891228 h -2.66366 c -2.63833,0 -2.66198,-0.0057 -2.48683,-0.595313 z"
       id="path355" /></g></svg>
