  0
SECTION
  2
HEADER
  9
$ANGBASE
  50
0.0
  9
$ANGDIR
  70
1
  9
$MEASUREMENT
  70
0
  0
ENDSEC
  0
SECTION
  2
TABLES
  0
TABLE
  2
LTYPE
  70
4
  0
LTYPE
  5
40F
  2
CONTINUOUS
  70
0
  3
Solid line
  72
65
  73
0
  40
0.0
  0
LTYPE
  5
410
  2
DASHDOT
 70
0
  3
Dash Dot ____ _ ____ _
 72
65
 73
4
 40
2.0
 49
1.25
 49
-0.25
 49
0.25
 49
-0.25
  0
LTYPE
  5
411
  2
DASHED
 70
0
  3
Dashed __ __ __ __ __
 72
65
 73
2
 40
0.75
 49
0.5
 49
-0.25
  0
LTYPE
  5
43B
  2
DOTTED
 70
0
  3
Dotted .  .  .  .
 72
65
 73
2
 40
0.2
 49
0.0
 49
-0.2
  0
ENDTAB
  0
TABLE
  2
STYLE
  70
4
  0
STYLE
  2
KICAD
  70
0
  40
0
  41
1
  42
1
  50
0
  71
0
  3
isocp.shx
  0
STYLE
  2
KICADB
  70
0
  40
0
  41
1
  42
1
  50
0
  71
0
  3
isocp.shx
  0
STYLE
  2
KICADI
  70
0
  40
0
  41
1
  42
1
  50
15
  71
0
  3
isocp.shx
  0
STYLE
  2
KICADBI
  70
0
  40
0
  41
1
  42
1
  50
15
  71
0
  3
isocp.shx
  0
ENDTAB
  0
TABLE
  2
LAYER
  70
1
  0
LAYER
  2
BLACK
  70
0
  62
7
  6
CONTINUOUS
  0
ENDTAB
  0
ENDSEC
  0
SECTION
  2
ENTITIES
0
ARC
8
BLACK
10
11.063
20
-3.77953
40
0.15748
50
-90
51
-0
0
ARC
8
BLACK
10
0.15748
20
-0.15748
40
0.15748
50
90
51
180
0
LINE
8
BLACK
6
CONTINUOUS
10
0.15748
20
-3.93701
11
11.063
21
-3.93701
0
LINE
8
BLACK
6
CONTINUOUS
10
11.2205
20
-3.77953
11
11.2205
21
-0.15748
0
LINE
8
BLACK
6
CONTINUOUS
10
0
20
-0.15748
11
0
21
-3.77953
0
ARC
8
BLACK
10
11.063
20
-0.15748
40
0.15748
50
-0
51
90
0
LINE
8
BLACK
6
CONTINUOUS
10
0.15748
20
0
11
11.063
21
0
0
ARC
8
BLACK
10
0.15748
20
-3.77953
40
0.15748
50
-180
51
-90
0
LINE
8
BLACK
6
CONTINUOUS
10
0.108504
20
-0.386949
11
0.177402
21
-0.455846
0
LINE
8
BLACK
6
CONTINUOUS
10
0.177402
20
-0.386949
11
0.108504
21
-0.455846
0
LINE
8
BLACK
6
CONTINUOUS
10
0.296004
20
-1.13695
11
0.364902
21
-1.20585
0
LINE
8
BLACK
6
CONTINUOUS
10
0.364902
20
-1.13695
11
0.296004
21
-1.20585
0
LINE
8
BLACK
6
CONTINUOUS
10
0.389754
20
-1.88695
11
0.458652
21
-1.95585
0
LINE
8
BLACK
6
CONTINUOUS
10
0.458652
20
-1.88695
11
0.389754
21
-1.95585
0
LINE
8
BLACK
6
CONTINUOUS
10
0.483504
20
-3.38695
11
0.552402
21
-3.45585
0
LINE
8
BLACK
6
CONTINUOUS
10
0.552402
20
-3.38695
11
0.483504
21
-3.45585
0
LINE
8
BLACK
6
CONTINUOUS
10
0.508504
20
-0.386949
11
0.577402
21
-0.455846
0
LINE
8
BLACK
6
CONTINUOUS
10
0.577402
20
-0.386949
11
0.508504
21
-0.455846
0
LINE
8
BLACK
6
CONTINUOUS
10
0.577254
20
-2.63695
11
0.646152
21
-2.70585
0
LINE
8
BLACK
6
CONTINUOUS
10
0.646152
20
-2.63695
11
0.577254
21
-2.70585
0
LINE
8
BLACK
6
CONTINUOUS
10
0.696004
20
-1.13695
11
0.764902
21
-1.20585
0
LINE
8
BLACK
6
CONTINUOUS
10
0.764902
20
-1.13695
11
0.696004
21
-1.20585
0
LINE
8
BLACK
6
CONTINUOUS
10
0.789754
20
-1.88695
11
0.858652
21
-1.95585
0
LINE
8
BLACK
6
CONTINUOUS
10
0.858652
20
-1.88695
11
0.789754
21
-1.95585
0
LINE
8
BLACK
6
CONTINUOUS
10
0.858504
20
-0.386949
11
0.927402
21
-0.455846
0
LINE
8
BLACK
6
CONTINUOUS
10
0.927402
20
-0.386949
11
0.858504
21
-0.455846
0
LINE
8
BLACK
6
CONTINUOUS
10
0.883504
20
-3.38695
11
0.952402
21
-3.45585
0
LINE
8
BLACK
6
CONTINUOUS
10
0.952402
20
-3.38695
11
0.883504
21
-3.45585
0
LINE
8
BLACK
6
CONTINUOUS
10
0.977254
20
-2.63695
11
1.04615
21
-2.70585
0
LINE
8
BLACK
6
CONTINUOUS
10
1.04615
20
-2.63695
11
0.977254
21
-2.70585
0
LINE
8
BLACK
6
CONTINUOUS
10
1.2335
20
-1.13695
11
1.3024
21
-1.20585
0
LINE
8
BLACK
6
CONTINUOUS
10
1.3024
20
-1.13695
11
1.2335
21
-1.20585
0
LINE
8
BLACK
6
CONTINUOUS
10
1.2335
20
-3.38695
11
1.3024
21
-3.45585
0
LINE
8
BLACK
6
CONTINUOUS
10
1.3024
20
-3.38695
11
1.2335
21
-3.45585
0
LINE
8
BLACK
6
CONTINUOUS
10
1.2585
20
-0.386949
11
1.3274
21
-0.455846
0
LINE
8
BLACK
6
CONTINUOUS
10
1.3274
20
-0.386949
11
1.2585
21
-0.455846
0
LINE
8
BLACK
6
CONTINUOUS
10
1.421
20
-1.88695
11
1.4899
21
-1.95585
0
LINE
8
BLACK
6
CONTINUOUS
10
1.4899
20
-1.88695
11
1.421
21
-1.95585
0
LINE
8
BLACK
6
CONTINUOUS
10
1.6085
20
-0.386949
11
1.6774
21
-0.455846
0
LINE
8
BLACK
6
CONTINUOUS
10
1.6774
20
-0.386949
11
1.6085
21
-0.455846
0
LINE
8
BLACK
6
CONTINUOUS
10
1.6335
20
-1.13695
11
1.7024
21
-1.20585
0
LINE
8
BLACK
6
CONTINUOUS
10
1.7024
20
-1.13695
11
1.6335
21
-1.20585
0
LINE
8
BLACK
6
CONTINUOUS
10
1.6335
20
-3.38695
11
1.7024
21
-3.45585
0
LINE
8
BLACK
6
CONTINUOUS
10
1.7024
20
-3.38695
11
1.6335
21
-3.45585
0
LINE
8
BLACK
6
CONTINUOUS
10
1.796
20
-2.63695
11
1.8649
21
-2.70585
0
LINE
8
BLACK
6
CONTINUOUS
10
1.8649
20
-2.63695
11
1.796
21
-2.70585
0
LINE
8
BLACK
6
CONTINUOUS
10
1.821
20
-1.88695
11
1.8899
21
-1.95585
0
LINE
8
BLACK
6
CONTINUOUS
10
1.8899
20
-1.88695
11
1.821
21
-1.95585
0
LINE
8
BLACK
6
CONTINUOUS
10
1.9835
20
-1.13695
11
2.0524
21
-1.20585
0
LINE
8
BLACK
6
CONTINUOUS
10
2.0524
20
-1.13695
11
1.9835
21
-1.20585
0
LINE
8
BLACK
6
CONTINUOUS
10
2.0085
20
-0.386949
11
2.0774
21
-0.455846
0
LINE
8
BLACK
6
CONTINUOUS
10
2.0774
20
-0.386949
11
2.0085
21
-0.455846
0
LINE
8
BLACK
6
CONTINUOUS
10
2.171
20
-1.88695
11
2.2399
21
-1.95585
0
LINE
8
BLACK
6
CONTINUOUS
10
2.2399
20
-1.88695
11
2.171
21
-1.95585
0
LINE
8
BLACK
6
CONTINUOUS
10
2.171
20
-3.38695
11
2.2399
21
-3.45585
0
LINE
8
BLACK
6
CONTINUOUS
10
2.2399
20
-3.38695
11
2.171
21
-3.45585
0
LINE
8
BLACK
6
CONTINUOUS
10
2.196
20
-2.63695
11
2.2649
21
-2.70585
0
LINE
8
BLACK
6
CONTINUOUS
10
2.2649
20
-2.63695
11
2.196
21
-2.70585
0
LINE
8
BLACK
6
CONTINUOUS
10
2.3585
20
-0.386949
11
2.4274
21
-0.455846
0
LINE
8
BLACK
6
CONTINUOUS
10
2.4274
20
-0.386949
11
2.3585
21
-0.455846
0
LINE
8
BLACK
6
CONTINUOUS
10
2.3835
20
-1.13695
11
2.4524
21
-1.20585
0
LINE
8
BLACK
6
CONTINUOUS
10
2.4524
20
-1.13695
11
2.3835
21
-1.20585
0
LINE
8
BLACK
6
CONTINUOUS
10
2.546
20
-2.63695
11
2.6149
21
-2.70585
0
LINE
8
BLACK
6
CONTINUOUS
10
2.6149
20
-2.63695
11
2.546
21
-2.70585
0
LINE
8
BLACK
6
CONTINUOUS
10
2.571
20
-1.88695
11
2.6399
21
-1.95585
0
LINE
8
BLACK
6
CONTINUOUS
10
2.6399
20
-1.88695
11
2.571
21
-1.95585
0
LINE
8
BLACK
6
CONTINUOUS
10
2.571
20
-3.38695
11
2.6399
21
-3.45585
0
LINE
8
BLACK
6
CONTINUOUS
10
2.6399
20
-3.38695
11
2.571
21
-3.45585
0
LINE
8
BLACK
6
CONTINUOUS
10
2.7335
20
-1.13695
11
2.8024
21
-1.20585
0
LINE
8
BLACK
6
CONTINUOUS
10
2.8024
20
-1.13695
11
2.7335
21
-1.20585
0
LINE
8
BLACK
6
CONTINUOUS
10
2.7585
20
-0.386949
11
2.8274
21
-0.455846
0
LINE
8
BLACK
6
CONTINUOUS
10
2.8274
20
-0.386949
11
2.7585
21
-0.455846
0
LINE
8
BLACK
6
CONTINUOUS
10
2.921
20
-1.88695
11
2.9899
21
-1.95585
0
LINE
8
BLACK
6
CONTINUOUS
10
2.9899
20
-1.88695
11
2.921
21
-1.95585
0
LINE
8
BLACK
6
CONTINUOUS
10
2.946
20
-2.63695
11
3.0149
21
-2.70585
0
LINE
8
BLACK
6
CONTINUOUS
10
3.0149
20
-2.63695
11
2.946
21
-2.70585
0
LINE
8
BLACK
6
CONTINUOUS
10
3.1085
20
-0.386949
11
3.1774
21
-0.455846
0
LINE
8
BLACK
6
CONTINUOUS
10
3.1774
20
-0.386949
11
3.1085
21
-0.455846
0
LINE
8
BLACK
6
CONTINUOUS
10
3.1335
20
-1.13695
11
3.2024
21
-1.20585
0
LINE
8
BLACK
6
CONTINUOUS
10
3.2024
20
-1.13695
11
3.1335
21
-1.20585
0
LINE
8
BLACK
6
CONTINUOUS
10
3.296
20
-2.63695
11
3.3649
21
-2.70585
0
LINE
8
BLACK
6
CONTINUOUS
10
3.3649
20
-2.63695
11
3.296
21
-2.70585
0
LINE
8
BLACK
6
CONTINUOUS
10
3.321
20
-1.88695
11
3.3899
21
-1.95585
0
LINE
8
BLACK
6
CONTINUOUS
10
3.3899
20
-1.88695
11
3.321
21
-1.95585
0
LINE
8
BLACK
6
CONTINUOUS
10
3.4835
20
-1.13695
11
3.5524
21
-1.20585
0
LINE
8
BLACK
6
CONTINUOUS
10
3.5524
20
-1.13695
11
3.4835
21
-1.20585
0
LINE
8
BLACK
6
CONTINUOUS
10
3.5085
20
-0.386949
11
3.5774
21
-0.455846
0
LINE
8
BLACK
6
CONTINUOUS
10
3.5774
20
-0.386949
11
3.5085
21
-0.455846
0
LINE
8
BLACK
6
CONTINUOUS
10
3.671
20
-1.88695
11
3.7399
21
-1.95585
0
LINE
8
BLACK
6
CONTINUOUS
10
3.7399
20
-1.88695
11
3.671
21
-1.95585
0
LINE
8
BLACK
6
CONTINUOUS
10
3.696
20
-2.63695
11
3.7649
21
-2.70585
0
LINE
8
BLACK
6
CONTINUOUS
10
3.7649
20
-2.63695
11
3.696
21
-2.70585
0
LINE
8
BLACK
6
CONTINUOUS
10
3.8585
20
-0.386949
11
3.9274
21
-0.455846
0
LINE
8
BLACK
6
CONTINUOUS
10
3.9274
20
-0.386949
11
3.8585
21
-0.455846
0
LINE
8
BLACK
6
CONTINUOUS
10
3.8835
20
-1.13695
11
3.9524
21
-1.20585
0
LINE
8
BLACK
6
CONTINUOUS
10
3.9524
20
-1.13695
11
3.8835
21
-1.20585
0
LINE
8
BLACK
6
CONTINUOUS
10
4.046
20
-2.63695
11
4.1149
21
-2.70585
0
LINE
8
BLACK
6
CONTINUOUS
10
4.1149
20
-2.63695
11
4.046
21
-2.70585
0
LINE
8
BLACK
6
CONTINUOUS
10
4.071
20
-1.88695
11
4.1399
21
-1.95585
0
LINE
8
BLACK
6
CONTINUOUS
10
4.1399
20
-1.88695
11
4.071
21
-1.95585
0
LINE
8
BLACK
6
CONTINUOUS
10
4.2335
20
-1.13695
11
4.3024
21
-1.20585
0
LINE
8
BLACK
6
CONTINUOUS
10
4.3024
20
-1.13695
11
4.2335
21
-1.20585
0
LINE
8
BLACK
6
CONTINUOUS
10
4.2585
20
-0.386949
11
4.3274
21
-0.455846
0
LINE
8
BLACK
6
CONTINUOUS
10
4.3274
20
-0.386949
11
4.2585
21
-0.455846
0
LINE
8
BLACK
6
CONTINUOUS
10
4.421
20
-1.88695
11
4.4899
21
-1.95585
0
LINE
8
BLACK
6
CONTINUOUS
10
4.4899
20
-1.88695
11
4.421
21
-1.95585
0
LINE
8
BLACK
6
CONTINUOUS
10
4.446
20
-2.63695
11
4.5149
21
-2.70585
0
LINE
8
BLACK
6
CONTINUOUS
10
4.5149
20
-2.63695
11
4.446
21
-2.70585
0
LINE
8
BLACK
6
CONTINUOUS
10
4.6085
20
-0.386949
11
4.6774
21
-0.455846
0
LINE
8
BLACK
6
CONTINUOUS
10
4.6774
20
-0.386949
11
4.6085
21
-0.455846
0
LINE
8
BLACK
6
CONTINUOUS
10
4.6335
20
-1.13695
11
4.7024
21
-1.20585
0
LINE
8
BLACK
6
CONTINUOUS
10
4.7024
20
-1.13695
11
4.6335
21
-1.20585
0
LINE
8
BLACK
6
CONTINUOUS
10
4.796
20
-2.63695
11
4.8649
21
-2.70585
0
LINE
8
BLACK
6
CONTINUOUS
10
4.8649
20
-2.63695
11
4.796
21
-2.70585
0
LINE
8
BLACK
6
CONTINUOUS
10
4.821
20
-1.88695
11
4.8899
21
-1.95585
0
LINE
8
BLACK
6
CONTINUOUS
10
4.8899
20
-1.88695
11
4.821
21
-1.95585
0
LINE
8
BLACK
6
CONTINUOUS
10
4.9835
20
-1.13695
11
5.0524
21
-1.20585
0
LINE
8
BLACK
6
CONTINUOUS
10
5.0524
20
-1.13695
11
4.9835
21
-1.20585
0
LINE
8
BLACK
6
CONTINUOUS
10
5.0085
20
-0.386949
11
5.0774
21
-0.455846
0
LINE
8
BLACK
6
CONTINUOUS
10
5.0774
20
-0.386949
11
5.0085
21
-0.455846
0
LINE
8
BLACK
6
CONTINUOUS
10
5.171
20
-1.88695
11
5.2399
21
-1.95585
0
LINE
8
BLACK
6
CONTINUOUS
10
5.2399
20
-1.88695
11
5.171
21
-1.95585
0
LINE
8
BLACK
6
CONTINUOUS
10
5.171
20
-3.38695
11
5.2399
21
-3.45585
0
LINE
8
BLACK
6
CONTINUOUS
10
5.2399
20
-3.38695
11
5.171
21
-3.45585
0
LINE
8
BLACK
6
CONTINUOUS
10
5.196
20
-2.63695
11
5.2649
21
-2.70585
0
LINE
8
BLACK
6
CONTINUOUS
10
5.2649
20
-2.63695
11
5.196
21
-2.70585
0
LINE
8
BLACK
6
CONTINUOUS
10
5.3585
20
-0.386949
11
5.4274
21
-0.455846
0
LINE
8
BLACK
6
CONTINUOUS
10
5.4274
20
-0.386949
11
5.3585
21
-0.455846
0
LINE
8
BLACK
6
CONTINUOUS
10
5.3835
20
-1.13695
11
5.4524
21
-1.20585
0
LINE
8
BLACK
6
CONTINUOUS
10
5.4524
20
-1.13695
11
5.3835
21
-1.20585
0
LINE
8
BLACK
6
CONTINUOUS
10
5.546
20
-2.63695
11
5.6149
21
-2.70585
0
LINE
8
BLACK
6
CONTINUOUS
10
5.6149
20
-2.63695
11
5.546
21
-2.70585
0
LINE
8
BLACK
6
CONTINUOUS
10
5.571
20
-1.88695
11
5.6399
21
-1.95585
0
LINE
8
BLACK
6
CONTINUOUS
10
5.6399
20
-1.88695
11
5.571
21
-1.95585
0
LINE
8
BLACK
6
CONTINUOUS
10
5.571
20
-3.38695
11
5.6399
21
-3.45585
0
LINE
8
BLACK
6
CONTINUOUS
10
5.6399
20
-3.38695
11
5.571
21
-3.45585
0
LINE
8
BLACK
6
CONTINUOUS
10
5.7335
20
-1.13695
11
5.8024
21
-1.20585
0
LINE
8
BLACK
6
CONTINUOUS
10
5.8024
20
-1.13695
11
5.7335
21
-1.20585
0
LINE
8
BLACK
6
CONTINUOUS
10
5.7585
20
-0.386949
11
5.8274
21
-0.455846
0
LINE
8
BLACK
6
CONTINUOUS
10
5.8274
20
-0.386949
11
5.7585
21
-0.455846
0
LINE
8
BLACK
6
CONTINUOUS
10
5.921
20
-1.88695
11
5.9899
21
-1.95585
0
LINE
8
BLACK
6
CONTINUOUS
10
5.9899
20
-1.88695
11
5.921
21
-1.95585
0
LINE
8
BLACK
6
CONTINUOUS
10
5.946
20
-2.63695
11
6.0149
21
-2.70585
0
LINE
8
BLACK
6
CONTINUOUS
10
6.0149
20
-2.63695
11
5.946
21
-2.70585
0
LINE
8
BLACK
6
CONTINUOUS
10
6.1085
20
-0.386949
11
6.1774
21
-0.455846
0
LINE
8
BLACK
6
CONTINUOUS
10
6.1774
20
-0.386949
11
6.1085
21
-0.455846
0
LINE
8
BLACK
6
CONTINUOUS
10
6.1335
20
-1.13695
11
6.2024
21
-1.20585
0
LINE
8
BLACK
6
CONTINUOUS
10
6.2024
20
-1.13695
11
6.1335
21
-1.20585
0
LINE
8
BLACK
6
CONTINUOUS
10
6.296
20
-2.63695
11
6.3649
21
-2.70585
0
LINE
8
BLACK
6
CONTINUOUS
10
6.3649
20
-2.63695
11
6.296
21
-2.70585
0
LINE
8
BLACK
6
CONTINUOUS
10
6.321
20
-1.88695
11
6.3899
21
-1.95585
0
LINE
8
BLACK
6
CONTINUOUS
10
6.3899
20
-1.88695
11
6.321
21
-1.95585
0
LINE
8
BLACK
6
CONTINUOUS
10
6.4835
20
-1.13695
11
6.5524
21
-1.20585
0
LINE
8
BLACK
6
CONTINUOUS
10
6.5524
20
-1.13695
11
6.4835
21
-1.20585
0
LINE
8
BLACK
6
CONTINUOUS
10
6.5085
20
-0.386949
11
6.5774
21
-0.455846
0
LINE
8
BLACK
6
CONTINUOUS
10
6.5774
20
-0.386949
11
6.5085
21
-0.455846
0
LINE
8
BLACK
6
CONTINUOUS
10
6.671
20
-1.88695
11
6.7399
21
-1.95585
0
LINE
8
BLACK
6
CONTINUOUS
10
6.7399
20
-1.88695
11
6.671
21
-1.95585
0
LINE
8
BLACK
6
CONTINUOUS
10
6.696
20
-2.63695
11
6.7649
21
-2.70585
0
LINE
8
BLACK
6
CONTINUOUS
10
6.7649
20
-2.63695
11
6.696
21
-2.70585
0
LINE
8
BLACK
6
CONTINUOUS
10
6.8585
20
-0.386949
11
6.9274
21
-0.455846
0
LINE
8
BLACK
6
CONTINUOUS
10
6.9274
20
-0.386949
11
6.8585
21
-0.455846
0
LINE
8
BLACK
6
CONTINUOUS
10
6.8835
20
-1.13695
11
6.9524
21
-1.20585
0
LINE
8
BLACK
6
CONTINUOUS
10
6.9524
20
-1.13695
11
6.8835
21
-1.20585
0
LINE
8
BLACK
6
CONTINUOUS
10
7.046
20
-2.63695
11
7.1149
21
-2.70585
0
LINE
8
BLACK
6
CONTINUOUS
10
7.1149
20
-2.63695
11
7.046
21
-2.70585
0
LINE
8
BLACK
6
CONTINUOUS
10
7.071
20
-1.88695
11
7.1399
21
-1.95585
0
LINE
8
BLACK
6
CONTINUOUS
10
7.1399
20
-1.88695
11
7.071
21
-1.95585
0
LINE
8
BLACK
6
CONTINUOUS
10
7.2335
20
-1.13695
11
7.3024
21
-1.20585
0
LINE
8
BLACK
6
CONTINUOUS
10
7.3024
20
-1.13695
11
7.2335
21
-1.20585
0
LINE
8
BLACK
6
CONTINUOUS
10
7.2585
20
-0.386949
11
7.3274
21
-0.455846
0
LINE
8
BLACK
6
CONTINUOUS
10
7.3274
20
-0.386949
11
7.2585
21
-0.455846
0
LINE
8
BLACK
6
CONTINUOUS
10
7.421
20
-1.88695
11
7.4899
21
-1.95585
0
LINE
8
BLACK
6
CONTINUOUS
10
7.4899
20
-1.88695
11
7.421
21
-1.95585
0
LINE
8
BLACK
6
CONTINUOUS
10
7.446
20
-2.63695
11
7.5149
21
-2.70585
0
LINE
8
BLACK
6
CONTINUOUS
10
7.5149
20
-2.63695
11
7.446
21
-2.70585
0
LINE
8
BLACK
6
CONTINUOUS
10
7.6085
20
-0.386949
11
7.6774
21
-0.455846
0
LINE
8
BLACK
6
CONTINUOUS
10
7.6774
20
-0.386949
11
7.6085
21
-0.455846
0
LINE
8
BLACK
6
CONTINUOUS
10
7.6335
20
-1.13695
11
7.7024
21
-1.20585
0
LINE
8
BLACK
6
CONTINUOUS
10
7.7024
20
-1.13695
11
7.6335
21
-1.20585
0
LINE
8
BLACK
6
CONTINUOUS
10
7.796
20
-2.63695
11
7.8649
21
-2.70585
0
LINE
8
BLACK
6
CONTINUOUS
10
7.8649
20
-2.63695
11
7.796
21
-2.70585
0
LINE
8
BLACK
6
CONTINUOUS
10
7.821
20
-1.88695
11
7.8899
21
-1.95585
0
LINE
8
BLACK
6
CONTINUOUS
10
7.8899
20
-1.88695
11
7.821
21
-1.95585
0
LINE
8
BLACK
6
CONTINUOUS
10
7.9835
20
-1.13695
11
8.0524
21
-1.20585
0
LINE
8
BLACK
6
CONTINUOUS
10
8.0524
20
-1.13695
11
7.9835
21
-1.20585
0
LINE
8
BLACK
6
CONTINUOUS
10
8.0085
20
-0.386949
11
8.0774
21
-0.455846
0
LINE
8
BLACK
6
CONTINUOUS
10
8.0774
20
-0.386949
11
8.0085
21
-0.455846
0
LINE
8
BLACK
6
CONTINUOUS
10
8.171
20
-1.88695
11
8.2399
21
-1.95585
0
LINE
8
BLACK
6
CONTINUOUS
10
8.2399
20
-1.88695
11
8.171
21
-1.95585
0
LINE
8
BLACK
6
CONTINUOUS
10
8.171
20
-3.38695
11
8.2399
21
-3.45585
0
LINE
8
BLACK
6
CONTINUOUS
10
8.2399
20
-3.38695
11
8.171
21
-3.45585
0
LINE
8
BLACK
6
CONTINUOUS
10
8.196
20
-2.63695
11
8.2649
21
-2.70585
0
LINE
8
BLACK
6
CONTINUOUS
10
8.2649
20
-2.63695
11
8.196
21
-2.70585
0
LINE
8
BLACK
6
CONTINUOUS
10
8.3585
20
-0.386949
11
8.4274
21
-0.455846
0
LINE
8
BLACK
6
CONTINUOUS
10
8.4274
20
-0.386949
11
8.3585
21
-0.455846
0
LINE
8
BLACK
6
CONTINUOUS
10
8.3835
20
-1.13695
11
8.4524
21
-1.20585
0
LINE
8
BLACK
6
CONTINUOUS
10
8.4524
20
-1.13695
11
8.3835
21
-1.20585
0
LINE
8
BLACK
6
CONTINUOUS
10
8.546
20
-2.63695
11
8.6149
21
-2.70585
0
LINE
8
BLACK
6
CONTINUOUS
10
8.6149
20
-2.63695
11
8.546
21
-2.70585
0
LINE
8
BLACK
6
CONTINUOUS
10
8.571
20
-1.88695
11
8.6399
21
-1.95585
0
LINE
8
BLACK
6
CONTINUOUS
10
8.6399
20
-1.88695
11
8.571
21
-1.95585
0
LINE
8
BLACK
6
CONTINUOUS
10
8.571
20
-3.38695
11
8.6399
21
-3.45585
0
LINE
8
BLACK
6
CONTINUOUS
10
8.6399
20
-3.38695
11
8.571
21
-3.45585
0
LINE
8
BLACK
6
CONTINUOUS
10
8.7335
20
-1.13695
11
8.8024
21
-1.20585
0
LINE
8
BLACK
6
CONTINUOUS
10
8.8024
20
-1.13695
11
8.7335
21
-1.20585
0
LINE
8
BLACK
6
CONTINUOUS
10
8.7585
20
-0.386949
11
8.8274
21
-0.455846
0
LINE
8
BLACK
6
CONTINUOUS
10
8.8274
20
-0.386949
11
8.7585
21
-0.455846
0
LINE
8
BLACK
6
CONTINUOUS
10
8.921
20
-1.88695
11
8.9899
21
-1.95585
0
LINE
8
BLACK
6
CONTINUOUS
10
8.9899
20
-1.88695
11
8.921
21
-1.95585
0
LINE
8
BLACK
6
CONTINUOUS
10
8.946
20
-2.63695
11
9.0149
21
-2.70585
0
LINE
8
BLACK
6
CONTINUOUS
10
9.0149
20
-2.63695
11
8.946
21
-2.70585
0
LINE
8
BLACK
6
CONTINUOUS
10
9.1085
20
-0.386949
11
9.1774
21
-0.455846
0
LINE
8
BLACK
6
CONTINUOUS
10
9.1774
20
-0.386949
11
9.1085
21
-0.455846
0
LINE
8
BLACK
6
CONTINUOUS
10
9.1085
20
-3.38695
11
9.1774
21
-3.45585
0
LINE
8
BLACK
6
CONTINUOUS
10
9.1774
20
-3.38695
11
9.1085
21
-3.45585
0
LINE
8
BLACK
6
CONTINUOUS
10
9.1335
20
-1.13695
11
9.2024
21
-1.20585
0
LINE
8
BLACK
6
CONTINUOUS
10
9.2024
20
-1.13695
11
9.1335
21
-1.20585
0
LINE
8
BLACK
6
CONTINUOUS
10
9.321
20
-1.88695
11
9.3899
21
-1.95585
0
LINE
8
BLACK
6
CONTINUOUS
10
9.3899
20
-1.88695
11
9.321
21
-1.95585
0
LINE
8
BLACK
6
CONTINUOUS
10
9.4835
20
-1.13695
11
9.5524
21
-1.20585
0
LINE
8
BLACK
6
CONTINUOUS
10
9.5524
20
-1.13695
11
9.4835
21
-1.20585
0
LINE
8
BLACK
6
CONTINUOUS
10
9.5085
20
-0.386949
11
9.5774
21
-0.455846
0
LINE
8
BLACK
6
CONTINUOUS
10
9.5774
20
-0.386949
11
9.5085
21
-0.455846
0
LINE
8
BLACK
6
CONTINUOUS
10
9.5085
20
-3.38695
11
9.5774
21
-3.45585
0
LINE
8
BLACK
6
CONTINUOUS
10
9.5774
20
-3.38695
11
9.5085
21
-3.45585
0
LINE
8
BLACK
6
CONTINUOUS
10
9.57725
20
-2.63695
11
9.64615
21
-2.70585
0
LINE
8
BLACK
6
CONTINUOUS
10
9.64615
20
-2.63695
11
9.57725
21
-2.70585
0
LINE
8
BLACK
6
CONTINUOUS
10
9.8585
20
-0.386949
11
9.9274
21
-0.455846
0
LINE
8
BLACK
6
CONTINUOUS
10
9.9274
20
-0.386949
11
9.8585
21
-0.455846
0
LINE
8
BLACK
6
CONTINUOUS
10
9.8835
20
-1.13695
11
9.9524
21
-1.20585
0
LINE
8
BLACK
6
CONTINUOUS
10
9.9524
20
-1.13695
11
9.8835
21
-1.20585
0
LINE
8
BLACK
6
CONTINUOUS
10
9.97725
20
-2.63695
11
10.0462
21
-2.70585
0
LINE
8
BLACK
6
CONTINUOUS
10
10.0462
20
-2.63695
11
9.97725
21
-2.70585
0
LINE
8
BLACK
6
CONTINUOUS
10
10.1398
20
-1.88695
11
10.2087
21
-1.95585
0
LINE
8
BLACK
6
CONTINUOUS
10
10.2087
20
-1.88695
11
10.1398
21
-1.95585
0
LINE
8
BLACK
6
CONTINUOUS
10
10.2585
20
-0.386949
11
10.3274
21
-0.455846
0
LINE
8
BLACK
6
CONTINUOUS
10
10.3274
20
-0.386949
11
10.2585
21
-0.455846
0
LINE
8
BLACK
6
CONTINUOUS
10
10.421
20
-1.13695
11
10.4899
21
-1.20585
0
LINE
8
BLACK
6
CONTINUOUS
10
10.4899
20
-1.13695
11
10.421
21
-1.20585
0
LINE
8
BLACK
6
CONTINUOUS
10
10.5398
20
-1.88695
11
10.6087
21
-1.95585
0
LINE
8
BLACK
6
CONTINUOUS
10
10.6087
20
-1.88695
11
10.5398
21
-1.95585
0
LINE
8
BLACK
6
CONTINUOUS
10
10.6085
20
-0.386949
11
10.6774
21
-0.455846
0
LINE
8
BLACK
6
CONTINUOUS
10
10.6774
20
-0.386949
11
10.6085
21
-0.455846
0
LINE
8
BLACK
6
CONTINUOUS
10
10.6085
20
-2.63695
11
10.6774
21
-2.70585
0
LINE
8
BLACK
6
CONTINUOUS
10
10.6774
20
-2.63695
11
10.6085
21
-2.70585
0
LINE
8
BLACK
6
CONTINUOUS
10
10.821
20
-1.13695
11
10.8899
21
-1.20585
0
LINE
8
BLACK
6
CONTINUOUS
10
10.8899
20
-1.13695
11
10.821
21
-1.20585
0
LINE
8
BLACK
6
CONTINUOUS
10
11.0085
20
-0.386949
11
11.0774
21
-0.455846
0
LINE
8
BLACK
6
CONTINUOUS
10
11.0774
20
-0.386949
11
11.0085
21
-0.455846
0
LINE
8
BLACK
6
CONTINUOUS
10
11.0085
20
-2.63695
11
11.0774
21
-2.70585
0
LINE
8
BLACK
6
CONTINUOUS
10
11.0774
20
-2.63695
11
11.0085
21
-2.70585
0
CIRCLE
8
BLACK
10
3.43695
20
-3.6964
40
0.06
0
CIRCLE
8
BLACK
10
7.37395
20
-3.6964
40
0.06
0
LINE
8
BLACK
6
CONTINUOUS
10
0.342953
20
-0.342898
11
0.342953
21
-0.499898
0
LINE
8
BLACK
6
CONTINUOUS
10
0.264453
20
-0.421398
11
0.421453
21
-0.421398
0
LINE
8
BLACK
6
CONTINUOUS
10
0.530453
20
-1.0929
11
0.530453
21
-1.2499
0
LINE
8
BLACK
6
CONTINUOUS
10
0.451953
20
-1.1714
11
0.608953
21
-1.1714
0
LINE
8
BLACK
6
CONTINUOUS
10
0.624203
20
-1.8429
11
0.624203
21
-1.9999
0
LINE
8
BLACK
6
CONTINUOUS
10
0.545703
20
-1.9214
11
0.702703
21
-1.9214
0
LINE
8
BLACK
6
CONTINUOUS
10
0.717953
20
-3.3429
11
0.717953
21
-3.4999
0
LINE
8
BLACK
6
CONTINUOUS
10
0.639453
20
-3.4214
11
0.796453
21
-3.4214
0
LINE
8
BLACK
6
CONTINUOUS
10
0.811703
20
-2.5929
11
0.811703
21
-2.7499
0
LINE
8
BLACK
6
CONTINUOUS
10
0.733203
20
-2.6714
11
0.890203
21
-2.6714
0
LINE
8
BLACK
6
CONTINUOUS
10
1.09295
20
-0.342898
11
1.09295
21
-0.499898
0
LINE
8
BLACK
6
CONTINUOUS
10
1.01445
20
-0.421398
11
1.17145
21
-0.421398
0
LINE
8
BLACK
6
CONTINUOUS
10
1.46795
20
-1.0929
11
1.46795
21
-1.2499
0
LINE
8
BLACK
6
CONTINUOUS
10
1.38945
20
-1.1714
11
1.54645
21
-1.1714
0
LINE
8
BLACK
6
CONTINUOUS
10
1.46795
20
-3.3429
11
1.46795
21
-3.4999
0
LINE
8
BLACK
6
CONTINUOUS
10
1.38945
20
-3.4214
11
1.54645
21
-3.4214
0
LINE
8
BLACK
6
CONTINUOUS
10
1.65545
20
-1.8429
11
1.65545
21
-1.9999
0
LINE
8
BLACK
6
CONTINUOUS
10
1.57695
20
-1.9214
11
1.73395
21
-1.9214
0
LINE
8
BLACK
6
CONTINUOUS
10
1.84295
20
-0.342898
11
1.84295
21
-0.499898
0
LINE
8
BLACK
6
CONTINUOUS
10
1.76445
20
-0.421398
11
1.92145
21
-0.421398
0
LINE
8
BLACK
6
CONTINUOUS
10
2.03045
20
-2.5929
11
2.03045
21
-2.7499
0
LINE
8
BLACK
6
CONTINUOUS
10
1.95195
20
-2.6714
11
2.10895
21
-2.6714
0
LINE
8
BLACK
6
CONTINUOUS
10
2.21795
20
-1.0929
11
2.21795
21
-1.2499
0
LINE
8
BLACK
6
CONTINUOUS
10
2.13945
20
-1.1714
11
2.29645
21
-1.1714
0
LINE
8
BLACK
6
CONTINUOUS
10
2.40545
20
-1.8429
11
2.40545
21
-1.9999
0
LINE
8
BLACK
6
CONTINUOUS
10
2.32695
20
-1.9214
11
2.48395
21
-1.9214
0
LINE
8
BLACK
6
CONTINUOUS
10
2.40545
20
-3.3429
11
2.40545
21
-3.4999
0
LINE
8
BLACK
6
CONTINUOUS
10
2.32695
20
-3.4214
11
2.48395
21
-3.4214
0
LINE
8
BLACK
6
CONTINUOUS
10
2.59295
20
-0.342898
11
2.59295
21
-0.499898
0
LINE
8
BLACK
6
CONTINUOUS
10
2.51445
20
-0.421398
11
2.67145
21
-0.421398
0
LINE
8
BLACK
6
CONTINUOUS
10
2.78045
20
-2.5929
11
2.78045
21
-2.7499
0
LINE
8
BLACK
6
CONTINUOUS
10
2.70195
20
-2.6714
11
2.85895
21
-2.6714
0
LINE
8
BLACK
6
CONTINUOUS
10
2.96795
20
-1.0929
11
2.96795
21
-1.2499
0
LINE
8
BLACK
6
CONTINUOUS
10
2.88945
20
-1.1714
11
3.04645
21
-1.1714
0
LINE
8
BLACK
6
CONTINUOUS
10
3.15545
20
-1.8429
11
3.15545
21
-1.9999
0
LINE
8
BLACK
6
CONTINUOUS
10
3.07695
20
-1.9214
11
3.23395
21
-1.9214
0
LINE
8
BLACK
6
CONTINUOUS
10
3.34295
20
-0.342898
11
3.34295
21
-0.499898
0
LINE
8
BLACK
6
CONTINUOUS
10
3.26445
20
-0.421398
11
3.42145
21
-0.421398
0
LINE
8
BLACK
6
CONTINUOUS
10
3.43695
20
-3.0179
11
3.43695
21
-3.1749
0
LINE
8
BLACK
6
CONTINUOUS
10
3.35845
20
-3.0964
11
3.51545
21
-3.0964
0
LINE
8
BLACK
6
CONTINUOUS
10
3.53045
20
-2.5929
11
3.53045
21
-2.7499
0
LINE
8
BLACK
6
CONTINUOUS
10
3.45195
20
-2.6714
11
3.60895
21
-2.6714
0
LINE
8
BLACK
6
CONTINUOUS
10
3.71795
20
-1.0929
11
3.71795
21
-1.2499
0
LINE
8
BLACK
6
CONTINUOUS
10
3.63945
20
-1.1714
11
3.79645
21
-1.1714
0
LINE
8
BLACK
6
CONTINUOUS
10
3.90545
20
-1.8429
11
3.90545
21
-1.9999
0
LINE
8
BLACK
6
CONTINUOUS
10
3.82695
20
-1.9214
11
3.98395
21
-1.9214
0
LINE
8
BLACK
6
CONTINUOUS
10
4.09295
20
-0.342898
11
4.09295
21
-0.499898
0
LINE
8
BLACK
6
CONTINUOUS
10
4.01445
20
-0.421398
11
4.17145
21
-0.421398
0
LINE
8
BLACK
6
CONTINUOUS
10
4.28045
20
-2.5929
11
4.28045
21
-2.7499
0
LINE
8
BLACK
6
CONTINUOUS
10
4.20195
20
-2.6714
11
4.35895
21
-2.6714
0
LINE
8
BLACK
6
CONTINUOUS
10
4.46795
20
-1.0929
11
4.46795
21
-1.2499
0
LINE
8
BLACK
6
CONTINUOUS
10
4.38945
20
-1.1714
11
4.54645
21
-1.1714
0
LINE
8
BLACK
6
CONTINUOUS
10
4.65545
20
-1.8429
11
4.65545
21
-1.9999
0
LINE
8
BLACK
6
CONTINUOUS
10
4.57695
20
-1.9214
11
4.73395
21
-1.9214
0
LINE
8
BLACK
6
CONTINUOUS
10
4.84295
20
-0.342898
11
4.84295
21
-0.499898
0
LINE
8
BLACK
6
CONTINUOUS
10
4.76445
20
-0.421398
11
4.92145
21
-0.421398
0
LINE
8
BLACK
6
CONTINUOUS
10
5.03045
20
-2.5929
11
5.03045
21
-2.7499
0
LINE
8
BLACK
6
CONTINUOUS
10
4.95195
20
-2.6714
11
5.10895
21
-2.6714
0
LINE
8
BLACK
6
CONTINUOUS
10
5.21795
20
-1.0929
11
5.21795
21
-1.2499
0
LINE
8
BLACK
6
CONTINUOUS
10
5.13945
20
-1.1714
11
5.29645
21
-1.1714
0
LINE
8
BLACK
6
CONTINUOUS
10
5.40545
20
-1.8429
11
5.40545
21
-1.9999
0
LINE
8
BLACK
6
CONTINUOUS
10
5.32695
20
-1.9214
11
5.48395
21
-1.9214
0
LINE
8
BLACK
6
CONTINUOUS
10
5.40545
20
-3.3429
11
5.40545
21
-3.4999
0
LINE
8
BLACK
6
CONTINUOUS
10
5.32695
20
-3.4214
11
5.48395
21
-3.4214
0
LINE
8
BLACK
6
CONTINUOUS
10
5.59295
20
-0.342898
11
5.59295
21
-0.499898
0
LINE
8
BLACK
6
CONTINUOUS
10
5.51445
20
-0.421398
11
5.67145
21
-0.421398
0
LINE
8
BLACK
6
CONTINUOUS
10
5.78045
20
-2.5929
11
5.78045
21
-2.7499
0
LINE
8
BLACK
6
CONTINUOUS
10
5.70195
20
-2.6714
11
5.85895
21
-2.6714
0
LINE
8
BLACK
6
CONTINUOUS
10
5.96795
20
-1.0929
11
5.96795
21
-1.2499
0
LINE
8
BLACK
6
CONTINUOUS
10
5.88945
20
-1.1714
11
6.04645
21
-1.1714
0
LINE
8
BLACK
6
CONTINUOUS
10
6.15545
20
-1.8429
11
6.15545
21
-1.9999
0
LINE
8
BLACK
6
CONTINUOUS
10
6.07695
20
-1.9214
11
6.23395
21
-1.9214
0
LINE
8
BLACK
6
CONTINUOUS
10
6.34295
20
-0.342898
11
6.34295
21
-0.499898
0
LINE
8
BLACK
6
CONTINUOUS
10
6.26445
20
-0.421398
11
6.42145
21
-0.421398
0
LINE
8
BLACK
6
CONTINUOUS
10
6.53045
20
-2.5929
11
6.53045
21
-2.7499
0
LINE
8
BLACK
6
CONTINUOUS
10
6.45195
20
-2.6714
11
6.60895
21
-2.6714
0
LINE
8
BLACK
6
CONTINUOUS
10
6.71795
20
-1.0929
11
6.71795
21
-1.2499
0
LINE
8
BLACK
6
CONTINUOUS
10
6.63945
20
-1.1714
11
6.79645
21
-1.1714
0
LINE
8
BLACK
6
CONTINUOUS
10
6.90545
20
-1.8429
11
6.90545
21
-1.9999
0
LINE
8
BLACK
6
CONTINUOUS
10
6.82695
20
-1.9214
11
6.98395
21
-1.9214
0
LINE
8
BLACK
6
CONTINUOUS
10
7.09295
20
-0.342898
11
7.09295
21
-0.499898
0
LINE
8
BLACK
6
CONTINUOUS
10
7.01445
20
-0.421398
11
7.17145
21
-0.421398
0
LINE
8
BLACK
6
CONTINUOUS
10
7.28045
20
-2.5929
11
7.28045
21
-2.7499
0
LINE
8
BLACK
6
CONTINUOUS
10
7.20195
20
-2.6714
11
7.35895
21
-2.6714
0
LINE
8
BLACK
6
CONTINUOUS
10
7.37395
20
-3.0179
11
7.37395
21
-3.1749
0
LINE
8
BLACK
6
CONTINUOUS
10
7.29545
20
-3.0964
11
7.45245
21
-3.0964
0
LINE
8
BLACK
6
CONTINUOUS
10
7.46795
20
-1.0929
11
7.46795
21
-1.2499
0
LINE
8
BLACK
6
CONTINUOUS
10
7.38945
20
-1.1714
11
7.54645
21
-1.1714
0
LINE
8
BLACK
6
CONTINUOUS
10
7.65545
20
-1.8429
11
7.65545
21
-1.9999
0
LINE
8
BLACK
6
CONTINUOUS
10
7.57695
20
-1.9214
11
7.73395
21
-1.9214
0
LINE
8
BLACK
6
CONTINUOUS
10
7.84295
20
-0.342898
11
7.84295
21
-0.499898
0
LINE
8
BLACK
6
CONTINUOUS
10
7.76445
20
-0.421398
11
7.92145
21
-0.421398
0
LINE
8
BLACK
6
CONTINUOUS
10
8.03045
20
-2.5929
11
8.03045
21
-2.7499
0
LINE
8
BLACK
6
CONTINUOUS
10
7.95195
20
-2.6714
11
8.10895
21
-2.6714
0
LINE
8
BLACK
6
CONTINUOUS
10
8.21795
20
-1.0929
11
8.21795
21
-1.2499
0
LINE
8
BLACK
6
CONTINUOUS
10
8.13945
20
-1.1714
11
8.29645
21
-1.1714
0
LINE
8
BLACK
6
CONTINUOUS
10
8.40545
20
-1.8429
11
8.40545
21
-1.9999
0
LINE
8
BLACK
6
CONTINUOUS
10
8.32695
20
-1.9214
11
8.48395
21
-1.9214
0
LINE
8
BLACK
6
CONTINUOUS
10
8.40545
20
-3.3429
11
8.40545
21
-3.4999
0
LINE
8
BLACK
6
CONTINUOUS
10
8.32695
20
-3.4214
11
8.48395
21
-3.4214
0
LINE
8
BLACK
6
CONTINUOUS
10
8.59295
20
-0.342898
11
8.59295
21
-0.499898
0
LINE
8
BLACK
6
CONTINUOUS
10
8.51445
20
-0.421398
11
8.67145
21
-0.421398
0
LINE
8
BLACK
6
CONTINUOUS
10
8.78045
20
-2.5929
11
8.78045
21
-2.7499
0
LINE
8
BLACK
6
CONTINUOUS
10
8.70195
20
-2.6714
11
8.85895
21
-2.6714
0
LINE
8
BLACK
6
CONTINUOUS
10
8.96795
20
-1.0929
11
8.96795
21
-1.2499
0
LINE
8
BLACK
6
CONTINUOUS
10
8.88945
20
-1.1714
11
9.04645
21
-1.1714
0
LINE
8
BLACK
6
CONTINUOUS
10
9.15545
20
-1.8429
11
9.15545
21
-1.9999
0
LINE
8
BLACK
6
CONTINUOUS
10
9.07695
20
-1.9214
11
9.23395
21
-1.9214
0
LINE
8
BLACK
6
CONTINUOUS
10
9.34295
20
-0.342898
11
9.34295
21
-0.499898
0
LINE
8
BLACK
6
CONTINUOUS
10
9.26445
20
-0.421398
11
9.42145
21
-0.421398
0
LINE
8
BLACK
6
CONTINUOUS
10
9.34295
20
-3.3429
11
9.34295
21
-3.4999
0
LINE
8
BLACK
6
CONTINUOUS
10
9.26445
20
-3.4214
11
9.42145
21
-3.4214
0
LINE
8
BLACK
6
CONTINUOUS
10
9.71795
20
-1.0929
11
9.71795
21
-1.2499
0
LINE
8
BLACK
6
CONTINUOUS
10
9.63945
20
-1.1714
11
9.79645
21
-1.1714
0
LINE
8
BLACK
6
CONTINUOUS
10
9.8117
20
-2.5929
11
9.8117
21
-2.7499
0
LINE
8
BLACK
6
CONTINUOUS
10
9.7332
20
-2.6714
11
9.8902
21
-2.6714
0
LINE
8
BLACK
6
CONTINUOUS
10
10.093
20
-0.342898
11
10.093
21
-0.499898
0
LINE
8
BLACK
6
CONTINUOUS
10
10.0145
20
-0.421398
11
10.1715
21
-0.421398
0
LINE
8
BLACK
6
CONTINUOUS
10
10.3742
20
-1.8429
11
10.3742
21
-1.9999
0
LINE
8
BLACK
6
CONTINUOUS
10
10.2957
20
-1.9214
11
10.4527
21
-1.9214
0
LINE
8
BLACK
6
CONTINUOUS
10
10.6555
20
-1.0929
11
10.6555
21
-1.2499
0
LINE
8
BLACK
6
CONTINUOUS
10
10.577
20
-1.1714
11
10.734
21
-1.1714
0
LINE
8
BLACK
6
CONTINUOUS
10
10.843
20
-0.342898
11
10.843
21
-0.499898
0
LINE
8
BLACK
6
CONTINUOUS
10
10.7645
20
-0.421398
11
10.9215
21
-0.421398
0
LINE
8
BLACK
6
CONTINUOUS
10
10.843
20
-2.5929
11
10.843
21
-2.7499
0
LINE
8
BLACK
6
CONTINUOUS
10
10.7645
20
-2.6714
11
10.9215
21
-2.6714
0
LINE
8
BLACK
6
CONTINUOUS
10
0.094535
20
-4.0555
11
0.094535
21
-3.97676
0
LINE
8
BLACK
6
CONTINUOUS
10
0.094535
20
-3.97676
11
0.113283
21
-3.97676
0
LINE
8
BLACK
6
CONTINUOUS
10
0.113283
20
-3.97676
11
0.124531
21
-3.98051
0
LINE
8
BLACK
6
CONTINUOUS
10
0.124531
20
-3.98051
11
0.13203
21
-3.98801
0
LINE
8
BLACK
6
CONTINUOUS
10
0.13203
20
-3.98801
11
0.13578
21
-3.99551
0
LINE
8
BLACK
6
CONTINUOUS
10
0.13578
20
-3.99551
11
0.139529
21
-4.01051
0
LINE
8
BLACK
6
CONTINUOUS
10
0.139529
20
-4.01051
11
0.139529
21
-4.02176
0
LINE
8
BLACK
6
CONTINUOUS
10
0.139529
20
-4.02176
11
0.13578
21
-4.03675
0
LINE
8
BLACK
6
CONTINUOUS
10
0.13578
20
-4.03675
11
0.13203
21
-4.04425
0
LINE
8
BLACK
6
CONTINUOUS
10
0.13203
20
-4.04425
11
0.124531
21
-4.05175
0
LINE
8
BLACK
6
CONTINUOUS
10
0.124531
20
-4.05175
11
0.113283
21
-4.0555
0
LINE
8
BLACK
6
CONTINUOUS
10
0.113283
20
-4.0555
11
0.094535
21
-4.0555
0
LINE
8
BLACK
6
CONTINUOUS
10
0.173275
20
-4.0555
11
0.173275
21
-4.00301
0
LINE
8
BLACK
6
CONTINUOUS
10
0.173275
20
-4.01801
11
0.177025
21
-4.01051
0
LINE
8
BLACK
6
CONTINUOUS
10
0.177025
20
-4.01051
11
0.180774
21
-4.00676
0
LINE
8
BLACK
6
CONTINUOUS
10
0.180774
20
-4.00676
11
0.188273
21
-4.00301
0
LINE
8
BLACK
6
CONTINUOUS
10
0.188273
20
-4.00301
11
0.195772
21
-4.00301
0
LINE
8
BLACK
6
CONTINUOUS
10
0.222019
20
-4.0555
11
0.222019
21
-4.00301
0
LINE
8
BLACK
6
CONTINUOUS
10
0.222019
20
-3.97676
11
0.21827
21
-3.98051
0
LINE
8
BLACK
6
CONTINUOUS
10
0.21827
20
-3.98051
11
0.222019
21
-3.98426
0
LINE
8
BLACK
6
CONTINUOUS
10
0.222019
20
-3.98426
11
0.225769
21
-3.98051
0
LINE
8
BLACK
6
CONTINUOUS
10
0.225769
20
-3.98051
11
0.222019
21
-3.97676
0
LINE
8
BLACK
6
CONTINUOUS
10
0.222019
20
-3.97676
11
0.222019
21
-3.98426
0
LINE
8
BLACK
6
CONTINUOUS
10
0.270763
20
-4.0555
11
0.263264
21
-4.05175
0
LINE
8
BLACK
6
CONTINUOUS
10
0.263264
20
-4.05175
11
0.259514
21
-4.04425
0
LINE
8
BLACK
6
CONTINUOUS
10
0.259514
20
-4.04425
11
0.259514
21
-3.97676
0
LINE
8
BLACK
6
CONTINUOUS
10
0.312008
20
-4.0555
11
0.304509
21
-4.05175
0
LINE
8
BLACK
6
CONTINUOUS
10
0.304509
20
-4.05175
11
0.300759
21
-4.04425
0
LINE
8
BLACK
6
CONTINUOUS
10
0.300759
20
-4.04425
11
0.300759
21
-3.97676
0
LINE
8
BLACK
6
CONTINUOUS
10
0.389248
20
-4.0555
11
0.389248
21
-3.97676
0
LINE
8
BLACK
6
CONTINUOUS
10
0.389248
20
-3.97676
11
0.415495
21
-4.03301
0
LINE
8
BLACK
6
CONTINUOUS
10
0.415495
20
-4.03301
11
0.441742
21
-3.97676
0
LINE
8
BLACK
6
CONTINUOUS
10
0.441742
20
-3.97676
11
0.441742
21
-4.0555
0
LINE
8
BLACK
6
CONTINUOUS
10
0.512983
20
-4.0555
11
0.512983
21
-4.01426
0
LINE
8
BLACK
6
CONTINUOUS
10
0.512983
20
-4.01426
11
0.509233
21
-4.00676
0
LINE
8
BLACK
6
CONTINUOUS
10
0.509233
20
-4.00676
11
0.501734
21
-4.00301
0
LINE
8
BLACK
6
CONTINUOUS
10
0.501734
20
-4.00301
11
0.486736
21
-4.00301
0
LINE
8
BLACK
6
CONTINUOUS
10
0.486736
20
-4.00301
11
0.479237
21
-4.00676
0
LINE
8
BLACK
6
CONTINUOUS
10
0.512983
20
-4.05175
11
0.505484
21
-4.0555
0
LINE
8
BLACK
6
CONTINUOUS
10
0.505484
20
-4.0555
11
0.486736
21
-4.0555
0
LINE
8
BLACK
6
CONTINUOUS
10
0.486736
20
-4.0555
11
0.479237
21
-4.05175
0
LINE
8
BLACK
6
CONTINUOUS
10
0.479237
20
-4.05175
11
0.475487
21
-4.04425
0
LINE
8
BLACK
6
CONTINUOUS
10
0.475487
20
-4.04425
11
0.475487
21
-4.03675
0
LINE
8
BLACK
6
CONTINUOUS
10
0.475487
20
-4.03675
11
0.479237
21
-4.02926
0
LINE
8
BLACK
6
CONTINUOUS
10
0.479237
20
-4.02926
11
0.486736
21
-4.02551
0
LINE
8
BLACK
6
CONTINUOUS
10
0.486736
20
-4.02551
11
0.505484
21
-4.02551
0
LINE
8
BLACK
6
CONTINUOUS
10
0.505484
20
-4.02551
11
0.512983
21
-4.02176
0
LINE
8
BLACK
6
CONTINUOUS
10
0.550478
20
-4.00301
11
0.550478
21
-4.08175
0
LINE
8
BLACK
6
CONTINUOUS
10
0.550478
20
-4.00676
11
0.557977
21
-4.00301
0
LINE
8
BLACK
6
CONTINUOUS
10
0.557977
20
-4.00301
11
0.572975
21
-4.00301
0
LINE
8
BLACK
6
CONTINUOUS
10
0.572975
20
-4.00301
11
0.580474
21
-4.00676
0
LINE
8
BLACK
6
CONTINUOUS
10
0.580474
20
-4.00676
11
0.584224
21
-4.01051
0
LINE
8
BLACK
6
CONTINUOUS
10
0.584224
20
-4.01051
11
0.587973
21
-4.01801
0
LINE
8
BLACK
6
CONTINUOUS
10
0.587973
20
-4.01801
11
0.587973
21
-4.0405
0
LINE
8
BLACK
6
CONTINUOUS
10
0.587973
20
-4.0405
11
0.584224
21
-4.048
0
LINE
8
BLACK
6
CONTINUOUS
10
0.584224
20
-4.048
11
0.580474
21
-4.05175
0
LINE
8
BLACK
6
CONTINUOUS
10
0.580474
20
-4.05175
11
0.572975
21
-4.0555
0
LINE
8
BLACK
6
CONTINUOUS
10
0.572975
20
-4.0555
11
0.557977
21
-4.0555
0
LINE
8
BLACK
6
CONTINUOUS
10
0.557977
20
-4.0555
11
0.550478
21
-4.05175
0
LINE
8
BLACK
6
CONTINUOUS
10
0.621719
20
-4.048
11
0.625469
21
-4.05175
0
LINE
8
BLACK
6
CONTINUOUS
10
0.625469
20
-4.05175
11
0.621719
21
-4.0555
0
LINE
8
BLACK
6
CONTINUOUS
10
0.621719
20
-4.0555
11
0.61797
21
-4.05175
0
LINE
8
BLACK
6
CONTINUOUS
10
0.61797
20
-4.05175
11
0.621719
21
-4.048
0
LINE
8
BLACK
6
CONTINUOUS
10
0.621719
20
-4.048
11
0.621719
21
-4.0555
0
LINE
8
BLACK
6
CONTINUOUS
10
0.621719
20
-4.00676
11
0.625469
21
-4.01051
0
LINE
8
BLACK
6
CONTINUOUS
10
0.625469
20
-4.01051
11
0.621719
21
-4.01426
0
LINE
8
BLACK
6
CONTINUOUS
10
0.621719
20
-4.01426
11
0.61797
21
-4.01051
0
LINE
8
BLACK
6
CONTINUOUS
10
0.61797
20
-4.01051
11
0.621719
21
-4.00676
0
LINE
8
BLACK
6
CONTINUOUS
10
0.621719
20
-4.00676
11
0.621719
21
-4.01426
0
LINE
8
BLACK
6
CONTINUOUS
10
-0.0718504
20
-4.15748
11
-0.00295276
21
-4.22638
0
LINE
8
BLACK
6
CONTINUOUS
10
-0.00295276
20
-4.15748
11
-0.0718504
21
-4.22638
0
LINE
8
BLACK
6
CONTINUOUS
10
0.13578
20
-4.22086
11
0.0907855
21
-4.22086
0
LINE
8
BLACK
6
CONTINUOUS
10
0.113283
20
-4.22086
11
0.113283
21
-4.14212
0
LINE
8
BLACK
6
CONTINUOUS
10
0.113283
20
-4.14212
11
0.105784
21
-4.15337
0
LINE
8
BLACK
6
CONTINUOUS
10
0.105784
20
-4.15337
11
0.0982846
21
-4.16086
0
LINE
8
BLACK
6
CONTINUOUS
10
0.0982846
20
-4.16086
11
0.0907855
21
-4.16461
0
LINE
8
BLACK
6
CONTINUOUS
10
0.169526
20
-4.21336
11
0.173275
21
-4.21711
0
LINE
8
BLACK
6
CONTINUOUS
10
0.173275
20
-4.21711
11
0.169526
21
-4.22086
0
LINE
8
BLACK
6
CONTINUOUS
10
0.169526
20
-4.22086
11
0.165776
21
-4.21711
0
LINE
8
BLACK
6
CONTINUOUS
10
0.165776
20
-4.21711
11
0.169526
21
-4.21336
0
LINE
8
BLACK
6
CONTINUOUS
10
0.169526
20
-4.21336
11
0.169526
21
-4.22086
0
LINE
8
BLACK
6
CONTINUOUS
10
0.199522
20
-4.14212
11
0.252015
21
-4.14212
0
LINE
8
BLACK
6
CONTINUOUS
10
0.252015
20
-4.14212
11
0.21827
21
-4.22086
0
LINE
8
BLACK
6
CONTINUOUS
10
0.319507
20
-4.14212
11
0.282012
21
-4.14212
0
LINE
8
BLACK
6
CONTINUOUS
10
0.282012
20
-4.14212
11
0.278262
21
-4.17961
0
LINE
8
BLACK
6
CONTINUOUS
10
0.278262
20
-4.17961
11
0.282012
21
-4.17586
0
LINE
8
BLACK
6
CONTINUOUS
10
0.282012
20
-4.17586
11
0.289511
21
-4.17211
0
LINE
8
BLACK
6
CONTINUOUS
10
0.289511
20
-4.17211
11
0.308258
21
-4.17211
0
LINE
8
BLACK
6
CONTINUOUS
10
0.308258
20
-4.17211
11
0.315757
21
-4.17586
0
LINE
8
BLACK
6
CONTINUOUS
10
0.315757
20
-4.17586
11
0.319507
21
-4.17961
0
LINE
8
BLACK
6
CONTINUOUS
10
0.319507
20
-4.17961
11
0.323256
21
-4.18711
0
LINE
8
BLACK
6
CONTINUOUS
10
0.323256
20
-4.18711
11
0.323256
21
-4.20586
0
LINE
8
BLACK
6
CONTINUOUS
10
0.323256
20
-4.20586
11
0.319507
21
-4.21336
0
LINE
8
BLACK
6
CONTINUOUS
10
0.319507
20
-4.21336
11
0.315757
21
-4.21711
0
LINE
8
BLACK
6
CONTINUOUS
10
0.315757
20
-4.21711
11
0.308258
21
-4.22086
0
LINE
8
BLACK
6
CONTINUOUS
10
0.308258
20
-4.22086
11
0.289511
21
-4.22086
0
LINE
8
BLACK
6
CONTINUOUS
10
0.289511
20
-4.22086
11
0.282012
21
-4.21711
0
LINE
8
BLACK
6
CONTINUOUS
10
0.282012
20
-4.21711
11
0.278262
21
-4.21336
0
LINE
8
BLACK
6
CONTINUOUS
10
0.372
20
-4.14212
11
0.379499
21
-4.14212
0
LINE
8
BLACK
6
CONTINUOUS
10
0.379499
20
-4.14212
11
0.386999
21
-4.14587
0
LINE
8
BLACK
6
CONTINUOUS
10
0.386999
20
-4.14587
11
0.390748
21
-4.14962
0
LINE
8
BLACK
6
CONTINUOUS
10
0.390748
20
-4.14962
11
0.394498
21
-4.15711
0
LINE
8
BLACK
6
CONTINUOUS
10
0.394498
20
-4.15711
11
0.398247
21
-4.17211
0
LINE
8
BLACK
6
CONTINUOUS
10
0.398247
20
-4.17211
11
0.398247
21
-4.19086
0
LINE
8
BLACK
6
CONTINUOUS
10
0.398247
20
-4.19086
11
0.394498
21
-4.20586
0
LINE
8
BLACK
6
CONTINUOUS
10
0.394498
20
-4.20586
11
0.390748
21
-4.21336
0
LINE
8
BLACK
6
CONTINUOUS
10
0.390748
20
-4.21336
11
0.386999
21
-4.21711
0
LINE
8
BLACK
6
CONTINUOUS
10
0.386999
20
-4.21711
11
0.379499
21
-4.22086
0
LINE
8
BLACK
6
CONTINUOUS
10
0.379499
20
-4.22086
11
0.372
21
-4.22086
0
LINE
8
BLACK
6
CONTINUOUS
10
0.372
20
-4.22086
11
0.364501
21
-4.21711
0
LINE
8
BLACK
6
CONTINUOUS
10
0.364501
20
-4.21711
11
0.360752
21
-4.21336
0
LINE
8
BLACK
6
CONTINUOUS
10
0.360752
20
-4.21336
11
0.357002
21
-4.20586
0
LINE
8
BLACK
6
CONTINUOUS
10
0.357002
20
-4.20586
11
0.353253
21
-4.19086
0
LINE
8
BLACK
6
CONTINUOUS
10
0.353253
20
-4.19086
11
0.353253
21
-4.17211
0
LINE
8
BLACK
6
CONTINUOUS
10
0.353253
20
-4.17211
11
0.357002
21
-4.15711
0
LINE
8
BLACK
6
CONTINUOUS
10
0.357002
20
-4.15711
11
0.360752
21
-4.14962
0
LINE
8
BLACK
6
CONTINUOUS
10
0.360752
20
-4.14962
11
0.364501
21
-4.14587
0
LINE
8
BLACK
6
CONTINUOUS
10
0.364501
20
-4.14587
11
0.372
21
-4.14212
0
LINE
8
BLACK
6
CONTINUOUS
10
0.431993
20
-4.22086
11
0.431993
21
-4.16836
0
LINE
8
BLACK
6
CONTINUOUS
10
0.431993
20
-4.17586
11
0.435742
21
-4.17211
0
LINE
8
BLACK
6
CONTINUOUS
10
0.435742
20
-4.17211
11
0.443241
21
-4.16836
0
LINE
8
BLACK
6
CONTINUOUS
10
0.443241
20
-4.16836
11
0.45449
21
-4.16836
0
LINE
8
BLACK
6
CONTINUOUS
10
0.45449
20
-4.16836
11
0.461989
21
-4.17211
0
LINE
8
BLACK
6
CONTINUOUS
10
0.461989
20
-4.17211
11
0.465739
21
-4.17961
0
LINE
8
BLACK
6
CONTINUOUS
10
0.465739
20
-4.17961
11
0.465739
21
-4.22086
0
LINE
8
BLACK
6
CONTINUOUS
10
0.465739
20
-4.17961
11
0.469488
21
-4.17211
0
LINE
8
BLACK
6
CONTINUOUS
10
0.469488
20
-4.17211
11
0.476987
21
-4.16836
0
LINE
8
BLACK
6
CONTINUOUS
10
0.476987
20
-4.16836
11
0.488236
21
-4.16836
0
LINE
8
BLACK
6
CONTINUOUS
10
0.488236
20
-4.16836
11
0.495735
21
-4.17211
0
LINE
8
BLACK
6
CONTINUOUS
10
0.495735
20
-4.17211
11
0.499484
21
-4.17961
0
LINE
8
BLACK
6
CONTINUOUS
10
0.499484
20
-4.17961
11
0.499484
21
-4.22086
0
LINE
8
BLACK
6
CONTINUOUS
10
0.53698
20
-4.22086
11
0.53698
21
-4.16836
0
LINE
8
BLACK
6
CONTINUOUS
10
0.53698
20
-4.17586
11
0.540729
21
-4.17211
0
LINE
8
BLACK
6
CONTINUOUS
10
0.540729
20
-4.17211
11
0.548228
21
-4.16836
0
LINE
8
BLACK
6
CONTINUOUS
10
0.548228
20
-4.16836
11
0.559477
21
-4.16836
0
LINE
8
BLACK
6
CONTINUOUS
10
0.559477
20
-4.16836
11
0.566976
21
-4.17211
0
LINE
8
BLACK
6
CONTINUOUS
10
0.566976
20
-4.17211
11
0.570726
21
-4.17961
0
LINE
8
BLACK
6
CONTINUOUS
10
0.570726
20
-4.17961
11
0.570726
21
-4.22086
0
LINE
8
BLACK
6
CONTINUOUS
10
0.570726
20
-4.17961
11
0.574475
21
-4.17211
0
LINE
8
BLACK
6
CONTINUOUS
10
0.574475
20
-4.17211
11
0.581974
21
-4.16836
0
LINE
8
BLACK
6
CONTINUOUS
10
0.581974
20
-4.16836
11
0.593223
21
-4.16836
0
LINE
8
BLACK
6
CONTINUOUS
10
0.593223
20
-4.16836
11
0.600722
21
-4.17211
0
LINE
8
BLACK
6
CONTINUOUS
10
0.600722
20
-4.17211
11
0.604471
21
-4.17961
0
LINE
8
BLACK
6
CONTINUOUS
10
0.604471
20
-4.17961
11
0.604471
21
-4.22086
0
LINE
8
BLACK
6
CONTINUOUS
10
0.745454
20
-4.13837
11
0.677962
21
-4.2396
0
LINE
8
BLACK
6
CONTINUOUS
10
0.833943
20
-4.14212
11
0.841442
21
-4.14212
0
LINE
8
BLACK
6
CONTINUOUS
10
0.841442
20
-4.14212
11
0.848941
21
-4.14587
0
LINE
8
BLACK
6
CONTINUOUS
10
0.848941
20
-4.14587
11
0.85269
21
-4.14962
0
LINE
8
BLACK
6
CONTINUOUS
10
0.85269
20
-4.14962
11
0.85644
21
-4.15711
0
LINE
8
BLACK
6
CONTINUOUS
10
0.85644
20
-4.15711
11
0.860189
21
-4.17211
0
LINE
8
BLACK
6
CONTINUOUS
10
0.860189
20
-4.17211
11
0.860189
21
-4.19086
0
LINE
8
BLACK
6
CONTINUOUS
10
0.860189
20
-4.19086
11
0.85644
21
-4.20586
0
LINE
8
BLACK
6
CONTINUOUS
10
0.85644
20
-4.20586
11
0.85269
21
-4.21336
0
LINE
8
BLACK
6
CONTINUOUS
10
0.85269
20
-4.21336
11
0.848941
21
-4.21711
0
LINE
8
BLACK
6
CONTINUOUS
10
0.848941
20
-4.21711
11
0.841442
21
-4.22086
0
LINE
8
BLACK
6
CONTINUOUS
10
0.841442
20
-4.22086
11
0.833943
21
-4.22086
0
LINE
8
BLACK
6
CONTINUOUS
10
0.833943
20
-4.22086
11
0.826444
21
-4.21711
0
LINE
8
BLACK
6
CONTINUOUS
10
0.826444
20
-4.21711
11
0.822694
21
-4.21336
0
LINE
8
BLACK
6
CONTINUOUS
10
0.822694
20
-4.21336
11
0.818945
21
-4.20586
0
LINE
8
BLACK
6
CONTINUOUS
10
0.818945
20
-4.20586
11
0.815195
21
-4.19086
0
LINE
8
BLACK
6
CONTINUOUS
10
0.815195
20
-4.19086
11
0.815195
21
-4.17211
0
LINE
8
BLACK
6
CONTINUOUS
10
0.815195
20
-4.17211
11
0.818945
21
-4.15711
0
LINE
8
BLACK
6
CONTINUOUS
10
0.818945
20
-4.15711
11
0.822694
21
-4.14962
0
LINE
8
BLACK
6
CONTINUOUS
10
0.822694
20
-4.14962
11
0.826444
21
-4.14587
0
LINE
8
BLACK
6
CONTINUOUS
10
0.826444
20
-4.14587
11
0.833943
21
-4.14212
0
LINE
8
BLACK
6
CONTINUOUS
10
0.893935
20
-4.21336
11
0.897685
21
-4.21711
0
LINE
8
BLACK
6
CONTINUOUS
10
0.897685
20
-4.21711
11
0.893935
21
-4.22086
0
LINE
8
BLACK
6
CONTINUOUS
10
0.893935
20
-4.22086
11
0.890186
21
-4.21711
0
LINE
8
BLACK
6
CONTINUOUS
10
0.890186
20
-4.21711
11
0.893935
21
-4.21336
0
LINE
8
BLACK
6
CONTINUOUS
10
0.893935
20
-4.21336
11
0.893935
21
-4.22086
0
LINE
8
BLACK
6
CONTINUOUS
10
0.946429
20
-4.14212
11
0.953928
21
-4.14212
0
LINE
8
BLACK
6
CONTINUOUS
10
0.953928
20
-4.14212
11
0.961427
21
-4.14587
0
LINE
8
BLACK
6
CONTINUOUS
10
0.961427
20
-4.14587
11
0.965176
21
-4.14962
0
LINE
8
BLACK
6
CONTINUOUS
10
0.965176
20
-4.14962
11
0.968926
21
-4.15711
0
LINE
8
BLACK
6
CONTINUOUS
10
0.968926
20
-4.15711
11
0.972675
21
-4.17211
0
LINE
8
BLACK
6
CONTINUOUS
10
0.972675
20
-4.17211
11
0.972675
21
-4.19086
0
LINE
8
BLACK
6
CONTINUOUS
10
0.972675
20
-4.19086
11
0.968926
21
-4.20586
0
LINE
8
BLACK
6
CONTINUOUS
10
0.968926
20
-4.20586
11
0.965176
21
-4.21336
0
LINE
8
BLACK
6
CONTINUOUS
10
0.965176
20
-4.21336
11
0.961427
21
-4.21711
0
LINE
8
BLACK
6
CONTINUOUS
10
0.961427
20
-4.21711
11
0.953928
21
-4.22086
0
LINE
8
BLACK
6
CONTINUOUS
10
0.953928
20
-4.22086
11
0.946429
21
-4.22086
0
LINE
8
BLACK
6
CONTINUOUS
10
0.946429
20
-4.22086
11
0.93893
21
-4.21711
0
LINE
8
BLACK
6
CONTINUOUS
10
0.93893
20
-4.21711
11
0.93518
21
-4.21336
0
LINE
8
BLACK
6
CONTINUOUS
10
0.93518
20
-4.21336
11
0.93143
21
-4.20586
0
LINE
8
BLACK
6
CONTINUOUS
10
0.93143
20
-4.20586
11
0.927681
21
-4.19086
0
LINE
8
BLACK
6
CONTINUOUS
10
0.927681
20
-4.19086
11
0.927681
21
-4.17211
0
LINE
8
BLACK
6
CONTINUOUS
10
0.927681
20
-4.17211
11
0.93143
21
-4.15711
0
LINE
8
BLACK
6
CONTINUOUS
10
0.93143
20
-4.15711
11
0.93518
21
-4.14962
0
LINE
8
BLACK
6
CONTINUOUS
10
0.93518
20
-4.14962
11
0.93893
21
-4.14587
0
LINE
8
BLACK
6
CONTINUOUS
10
0.93893
20
-4.14587
11
0.946429
21
-4.14212
0
LINE
8
BLACK
6
CONTINUOUS
10
1.04017
20
-4.14212
11
1.02517
21
-4.14212
0
LINE
8
BLACK
6
CONTINUOUS
10
1.02517
20
-4.14212
11
1.01767
21
-4.14587
0
LINE
8
BLACK
6
CONTINUOUS
10
1.01767
20
-4.14587
11
1.01392
21
-4.14962
0
LINE
8
BLACK
6
CONTINUOUS
10
1.01392
20
-4.14962
11
1.00642
21
-4.16086
0
LINE
8
BLACK
6
CONTINUOUS
10
1.00642
20
-4.16086
11
1.00267
21
-4.17586
0
LINE
8
BLACK
6
CONTINUOUS
10
1.00267
20
-4.17586
11
1.00267
21
-4.20586
0
LINE
8
BLACK
6
CONTINUOUS
10
1.00267
20
-4.20586
11
1.00642
21
-4.21336
0
LINE
8
BLACK
6
CONTINUOUS
10
1.00642
20
-4.21336
11
1.01017
21
-4.21711
0
LINE
8
BLACK
6
CONTINUOUS
10
1.01017
20
-4.21711
11
1.01767
21
-4.22086
0
LINE
8
BLACK
6
CONTINUOUS
10
1.01767
20
-4.22086
11
1.03267
21
-4.22086
0
LINE
8
BLACK
6
CONTINUOUS
10
1.03267
20
-4.22086
11
1.04017
21
-4.21711
0
LINE
8
BLACK
6
CONTINUOUS
10
1.04017
20
-4.21711
11
1.04392
21
-4.21336
0
LINE
8
BLACK
6
CONTINUOUS
10
1.04392
20
-4.21336
11
1.04767
21
-4.20586
0
LINE
8
BLACK
6
CONTINUOUS
10
1.04767
20
-4.20586
11
1.04767
21
-4.18711
0
LINE
8
BLACK
6
CONTINUOUS
10
1.04767
20
-4.18711
11
1.04392
21
-4.17961
0
LINE
8
BLACK
6
CONTINUOUS
10
1.04392
20
-4.17961
11
1.04017
21
-4.17586
0
LINE
8
BLACK
6
CONTINUOUS
10
1.04017
20
-4.17586
11
1.03267
21
-4.17211
0
LINE
8
BLACK
6
CONTINUOUS
10
1.03267
20
-4.17211
11
1.01767
21
-4.17211
0
LINE
8
BLACK
6
CONTINUOUS
10
1.01767
20
-4.17211
11
1.01017
21
-4.17586
0
LINE
8
BLACK
6
CONTINUOUS
10
1.01017
20
-4.17586
11
1.00642
21
-4.17961
0
LINE
8
BLACK
6
CONTINUOUS
10
1.00642
20
-4.17961
11
1.00267
21
-4.18711
0
LINE
8
BLACK
6
CONTINUOUS
10
1.09266
20
-4.17586
11
1.08516
21
-4.17211
0
LINE
8
BLACK
6
CONTINUOUS
10
1.08516
20
-4.17211
11
1.08141
21
-4.16836
0
LINE
8
BLACK
6
CONTINUOUS
10
1.08141
20
-4.16836
11
1.07766
21
-4.16086
0
LINE
8
BLACK
6
CONTINUOUS
10
1.07766
20
-4.16086
11
1.07766
21
-4.15711
0
LINE
8
BLACK
6
CONTINUOUS
10
1.07766
20
-4.15711
11
1.08141
21
-4.14962
0
LINE
8
BLACK
6
CONTINUOUS
10
1.08141
20
-4.14962
11
1.08516
21
-4.14587
0
LINE
8
BLACK
6
CONTINUOUS
10
1.08516
20
-4.14587
11
1.09266
21
-4.14212
0
LINE
8
BLACK
6
CONTINUOUS
10
1.09266
20
-4.14212
11
1.10766
21
-4.14212
0
LINE
8
BLACK
6
CONTINUOUS
10
1.10766
20
-4.14212
11
1.11516
21
-4.14587
0
LINE
8
BLACK
6
CONTINUOUS
10
1.11516
20
-4.14587
11
1.11891
21
-4.14962
0
LINE
8
BLACK
6
CONTINUOUS
10
1.11891
20
-4.14962
11
1.12266
21
-4.15711
0
LINE
8
BLACK
6
CONTINUOUS
10
1.12266
20
-4.15711
11
1.12266
21
-4.16086
0
LINE
8
BLACK
6
CONTINUOUS
10
1.12266
20
-4.16086
11
1.11891
21
-4.16836
0
LINE
8
BLACK
6
CONTINUOUS
10
1.11891
20
-4.16836
11
1.11516
21
-4.17211
0
LINE
8
BLACK
6
CONTINUOUS
10
1.11516
20
-4.17211
11
1.10766
21
-4.17586
0
LINE
8
BLACK
6
CONTINUOUS
10
1.10766
20
-4.17586
11
1.09266
21
-4.17586
0
LINE
8
BLACK
6
CONTINUOUS
10
1.09266
20
-4.17586
11
1.08516
21
-4.17961
0
LINE
8
BLACK
6
CONTINUOUS
10
1.08516
20
-4.17961
11
1.08141
21
-4.18336
0
LINE
8
BLACK
6
CONTINUOUS
10
1.08141
20
-4.18336
11
1.07766
21
-4.19086
0
LINE
8
BLACK
6
CONTINUOUS
10
1.07766
20
-4.19086
11
1.07766
21
-4.20586
0
LINE
8
BLACK
6
CONTINUOUS
10
1.07766
20
-4.20586
11
1.08141
21
-4.21336
0
LINE
8
BLACK
6
CONTINUOUS
10
1.08141
20
-4.21336
11
1.08516
21
-4.21711
0
LINE
8
BLACK
6
CONTINUOUS
10
1.08516
20
-4.21711
11
1.09266
21
-4.22086
0
LINE
8
BLACK
6
CONTINUOUS
10
1.09266
20
-4.22086
11
1.10766
21
-4.22086
0
LINE
8
BLACK
6
CONTINUOUS
10
1.10766
20
-4.22086
11
1.11516
21
-4.21711
0
LINE
8
BLACK
6
CONTINUOUS
10
1.11516
20
-4.21711
11
1.11891
21
-4.21336
0
LINE
8
BLACK
6
CONTINUOUS
10
1.11891
20
-4.21336
11
1.12266
21
-4.20586
0
LINE
8
BLACK
6
CONTINUOUS
10
1.12266
20
-4.20586
11
1.12266
21
-4.19086
0
LINE
8
BLACK
6
CONTINUOUS
10
1.12266
20
-4.19086
11
1.11891
21
-4.18336
0
LINE
8
BLACK
6
CONTINUOUS
10
1.11891
20
-4.18336
11
1.11516
21
-4.17961
0
LINE
8
BLACK
6
CONTINUOUS
10
1.11516
20
-4.17961
11
1.10766
21
-4.17586
0
LINE
8
BLACK
6
CONTINUOUS
10
1.16015
20
-4.22086
11
1.17515
21
-4.22086
0
LINE
8
BLACK
6
CONTINUOUS
10
1.17515
20
-4.22086
11
1.18265
21
-4.21711
0
LINE
8
BLACK
6
CONTINUOUS
10
1.18265
20
-4.21711
11
1.1864
21
-4.21336
0
LINE
8
BLACK
6
CONTINUOUS
10
1.1864
20
-4.21336
11
1.1939
21
-4.20211
0
LINE
8
BLACK
6
CONTINUOUS
10
1.1939
20
-4.20211
11
1.19765
21
-4.18711
0
LINE
8
BLACK
6
CONTINUOUS
10
1.19765
20
-4.18711
11
1.19765
21
-4.15711
0
LINE
8
BLACK
6
CONTINUOUS
10
1.19765
20
-4.15711
11
1.1939
21
-4.14962
0
LINE
8
BLACK
6
CONTINUOUS
10
1.1939
20
-4.14962
11
1.19015
21
-4.14587
0
LINE
8
BLACK
6
CONTINUOUS
10
1.19015
20
-4.14587
11
1.18265
21
-4.14212
0
LINE
8
BLACK
6
CONTINUOUS
10
1.18265
20
-4.14212
11
1.16765
21
-4.14212
0
LINE
8
BLACK
6
CONTINUOUS
10
1.16765
20
-4.14212
11
1.16015
21
-4.14587
0
LINE
8
BLACK
6
CONTINUOUS
10
1.16015
20
-4.14587
11
1.1564
21
-4.14962
0
LINE
8
BLACK
6
CONTINUOUS
10
1.1564
20
-4.14962
11
1.15265
21
-4.15711
0
LINE
8
BLACK
6
CONTINUOUS
10
1.15265
20
-4.15711
11
1.15265
21
-4.17586
0
LINE
8
BLACK
6
CONTINUOUS
10
1.15265
20
-4.17586
11
1.1564
21
-4.18336
0
LINE
8
BLACK
6
CONTINUOUS
10
1.1564
20
-4.18336
11
1.16015
21
-4.18711
0
LINE
8
BLACK
6
CONTINUOUS
10
1.16015
20
-4.18711
11
1.16765
21
-4.19086
0
LINE
8
BLACK
6
CONTINUOUS
10
1.16765
20
-4.19086
11
1.18265
21
-4.19086
0
LINE
8
BLACK
6
CONTINUOUS
10
1.18265
20
-4.19086
11
1.19015
21
-4.18711
0
LINE
8
BLACK
6
CONTINUOUS
10
1.19015
20
-4.18711
11
1.1939
21
-4.18336
0
LINE
8
BLACK
6
CONTINUOUS
10
1.1939
20
-4.18336
11
1.19765
21
-4.17586
0
LINE
8
BLACK
6
CONTINUOUS
10
1.22764
20
-4.14212
11
1.22764
21
-4.15711
0
LINE
8
BLACK
6
CONTINUOUS
10
1.25764
20
-4.14212
11
1.25764
21
-4.15711
0
LINE
8
BLACK
6
CONTINUOUS
10
1.36113
20
-4.25085
11
1.35738
21
-4.2471
0
LINE
8
BLACK
6
CONTINUOUS
10
1.35738
20
-4.2471
11
1.34988
21
-4.23585
0
LINE
8
BLACK
6
CONTINUOUS
10
1.34988
20
-4.23585
11
1.34613
21
-4.22836
0
LINE
8
BLACK
6
CONTINUOUS
10
1.34613
20
-4.22836
11
1.34238
21
-4.21711
0
LINE
8
BLACK
6
CONTINUOUS
10
1.34238
20
-4.21711
11
1.33863
21
-4.19836
0
LINE
8
BLACK
6
CONTINUOUS
10
1.33863
20
-4.19836
11
1.33863
21
-4.18336
0
LINE
8
BLACK
6
CONTINUOUS
10
1.33863
20
-4.18336
11
1.34238
21
-4.16461
0
LINE
8
BLACK
6
CONTINUOUS
10
1.34238
20
-4.16461
11
1.34613
21
-4.15337
0
LINE
8
BLACK
6
CONTINUOUS
10
1.34613
20
-4.15337
11
1.34988
21
-4.14587
0
LINE
8
BLACK
6
CONTINUOUS
10
1.34988
20
-4.14587
11
1.35738
21
-4.13462
0
LINE
8
BLACK
6
CONTINUOUS
10
1.35738
20
-4.13462
11
1.36113
21
-4.13087
0
LINE
8
BLACK
6
CONTINUOUS
10
1.43237
20
-4.22086
11
1.38737
21
-4.22086
0
LINE
8
BLACK
6
CONTINUOUS
10
1.40987
20
-4.22086
11
1.40987
21
-4.14212
0
LINE
8
BLACK
6
CONTINUOUS
10
1.40987
20
-4.14212
11
1.40237
21
-4.15337
0
LINE
8
BLACK
6
CONTINUOUS
10
1.40237
20
-4.15337
11
1.39487
21
-4.16086
0
LINE
8
BLACK
6
CONTINUOUS
10
1.39487
20
-4.16086
11
1.38737
21
-4.16461
0
LINE
8
BLACK
6
CONTINUOUS
10
1.46236
20
-4.14962
11
1.46611
21
-4.14587
0
LINE
8
BLACK
6
CONTINUOUS
10
1.46611
20
-4.14587
11
1.47361
21
-4.14212
0
LINE
8
BLACK
6
CONTINUOUS
10
1.47361
20
-4.14212
11
1.49236
21
-4.14212
0
LINE
8
BLACK
6
CONTINUOUS
10
1.49236
20
-4.14212
11
1.49986
21
-4.14587
0
LINE
8
BLACK
6
CONTINUOUS
10
1.49986
20
-4.14587
11
1.50361
21
-4.14962
0
LINE
8
BLACK
6
CONTINUOUS
10
1.50361
20
-4.14962
11
1.50736
21
-4.15711
0
LINE
8
BLACK
6
CONTINUOUS
10
1.50736
20
-4.15711
11
1.50736
21
-4.16461
0
LINE
8
BLACK
6
CONTINUOUS
10
1.50736
20
-4.16461
11
1.50361
21
-4.17586
0
LINE
8
BLACK
6
CONTINUOUS
10
1.50361
20
-4.17586
11
1.45861
21
-4.22086
0
LINE
8
BLACK
6
CONTINUOUS
10
1.45861
20
-4.22086
11
1.50736
21
-4.22086
0
LINE
8
BLACK
6
CONTINUOUS
10
1.53735
20
-4.14962
11
1.5411
21
-4.14587
0
LINE
8
BLACK
6
CONTINUOUS
10
1.5411
20
-4.14587
11
1.5486
21
-4.14212
0
LINE
8
BLACK
6
CONTINUOUS
10
1.5486
20
-4.14212
11
1.56735
21
-4.14212
0
LINE
8
BLACK
6
CONTINUOUS
10
1.56735
20
-4.14212
11
1.57485
21
-4.14587
0
LINE
8
BLACK
6
CONTINUOUS
10
1.57485
20
-4.14587
11
1.5786
21
-4.14962
0
LINE
8
BLACK
6
CONTINUOUS
10
1.5786
20
-4.14962
11
1.58235
21
-4.15711
0
LINE
8
BLACK
6
CONTINUOUS
10
1.58235
20
-4.15711
11
1.58235
21
-4.16461
0
LINE
8
BLACK
6
CONTINUOUS
10
1.58235
20
-4.16461
11
1.5786
21
-4.17586
0
LINE
8
BLACK
6
CONTINUOUS
10
1.5786
20
-4.17586
11
1.53361
21
-4.22086
0
LINE
8
BLACK
6
CONTINUOUS
10
1.53361
20
-4.22086
11
1.58235
21
-4.22086
0
LINE
8
BLACK
6
CONTINUOUS
10
1.66334
20
-4.22086
11
1.66334
21
-4.14212
0
LINE
8
BLACK
6
CONTINUOUS
10
1.69708
20
-4.22086
11
1.69708
21
-4.17961
0
LINE
8
BLACK
6
CONTINUOUS
10
1.69708
20
-4.17961
11
1.69334
21
-4.17211
0
LINE
8
BLACK
6
CONTINUOUS
10
1.69334
20
-4.17211
11
1.68584
21
-4.16836
0
LINE
8
BLACK
6
CONTINUOUS
10
1.68584
20
-4.16836
11
1.67459
21
-4.16836
0
LINE
8
BLACK
6
CONTINUOUS
10
1.67459
20
-4.16836
11
1.66709
21
-4.17211
0
LINE
8
BLACK
6
CONTINUOUS
10
1.66709
20
-4.17211
11
1.66334
21
-4.17586
0
LINE
8
BLACK
6
CONTINUOUS
10
1.74583
20
-4.22086
11
1.73833
21
-4.21711
0
LINE
8
BLACK
6
CONTINUOUS
10
1.73833
20
-4.21711
11
1.73458
21
-4.21336
0
LINE
8
BLACK
6
CONTINUOUS
10
1.73458
20
-4.21336
11
1.73083
21
-4.20586
0
LINE
8
BLACK
6
CONTINUOUS
10
1.73083
20
-4.20586
11
1.73083
21
-4.18336
0
LINE
8
BLACK
6
CONTINUOUS
10
1.73083
20
-4.18336
11
1.73458
21
-4.17586
0
LINE
8
BLACK
6
CONTINUOUS
10
1.73458
20
-4.17586
11
1.73833
21
-4.17211
0
LINE
8
BLACK
6
CONTINUOUS
10
1.73833
20
-4.17211
11
1.74583
21
-4.16836
0
LINE
8
BLACK
6
CONTINUOUS
10
1.74583
20
-4.16836
11
1.75708
21
-4.16836
0
LINE
8
BLACK
6
CONTINUOUS
10
1.75708
20
-4.16836
11
1.76458
21
-4.17211
0
LINE
8
BLACK
6
CONTINUOUS
10
1.76458
20
-4.17211
11
1.76833
21
-4.17586
0
LINE
8
BLACK
6
CONTINUOUS
10
1.76833
20
-4.17586
11
1.77208
21
-4.18336
0
LINE
8
BLACK
6
CONTINUOUS
10
1.77208
20
-4.18336
11
1.77208
21
-4.20586
0
LINE
8
BLACK
6
CONTINUOUS
10
1.77208
20
-4.20586
11
1.76833
21
-4.21336
0
LINE
8
BLACK
6
CONTINUOUS
10
1.76833
20
-4.21336
11
1.76458
21
-4.21711
0
LINE
8
BLACK
6
CONTINUOUS
10
1.76458
20
-4.21711
11
1.75708
21
-4.22086
0
LINE
8
BLACK
6
CONTINUOUS
10
1.75708
20
-4.22086
11
1.74583
21
-4.22086
0
LINE
8
BLACK
6
CONTINUOUS
10
1.81707
20
-4.22086
11
1.80957
21
-4.21711
0
LINE
8
BLACK
6
CONTINUOUS
10
1.80957
20
-4.21711
11
1.80582
21
-4.20961
0
LINE
8
BLACK
6
CONTINUOUS
10
1.80582
20
-4.20961
11
1.80582
21
-4.14212
0
LINE
8
BLACK
6
CONTINUOUS
10
1.87706
20
-4.21711
11
1.86956
21
-4.22086
0
LINE
8
BLACK
6
CONTINUOUS
10
1.86956
20
-4.22086
11
1.85457
21
-4.22086
0
LINE
8
BLACK
6
CONTINUOUS
10
1.85457
20
-4.22086
11
1.84707
21
-4.21711
0
LINE
8
BLACK
6
CONTINUOUS
10
1.84707
20
-4.21711
11
1.84332
21
-4.20961
0
LINE
8
BLACK
6
CONTINUOUS
10
1.84332
20
-4.20961
11
1.84332
21
-4.17961
0
LINE
8
BLACK
6
CONTINUOUS
10
1.84332
20
-4.17961
11
1.84707
21
-4.17211
0
LINE
8
BLACK
6
CONTINUOUS
10
1.84707
20
-4.17211
11
1.85457
21
-4.16836
0
LINE
8
BLACK
6
CONTINUOUS
10
1.85457
20
-4.16836
11
1.86956
21
-4.16836
0
LINE
8
BLACK
6
CONTINUOUS
10
1.86956
20
-4.16836
11
1.87706
21
-4.17211
0
LINE
8
BLACK
6
CONTINUOUS
10
1.87706
20
-4.17211
11
1.88081
21
-4.17961
0
LINE
8
BLACK
6
CONTINUOUS
10
1.88081
20
-4.17961
11
1.88081
21
-4.18711
0
LINE
8
BLACK
6
CONTINUOUS
10
1.88081
20
-4.18711
11
1.84332
21
-4.19461
0
LINE
8
BLACK
6
CONTINUOUS
10
1.91081
20
-4.21711
11
1.91831
21
-4.22086
0
LINE
8
BLACK
6
CONTINUOUS
10
1.91831
20
-4.22086
11
1.93331
21
-4.22086
0
LINE
8
BLACK
6
CONTINUOUS
10
1.93331
20
-4.22086
11
1.9408
21
-4.21711
0
LINE
8
BLACK
6
CONTINUOUS
10
1.9408
20
-4.21711
11
1.94455
21
-4.20961
0
LINE
8
BLACK
6
CONTINUOUS
10
1.94455
20
-4.20961
11
1.94455
21
-4.20586
0
LINE
8
BLACK
6
CONTINUOUS
10
1.94455
20
-4.20586
11
1.9408
21
-4.19836
0
LINE
8
BLACK
6
CONTINUOUS
10
1.9408
20
-4.19836
11
1.93331
21
-4.19461
0
LINE
8
BLACK
6
CONTINUOUS
10
1.93331
20
-4.19461
11
1.92206
21
-4.19461
0
LINE
8
BLACK
6
CONTINUOUS
10
1.92206
20
-4.19461
11
1.91456
21
-4.19086
0
LINE
8
BLACK
6
CONTINUOUS
10
1.91456
20
-4.19086
11
1.91081
21
-4.18336
0
LINE
8
BLACK
6
CONTINUOUS
10
1.91081
20
-4.18336
11
1.91081
21
-4.17961
0
LINE
8
BLACK
6
CONTINUOUS
10
1.91081
20
-4.17961
11
1.91456
21
-4.17211
0
LINE
8
BLACK
6
CONTINUOUS
10
1.91456
20
-4.17211
11
1.92206
21
-4.16836
0
LINE
8
BLACK
6
CONTINUOUS
10
1.92206
20
-4.16836
11
1.93331
21
-4.16836
0
LINE
8
BLACK
6
CONTINUOUS
10
1.93331
20
-4.16836
11
1.9408
21
-4.17211
0
LINE
8
BLACK
6
CONTINUOUS
10
1.9708
20
-4.25085
11
1.97455
21
-4.2471
0
LINE
8
BLACK
6
CONTINUOUS
10
1.97455
20
-4.2471
11
1.98205
21
-4.23585
0
LINE
8
BLACK
6
CONTINUOUS
10
1.98205
20
-4.23585
11
1.9858
21
-4.22836
0
LINE
8
BLACK
6
CONTINUOUS
10
1.9858
20
-4.22836
11
1.98955
21
-4.21711
0
LINE
8
BLACK
6
CONTINUOUS
10
1.98955
20
-4.21711
11
1.9933
21
-4.19836
0
LINE
8
BLACK
6
CONTINUOUS
10
1.9933
20
-4.19836
11
1.9933
21
-4.18336
0
LINE
8
BLACK
6
CONTINUOUS
10
1.9933
20
-4.18336
11
1.98955
21
-4.16461
0
LINE
8
BLACK
6
CONTINUOUS
10
1.98955
20
-4.16461
11
1.9858
21
-4.15337
0
LINE
8
BLACK
6
CONTINUOUS
10
1.9858
20
-4.15337
11
1.98205
21
-4.14587
0
LINE
8
BLACK
6
CONTINUOUS
10
1.98205
20
-4.14587
11
1.97455
21
-4.13462
0
LINE
8
BLACK
6
CONTINUOUS
10
1.97455
20
-4.13462
11
1.9708
21
-4.13087
0
LINE
8
BLACK
6
CONTINUOUS
10
2.10053
20
-4.25085
11
2.09678
21
-4.2471
0
LINE
8
BLACK
6
CONTINUOUS
10
2.09678
20
-4.2471
11
2.08929
21
-4.23585
0
LINE
8
BLACK
6
CONTINUOUS
10
2.08929
20
-4.23585
11
2.08554
21
-4.22836
0
LINE
8
BLACK
6
CONTINUOUS
10
2.08554
20
-4.22836
11
2.08179
21
-4.21711
0
LINE
8
BLACK
6
CONTINUOUS
10
2.08179
20
-4.21711
11
2.07804
21
-4.19836
0
LINE
8
BLACK
6
CONTINUOUS
10
2.07804
20
-4.19836
11
2.07804
21
-4.18336
0
LINE
8
BLACK
6
CONTINUOUS
10
2.07804
20
-4.18336
11
2.08179
21
-4.16461
0
LINE
8
BLACK
6
CONTINUOUS
10
2.08179
20
-4.16461
11
2.08554
21
-4.15337
0
LINE
8
BLACK
6
CONTINUOUS
10
2.08554
20
-4.15337
11
2.08929
21
-4.14587
0
LINE
8
BLACK
6
CONTINUOUS
10
2.08929
20
-4.14587
11
2.09678
21
-4.13462
0
LINE
8
BLACK
6
CONTINUOUS
10
2.09678
20
-4.13462
11
2.10053
21
-4.13087
0
LINE
8
BLACK
6
CONTINUOUS
10
2.13053
20
-4.16836
11
2.13053
21
-4.22086
0
LINE
8
BLACK
6
CONTINUOUS
10
2.13053
20
-4.17586
11
2.13428
21
-4.17211
0
LINE
8
BLACK
6
CONTINUOUS
10
2.13428
20
-4.17211
11
2.14178
21
-4.16836
0
LINE
8
BLACK
6
CONTINUOUS
10
2.14178
20
-4.16836
11
2.15303
21
-4.16836
0
LINE
8
BLACK
6
CONTINUOUS
10
2.15303
20
-4.16836
11
2.16053
21
-4.17211
0
LINE
8
BLACK
6
CONTINUOUS
10
2.16053
20
-4.17211
11
2.16428
21
-4.17961
0
LINE
8
BLACK
6
CONTINUOUS
10
2.16428
20
-4.17961
11
2.16428
21
-4.22086
0
LINE
8
BLACK
6
CONTINUOUS
10
2.21302
20
-4.22086
11
2.20552
21
-4.21711
0
LINE
8
BLACK
6
CONTINUOUS
10
2.20552
20
-4.21711
11
2.20177
21
-4.21336
0
LINE
8
BLACK
6
CONTINUOUS
10
2.20177
20
-4.21336
11
2.19802
21
-4.20586
0
LINE
8
BLACK
6
CONTINUOUS
10
2.19802
20
-4.20586
11
2.19802
21
-4.18336
0
LINE
8
BLACK
6
CONTINUOUS
10
2.19802
20
-4.18336
11
2.20177
21
-4.17586
0
LINE
8
BLACK
6
CONTINUOUS
10
2.20177
20
-4.17586
11
2.20552
21
-4.17211
0
LINE
8
BLACK
6
CONTINUOUS
10
2.20552
20
-4.17211
11
2.21302
21
-4.16836
0
LINE
8
BLACK
6
CONTINUOUS
10
2.21302
20
-4.16836
11
2.22427
21
-4.16836
0
LINE
8
BLACK
6
CONTINUOUS
10
2.22427
20
-4.16836
11
2.23177
21
-4.17211
0
LINE
8
BLACK
6
CONTINUOUS
10
2.23177
20
-4.17211
11
2.23552
21
-4.17586
0
LINE
8
BLACK
6
CONTINUOUS
10
2.23552
20
-4.17586
11
2.23927
21
-4.18336
0
LINE
8
BLACK
6
CONTINUOUS
10
2.23927
20
-4.18336
11
2.23927
21
-4.20586
0
LINE
8
BLACK
6
CONTINUOUS
10
2.23927
20
-4.20586
11
2.23552
21
-4.21336
0
LINE
8
BLACK
6
CONTINUOUS
10
2.23552
20
-4.21336
11
2.23177
21
-4.21711
0
LINE
8
BLACK
6
CONTINUOUS
10
2.23177
20
-4.21711
11
2.22427
21
-4.22086
0
LINE
8
BLACK
6
CONTINUOUS
10
2.22427
20
-4.22086
11
2.21302
21
-4.22086
0
LINE
8
BLACK
6
CONTINUOUS
10
2.26176
20
-4.16836
11
2.29176
21
-4.16836
0
LINE
8
BLACK
6
CONTINUOUS
10
2.27301
20
-4.14212
11
2.27301
21
-4.20961
0
LINE
8
BLACK
6
CONTINUOUS
10
2.27301
20
-4.20961
11
2.27676
21
-4.21711
0
LINE
8
BLACK
6
CONTINUOUS
10
2.27676
20
-4.21711
11
2.28426
21
-4.22086
0
LINE
8
BLACK
6
CONTINUOUS
10
2.28426
20
-4.22086
11
2.29176
21
-4.22086
0
LINE
8
BLACK
6
CONTINUOUS
10
2.36525
20
-4.16836
11
2.36525
21
-4.2471
0
LINE
8
BLACK
6
CONTINUOUS
10
2.36525
20
-4.17211
11
2.37275
21
-4.16836
0
LINE
8
BLACK
6
CONTINUOUS
10
2.37275
20
-4.16836
11
2.38775
21
-4.16836
0
LINE
8
BLACK
6
CONTINUOUS
10
2.38775
20
-4.16836
11
2.39525
21
-4.17211
0
LINE
8
BLACK
6
CONTINUOUS
10
2.39525
20
-4.17211
11
2.399
21
-4.17586
0
LINE
8
BLACK
6
CONTINUOUS
10
2.399
20
-4.17586
11
2.40275
21
-4.18336
0
LINE
8
BLACK
6
CONTINUOUS
10
2.40275
20
-4.18336
11
2.40275
21
-4.20586
0
LINE
8
BLACK
6
CONTINUOUS
10
2.40275
20
-4.20586
11
2.399
21
-4.21336
0
LINE
8
BLACK
6
CONTINUOUS
10
2.399
20
-4.21336
11
2.39525
21
-4.21711
0
LINE
8
BLACK
6
CONTINUOUS
10
2.39525
20
-4.21711
11
2.38775
21
-4.22086
0
LINE
8
BLACK
6
CONTINUOUS
10
2.38775
20
-4.22086
11
2.37275
21
-4.22086
0
LINE
8
BLACK
6
CONTINUOUS
10
2.37275
20
-4.22086
11
2.36525
21
-4.21711
0
LINE
8
BLACK
6
CONTINUOUS
10
2.44774
20
-4.22086
11
2.44024
21
-4.21711
0
LINE
8
BLACK
6
CONTINUOUS
10
2.44024
20
-4.21711
11
2.43649
21
-4.20961
0
LINE
8
BLACK
6
CONTINUOUS
10
2.43649
20
-4.20961
11
2.43649
21
-4.14212
0
LINE
8
BLACK
6
CONTINUOUS
10
2.51148
20
-4.22086
11
2.51148
21
-4.17961
0
LINE
8
BLACK
6
CONTINUOUS
10
2.51148
20
-4.17961
11
2.50773
21
-4.17211
0
LINE
8
BLACK
6
CONTINUOUS
10
2.50773
20
-4.17211
11
2.50023
21
-4.16836
0
LINE
8
BLACK
6
CONTINUOUS
10
2.50023
20
-4.16836
11
2.48524
21
-4.16836
0
LINE
8
BLACK
6
CONTINUOUS
10
2.48524
20
-4.16836
11
2.47774
21
-4.17211
0
LINE
8
BLACK
6
CONTINUOUS
10
2.51148
20
-4.21711
11
2.50398
21
-4.22086
0
LINE
8
BLACK
6
CONTINUOUS
10
2.50398
20
-4.22086
11
2.48524
21
-4.22086
0
LINE
8
BLACK
6
CONTINUOUS
10
2.48524
20
-4.22086
11
2.47774
21
-4.21711
0
LINE
8
BLACK
6
CONTINUOUS
10
2.47774
20
-4.21711
11
2.47399
21
-4.20961
0
LINE
8
BLACK
6
CONTINUOUS
10
2.47399
20
-4.20961
11
2.47399
21
-4.20211
0
LINE
8
BLACK
6
CONTINUOUS
10
2.47399
20
-4.20211
11
2.47774
21
-4.19461
0
LINE
8
BLACK
6
CONTINUOUS
10
2.47774
20
-4.19461
11
2.48524
21
-4.19086
0
LINE
8
BLACK
6
CONTINUOUS
10
2.48524
20
-4.19086
11
2.50398
21
-4.19086
0
LINE
8
BLACK
6
CONTINUOUS
10
2.50398
20
-4.19086
11
2.51148
21
-4.18711
0
LINE
8
BLACK
6
CONTINUOUS
10
2.53773
20
-4.16836
11
2.56773
21
-4.16836
0
LINE
8
BLACK
6
CONTINUOUS
10
2.54898
20
-4.14212
11
2.54898
21
-4.20961
0
LINE
8
BLACK
6
CONTINUOUS
10
2.54898
20
-4.20961
11
2.55273
21
-4.21711
0
LINE
8
BLACK
6
CONTINUOUS
10
2.55273
20
-4.21711
11
2.56023
21
-4.22086
0
LINE
8
BLACK
6
CONTINUOUS
10
2.56023
20
-4.22086
11
2.56773
21
-4.22086
0
LINE
8
BLACK
6
CONTINUOUS
10
2.62397
20
-4.21711
11
2.61647
21
-4.22086
0
LINE
8
BLACK
6
CONTINUOUS
10
2.61647
20
-4.22086
11
2.60147
21
-4.22086
0
LINE
8
BLACK
6
CONTINUOUS
10
2.60147
20
-4.22086
11
2.59397
21
-4.21711
0
LINE
8
BLACK
6
CONTINUOUS
10
2.59397
20
-4.21711
11
2.59022
21
-4.20961
0
LINE
8
BLACK
6
CONTINUOUS
10
2.59022
20
-4.20961
11
2.59022
21
-4.17961
0
LINE
8
BLACK
6
CONTINUOUS
10
2.59022
20
-4.17961
11
2.59397
21
-4.17211
0
LINE
8
BLACK
6
CONTINUOUS
10
2.59397
20
-4.17211
11
2.60147
21
-4.16836
0
LINE
8
BLACK
6
CONTINUOUS
10
2.60147
20
-4.16836
11
2.61647
21
-4.16836
0
LINE
8
BLACK
6
CONTINUOUS
10
2.61647
20
-4.16836
11
2.62397
21
-4.17211
0
LINE
8
BLACK
6
CONTINUOUS
10
2.62397
20
-4.17211
11
2.62772
21
-4.17961
0
LINE
8
BLACK
6
CONTINUOUS
10
2.62772
20
-4.17961
11
2.62772
21
-4.18711
0
LINE
8
BLACK
6
CONTINUOUS
10
2.62772
20
-4.18711
11
2.59022
21
-4.19461
0
LINE
8
BLACK
6
CONTINUOUS
10
2.69521
20
-4.22086
11
2.69521
21
-4.14212
0
LINE
8
BLACK
6
CONTINUOUS
10
2.69521
20
-4.21711
11
2.68771
21
-4.22086
0
LINE
8
BLACK
6
CONTINUOUS
10
2.68771
20
-4.22086
11
2.67271
21
-4.22086
0
LINE
8
BLACK
6
CONTINUOUS
10
2.67271
20
-4.22086
11
2.66521
21
-4.21711
0
LINE
8
BLACK
6
CONTINUOUS
10
2.66521
20
-4.21711
11
2.66146
21
-4.21336
0
LINE
8
BLACK
6
CONTINUOUS
10
2.66146
20
-4.21336
11
2.65771
21
-4.20586
0
LINE
8
BLACK
6
CONTINUOUS
10
2.65771
20
-4.20586
11
2.65771
21
-4.18336
0
LINE
8
BLACK
6
CONTINUOUS
10
2.65771
20
-4.18336
11
2.66146
21
-4.17586
0
LINE
8
BLACK
6
CONTINUOUS
10
2.66146
20
-4.17586
11
2.66521
21
-4.17211
0
LINE
8
BLACK
6
CONTINUOUS
10
2.66521
20
-4.17211
11
2.67271
21
-4.16836
0
LINE
8
BLACK
6
CONTINUOUS
10
2.67271
20
-4.16836
11
2.68771
21
-4.16836
0
LINE
8
BLACK
6
CONTINUOUS
10
2.68771
20
-4.16836
11
2.69521
21
-4.17211
0
LINE
8
BLACK
6
CONTINUOUS
10
2.72521
20
-4.25085
11
2.72896
21
-4.2471
0
LINE
8
BLACK
6
CONTINUOUS
10
2.72896
20
-4.2471
11
2.73645
21
-4.23585
0
LINE
8
BLACK
6
CONTINUOUS
10
2.73645
20
-4.23585
11
2.7402
21
-4.22836
0
LINE
8
BLACK
6
CONTINUOUS
10
2.7402
20
-4.22836
11
2.74395
21
-4.21711
0
LINE
8
BLACK
6
CONTINUOUS
10
2.74395
20
-4.21711
11
2.7477
21
-4.19836
0
LINE
8
BLACK
6
CONTINUOUS
10
2.7477
20
-4.19836
11
2.7477
21
-4.18336
0
LINE
8
BLACK
6
CONTINUOUS
10
2.7477
20
-4.18336
11
2.74395
21
-4.16461
0
LINE
8
BLACK
6
CONTINUOUS
10
2.74395
20
-4.16461
11
2.7402
21
-4.15337
0
LINE
8
BLACK
6
CONTINUOUS
10
2.7402
20
-4.15337
11
2.73645
21
-4.14587
0
LINE
8
BLACK
6
CONTINUOUS
10
2.73645
20
-4.14587
11
2.72896
21
-4.13462
0
LINE
8
BLACK
6
CONTINUOUS
10
2.72896
20
-4.13462
11
2.72521
21
-4.13087
0
CIRCLE
8
BLACK
10
-0.0423228
20
-4.30807
40
0.0393701
0
LINE
8
BLACK
6
CONTINUOUS
10
0.087036
20
-4.25826
11
0.13578
21
-4.25826
0
LINE
8
BLACK
6
CONTINUOUS
10
0.13578
20
-4.25826
11
0.109533
21
-4.28825
0
LINE
8
BLACK
6
CONTINUOUS
10
0.109533
20
-4.28825
11
0.120782
21
-4.28825
0
LINE
8
BLACK
6
CONTINUOUS
10
0.120782
20
-4.28825
11
0.128281
21
-4.292
0
LINE
8
BLACK
6
CONTINUOUS
10
0.128281
20
-4.292
11
0.13203
21
-4.29575
0
LINE
8
BLACK
6
CONTINUOUS
10
0.13203
20
-4.29575
11
0.13578
21
-4.30325
0
LINE
8
BLACK
6
CONTINUOUS
10
0.13578
20
-4.30325
11
0.13578
21
-4.322
0
LINE
8
BLACK
6
CONTINUOUS
10
0.13578
20
-4.322
11
0.13203
21
-4.3295
0
LINE
8
BLACK
6
CONTINUOUS
10
0.13203
20
-4.3295
11
0.128281
21
-4.33325
0
LINE
8
BLACK
6
CONTINUOUS
10
0.128281
20
-4.33325
11
0.120782
21
-4.337
0
LINE
8
BLACK
6
CONTINUOUS
10
0.120782
20
-4.337
11
0.0982846
21
-4.337
0
LINE
8
BLACK
6
CONTINUOUS
10
0.0982846
20
-4.337
11
0.0907855
21
-4.33325
0
LINE
8
BLACK
6
CONTINUOUS
10
0.0907855
20
-4.33325
11
0.087036
21
-4.3295
0
LINE
8
BLACK
6
CONTINUOUS
10
0.169526
20
-4.3295
11
0.173275
21
-4.33325
0
LINE
8
BLACK
6
CONTINUOUS
10
0.173275
20
-4.33325
11
0.169526
21
-4.337
0
LINE
8
BLACK
6
CONTINUOUS
10
0.169526
20
-4.337
11
0.165776
21
-4.33325
0
LINE
8
BLACK
6
CONTINUOUS
10
0.165776
20
-4.33325
11
0.169526
21
-4.3295
0
LINE
8
BLACK
6
CONTINUOUS
10
0.169526
20
-4.3295
11
0.169526
21
-4.337
0
LINE
8
BLACK
6
CONTINUOUS
10
0.222019
20
-4.25826
11
0.229518
21
-4.25826
0
LINE
8
BLACK
6
CONTINUOUS
10
0.229518
20
-4.25826
11
0.237017
21
-4.26201
0
LINE
8
BLACK
6
CONTINUOUS
10
0.237017
20
-4.26201
11
0.240767
21
-4.26576
0
LINE
8
BLACK
6
CONTINUOUS
10
0.240767
20
-4.26576
11
0.244516
21
-4.27326
0
LINE
8
BLACK
6
CONTINUOUS
10
0.244516
20
-4.27326
11
0.248266
21
-4.28825
0
LINE
8
BLACK
6
CONTINUOUS
10
0.248266
20
-4.28825
11
0.248266
21
-4.307
0
LINE
8
BLACK
6
CONTINUOUS
10
0.248266
20
-4.307
11
0.244516
21
-4.322
0
LINE
8
BLACK
6
CONTINUOUS
10
0.244516
20
-4.322
11
0.240767
21
-4.3295
0
LINE
8
BLACK
6
CONTINUOUS
10
0.240767
20
-4.3295
11
0.237017
21
-4.33325
0
LINE
8
BLACK
6
CONTINUOUS
10
0.237017
20
-4.33325
11
0.229518
21
-4.337
0
LINE
8
BLACK
6
CONTINUOUS
10
0.229518
20
-4.337
11
0.222019
21
-4.337
0
LINE
8
BLACK
6
CONTINUOUS
10
0.222019
20
-4.337
11
0.21452
21
-4.33325
0
LINE
8
BLACK
6
CONTINUOUS
10
0.21452
20
-4.33325
11
0.210771
21
-4.3295
0
LINE
8
BLACK
6
CONTINUOUS
10
0.210771
20
-4.3295
11
0.207021
21
-4.322
0
LINE
8
BLACK
6
CONTINUOUS
10
0.207021
20
-4.322
11
0.203271
21
-4.307
0
LINE
8
BLACK
6
CONTINUOUS
10
0.203271
20
-4.307
11
0.203271
21
-4.28825
0
LINE
8
BLACK
6
CONTINUOUS
10
0.203271
20
-4.28825
11
0.207021
21
-4.27326
0
LINE
8
BLACK
6
CONTINUOUS
10
0.207021
20
-4.27326
11
0.210771
21
-4.26576
0
LINE
8
BLACK
6
CONTINUOUS
10
0.210771
20
-4.26576
11
0.21452
21
-4.26201
0
LINE
8
BLACK
6
CONTINUOUS
10
0.21452
20
-4.26201
11
0.222019
21
-4.25826
0
LINE
8
BLACK
6
CONTINUOUS
10
0.315757
20
-4.28451
11
0.315757
21
-4.337
0
LINE
8
BLACK
6
CONTINUOUS
10
0.29701
20
-4.25451
11
0.278262
21
-4.31075
0
LINE
8
BLACK
6
CONTINUOUS
10
0.278262
20
-4.31075
11
0.327006
21
-4.31075
0
LINE
8
BLACK
6
CONTINUOUS
10
0.368251
20
-4.292
11
0.360752
21
-4.28825
0
LINE
8
BLACK
6
CONTINUOUS
10
0.360752
20
-4.28825
11
0.357002
21
-4.28451
0
LINE
8
BLACK
6
CONTINUOUS
10
0.357002
20
-4.28451
11
0.353253
21
-4.27701
0
LINE
8
BLACK
6
CONTINUOUS
10
0.353253
20
-4.27701
11
0.353253
21
-4.27326
0
LINE
8
BLACK
6
CONTINUOUS
10
0.353253
20
-4.27326
11
0.357002
21
-4.26576
0
LINE
8
BLACK
6
CONTINUOUS
10
0.357002
20
-4.26576
11
0.360752
21
-4.26201
0
LINE
8
BLACK
6
CONTINUOUS
10
0.360752
20
-4.26201
11
0.368251
21
-4.25826
0
LINE
8
BLACK
6
CONTINUOUS
10
0.368251
20
-4.25826
11
0.383249
21
-4.25826
0
LINE
8
BLACK
6
CONTINUOUS
10
0.383249
20
-4.25826
11
0.390748
21
-4.26201
0
LINE
8
BLACK
6
CONTINUOUS
10
0.390748
20
-4.26201
11
0.394498
21
-4.26576
0
LINE
8
BLACK
6
CONTINUOUS
10
0.394498
20
-4.26576
11
0.398247
21
-4.27326
0
LINE
8
BLACK
6
CONTINUOUS
10
0.398247
20
-4.27326
11
0.398247
21
-4.27701
0
LINE
8
BLACK
6
CONTINUOUS
10
0.398247
20
-4.27701
11
0.394498
21
-4.28451
0
LINE
8
BLACK
6
CONTINUOUS
10
0.394498
20
-4.28451
11
0.390748
21
-4.28825
0
LINE
8
BLACK
6
CONTINUOUS
10
0.390748
20
-4.28825
11
0.383249
21
-4.292
0
LINE
8
BLACK
6
CONTINUOUS
10
0.383249
20
-4.292
11
0.368251
21
-4.292
0
LINE
8
BLACK
6
CONTINUOUS
10
0.368251
20
-4.292
11
0.360752
21
-4.29575
0
LINE
8
BLACK
6
CONTINUOUS
10
0.360752
20
-4.29575
11
0.357002
21
-4.2995
0
LINE
8
BLACK
6
CONTINUOUS
10
0.357002
20
-4.2995
11
0.353253
21
-4.307
0
LINE
8
BLACK
6
CONTINUOUS
10
0.353253
20
-4.307
11
0.353253
21
-4.322
0
LINE
8
BLACK
6
CONTINUOUS
10
0.353253
20
-4.322
11
0.357002
21
-4.3295
0
LINE
8
BLACK
6
CONTINUOUS
10
0.357002
20
-4.3295
11
0.360752
21
-4.33325
0
LINE
8
BLACK
6
CONTINUOUS
10
0.360752
20
-4.33325
11
0.368251
21
-4.337
0
LINE
8
BLACK
6
CONTINUOUS
10
0.368251
20
-4.337
11
0.383249
21
-4.337
0
LINE
8
BLACK
6
CONTINUOUS
10
0.383249
20
-4.337
11
0.390748
21
-4.33325
0
LINE
8
BLACK
6
CONTINUOUS
10
0.390748
20
-4.33325
11
0.394498
21
-4.3295
0
LINE
8
BLACK
6
CONTINUOUS
10
0.394498
20
-4.3295
11
0.398247
21
-4.322
0
LINE
8
BLACK
6
CONTINUOUS
10
0.398247
20
-4.322
11
0.398247
21
-4.307
0
LINE
8
BLACK
6
CONTINUOUS
10
0.398247
20
-4.307
11
0.394498
21
-4.2995
0
LINE
8
BLACK
6
CONTINUOUS
10
0.394498
20
-4.2995
11
0.390748
21
-4.29575
0
LINE
8
BLACK
6
CONTINUOUS
10
0.390748
20
-4.29575
11
0.383249
21
-4.292
0
LINE
8
BLACK
6
CONTINUOUS
10
0.431993
20
-4.337
11
0.431993
21
-4.28451
0
LINE
8
BLACK
6
CONTINUOUS
10
0.431993
20
-4.292
11
0.435742
21
-4.28825
0
LINE
8
BLACK
6
CONTINUOUS
10
0.435742
20
-4.28825
11
0.443241
21
-4.28451
0
LINE
8
BLACK
6
CONTINUOUS
10
0.443241
20
-4.28451
11
0.45449
21
-4.28451
0
LINE
8
BLACK
6
CONTINUOUS
10
0.45449
20
-4.28451
11
0.461989
21
-4.28825
0
LINE
8
BLACK
6
CONTINUOUS
10
0.461989
20
-4.28825
11
0.465739
21
-4.29575
0
LINE
8
BLACK
6
CONTINUOUS
10
0.465739
20
-4.29575
11
0.465739
21
-4.337
0
LINE
8
BLACK
6
CONTINUOUS
10
0.465739
20
-4.29575
11
0.469488
21
-4.28825
0
LINE
8
BLACK
6
CONTINUOUS
10
0.469488
20
-4.28825
11
0.476987
21
-4.28451
0
LINE
8
BLACK
6
CONTINUOUS
10
0.476987
20
-4.28451
11
0.488236
21
-4.28451
0
LINE
8
BLACK
6
CONTINUOUS
10
0.488236
20
-4.28451
11
0.495735
21
-4.28825
0
LINE
8
BLACK
6
CONTINUOUS
10
0.495735
20
-4.28825
11
0.499484
21
-4.29575
0
LINE
8
BLACK
6
CONTINUOUS
10
0.499484
20
-4.29575
11
0.499484
21
-4.337
0
LINE
8
BLACK
6
CONTINUOUS
10
0.53698
20
-4.337
11
0.53698
21
-4.28451
0
LINE
8
BLACK
6
CONTINUOUS
10
0.53698
20
-4.292
11
0.540729
21
-4.28825
0
LINE
8
BLACK
6
CONTINUOUS
10
0.540729
20
-4.28825
11
0.548228
21
-4.28451
0
LINE
8
BLACK
6
CONTINUOUS
10
0.548228
20
-4.28451
11
0.559477
21
-4.28451
0
LINE
8
BLACK
6
CONTINUOUS
10
0.559477
20
-4.28451
11
0.566976
21
-4.28825
0
LINE
8
BLACK
6
CONTINUOUS
10
0.566976
20
-4.28825
11
0.570726
21
-4.29575
0
LINE
8
BLACK
6
CONTINUOUS
10
0.570726
20
-4.29575
11
0.570726
21
-4.337
0
LINE
8
BLACK
6
CONTINUOUS
10
0.570726
20
-4.29575
11
0.574475
21
-4.28825
0
LINE
8
BLACK
6
CONTINUOUS
10
0.574475
20
-4.28825
11
0.581974
21
-4.28451
0
LINE
8
BLACK
6
CONTINUOUS
10
0.581974
20
-4.28451
11
0.593223
21
-4.28451
0
LINE
8
BLACK
6
CONTINUOUS
10
0.593223
20
-4.28451
11
0.600722
21
-4.28825
0
LINE
8
BLACK
6
CONTINUOUS
10
0.600722
20
-4.28825
11
0.604471
21
-4.29575
0
LINE
8
BLACK
6
CONTINUOUS
10
0.604471
20
-4.29575
11
0.604471
21
-4.337
0
LINE
8
BLACK
6
CONTINUOUS
10
0.745454
20
-4.25451
11
0.677962
21
-4.35575
0
LINE
8
BLACK
6
CONTINUOUS
10
0.833943
20
-4.25826
11
0.841442
21
-4.25826
0
LINE
8
BLACK
6
CONTINUOUS
10
0.841442
20
-4.25826
11
0.848941
21
-4.26201
0
LINE
8
BLACK
6
CONTINUOUS
10
0.848941
20
-4.26201
11
0.85269
21
-4.26576
0
LINE
8
BLACK
6
CONTINUOUS
10
0.85269
20
-4.26576
11
0.85644
21
-4.27326
0
LINE
8
BLACK
6
CONTINUOUS
10
0.85644
20
-4.27326
11
0.860189
21
-4.28825
0
LINE
8
BLACK
6
CONTINUOUS
10
0.860189
20
-4.28825
11
0.860189
21
-4.307
0
LINE
8
BLACK
6
CONTINUOUS
10
0.860189
20
-4.307
11
0.85644
21
-4.322
0
LINE
8
BLACK
6
CONTINUOUS
10
0.85644
20
-4.322
11
0.85269
21
-4.3295
0
LINE
8
BLACK
6
CONTINUOUS
10
0.85269
20
-4.3295
11
0.848941
21
-4.33325
0
LINE
8
BLACK
6
CONTINUOUS
10
0.848941
20
-4.33325
11
0.841442
21
-4.337
0
LINE
8
BLACK
6
CONTINUOUS
10
0.841442
20
-4.337
11
0.833943
21
-4.337
0
LINE
8
BLACK
6
CONTINUOUS
10
0.833943
20
-4.337
11
0.826444
21
-4.33325
0
LINE
8
BLACK
6
CONTINUOUS
10
0.826444
20
-4.33325
11
0.822694
21
-4.3295
0
LINE
8
BLACK
6
CONTINUOUS
10
0.822694
20
-4.3295
11
0.818945
21
-4.322
0
LINE
8
BLACK
6
CONTINUOUS
10
0.818945
20
-4.322
11
0.815195
21
-4.307
0
LINE
8
BLACK
6
CONTINUOUS
10
0.815195
20
-4.307
11
0.815195
21
-4.28825
0
LINE
8
BLACK
6
CONTINUOUS
10
0.815195
20
-4.28825
11
0.818945
21
-4.27326
0
LINE
8
BLACK
6
CONTINUOUS
10
0.818945
20
-4.27326
11
0.822694
21
-4.26576
0
LINE
8
BLACK
6
CONTINUOUS
10
0.822694
20
-4.26576
11
0.826444
21
-4.26201
0
LINE
8
BLACK
6
CONTINUOUS
10
0.826444
20
-4.26201
11
0.833943
21
-4.25826
0
LINE
8
BLACK
6
CONTINUOUS
10
0.893935
20
-4.3295
11
0.897685
21
-4.33325
0
LINE
8
BLACK
6
CONTINUOUS
10
0.897685
20
-4.33325
11
0.893935
21
-4.337
0
LINE
8
BLACK
6
CONTINUOUS
10
0.893935
20
-4.337
11
0.890186
21
-4.33325
0
LINE
8
BLACK
6
CONTINUOUS
10
0.890186
20
-4.33325
11
0.893935
21
-4.3295
0
LINE
8
BLACK
6
CONTINUOUS
10
0.893935
20
-4.3295
11
0.893935
21
-4.337
0
LINE
8
BLACK
6
CONTINUOUS
10
0.972675
20
-4.337
11
0.927681
21
-4.337
0
LINE
8
BLACK
6
CONTINUOUS
10
0.950178
20
-4.337
11
0.950178
21
-4.25826
0
LINE
8
BLACK
6
CONTINUOUS
10
0.950178
20
-4.25826
11
0.942679
21
-4.26951
0
LINE
8
BLACK
6
CONTINUOUS
10
0.942679
20
-4.26951
11
0.93518
21
-4.27701
0
LINE
8
BLACK
6
CONTINUOUS
10
0.93518
20
-4.27701
11
0.927681
21
-4.28076
0
LINE
8
BLACK
6
CONTINUOUS
10
1.00267
20
-4.26576
11
1.00642
21
-4.26201
0
LINE
8
BLACK
6
CONTINUOUS
10
1.00642
20
-4.26201
11
1.01392
21
-4.25826
0
LINE
8
BLACK
6
CONTINUOUS
10
1.01392
20
-4.25826
11
1.03267
21
-4.25826
0
LINE
8
BLACK
6
CONTINUOUS
10
1.03267
20
-4.25826
11
1.04017
21
-4.26201
0
LINE
8
BLACK
6
CONTINUOUS
10
1.04017
20
-4.26201
11
1.04392
21
-4.26576
0
LINE
8
BLACK
6
CONTINUOUS
10
1.04392
20
-4.26576
11
1.04767
21
-4.27326
0
LINE
8
BLACK
6
CONTINUOUS
10
1.04767
20
-4.27326
11
1.04767
21
-4.28076
0
LINE
8
BLACK
6
CONTINUOUS
10
1.04767
20
-4.28076
11
1.04392
21
-4.292
0
LINE
8
BLACK
6
CONTINUOUS
10
1.04392
20
-4.292
11
0.998922
21
-4.337
0
LINE
8
BLACK
6
CONTINUOUS
10
0.998922
20
-4.337
11
1.04767
21
-4.337
0
LINE
8
BLACK
6
CONTINUOUS
10
1.09641
20
-4.25826
11
1.10391
21
-4.25826
0
LINE
8
BLACK
6
CONTINUOUS
10
1.10391
20
-4.25826
11
1.11141
21
-4.26201
0
LINE
8
BLACK
6
CONTINUOUS
10
1.11141
20
-4.26201
11
1.11516
21
-4.26576
0
LINE
8
BLACK
6
CONTINUOUS
10
1.11516
20
-4.26576
11
1.11891
21
-4.27326
0
LINE
8
BLACK
6
CONTINUOUS
10
1.11891
20
-4.27326
11
1.12266
21
-4.28825
0
LINE
8
BLACK
6
CONTINUOUS
10
1.12266
20
-4.28825
11
1.12266
21
-4.307
0
LINE
8
BLACK
6
CONTINUOUS
10
1.12266
20
-4.307
11
1.11891
21
-4.322
0
LINE
8
BLACK
6
CONTINUOUS
10
1.11891
20
-4.322
11
1.11516
21
-4.3295
0
LINE
8
BLACK
6
CONTINUOUS
10
1.11516
20
-4.3295
11
1.11141
21
-4.33325
0
LINE
8
BLACK
6
CONTINUOUS
10
1.11141
20
-4.33325
11
1.10391
21
-4.337
0
LINE
8
BLACK
6
CONTINUOUS
10
1.10391
20
-4.337
11
1.09641
21
-4.337
0
LINE
8
BLACK
6
CONTINUOUS
10
1.09641
20
-4.337
11
1.08891
21
-4.33325
0
LINE
8
BLACK
6
CONTINUOUS
10
1.08891
20
-4.33325
11
1.08516
21
-4.3295
0
LINE
8
BLACK
6
CONTINUOUS
10
1.08516
20
-4.3295
11
1.08141
21
-4.322
0
LINE
8
BLACK
6
CONTINUOUS
10
1.08141
20
-4.322
11
1.07766
21
-4.307
0
LINE
8
BLACK
6
CONTINUOUS
10
1.07766
20
-4.307
11
1.07766
21
-4.28825
0
LINE
8
BLACK
6
CONTINUOUS
10
1.07766
20
-4.28825
11
1.08141
21
-4.27326
0
LINE
8
BLACK
6
CONTINUOUS
10
1.08141
20
-4.27326
11
1.08516
21
-4.26576
0
LINE
8
BLACK
6
CONTINUOUS
10
1.08516
20
-4.26576
11
1.08891
21
-4.26201
0
LINE
8
BLACK
6
CONTINUOUS
10
1.08891
20
-4.26201
11
1.09641
21
-4.25826
0
LINE
8
BLACK
6
CONTINUOUS
10
1.1714
20
-4.25826
11
1.1789
21
-4.25826
0
LINE
8
BLACK
6
CONTINUOUS
10
1.1789
20
-4.25826
11
1.1864
21
-4.26201
0
LINE
8
BLACK
6
CONTINUOUS
10
1.1864
20
-4.26201
11
1.19015
21
-4.26576
0
LINE
8
BLACK
6
CONTINUOUS
10
1.19015
20
-4.26576
11
1.1939
21
-4.27326
0
LINE
8
BLACK
6
CONTINUOUS
10
1.1939
20
-4.27326
11
1.19765
21
-4.28825
0
LINE
8
BLACK
6
CONTINUOUS
10
1.19765
20
-4.28825
11
1.19765
21
-4.307
0
LINE
8
BLACK
6
CONTINUOUS
10
1.19765
20
-4.307
11
1.1939
21
-4.322
0
LINE
8
BLACK
6
CONTINUOUS
10
1.1939
20
-4.322
11
1.19015
21
-4.3295
0
LINE
8
BLACK
6
CONTINUOUS
10
1.19015
20
-4.3295
11
1.1864
21
-4.33325
0
LINE
8
BLACK
6
CONTINUOUS
10
1.1864
20
-4.33325
11
1.1789
21
-4.337
0
LINE
8
BLACK
6
CONTINUOUS
10
1.1789
20
-4.337
11
1.1714
21
-4.337
0
LINE
8
BLACK
6
CONTINUOUS
10
1.1714
20
-4.337
11
1.1639
21
-4.33325
0
LINE
8
BLACK
6
CONTINUOUS
10
1.1639
20
-4.33325
11
1.16015
21
-4.3295
0
LINE
8
BLACK
6
CONTINUOUS
10
1.16015
20
-4.3295
11
1.1564
21
-4.322
0
LINE
8
BLACK
6
CONTINUOUS
10
1.1564
20
-4.322
11
1.15265
21
-4.307
0
LINE
8
BLACK
6
CONTINUOUS
10
1.15265
20
-4.307
11
1.15265
21
-4.28825
0
LINE
8
BLACK
6
CONTINUOUS
10
1.15265
20
-4.28825
11
1.1564
21
-4.27326
0
LINE
8
BLACK
6
CONTINUOUS
10
1.1564
20
-4.27326
11
1.16015
21
-4.26576
0
LINE
8
BLACK
6
CONTINUOUS
10
1.16015
20
-4.26576
11
1.1639
21
-4.26201
0
LINE
8
BLACK
6
CONTINUOUS
10
1.1639
20
-4.26201
11
1.1714
21
-4.25826
0
LINE
8
BLACK
6
CONTINUOUS
10
1.22764
20
-4.25826
11
1.22764
21
-4.27326
0
LINE
8
BLACK
6
CONTINUOUS
10
1.25764
20
-4.25826
11
1.25764
21
-4.27326
0
LINE
8
BLACK
6
CONTINUOUS
10
1.36113
20
-4.36699
11
1.35738
21
-4.36325
0
LINE
8
BLACK
6
CONTINUOUS
10
1.35738
20
-4.36325
11
1.34988
21
-4.352
0
LINE
8
BLACK
6
CONTINUOUS
10
1.34988
20
-4.352
11
1.34613
21
-4.3445
0
LINE
8
BLACK
6
CONTINUOUS
10
1.34613
20
-4.3445
11
1.34238
21
-4.33325
0
LINE
8
BLACK
6
CONTINUOUS
10
1.34238
20
-4.33325
11
1.33863
21
-4.3145
0
LINE
8
BLACK
6
CONTINUOUS
10
1.33863
20
-4.3145
11
1.33863
21
-4.2995
0
LINE
8
BLACK
6
CONTINUOUS
10
1.33863
20
-4.2995
11
1.34238
21
-4.28076
0
LINE
8
BLACK
6
CONTINUOUS
10
1.34238
20
-4.28076
11
1.34613
21
-4.26951
0
LINE
8
BLACK
6
CONTINUOUS
10
1.34613
20
-4.26951
11
1.34988
21
-4.26201
0
LINE
8
BLACK
6
CONTINUOUS
10
1.34988
20
-4.26201
11
1.35738
21
-4.25076
0
LINE
8
BLACK
6
CONTINUOUS
10
1.35738
20
-4.25076
11
1.36113
21
-4.24701
0
LINE
8
BLACK
6
CONTINUOUS
10
1.38737
20
-4.26576
11
1.39112
21
-4.26201
0
LINE
8
BLACK
6
CONTINUOUS
10
1.39112
20
-4.26201
11
1.39862
21
-4.25826
0
LINE
8
BLACK
6
CONTINUOUS
10
1.39862
20
-4.25826
11
1.41737
21
-4.25826
0
LINE
8
BLACK
6
CONTINUOUS
10
1.41737
20
-4.25826
11
1.42487
21
-4.26201
0
LINE
8
BLACK
6
CONTINUOUS
10
1.42487
20
-4.26201
11
1.42862
21
-4.26576
0
LINE
8
BLACK
6
CONTINUOUS
10
1.42862
20
-4.26576
11
1.43237
21
-4.27326
0
LINE
8
BLACK
6
CONTINUOUS
10
1.43237
20
-4.27326
11
1.43237
21
-4.28076
0
LINE
8
BLACK
6
CONTINUOUS
10
1.43237
20
-4.28076
11
1.42862
21
-4.292
0
LINE
8
BLACK
6
CONTINUOUS
10
1.42862
20
-4.292
11
1.38362
21
-4.337
0
LINE
8
BLACK
6
CONTINUOUS
10
1.38362
20
-4.337
11
1.43237
21
-4.337
0
LINE
8
BLACK
6
CONTINUOUS
10
1.51336
20
-4.337
11
1.51336
21
-4.25826
0
LINE
8
BLACK
6
CONTINUOUS
10
1.5471
20
-4.337
11
1.5471
21
-4.29575
0
LINE
8
BLACK
6
CONTINUOUS
10
1.5471
20
-4.29575
11
1.54335
21
-4.28825
0
LINE
8
BLACK
6
CONTINUOUS
10
1.54335
20
-4.28825
11
1.53585
21
-4.28451
0
LINE
8
BLACK
6
CONTINUOUS
10
1.53585
20
-4.28451
11
1.52461
21
-4.28451
0
LINE
8
BLACK
6
CONTINUOUS
10
1.52461
20
-4.28451
11
1.51711
21
-4.28825
0
LINE
8
BLACK
6
CONTINUOUS
10
1.51711
20
-4.28825
11
1.51336
21
-4.292
0
LINE
8
BLACK
6
CONTINUOUS
10
1.59585
20
-4.337
11
1.58835
21
-4.33325
0
LINE
8
BLACK
6
CONTINUOUS
10
1.58835
20
-4.33325
11
1.5846
21
-4.3295
0
LINE
8
BLACK
6
CONTINUOUS
10
1.5846
20
-4.3295
11
1.58085
21
-4.322
0
LINE
8
BLACK
6
CONTINUOUS
10
1.58085
20
-4.322
11
1.58085
21
-4.2995
0
LINE
8
BLACK
6
CONTINUOUS
10
1.58085
20
-4.2995
11
1.5846
21
-4.292
0
LINE
8
BLACK
6
CONTINUOUS
10
1.5846
20
-4.292
11
1.58835
21
-4.28825
0
LINE
8
BLACK
6
CONTINUOUS
10
1.58835
20
-4.28825
11
1.59585
21
-4.28451
0
LINE
8
BLACK
6
CONTINUOUS
10
1.59585
20
-4.28451
11
1.6071
21
-4.28451
0
LINE
8
BLACK
6
CONTINUOUS
10
1.6071
20
-4.28451
11
1.6146
21
-4.28825
0
LINE
8
BLACK
6
CONTINUOUS
10
1.6146
20
-4.28825
11
1.61834
21
-4.292
0
LINE
8
BLACK
6
CONTINUOUS
10
1.61834
20
-4.292
11
1.62209
21
-4.2995
0
LINE
8
BLACK
6
CONTINUOUS
10
1.62209
20
-4.2995
11
1.62209
21
-4.322
0
LINE
8
BLACK
6
CONTINUOUS
10
1.62209
20
-4.322
11
1.61834
21
-4.3295
0
LINE
8
BLACK
6
CONTINUOUS
10
1.61834
20
-4.3295
11
1.6146
21
-4.33325
0
LINE
8
BLACK
6
CONTINUOUS
10
1.6146
20
-4.33325
11
1.6071
21
-4.337
0
LINE
8
BLACK
6
CONTINUOUS
10
1.6071
20
-4.337
11
1.59585
21
-4.337
0
LINE
8
BLACK
6
CONTINUOUS
10
1.66709
20
-4.337
11
1.65959
21
-4.33325
0
LINE
8
BLACK
6
CONTINUOUS
10
1.65959
20
-4.33325
11
1.65584
21
-4.32575
0
LINE
8
BLACK
6
CONTINUOUS
10
1.65584
20
-4.32575
11
1.65584
21
-4.25826
0
LINE
8
BLACK
6
CONTINUOUS
10
1.72708
20
-4.33325
11
1.71958
21
-4.337
0
LINE
8
BLACK
6
CONTINUOUS
10
1.71958
20
-4.337
11
1.70458
21
-4.337
0
LINE
8
BLACK
6
CONTINUOUS
10
1.70458
20
-4.337
11
1.69708
21
-4.33325
0
LINE
8
BLACK
6
CONTINUOUS
10
1.69708
20
-4.33325
11
1.69334
21
-4.32575
0
LINE
8
BLACK
6
CONTINUOUS
10
1.69334
20
-4.32575
11
1.69334
21
-4.29575
0
LINE
8
BLACK
6
CONTINUOUS
10
1.69334
20
-4.29575
11
1.69708
21
-4.28825
0
LINE
8
BLACK
6
CONTINUOUS
10
1.69708
20
-4.28825
11
1.70458
21
-4.28451
0
LINE
8
BLACK
6
CONTINUOUS
10
1.70458
20
-4.28451
11
1.71958
21
-4.28451
0
LINE
8
BLACK
6
CONTINUOUS
10
1.71958
20
-4.28451
11
1.72708
21
-4.28825
0
LINE
8
BLACK
6
CONTINUOUS
10
1.72708
20
-4.28825
11
1.73083
21
-4.29575
0
LINE
8
BLACK
6
CONTINUOUS
10
1.73083
20
-4.29575
11
1.73083
21
-4.30325
0
LINE
8
BLACK
6
CONTINUOUS
10
1.73083
20
-4.30325
11
1.69334
21
-4.31075
0
LINE
8
BLACK
6
CONTINUOUS
10
1.76083
20
-4.33325
11
1.76833
21
-4.337
0
LINE
8
BLACK
6
CONTINUOUS
10
1.76833
20
-4.337
11
1.78332
21
-4.337
0
LINE
8
BLACK
6
CONTINUOUS
10
1.78332
20
-4.337
11
1.79082
21
-4.33325
0
LINE
8
BLACK
6
CONTINUOUS
10
1.79082
20
-4.33325
11
1.79457
21
-4.32575
0
LINE
8
BLACK
6
CONTINUOUS
10
1.79457
20
-4.32575
11
1.79457
21
-4.322
0
LINE
8
BLACK
6
CONTINUOUS
10
1.79457
20
-4.322
11
1.79082
21
-4.3145
0
LINE
8
BLACK
6
CONTINUOUS
10
1.79082
20
-4.3145
11
1.78332
21
-4.31075
0
LINE
8
BLACK
6
CONTINUOUS
10
1.78332
20
-4.31075
11
1.77208
21
-4.31075
0
LINE
8
BLACK
6
CONTINUOUS
10
1.77208
20
-4.31075
11
1.76458
21
-4.307
0
LINE
8
BLACK
6
CONTINUOUS
10
1.76458
20
-4.307
11
1.76083
21
-4.2995
0
LINE
8
BLACK
6
CONTINUOUS
10
1.76083
20
-4.2995
11
1.76083
21
-4.29575
0
LINE
8
BLACK
6
CONTINUOUS
10
1.76083
20
-4.29575
11
1.76458
21
-4.28825
0
LINE
8
BLACK
6
CONTINUOUS
10
1.76458
20
-4.28825
11
1.77208
21
-4.28451
0
LINE
8
BLACK
6
CONTINUOUS
10
1.77208
20
-4.28451
11
1.78332
21
-4.28451
0
LINE
8
BLACK
6
CONTINUOUS
10
1.78332
20
-4.28451
11
1.79082
21
-4.28825
0
LINE
8
BLACK
6
CONTINUOUS
10
1.82082
20
-4.36699
11
1.82457
21
-4.36325
0
LINE
8
BLACK
6
CONTINUOUS
10
1.82457
20
-4.36325
11
1.83207
21
-4.352
0
LINE
8
BLACK
6
CONTINUOUS
10
1.83207
20
-4.352
11
1.83582
21
-4.3445
0
LINE
8
BLACK
6
CONTINUOUS
10
1.83582
20
-4.3445
11
1.83957
21
-4.33325
0
LINE
8
BLACK
6
CONTINUOUS
10
1.83957
20
-4.33325
11
1.84332
21
-4.3145
0
LINE
8
BLACK
6
CONTINUOUS
10
1.84332
20
-4.3145
11
1.84332
21
-4.2995
0
LINE
8
BLACK
6
CONTINUOUS
10
1.84332
20
-4.2995
11
1.83957
21
-4.28076
0
LINE
8
BLACK
6
CONTINUOUS
10
1.83957
20
-4.28076
11
1.83582
21
-4.26951
0
LINE
8
BLACK
6
CONTINUOUS
10
1.83582
20
-4.26951
11
1.83207
21
-4.26201
0
LINE
8
BLACK
6
CONTINUOUS
10
1.83207
20
-4.26201
11
1.82457
21
-4.25076
0
LINE
8
BLACK
6
CONTINUOUS
10
1.82457
20
-4.25076
11
1.82082
21
-4.24701
0
LINE
8
BLACK
6
CONTINUOUS
10
1.95055
20
-4.36699
11
1.9468
21
-4.36325
0
LINE
8
BLACK
6
CONTINUOUS
10
1.9468
20
-4.36325
11
1.9393
21
-4.352
0
LINE
8
BLACK
6
CONTINUOUS
10
1.9393
20
-4.352
11
1.93555
21
-4.3445
0
LINE
8
BLACK
6
CONTINUOUS
10
1.93555
20
-4.3445
11
1.93181
21
-4.33325
0
LINE
8
BLACK
6
CONTINUOUS
10
1.93181
20
-4.33325
11
1.92806
21
-4.3145
0
LINE
8
BLACK
6
CONTINUOUS
10
1.92806
20
-4.3145
11
1.92806
21
-4.2995
0
LINE
8
BLACK
6
CONTINUOUS
10
1.92806
20
-4.2995
11
1.93181
21
-4.28076
0
LINE
8
BLACK
6
CONTINUOUS
10
1.93181
20
-4.28076
11
1.93555
21
-4.26951
0
LINE
8
BLACK
6
CONTINUOUS
10
1.93555
20
-4.26951
11
1.9393
21
-4.26201
0
LINE
8
BLACK
6
CONTINUOUS
10
1.9393
20
-4.26201
11
1.9468
21
-4.25076
0
LINE
8
BLACK
6
CONTINUOUS
10
1.9468
20
-4.25076
11
1.95055
21
-4.24701
0
LINE
8
BLACK
6
CONTINUOUS
10
1.98055
20
-4.28451
11
1.98055
21
-4.337
0
LINE
8
BLACK
6
CONTINUOUS
10
1.98055
20
-4.292
11
1.9843
21
-4.28825
0
LINE
8
BLACK
6
CONTINUOUS
10
1.9843
20
-4.28825
11
1.9918
21
-4.28451
0
LINE
8
BLACK
6
CONTINUOUS
10
1.9918
20
-4.28451
11
2.00305
21
-4.28451
0
LINE
8
BLACK
6
CONTINUOUS
10
2.00305
20
-4.28451
11
2.01055
21
-4.28825
0
LINE
8
BLACK
6
CONTINUOUS
10
2.01055
20
-4.28825
11
2.0143
21
-4.29575
0
LINE
8
BLACK
6
CONTINUOUS
10
2.0143
20
-4.29575
11
2.0143
21
-4.337
0
LINE
8
BLACK
6
CONTINUOUS
10
2.06304
20
-4.337
11
2.05554
21
-4.33325
0
LINE
8
BLACK
6
CONTINUOUS
10
2.05554
20
-4.33325
11
2.05179
21
-4.3295
0
LINE
8
BLACK
6
CONTINUOUS
10
2.05179
20
-4.3295
11
2.04804
21
-4.322
0
LINE
8
BLACK
6
CONTINUOUS
10
2.04804
20
-4.322
11
2.04804
21
-4.2995
0
LINE
8
BLACK
6
CONTINUOUS
10
2.04804
20
-4.2995
11
2.05179
21
-4.292
0
LINE
8
BLACK
6
CONTINUOUS
10
2.05179
20
-4.292
11
2.05554
21
-4.28825
0
LINE
8
BLACK
6
CONTINUOUS
10
2.05554
20
-4.28825
11
2.06304
21
-4.28451
0
LINE
8
BLACK
6
CONTINUOUS
10
2.06304
20
-4.28451
11
2.07429
21
-4.28451
0
LINE
8
BLACK
6
CONTINUOUS
10
2.07429
20
-4.28451
11
2.08179
21
-4.28825
0
LINE
8
BLACK
6
CONTINUOUS
10
2.08179
20
-4.28825
11
2.08554
21
-4.292
0
LINE
8
BLACK
6
CONTINUOUS
10
2.08554
20
-4.292
11
2.08929
21
-4.2995
0
LINE
8
BLACK
6
CONTINUOUS
10
2.08929
20
-4.2995
11
2.08929
21
-4.322
0
LINE
8
BLACK
6
CONTINUOUS
10
2.08929
20
-4.322
11
2.08554
21
-4.3295
0
LINE
8
BLACK
6
CONTINUOUS
10
2.08554
20
-4.3295
11
2.08179
21
-4.33325
0
LINE
8
BLACK
6
CONTINUOUS
10
2.08179
20
-4.33325
11
2.07429
21
-4.337
0
LINE
8
BLACK
6
CONTINUOUS
10
2.07429
20
-4.337
11
2.06304
21
-4.337
0
LINE
8
BLACK
6
CONTINUOUS
10
2.11178
20
-4.28451
11
2.14178
21
-4.28451
0
LINE
8
BLACK
6
CONTINUOUS
10
2.12303
20
-4.25826
11
2.12303
21
-4.32575
0
LINE
8
BLACK
6
CONTINUOUS
10
2.12303
20
-4.32575
11
2.12678
21
-4.33325
0
LINE
8
BLACK
6
CONTINUOUS
10
2.12678
20
-4.33325
11
2.13428
21
-4.337
0
LINE
8
BLACK
6
CONTINUOUS
10
2.13428
20
-4.337
11
2.14178
21
-4.337
0
LINE
8
BLACK
6
CONTINUOUS
10
2.21527
20
-4.28451
11
2.21527
21
-4.36325
0
LINE
8
BLACK
6
CONTINUOUS
10
2.21527
20
-4.28825
11
2.22277
21
-4.28451
0
LINE
8
BLACK
6
CONTINUOUS
10
2.22277
20
-4.28451
11
2.23777
21
-4.28451
0
LINE
8
BLACK
6
CONTINUOUS
10
2.23777
20
-4.28451
11
2.24527
21
-4.28825
0
LINE
8
BLACK
6
CONTINUOUS
10
2.24527
20
-4.28825
11
2.24902
21
-4.292
0
LINE
8
BLACK
6
CONTINUOUS
10
2.24902
20
-4.292
11
2.25277
21
-4.2995
0
LINE
8
BLACK
6
CONTINUOUS
10
2.25277
20
-4.2995
11
2.25277
21
-4.322
0
LINE
8
BLACK
6
CONTINUOUS
10
2.25277
20
-4.322
11
2.24902
21
-4.3295
0
LINE
8
BLACK
6
CONTINUOUS
10
2.24902
20
-4.3295
11
2.24527
21
-4.33325
0
LINE
8
BLACK
6
CONTINUOUS
10
2.24527
20
-4.33325
11
2.23777
21
-4.337
0
LINE
8
BLACK
6
CONTINUOUS
10
2.23777
20
-4.337
11
2.22277
21
-4.337
0
LINE
8
BLACK
6
CONTINUOUS
10
2.22277
20
-4.337
11
2.21527
21
-4.33325
0
LINE
8
BLACK
6
CONTINUOUS
10
2.29776
20
-4.337
11
2.29026
21
-4.33325
0
LINE
8
BLACK
6
CONTINUOUS
10
2.29026
20
-4.33325
11
2.28651
21
-4.32575
0
LINE
8
BLACK
6
CONTINUOUS
10
2.28651
20
-4.32575
11
2.28651
21
-4.25826
0
LINE
8
BLACK
6
CONTINUOUS
10
2.3615
20
-4.337
11
2.3615
21
-4.29575
0
LINE
8
BLACK
6
CONTINUOUS
10
2.3615
20
-4.29575
11
2.35775
21
-4.28825
0
LINE
8
BLACK
6
CONTINUOUS
10
2.35775
20
-4.28825
11
2.35025
21
-4.28451
0
LINE
8
BLACK
6
CONTINUOUS
10
2.35025
20
-4.28451
11
2.33526
21
-4.28451
0
LINE
8
BLACK
6
CONTINUOUS
10
2.33526
20
-4.28451
11
2.32776
21
-4.28825
0
LINE
8
BLACK
6
CONTINUOUS
10
2.3615
20
-4.33325
11
2.354
21
-4.337
0
LINE
8
BLACK
6
CONTINUOUS
10
2.354
20
-4.337
11
2.33526
21
-4.337
0
LINE
8
BLACK
6
CONTINUOUS
10
2.33526
20
-4.337
11
2.32776
21
-4.33325
0
LINE
8
BLACK
6
CONTINUOUS
10
2.32776
20
-4.33325
11
2.32401
21
-4.32575
0
LINE
8
BLACK
6
CONTINUOUS
10
2.32401
20
-4.32575
11
2.32401
21
-4.31825
0
LINE
8
BLACK
6
CONTINUOUS
10
2.32401
20
-4.31825
11
2.32776
21
-4.31075
0
LINE
8
BLACK
6
CONTINUOUS
10
2.32776
20
-4.31075
11
2.33526
21
-4.307
0
LINE
8
BLACK
6
CONTINUOUS
10
2.33526
20
-4.307
11
2.354
21
-4.307
0
LINE
8
BLACK
6
CONTINUOUS
10
2.354
20
-4.307
11
2.3615
21
-4.30325
0
LINE
8
BLACK
6
CONTINUOUS
10
2.38775
20
-4.28451
11
2.41774
21
-4.28451
0
LINE
8
BLACK
6
CONTINUOUS
10
2.399
20
-4.25826
11
2.399
21
-4.32575
0
LINE
8
BLACK
6
CONTINUOUS
10
2.399
20
-4.32575
11
2.40275
21
-4.33325
0
LINE
8
BLACK
6
CONTINUOUS
10
2.40275
20
-4.33325
11
2.41025
21
-4.337
0
LINE
8
BLACK
6
CONTINUOUS
10
2.41025
20
-4.337
11
2.41774
21
-4.337
0
LINE
8
BLACK
6
CONTINUOUS
10
2.47399
20
-4.33325
11
2.46649
21
-4.337
0
LINE
8
BLACK
6
CONTINUOUS
10
2.46649
20
-4.337
11
2.45149
21
-4.337
0
LINE
8
BLACK
6
CONTINUOUS
10
2.45149
20
-4.337
11
2.44399
21
-4.33325
0
LINE
8
BLACK
6
CONTINUOUS
10
2.44399
20
-4.33325
11
2.44024
21
-4.32575
0
LINE
8
BLACK
6
CONTINUOUS
10
2.44024
20
-4.32575
11
2.44024
21
-4.29575
0
LINE
8
BLACK
6
CONTINUOUS
10
2.44024
20
-4.29575
11
2.44399
21
-4.28825
0
LINE
8
BLACK
6
CONTINUOUS
10
2.44399
20
-4.28825
11
2.45149
21
-4.28451
0
LINE
8
BLACK
6
CONTINUOUS
10
2.45149
20
-4.28451
11
2.46649
21
-4.28451
0
LINE
8
BLACK
6
CONTINUOUS
10
2.46649
20
-4.28451
11
2.47399
21
-4.28825
0
LINE
8
BLACK
6
CONTINUOUS
10
2.47399
20
-4.28825
11
2.47774
21
-4.29575
0
LINE
8
BLACK
6
CONTINUOUS
10
2.47774
20
-4.29575
11
2.47774
21
-4.30325
0
LINE
8
BLACK
6
CONTINUOUS
10
2.47774
20
-4.30325
11
2.44024
21
-4.31075
0
LINE
8
BLACK
6
CONTINUOUS
10
2.54523
20
-4.337
11
2.54523
21
-4.25826
0
LINE
8
BLACK
6
CONTINUOUS
10
2.54523
20
-4.33325
11
2.53773
21
-4.337
0
LINE
8
BLACK
6
CONTINUOUS
10
2.53773
20
-4.337
11
2.52273
21
-4.337
0
LINE
8
BLACK
6
CONTINUOUS
10
2.52273
20
-4.337
11
2.51523
21
-4.33325
0
LINE
8
BLACK
6
CONTINUOUS
10
2.51523
20
-4.33325
11
2.51148
21
-4.3295
0
LINE
8
BLACK
6
CONTINUOUS
10
2.51148
20
-4.3295
11
2.50773
21
-4.322
0
LINE
8
BLACK
6
CONTINUOUS
10
2.50773
20
-4.322
11
2.50773
21
-4.2995
0
LINE
8
BLACK
6
CONTINUOUS
10
2.50773
20
-4.2995
11
2.51148
21
-4.292
0
LINE
8
BLACK
6
CONTINUOUS
10
2.51148
20
-4.292
11
2.51523
21
-4.28825
0
LINE
8
BLACK
6
CONTINUOUS
10
2.51523
20
-4.28825
11
2.52273
21
-4.28451
0
LINE
8
BLACK
6
CONTINUOUS
10
2.52273
20
-4.28451
11
2.53773
21
-4.28451
0
LINE
8
BLACK
6
CONTINUOUS
10
2.53773
20
-4.28451
11
2.54523
21
-4.28825
0
LINE
8
BLACK
6
CONTINUOUS
10
2.57523
20
-4.36699
11
2.57897
21
-4.36325
0
LINE
8
BLACK
6
CONTINUOUS
10
2.57897
20
-4.36325
11
2.58647
21
-4.352
0
LINE
8
BLACK
6
CONTINUOUS
10
2.58647
20
-4.352
11
2.59022
21
-4.3445
0
LINE
8
BLACK
6
CONTINUOUS
10
2.59022
20
-4.3445
11
2.59397
21
-4.33325
0
LINE
8
BLACK
6
CONTINUOUS
10
2.59397
20
-4.33325
11
2.59772
21
-4.3145
0
LINE
8
BLACK
6
CONTINUOUS
10
2.59772
20
-4.3145
11
2.59772
21
-4.2995
0
LINE
8
BLACK
6
CONTINUOUS
10
2.59772
20
-4.2995
11
2.59397
21
-4.28076
0
LINE
8
BLACK
6
CONTINUOUS
10
2.59397
20
-4.28076
11
2.59022
21
-4.26951
0
LINE
8
BLACK
6
CONTINUOUS
10
2.59022
20
-4.26951
11
2.58647
21
-4.26201
0
LINE
8
BLACK
6
CONTINUOUS
10
2.58647
20
-4.26201
11
2.57897
21
-4.25076
0
LINE
8
BLACK
6
CONTINUOUS
10
2.57897
20
-4.25076
11
2.57523
21
-4.24701
0
LINE
8
BLACK
6
CONTINUOUS
10
-0.0423228
20
-4.39469
11
-0.0423228
21
-4.47343
0
LINE
8
BLACK
6
CONTINUOUS
10
-0.0816929
20
-4.43406
11
-0.00295276
21
-4.43406
0
LINE
8
BLACK
6
CONTINUOUS
10
0.087036
20
-4.38424
11
0.13578
21
-4.38424
0
LINE
8
BLACK
6
CONTINUOUS
10
0.13578
20
-4.38424
11
0.109533
21
-4.41424
0
LINE
8
BLACK
6
CONTINUOUS
10
0.109533
20
-4.41424
11
0.120782
21
-4.41424
0
LINE
8
BLACK
6
CONTINUOUS
10
0.120782
20
-4.41424
11
0.128281
21
-4.41799
0
LINE
8
BLACK
6
CONTINUOUS
10
0.128281
20
-4.41799
11
0.13203
21
-4.42174
0
LINE
8
BLACK
6
CONTINUOUS
10
0.13203
20
-4.42174
11
0.13578
21
-4.42924
0
LINE
8
BLACK
6
CONTINUOUS
10
0.13578
20
-4.42924
11
0.13578
21
-4.44798
0
LINE
8
BLACK
6
CONTINUOUS
10
0.13578
20
-4.44798
11
0.13203
21
-4.45548
0
LINE
8
BLACK
6
CONTINUOUS
10
0.13203
20
-4.45548
11
0.128281
21
-4.45923
0
LINE
8
BLACK
6
CONTINUOUS
10
0.128281
20
-4.45923
11
0.120782
21
-4.46298
0
LINE
8
BLACK
6
CONTINUOUS
10
0.120782
20
-4.46298
11
0.0982846
21
-4.46298
0
LINE
8
BLACK
6
CONTINUOUS
10
0.0982846
20
-4.46298
11
0.0907855
21
-4.45923
0
LINE
8
BLACK
6
CONTINUOUS
10
0.0907855
20
-4.45923
11
0.087036
21
-4.45548
0
LINE
8
BLACK
6
CONTINUOUS
10
0.169526
20
-4.45548
11
0.173275
21
-4.45923
0
LINE
8
BLACK
6
CONTINUOUS
10
0.173275
20
-4.45923
11
0.169526
21
-4.46298
0
LINE
8
BLACK
6
CONTINUOUS
10
0.169526
20
-4.46298
11
0.165776
21
-4.45923
0
LINE
8
BLACK
6
CONTINUOUS
10
0.165776
20
-4.45923
11
0.169526
21
-4.45548
0
LINE
8
BLACK
6
CONTINUOUS
10
0.169526
20
-4.45548
11
0.169526
21
-4.46298
0
LINE
8
BLACK
6
CONTINUOUS
10
0.210771
20
-4.46298
11
0.225769
21
-4.46298
0
LINE
8
BLACK
6
CONTINUOUS
10
0.225769
20
-4.46298
11
0.233268
21
-4.45923
0
LINE
8
BLACK
6
CONTINUOUS
10
0.233268
20
-4.45923
11
0.237017
21
-4.45548
0
LINE
8
BLACK
6
CONTINUOUS
10
0.237017
20
-4.45548
11
0.244516
21
-4.44424
0
LINE
8
BLACK
6
CONTINUOUS
10
0.244516
20
-4.44424
11
0.248266
21
-4.42924
0
LINE
8
BLACK
6
CONTINUOUS
10
0.248266
20
-4.42924
11
0.248266
21
-4.39924
0
LINE
8
BLACK
6
CONTINUOUS
10
0.248266
20
-4.39924
11
0.244516
21
-4.39174
0
LINE
8
BLACK
6
CONTINUOUS
10
0.244516
20
-4.39174
11
0.240767
21
-4.38799
0
LINE
8
BLACK
6
CONTINUOUS
10
0.240767
20
-4.38799
11
0.233268
21
-4.38424
0
LINE
8
BLACK
6
CONTINUOUS
10
0.233268
20
-4.38424
11
0.21827
21
-4.38424
0
LINE
8
BLACK
6
CONTINUOUS
10
0.21827
20
-4.38424
11
0.210771
21
-4.38799
0
LINE
8
BLACK
6
CONTINUOUS
10
0.210771
20
-4.38799
11
0.207021
21
-4.39174
0
LINE
8
BLACK
6
CONTINUOUS
10
0.207021
20
-4.39174
11
0.203271
21
-4.39924
0
LINE
8
BLACK
6
CONTINUOUS
10
0.203271
20
-4.39924
11
0.203271
21
-4.41799
0
LINE
8
BLACK
6
CONTINUOUS
10
0.203271
20
-4.41799
11
0.207021
21
-4.42549
0
LINE
8
BLACK
6
CONTINUOUS
10
0.207021
20
-4.42549
11
0.210771
21
-4.42924
0
LINE
8
BLACK
6
CONTINUOUS
10
0.210771
20
-4.42924
11
0.21827
21
-4.43299
0
LINE
8
BLACK
6
CONTINUOUS
10
0.21827
20
-4.43299
11
0.233268
21
-4.43299
0
LINE
8
BLACK
6
CONTINUOUS
10
0.233268
20
-4.43299
11
0.240767
21
-4.42924
0
LINE
8
BLACK
6
CONTINUOUS
10
0.240767
20
-4.42924
11
0.244516
21
-4.42549
0
LINE
8
BLACK
6
CONTINUOUS
10
0.244516
20
-4.42549
11
0.248266
21
-4.41799
0
LINE
8
BLACK
6
CONTINUOUS
10
0.29326
20
-4.41799
11
0.285761
21
-4.41424
0
LINE
8
BLACK
6
CONTINUOUS
10
0.285761
20
-4.41424
11
0.282012
21
-4.41049
0
LINE
8
BLACK
6
CONTINUOUS
10
0.282012
20
-4.41049
11
0.278262
21
-4.40299
0
LINE
8
BLACK
6
CONTINUOUS
10
0.278262
20
-4.40299
11
0.278262
21
-4.39924
0
LINE
8
BLACK
6
CONTINUOUS
10
0.278262
20
-4.39924
11
0.282012
21
-4.39174
0
LINE
8
BLACK
6
CONTINUOUS
10
0.282012
20
-4.39174
11
0.285761
21
-4.38799
0
LINE
8
BLACK
6
CONTINUOUS
10
0.285761
20
-4.38799
11
0.29326
21
-4.38424
0
LINE
8
BLACK
6
CONTINUOUS
10
0.29326
20
-4.38424
11
0.308258
21
-4.38424
0
LINE
8
BLACK
6
CONTINUOUS
10
0.308258
20
-4.38424
11
0.315757
21
-4.38799
0
LINE
8
BLACK
6
CONTINUOUS
10
0.315757
20
-4.38799
11
0.319507
21
-4.39174
0
LINE
8
BLACK
6
CONTINUOUS
10
0.319507
20
-4.39174
11
0.323256
21
-4.39924
0
LINE
8
BLACK
6
CONTINUOUS
10
0.323256
20
-4.39924
11
0.323256
21
-4.40299
0
LINE
8
BLACK
6
CONTINUOUS
10
0.323256
20
-4.40299
11
0.319507
21
-4.41049
0
LINE
8
BLACK
6
CONTINUOUS
10
0.319507
20
-4.41049
11
0.315757
21
-4.41424
0
LINE
8
BLACK
6
CONTINUOUS
10
0.315757
20
-4.41424
11
0.308258
21
-4.41799
0
LINE
8
BLACK
6
CONTINUOUS
10
0.308258
20
-4.41799
11
0.29326
21
-4.41799
0
LINE
8
BLACK
6
CONTINUOUS
10
0.29326
20
-4.41799
11
0.285761
21
-4.42174
0
LINE
8
BLACK
6
CONTINUOUS
10
0.285761
20
-4.42174
11
0.282012
21
-4.42549
0
LINE
8
BLACK
6
CONTINUOUS
10
0.282012
20
-4.42549
11
0.278262
21
-4.43299
0
LINE
8
BLACK
6
CONTINUOUS
10
0.278262
20
-4.43299
11
0.278262
21
-4.44798
0
LINE
8
BLACK
6
CONTINUOUS
10
0.278262
20
-4.44798
11
0.282012
21
-4.45548
0
LINE
8
BLACK
6
CONTINUOUS
10
0.282012
20
-4.45548
11
0.285761
21
-4.45923
0
LINE
8
BLACK
6
CONTINUOUS
10
0.285761
20
-4.45923
11
0.29326
21
-4.46298
0
LINE
8
BLACK
6
CONTINUOUS
10
0.29326
20
-4.46298
11
0.308258
21
-4.46298
0
LINE
8
BLACK
6
CONTINUOUS
10
0.308258
20
-4.46298
11
0.315757
21
-4.45923
0
LINE
8
BLACK
6
CONTINUOUS
10
0.315757
20
-4.45923
11
0.319507
21
-4.45548
0
LINE
8
BLACK
6
CONTINUOUS
10
0.319507
20
-4.45548
11
0.323256
21
-4.44798
0
LINE
8
BLACK
6
CONTINUOUS
10
0.323256
20
-4.44798
11
0.323256
21
-4.43299
0
LINE
8
BLACK
6
CONTINUOUS
10
0.323256
20
-4.43299
11
0.319507
21
-4.42549
0
LINE
8
BLACK
6
CONTINUOUS
10
0.319507
20
-4.42549
11
0.315757
21
-4.42174
0
LINE
8
BLACK
6
CONTINUOUS
10
0.315757
20
-4.42174
11
0.308258
21
-4.41799
0
LINE
8
BLACK
6
CONTINUOUS
10
0.368251
20
-4.41799
11
0.360752
21
-4.41424
0
LINE
8
BLACK
6
CONTINUOUS
10
0.360752
20
-4.41424
11
0.357002
21
-4.41049
0
LINE
8
BLACK
6
CONTINUOUS
10
0.357002
20
-4.41049
11
0.353253
21
-4.40299
0
LINE
8
BLACK
6
CONTINUOUS
10
0.353253
20
-4.40299
11
0.353253
21
-4.39924
0
LINE
8
BLACK
6
CONTINUOUS
10
0.353253
20
-4.39924
11
0.357002
21
-4.39174
0
LINE
8
BLACK
6
CONTINUOUS
10
0.357002
20
-4.39174
11
0.360752
21
-4.38799
0
LINE
8
BLACK
6
CONTINUOUS
10
0.360752
20
-4.38799
11
0.368251
21
-4.38424
0
LINE
8
BLACK
6
CONTINUOUS
10
0.368251
20
-4.38424
11
0.383249
21
-4.38424
0
LINE
8
BLACK
6
CONTINUOUS
10
0.383249
20
-4.38424
11
0.390748
21
-4.38799
0
LINE
8
BLACK
6
CONTINUOUS
10
0.390748
20
-4.38799
11
0.394498
21
-4.39174
0
LINE
8
BLACK
6
CONTINUOUS
10
0.394498
20
-4.39174
11
0.398247
21
-4.39924
0
LINE
8
BLACK
6
CONTINUOUS
10
0.398247
20
-4.39924
11
0.398247
21
-4.40299
0
LINE
8
BLACK
6
CONTINUOUS
10
0.398247
20
-4.40299
11
0.394498
21
-4.41049
0
LINE
8
BLACK
6
CONTINUOUS
10
0.394498
20
-4.41049
11
0.390748
21
-4.41424
0
LINE
8
BLACK
6
CONTINUOUS
10
0.390748
20
-4.41424
11
0.383249
21
-4.41799
0
LINE
8
BLACK
6
CONTINUOUS
10
0.383249
20
-4.41799
11
0.368251
21
-4.41799
0
LINE
8
BLACK
6
CONTINUOUS
10
0.368251
20
-4.41799
11
0.360752
21
-4.42174
0
LINE
8
BLACK
6
CONTINUOUS
10
0.360752
20
-4.42174
11
0.357002
21
-4.42549
0
LINE
8
BLACK
6
CONTINUOUS
10
0.357002
20
-4.42549
11
0.353253
21
-4.43299
0
LINE
8
BLACK
6
CONTINUOUS
10
0.353253
20
-4.43299
11
0.353253
21
-4.44798
0
LINE
8
BLACK
6
CONTINUOUS
10
0.353253
20
-4.44798
11
0.357002
21
-4.45548
0
LINE
8
BLACK
6
CONTINUOUS
10
0.357002
20
-4.45548
11
0.360752
21
-4.45923
0
LINE
8
BLACK
6
CONTINUOUS
10
0.360752
20
-4.45923
11
0.368251
21
-4.46298
0
LINE
8
BLACK
6
CONTINUOUS
10
0.368251
20
-4.46298
11
0.383249
21
-4.46298
0
LINE
8
BLACK
6
CONTINUOUS
10
0.383249
20
-4.46298
11
0.390748
21
-4.45923
0
LINE
8
BLACK
6
CONTINUOUS
10
0.390748
20
-4.45923
11
0.394498
21
-4.45548
0
LINE
8
BLACK
6
CONTINUOUS
10
0.394498
20
-4.45548
11
0.398247
21
-4.44798
0
LINE
8
BLACK
6
CONTINUOUS
10
0.398247
20
-4.44798
11
0.398247
21
-4.43299
0
LINE
8
BLACK
6
CONTINUOUS
10
0.398247
20
-4.43299
11
0.394498
21
-4.42549
0
LINE
8
BLACK
6
CONTINUOUS
10
0.394498
20
-4.42549
11
0.390748
21
-4.42174
0
LINE
8
BLACK
6
CONTINUOUS
10
0.390748
20
-4.42174
11
0.383249
21
-4.41799
0
LINE
8
BLACK
6
CONTINUOUS
10
0.431993
20
-4.46298
11
0.431993
21
-4.41049
0
LINE
8
BLACK
6
CONTINUOUS
10
0.431993
20
-4.41799
11
0.435742
21
-4.41424
0
LINE
8
BLACK
6
CONTINUOUS
10
0.435742
20
-4.41424
11
0.443241
21
-4.41049
0
LINE
8
BLACK
6
CONTINUOUS
10
0.443241
20
-4.41049
11
0.45449
21
-4.41049
0
LINE
8
BLACK
6
CONTINUOUS
10
0.45449
20
-4.41049
11
0.461989
21
-4.41424
0
LINE
8
BLACK
6
CONTINUOUS
10
0.461989
20
-4.41424
11
0.465739
21
-4.42174
0
LINE
8
BLACK
6
CONTINUOUS
10
0.465739
20
-4.42174
11
0.465739
21
-4.46298
0
LINE
8
BLACK
6
CONTINUOUS
10
0.465739
20
-4.42174
11
0.469488
21
-4.41424
0
LINE
8
BLACK
6
CONTINUOUS
10
0.469488
20
-4.41424
11
0.476987
21
-4.41049
0
LINE
8
BLACK
6
CONTINUOUS
10
0.476987
20
-4.41049
11
0.488236
21
-4.41049
0
LINE
8
BLACK
6
CONTINUOUS
10
0.488236
20
-4.41049
11
0.495735
21
-4.41424
0
LINE
8
BLACK
6
CONTINUOUS
10
0.495735
20
-4.41424
11
0.499484
21
-4.42174
0
LINE
8
BLACK
6
CONTINUOUS
10
0.499484
20
-4.42174
11
0.499484
21
-4.46298
0
LINE
8
BLACK
6
CONTINUOUS
10
0.53698
20
-4.46298
11
0.53698
21
-4.41049
0
LINE
8
BLACK
6
CONTINUOUS
10
0.53698
20
-4.41799
11
0.540729
21
-4.41424
0
LINE
8
BLACK
6
CONTINUOUS
10
0.540729
20
-4.41424
11
0.548228
21
-4.41049
0
LINE
8
BLACK
6
CONTINUOUS
10
0.548228
20
-4.41049
11
0.559477
21
-4.41049
0
LINE
8
BLACK
6
CONTINUOUS
10
0.559477
20
-4.41049
11
0.566976
21
-4.41424
0
LINE
8
BLACK
6
CONTINUOUS
10
0.566976
20
-4.41424
11
0.570726
21
-4.42174
0
LINE
8
BLACK
6
CONTINUOUS
10
0.570726
20
-4.42174
11
0.570726
21
-4.46298
0
LINE
8
BLACK
6
CONTINUOUS
10
0.570726
20
-4.42174
11
0.574475
21
-4.41424
0
LINE
8
BLACK
6
CONTINUOUS
10
0.574475
20
-4.41424
11
0.581974
21
-4.41049
0
LINE
8
BLACK
6
CONTINUOUS
10
0.581974
20
-4.41049
11
0.593223
21
-4.41049
0
LINE
8
BLACK
6
CONTINUOUS
10
0.593223
20
-4.41049
11
0.600722
21
-4.41424
0
LINE
8
BLACK
6
CONTINUOUS
10
0.600722
20
-4.41424
11
0.604471
21
-4.42174
0
LINE
8
BLACK
6
CONTINUOUS
10
0.604471
20
-4.42174
11
0.604471
21
-4.46298
0
LINE
8
BLACK
6
CONTINUOUS
10
0.745454
20
-4.38049
11
0.677962
21
-4.48173
0
LINE
8
BLACK
6
CONTINUOUS
10
0.833943
20
-4.38424
11
0.841442
21
-4.38424
0
LINE
8
BLACK
6
CONTINUOUS
10
0.841442
20
-4.38424
11
0.848941
21
-4.38799
0
LINE
8
BLACK
6
CONTINUOUS
10
0.848941
20
-4.38799
11
0.85269
21
-4.39174
0
LINE
8
BLACK
6
CONTINUOUS
10
0.85269
20
-4.39174
11
0.85644
21
-4.39924
0
LINE
8
BLACK
6
CONTINUOUS
10
0.85644
20
-4.39924
11
0.860189
21
-4.41424
0
LINE
8
BLACK
6
CONTINUOUS
10
0.860189
20
-4.41424
11
0.860189
21
-4.43299
0
LINE
8
BLACK
6
CONTINUOUS
10
0.860189
20
-4.43299
11
0.85644
21
-4.44798
0
LINE
8
BLACK
6
CONTINUOUS
10
0.85644
20
-4.44798
11
0.85269
21
-4.45548
0
LINE
8
BLACK
6
CONTINUOUS
10
0.85269
20
-4.45548
11
0.848941
21
-4.45923
0
LINE
8
BLACK
6
CONTINUOUS
10
0.848941
20
-4.45923
11
0.841442
21
-4.46298
0
LINE
8
BLACK
6
CONTINUOUS
10
0.841442
20
-4.46298
11
0.833943
21
-4.46298
0
LINE
8
BLACK
6
CONTINUOUS
10
0.833943
20
-4.46298
11
0.826444
21
-4.45923
0
LINE
8
BLACK
6
CONTINUOUS
10
0.826444
20
-4.45923
11
0.822694
21
-4.45548
0
LINE
8
BLACK
6
CONTINUOUS
10
0.822694
20
-4.45548
11
0.818945
21
-4.44798
0
LINE
8
BLACK
6
CONTINUOUS
10
0.818945
20
-4.44798
11
0.815195
21
-4.43299
0
LINE
8
BLACK
6
CONTINUOUS
10
0.815195
20
-4.43299
11
0.815195
21
-4.41424
0
LINE
8
BLACK
6
CONTINUOUS
10
0.815195
20
-4.41424
11
0.818945
21
-4.39924
0
LINE
8
BLACK
6
CONTINUOUS
10
0.818945
20
-4.39924
11
0.822694
21
-4.39174
0
LINE
8
BLACK
6
CONTINUOUS
10
0.822694
20
-4.39174
11
0.826444
21
-4.38799
0
LINE
8
BLACK
6
CONTINUOUS
10
0.826444
20
-4.38799
11
0.833943
21
-4.38424
0
LINE
8
BLACK
6
CONTINUOUS
10
0.893935
20
-4.45548
11
0.897685
21
-4.45923
0
LINE
8
BLACK
6
CONTINUOUS
10
0.897685
20
-4.45923
11
0.893935
21
-4.46298
0
LINE
8
BLACK
6
CONTINUOUS
10
0.893935
20
-4.46298
11
0.890186
21
-4.45923
0
LINE
8
BLACK
6
CONTINUOUS
10
0.890186
20
-4.45923
11
0.893935
21
-4.45548
0
LINE
8
BLACK
6
CONTINUOUS
10
0.893935
20
-4.45548
11
0.893935
21
-4.46298
0
LINE
8
BLACK
6
CONTINUOUS
10
0.972675
20
-4.46298
11
0.927681
21
-4.46298
0
LINE
8
BLACK
6
CONTINUOUS
10
0.950178
20
-4.46298
11
0.950178
21
-4.38424
0
LINE
8
BLACK
6
CONTINUOUS
10
0.950178
20
-4.38424
11
0.942679
21
-4.39549
0
LINE
8
BLACK
6
CONTINUOUS
10
0.942679
20
-4.39549
11
0.93518
21
-4.40299
0
LINE
8
BLACK
6
CONTINUOUS
10
0.93518
20
-4.40299
11
0.927681
21
-4.40674
0
LINE
8
BLACK
6
CONTINUOUS
10
1.04392
20
-4.38424
11
1.00642
21
-4.38424
0
LINE
8
BLACK
6
CONTINUOUS
10
1.00642
20
-4.38424
11
1.00267
21
-4.42174
0
LINE
8
BLACK
6
CONTINUOUS
10
1.00267
20
-4.42174
11
1.00642
21
-4.41799
0
LINE
8
BLACK
6
CONTINUOUS
10
1.00642
20
-4.41799
11
1.01392
21
-4.41424
0
LINE
8
BLACK
6
CONTINUOUS
10
1.01392
20
-4.41424
11
1.03267
21
-4.41424
0
LINE
8
BLACK
6
CONTINUOUS
10
1.03267
20
-4.41424
11
1.04017
21
-4.41799
0
LINE
8
BLACK
6
CONTINUOUS
10
1.04017
20
-4.41799
11
1.04392
21
-4.42174
0
LINE
8
BLACK
6
CONTINUOUS
10
1.04392
20
-4.42174
11
1.04767
21
-4.42924
0
LINE
8
BLACK
6
CONTINUOUS
10
1.04767
20
-4.42924
11
1.04767
21
-4.44798
0
LINE
8
BLACK
6
CONTINUOUS
10
1.04767
20
-4.44798
11
1.04392
21
-4.45548
0
LINE
8
BLACK
6
CONTINUOUS
10
1.04392
20
-4.45548
11
1.04017
21
-4.45923
0
LINE
8
BLACK
6
CONTINUOUS
10
1.04017
20
-4.45923
11
1.03267
21
-4.46298
0
LINE
8
BLACK
6
CONTINUOUS
10
1.03267
20
-4.46298
11
1.01392
21
-4.46298
0
LINE
8
BLACK
6
CONTINUOUS
10
1.01392
20
-4.46298
11
1.00642
21
-4.45923
0
LINE
8
BLACK
6
CONTINUOUS
10
1.00642
20
-4.45923
11
1.00267
21
-4.45548
0
LINE
8
BLACK
6
CONTINUOUS
10
1.07391
20
-4.38424
11
1.12641
21
-4.38424
0
LINE
8
BLACK
6
CONTINUOUS
10
1.12641
20
-4.38424
11
1.09266
21
-4.46298
0
LINE
8
BLACK
6
CONTINUOUS
10
1.1714
20
-4.38424
11
1.1789
21
-4.38424
0
LINE
8
BLACK
6
CONTINUOUS
10
1.1789
20
-4.38424
11
1.1864
21
-4.38799
0
LINE
8
BLACK
6
CONTINUOUS
10
1.1864
20
-4.38799
11
1.19015
21
-4.39174
0
LINE
8
BLACK
6
CONTINUOUS
10
1.19015
20
-4.39174
11
1.1939
21
-4.39924
0
LINE
8
BLACK
6
CONTINUOUS
10
1.1939
20
-4.39924
11
1.19765
21
-4.41424
0
LINE
8
BLACK
6
CONTINUOUS
10
1.19765
20
-4.41424
11
1.19765
21
-4.43299
0
LINE
8
BLACK
6
CONTINUOUS
10
1.19765
20
-4.43299
11
1.1939
21
-4.44798
0
LINE
8
BLACK
6
CONTINUOUS
10
1.1939
20
-4.44798
11
1.19015
21
-4.45548
0
LINE
8
BLACK
6
CONTINUOUS
10
1.19015
20
-4.45548
11
1.1864
21
-4.45923
0
LINE
8
BLACK
6
CONTINUOUS
10
1.1864
20
-4.45923
11
1.1789
21
-4.46298
0
LINE
8
BLACK
6
CONTINUOUS
10
1.1789
20
-4.46298
11
1.1714
21
-4.46298
0
LINE
8
BLACK
6
CONTINUOUS
10
1.1714
20
-4.46298
11
1.1639
21
-4.45923
0
LINE
8
BLACK
6
CONTINUOUS
10
1.1639
20
-4.45923
11
1.16015
21
-4.45548
0
LINE
8
BLACK
6
CONTINUOUS
10
1.16015
20
-4.45548
11
1.1564
21
-4.44798
0
LINE
8
BLACK
6
CONTINUOUS
10
1.1564
20
-4.44798
11
1.15265
21
-4.43299
0
LINE
8
BLACK
6
CONTINUOUS
10
1.15265
20
-4.43299
11
1.15265
21
-4.41424
0
LINE
8
BLACK
6
CONTINUOUS
10
1.15265
20
-4.41424
11
1.1564
21
-4.39924
0
LINE
8
BLACK
6
CONTINUOUS
10
1.1564
20
-4.39924
11
1.16015
21
-4.39174
0
LINE
8
BLACK
6
CONTINUOUS
10
1.16015
20
-4.39174
11
1.1639
21
-4.38799
0
LINE
8
BLACK
6
CONTINUOUS
10
1.1639
20
-4.38799
11
1.1714
21
-4.38424
0
LINE
8
BLACK
6
CONTINUOUS
10
1.22764
20
-4.38424
11
1.22764
21
-4.39924
0
LINE
8
BLACK
6
CONTINUOUS
10
1.25764
20
-4.38424
11
1.25764
21
-4.39924
0
LINE
8
BLACK
6
CONTINUOUS
10
1.36113
20
-4.49298
11
1.35738
21
-4.48923
0
LINE
8
BLACK
6
CONTINUOUS
10
1.35738
20
-4.48923
11
1.34988
21
-4.47798
0
LINE
8
BLACK
6
CONTINUOUS
10
1.34988
20
-4.47798
11
1.34613
21
-4.47048
0
LINE
8
BLACK
6
CONTINUOUS
10
1.34613
20
-4.47048
11
1.34238
21
-4.45923
0
LINE
8
BLACK
6
CONTINUOUS
10
1.34238
20
-4.45923
11
1.33863
21
-4.44049
0
LINE
8
BLACK
6
CONTINUOUS
10
1.33863
20
-4.44049
11
1.33863
21
-4.42549
0
LINE
8
BLACK
6
CONTINUOUS
10
1.33863
20
-4.42549
11
1.34238
21
-4.40674
0
LINE
8
BLACK
6
CONTINUOUS
10
1.34238
20
-4.40674
11
1.34613
21
-4.39549
0
LINE
8
BLACK
6
CONTINUOUS
10
1.34613
20
-4.39549
11
1.34988
21
-4.38799
0
LINE
8
BLACK
6
CONTINUOUS
10
1.34988
20
-4.38799
11
1.35738
21
-4.37674
0
LINE
8
BLACK
6
CONTINUOUS
10
1.35738
20
-4.37674
11
1.36113
21
-4.37299
0
LINE
8
BLACK
6
CONTINUOUS
10
1.42487
20
-4.38424
11
1.40987
21
-4.38424
0
LINE
8
BLACK
6
CONTINUOUS
10
1.40987
20
-4.38424
11
1.40237
21
-4.38799
0
LINE
8
BLACK
6
CONTINUOUS
10
1.40237
20
-4.38799
11
1.39862
21
-4.39174
0
LINE
8
BLACK
6
CONTINUOUS
10
1.39862
20
-4.39174
11
1.39112
21
-4.40299
0
LINE
8
BLACK
6
CONTINUOUS
10
1.39112
20
-4.40299
11
1.38737
21
-4.41799
0
LINE
8
BLACK
6
CONTINUOUS
10
1.38737
20
-4.41799
11
1.38737
21
-4.44798
0
LINE
8
BLACK
6
CONTINUOUS
10
1.38737
20
-4.44798
11
1.39112
21
-4.45548
0
LINE
8
BLACK
6
CONTINUOUS
10
1.39112
20
-4.45548
11
1.39487
21
-4.45923
0
LINE
8
BLACK
6
CONTINUOUS
10
1.39487
20
-4.45923
11
1.40237
21
-4.46298
0
LINE
8
BLACK
6
CONTINUOUS
10
1.40237
20
-4.46298
11
1.41737
21
-4.46298
0
LINE
8
BLACK
6
CONTINUOUS
10
1.41737
20
-4.46298
11
1.42487
21
-4.45923
0
LINE
8
BLACK
6
CONTINUOUS
10
1.42487
20
-4.45923
11
1.42862
21
-4.45548
0
LINE
8
BLACK
6
CONTINUOUS
10
1.42862
20
-4.45548
11
1.43237
21
-4.44798
0
LINE
8
BLACK
6
CONTINUOUS
10
1.43237
20
-4.44798
11
1.43237
21
-4.42924
0
LINE
8
BLACK
6
CONTINUOUS
10
1.43237
20
-4.42924
11
1.42862
21
-4.42174
0
LINE
8
BLACK
6
CONTINUOUS
10
1.42862
20
-4.42174
11
1.42487
21
-4.41799
0
LINE
8
BLACK
6
CONTINUOUS
10
1.42487
20
-4.41799
11
1.41737
21
-4.41424
0
LINE
8
BLACK
6
CONTINUOUS
10
1.41737
20
-4.41424
11
1.40237
21
-4.41424
0
LINE
8
BLACK
6
CONTINUOUS
10
1.40237
20
-4.41424
11
1.39487
21
-4.41799
0
LINE
8
BLACK
6
CONTINUOUS
10
1.39487
20
-4.41799
11
1.39112
21
-4.42174
0
LINE
8
BLACK
6
CONTINUOUS
10
1.39112
20
-4.42174
11
1.38737
21
-4.42924
0
LINE
8
BLACK
6
CONTINUOUS
10
1.45861
20
-4.38424
11
1.50736
21
-4.38424
0
LINE
8
BLACK
6
CONTINUOUS
10
1.50736
20
-4.38424
11
1.48111
21
-4.41424
0
LINE
8
BLACK
6
CONTINUOUS
10
1.48111
20
-4.41424
11
1.49236
21
-4.41424
0
LINE
8
BLACK
6
CONTINUOUS
10
1.49236
20
-4.41424
11
1.49986
21
-4.41799
0
LINE
8
BLACK
6
CONTINUOUS
10
1.49986
20
-4.41799
11
1.50361
21
-4.42174
0
LINE
8
BLACK
6
CONTINUOUS
10
1.50361
20
-4.42174
11
1.50736
21
-4.42924
0
LINE
8
BLACK
6
CONTINUOUS
10
1.50736
20
-4.42924
11
1.50736
21
-4.44798
0
LINE
8
BLACK
6
CONTINUOUS
10
1.50736
20
-4.44798
11
1.50361
21
-4.45548
0
LINE
8
BLACK
6
CONTINUOUS
10
1.50361
20
-4.45548
11
1.49986
21
-4.45923
0
LINE
8
BLACK
6
CONTINUOUS
10
1.49986
20
-4.45923
11
1.49236
21
-4.46298
0
LINE
8
BLACK
6
CONTINUOUS
10
1.49236
20
-4.46298
11
1.46986
21
-4.46298
0
LINE
8
BLACK
6
CONTINUOUS
10
1.46986
20
-4.46298
11
1.46236
21
-4.45923
0
LINE
8
BLACK
6
CONTINUOUS
10
1.46236
20
-4.45923
11
1.45861
21
-4.45548
0
LINE
8
BLACK
6
CONTINUOUS
10
1.58835
20
-4.46298
11
1.58835
21
-4.38424
0
LINE
8
BLACK
6
CONTINUOUS
10
1.62209
20
-4.46298
11
1.62209
21
-4.42174
0
LINE
8
BLACK
6
CONTINUOUS
10
1.62209
20
-4.42174
11
1.61834
21
-4.41424
0
LINE
8
BLACK
6
CONTINUOUS
10
1.61834
20
-4.41424
11
1.61085
21
-4.41049
0
LINE
8
BLACK
6
CONTINUOUS
10
1.61085
20
-4.41049
11
1.5996
21
-4.41049
0
LINE
8
BLACK
6
CONTINUOUS
10
1.5996
20
-4.41049
11
1.5921
21
-4.41424
0
LINE
8
BLACK
6
CONTINUOUS
10
1.5921
20
-4.41424
11
1.58835
21
-4.41799
0
LINE
8
BLACK
6
CONTINUOUS
10
1.67084
20
-4.46298
11
1.66334
21
-4.45923
0
LINE
8
BLACK
6
CONTINUOUS
10
1.66334
20
-4.45923
11
1.65959
21
-4.45548
0
LINE
8
BLACK
6
CONTINUOUS
10
1.65959
20
-4.45548
11
1.65584
21
-4.44798
0
LINE
8
BLACK
6
CONTINUOUS
10
1.65584
20
-4.44798
11
1.65584
21
-4.42549
0
LINE
8
BLACK
6
CONTINUOUS
10
1.65584
20
-4.42549
11
1.65959
21
-4.41799
0
LINE
8
BLACK
6
CONTINUOUS
10
1.65959
20
-4.41799
11
1.66334
21
-4.41424
0
LINE
8
BLACK
6
CONTINUOUS
10
1.66334
20
-4.41424
11
1.67084
21
-4.41049
0
LINE
8
BLACK
6
CONTINUOUS
10
1.67084
20
-4.41049
11
1.68209
21
-4.41049
0
LINE
8
BLACK
6
CONTINUOUS
10
1.68209
20
-4.41049
11
1.68959
21
-4.41424
0
LINE
8
BLACK
6
CONTINUOUS
10
1.68959
20
-4.41424
11
1.69334
21
-4.41799
0
LINE
8
BLACK
6
CONTINUOUS
10
1.69334
20
-4.41799
11
1.69708
21
-4.42549
0
LINE
8
BLACK
6
CONTINUOUS
10
1.69708
20
-4.42549
11
1.69708
21
-4.44798
0
LINE
8
BLACK
6
CONTINUOUS
10
1.69708
20
-4.44798
11
1.69334
21
-4.45548
0
LINE
8
BLACK
6
CONTINUOUS
10
1.69334
20
-4.45548
11
1.68959
21
-4.45923
0
LINE
8
BLACK
6
CONTINUOUS
10
1.68959
20
-4.45923
11
1.68209
21
-4.46298
0
LINE
8
BLACK
6
CONTINUOUS
10
1.68209
20
-4.46298
11
1.67084
21
-4.46298
0
LINE
8
BLACK
6
CONTINUOUS
10
1.74208
20
-4.46298
11
1.73458
21
-4.45923
0
LINE
8
BLACK
6
CONTINUOUS
10
1.73458
20
-4.45923
11
1.73083
21
-4.45173
0
LINE
8
BLACK
6
CONTINUOUS
10
1.73083
20
-4.45173
11
1.73083
21
-4.38424
0
LINE
8
BLACK
6
CONTINUOUS
10
1.80207
20
-4.45923
11
1.79457
21
-4.46298
0
LINE
8
BLACK
6
CONTINUOUS
10
1.79457
20
-4.46298
11
1.77957
21
-4.46298
0
LINE
8
BLACK
6
CONTINUOUS
10
1.77957
20
-4.46298
11
1.77208
21
-4.45923
0
LINE
8
BLACK
6
CONTINUOUS
10
1.77208
20
-4.45923
11
1.76833
21
-4.45173
0
LINE
8
BLACK
6
CONTINUOUS
10
1.76833
20
-4.45173
11
1.76833
21
-4.42174
0
LINE
8
BLACK
6
CONTINUOUS
10
1.76833
20
-4.42174
11
1.77208
21
-4.41424
0
LINE
8
BLACK
6
CONTINUOUS
10
1.77208
20
-4.41424
11
1.77957
21
-4.41049
0
LINE
8
BLACK
6
CONTINUOUS
10
1.77957
20
-4.41049
11
1.79457
21
-4.41049
0
LINE
8
BLACK
6
CONTINUOUS
10
1.79457
20
-4.41049
11
1.80207
21
-4.41424
0
LINE
8
BLACK
6
CONTINUOUS
10
1.80207
20
-4.41424
11
1.80582
21
-4.42174
0
LINE
8
BLACK
6
CONTINUOUS
10
1.80582
20
-4.42174
11
1.80582
21
-4.42924
0
LINE
8
BLACK
6
CONTINUOUS
10
1.80582
20
-4.42924
11
1.76833
21
-4.43674
0
LINE
8
BLACK
6
CONTINUOUS
10
1.83582
20
-4.45923
11
1.84332
21
-4.46298
0
LINE
8
BLACK
6
CONTINUOUS
10
1.84332
20
-4.46298
11
1.85831
21
-4.46298
0
LINE
8
BLACK
6
CONTINUOUS
10
1.85831
20
-4.46298
11
1.86581
21
-4.45923
0
LINE
8
BLACK
6
CONTINUOUS
10
1.86581
20
-4.45923
11
1.86956
21
-4.45173
0
LINE
8
BLACK
6
CONTINUOUS
10
1.86956
20
-4.45173
11
1.86956
21
-4.44798
0
LINE
8
BLACK
6
CONTINUOUS
10
1.86956
20
-4.44798
11
1.86581
21
-4.44049
0
LINE
8
BLACK
6
CONTINUOUS
10
1.86581
20
-4.44049
11
1.85831
21
-4.43674
0
LINE
8
BLACK
6
CONTINUOUS
10
1.85831
20
-4.43674
11
1.84707
21
-4.43674
0
LINE
8
BLACK
6
CONTINUOUS
10
1.84707
20
-4.43674
11
1.83957
21
-4.43299
0
LINE
8
BLACK
6
CONTINUOUS
10
1.83957
20
-4.43299
11
1.83582
21
-4.42549
0
LINE
8
BLACK
6
CONTINUOUS
10
1.83582
20
-4.42549
11
1.83582
21
-4.42174
0
LINE
8
BLACK
6
CONTINUOUS
10
1.83582
20
-4.42174
11
1.83957
21
-4.41424
0
LINE
8
BLACK
6
CONTINUOUS
10
1.83957
20
-4.41424
11
1.84707
21
-4.41049
0
LINE
8
BLACK
6
CONTINUOUS
10
1.84707
20
-4.41049
11
1.85831
21
-4.41049
0
LINE
8
BLACK
6
CONTINUOUS
10
1.85831
20
-4.41049
11
1.86581
21
-4.41424
0
LINE
8
BLACK
6
CONTINUOUS
10
1.89581
20
-4.49298
11
1.89956
21
-4.48923
0
LINE
8
BLACK
6
CONTINUOUS
10
1.89956
20
-4.48923
11
1.90706
21
-4.47798
0
LINE
8
BLACK
6
CONTINUOUS
10
1.90706
20
-4.47798
11
1.91081
21
-4.47048
0
LINE
8
BLACK
6
CONTINUOUS
10
1.91081
20
-4.47048
11
1.91456
21
-4.45923
0
LINE
8
BLACK
6
CONTINUOUS
10
1.91456
20
-4.45923
11
1.91831
21
-4.44049
0
LINE
8
BLACK
6
CONTINUOUS
10
1.91831
20
-4.44049
11
1.91831
21
-4.42549
0
LINE
8
BLACK
6
CONTINUOUS
10
1.91831
20
-4.42549
11
1.91456
21
-4.40674
0
LINE
8
BLACK
6
CONTINUOUS
10
1.91456
20
-4.40674
11
1.91081
21
-4.39549
0
LINE
8
BLACK
6
CONTINUOUS
10
1.91081
20
-4.39549
11
1.90706
21
-4.38799
0
LINE
8
BLACK
6
CONTINUOUS
10
1.90706
20
-4.38799
11
1.89956
21
-4.37674
0
LINE
8
BLACK
6
CONTINUOUS
10
1.89956
20
-4.37674
11
1.89581
21
-4.37299
0
LINE
8
BLACK
6
CONTINUOUS
10
2.02554
20
-4.49298
11
2.02179
21
-4.48923
0
LINE
8
BLACK
6
CONTINUOUS
10
2.02179
20
-4.48923
11
2.0143
21
-4.47798
0
LINE
8
BLACK
6
CONTINUOUS
10
2.0143
20
-4.47798
11
2.01055
21
-4.47048
0
LINE
8
BLACK
6
CONTINUOUS
10
2.01055
20
-4.47048
11
2.0068
21
-4.45923
0
LINE
8
BLACK
6
CONTINUOUS
10
2.0068
20
-4.45923
11
2.00305
21
-4.44049
0
LINE
8
BLACK
6
CONTINUOUS
10
2.00305
20
-4.44049
11
2.00305
21
-4.42549
0
LINE
8
BLACK
6
CONTINUOUS
10
2.00305
20
-4.42549
11
2.0068
21
-4.40674
0
LINE
8
BLACK
6
CONTINUOUS
10
2.0068
20
-4.40674
11
2.01055
21
-4.39549
0
LINE
8
BLACK
6
CONTINUOUS
10
2.01055
20
-4.39549
11
2.0143
21
-4.38799
0
LINE
8
BLACK
6
CONTINUOUS
10
2.0143
20
-4.38799
11
2.02179
21
-4.37674
0
LINE
8
BLACK
6
CONTINUOUS
10
2.02179
20
-4.37674
11
2.02554
21
-4.37299
0
LINE
8
BLACK
6
CONTINUOUS
10
2.05554
20
-4.41049
11
2.05554
21
-4.46298
0
LINE
8
BLACK
6
CONTINUOUS
10
2.05554
20
-4.41799
11
2.05929
21
-4.41424
0
LINE
8
BLACK
6
CONTINUOUS
10
2.05929
20
-4.41424
11
2.06679
21
-4.41049
0
LINE
8
BLACK
6
CONTINUOUS
10
2.06679
20
-4.41049
11
2.07804
21
-4.41049
0
LINE
8
BLACK
6
CONTINUOUS
10
2.07804
20
-4.41049
11
2.08554
21
-4.41424
0
LINE
8
BLACK
6
CONTINUOUS
10
2.08554
20
-4.41424
11
2.08929
21
-4.42174
0
LINE
8
BLACK
6
CONTINUOUS
10
2.08929
20
-4.42174
11
2.08929
21
-4.46298
0
LINE
8
BLACK
6
CONTINUOUS
10
2.13803
20
-4.46298
11
2.13053
21
-4.45923
0
LINE
8
BLACK
6
CONTINUOUS
10
2.13053
20
-4.45923
11
2.12678
21
-4.45548
0
LINE
8
BLACK
6
CONTINUOUS
10
2.12678
20
-4.45548
11
2.12303
21
-4.44798
0
LINE
8
BLACK
6
CONTINUOUS
10
2.12303
20
-4.44798
11
2.12303
21
-4.42549
0
LINE
8
BLACK
6
CONTINUOUS
10
2.12303
20
-4.42549
11
2.12678
21
-4.41799
0
LINE
8
BLACK
6
CONTINUOUS
10
2.12678
20
-4.41799
11
2.13053
21
-4.41424
0
LINE
8
BLACK
6
CONTINUOUS
10
2.13053
20
-4.41424
11
2.13803
21
-4.41049
0
LINE
8
BLACK
6
CONTINUOUS
10
2.13803
20
-4.41049
11
2.14928
21
-4.41049
0
LINE
8
BLACK
6
CONTINUOUS
10
2.14928
20
-4.41049
11
2.15678
21
-4.41424
0
LINE
8
BLACK
6
CONTINUOUS
10
2.15678
20
-4.41424
11
2.16053
21
-4.41799
0
LINE
8
BLACK
6
CONTINUOUS
10
2.16053
20
-4.41799
11
2.16428
21
-4.42549
0
LINE
8
BLACK
6
CONTINUOUS
10
2.16428
20
-4.42549
11
2.16428
21
-4.44798
0
LINE
8
BLACK
6
CONTINUOUS
10
2.16428
20
-4.44798
11
2.16053
21
-4.45548
0
LINE
8
BLACK
6
CONTINUOUS
10
2.16053
20
-4.45548
11
2.15678
21
-4.45923
0
LINE
8
BLACK
6
CONTINUOUS
10
2.15678
20
-4.45923
11
2.14928
21
-4.46298
0
LINE
8
BLACK
6
CONTINUOUS
10
2.14928
20
-4.46298
11
2.13803
21
-4.46298
0
LINE
8
BLACK
6
CONTINUOUS
10
2.18677
20
-4.41049
11
2.21677
21
-4.41049
0
LINE
8
BLACK
6
CONTINUOUS
10
2.19802
20
-4.38424
11
2.19802
21
-4.45173
0
LINE
8
BLACK
6
CONTINUOUS
10
2.19802
20
-4.45173
11
2.20177
21
-4.45923
0
LINE
8
BLACK
6
CONTINUOUS
10
2.20177
20
-4.45923
11
2.20927
21
-4.46298
0
LINE
8
BLACK
6
CONTINUOUS
10
2.20927
20
-4.46298
11
2.21677
21
-4.46298
0
LINE
8
BLACK
6
CONTINUOUS
10
2.29026
20
-4.41049
11
2.29026
21
-4.48923
0
LINE
8
BLACK
6
CONTINUOUS
10
2.29026
20
-4.41424
11
2.29776
21
-4.41049
0
LINE
8
BLACK
6
CONTINUOUS
10
2.29776
20
-4.41049
11
2.31276
21
-4.41049
0
LINE
8
BLACK
6
CONTINUOUS
10
2.31276
20
-4.41049
11
2.32026
21
-4.41424
0
LINE
8
BLACK
6
CONTINUOUS
10
2.32026
20
-4.41424
11
2.32401
21
-4.41799
0
LINE
8
BLACK
6
CONTINUOUS
10
2.32401
20
-4.41799
11
2.32776
21
-4.42549
0
LINE
8
BLACK
6
CONTINUOUS
10
2.32776
20
-4.42549
11
2.32776
21
-4.44798
0
LINE
8
BLACK
6
CONTINUOUS
10
2.32776
20
-4.44798
11
2.32401
21
-4.45548
0
LINE
8
BLACK
6
CONTINUOUS
10
2.32401
20
-4.45548
11
2.32026
21
-4.45923
0
LINE
8
BLACK
6
CONTINUOUS
10
2.32026
20
-4.45923
11
2.31276
21
-4.46298
0
LINE
8
BLACK
6
CONTINUOUS
10
2.31276
20
-4.46298
11
2.29776
21
-4.46298
0
LINE
8
BLACK
6
CONTINUOUS
10
2.29776
20
-4.46298
11
2.29026
21
-4.45923
0
LINE
8
BLACK
6
CONTINUOUS
10
2.37275
20
-4.46298
11
2.36525
21
-4.45923
0
LINE
8
BLACK
6
CONTINUOUS
10
2.36525
20
-4.45923
11
2.3615
21
-4.45173
0
LINE
8
BLACK
6
CONTINUOUS
10
2.3615
20
-4.45173
11
2.3615
21
-4.38424
0
LINE
8
BLACK
6
CONTINUOUS
10
2.43649
20
-4.46298
11
2.43649
21
-4.42174
0
LINE
8
BLACK
6
CONTINUOUS
10
2.43649
20
-4.42174
11
2.43274
21
-4.41424
0
LINE
8
BLACK
6
CONTINUOUS
10
2.43274
20
-4.41424
11
2.42524
21
-4.41049
0
LINE
8
BLACK
6
CONTINUOUS
10
2.42524
20
-4.41049
11
2.41025
21
-4.41049
0
LINE
8
BLACK
6
CONTINUOUS
10
2.41025
20
-4.41049
11
2.40275
21
-4.41424
0
LINE
8
BLACK
6
CONTINUOUS
10
2.43649
20
-4.45923
11
2.42899
21
-4.46298
0
LINE
8
BLACK
6
CONTINUOUS
10
2.42899
20
-4.46298
11
2.41025
21
-4.46298
0
LINE
8
BLACK
6
CONTINUOUS
10
2.41025
20
-4.46298
11
2.40275
21
-4.45923
0
LINE
8
BLACK
6
CONTINUOUS
10
2.40275
20
-4.45923
11
2.399
21
-4.45173
0
LINE
8
BLACK
6
CONTINUOUS
10
2.399
20
-4.45173
11
2.399
21
-4.44424
0
LINE
8
BLACK
6
CONTINUOUS
10
2.399
20
-4.44424
11
2.40275
21
-4.43674
0
LINE
8
BLACK
6
CONTINUOUS
10
2.40275
20
-4.43674
11
2.41025
21
-4.43299
0
LINE
8
BLACK
6
CONTINUOUS
10
2.41025
20
-4.43299
11
2.42899
21
-4.43299
0
LINE
8
BLACK
6
CONTINUOUS
10
2.42899
20
-4.43299
11
2.43649
21
-4.42924
0
LINE
8
BLACK
6
CONTINUOUS
10
2.46274
20
-4.41049
11
2.49274
21
-4.41049
0
LINE
8
BLACK
6
CONTINUOUS
10
2.47399
20
-4.38424
11
2.47399
21
-4.45173
0
LINE
8
BLACK
6
CONTINUOUS
10
2.47399
20
-4.45173
11
2.47774
21
-4.45923
0
LINE
8
BLACK
6
CONTINUOUS
10
2.47774
20
-4.45923
11
2.48524
21
-4.46298
0
LINE
8
BLACK
6
CONTINUOUS
10
2.48524
20
-4.46298
11
2.49274
21
-4.46298
0
LINE
8
BLACK
6
CONTINUOUS
10
2.54898
20
-4.45923
11
2.54148
21
-4.46298
0
LINE
8
BLACK
6
CONTINUOUS
10
2.54148
20
-4.46298
11
2.52648
21
-4.46298
0
LINE
8
BLACK
6
CONTINUOUS
10
2.52648
20
-4.46298
11
2.51898
21
-4.45923
0
LINE
8
BLACK
6
CONTINUOUS
10
2.51898
20
-4.45923
11
2.51523
21
-4.45173
0
LINE
8
BLACK
6
CONTINUOUS
10
2.51523
20
-4.45173
11
2.51523
21
-4.42174
0
LINE
8
BLACK
6
CONTINUOUS
10
2.51523
20
-4.42174
11
2.51898
21
-4.41424
0
LINE
8
BLACK
6
CONTINUOUS
10
2.51898
20
-4.41424
11
2.52648
21
-4.41049
0
LINE
8
BLACK
6
CONTINUOUS
10
2.52648
20
-4.41049
11
2.54148
21
-4.41049
0
LINE
8
BLACK
6
CONTINUOUS
10
2.54148
20
-4.41049
11
2.54898
21
-4.41424
0
LINE
8
BLACK
6
CONTINUOUS
10
2.54898
20
-4.41424
11
2.55273
21
-4.42174
0
LINE
8
BLACK
6
CONTINUOUS
10
2.55273
20
-4.42174
11
2.55273
21
-4.42924
0
LINE
8
BLACK
6
CONTINUOUS
10
2.55273
20
-4.42924
11
2.51523
21
-4.43674
0
LINE
8
BLACK
6
CONTINUOUS
10
2.62022
20
-4.46298
11
2.62022
21
-4.38424
0
LINE
8
BLACK
6
CONTINUOUS
10
2.62022
20
-4.45923
11
2.61272
21
-4.46298
0
LINE
8
BLACK
6
CONTINUOUS
10
2.61272
20
-4.46298
11
2.59772
21
-4.46298
0
LINE
8
BLACK
6
CONTINUOUS
10
2.59772
20
-4.46298
11
2.59022
21
-4.45923
0
LINE
8
BLACK
6
CONTINUOUS
10
2.59022
20
-4.45923
11
2.58647
21
-4.45548
0
LINE
8
BLACK
6
CONTINUOUS
10
2.58647
20
-4.45548
11
2.58272
21
-4.44798
0
LINE
8
BLACK
6
CONTINUOUS
10
2.58272
20
-4.44798
11
2.58272
21
-4.42549
0
LINE
8
BLACK
6
CONTINUOUS
10
2.58272
20
-4.42549
11
2.58647
21
-4.41799
0
LINE
8
BLACK
6
CONTINUOUS
10
2.58647
20
-4.41799
11
2.59022
21
-4.41424
0
LINE
8
BLACK
6
CONTINUOUS
10
2.59022
20
-4.41424
11
2.59772
21
-4.41049
0
LINE
8
BLACK
6
CONTINUOUS
10
2.59772
20
-4.41049
11
2.61272
21
-4.41049
0
LINE
8
BLACK
6
CONTINUOUS
10
2.61272
20
-4.41049
11
2.62022
21
-4.41424
0
LINE
8
BLACK
6
CONTINUOUS
10
2.65022
20
-4.49298
11
2.65397
21
-4.48923
0
LINE
8
BLACK
6
CONTINUOUS
10
2.65397
20
-4.48923
11
2.66146
21
-4.47798
0
LINE
8
BLACK
6
CONTINUOUS
10
2.66146
20
-4.47798
11
2.66521
21
-4.47048
0
LINE
8
BLACK
6
CONTINUOUS
10
2.66521
20
-4.47048
11
2.66896
21
-4.45923
0
LINE
8
BLACK
6
CONTINUOUS
10
2.66896
20
-4.45923
11
2.67271
21
-4.44049
0
LINE
8
BLACK
6
CONTINUOUS
10
2.67271
20
-4.44049
11
2.67271
21
-4.42549
0
LINE
8
BLACK
6
CONTINUOUS
10
2.67271
20
-4.42549
11
2.66896
21
-4.40674
0
LINE
8
BLACK
6
CONTINUOUS
10
2.66896
20
-4.40674
11
2.66521
21
-4.39549
0
LINE
8
BLACK
6
CONTINUOUS
10
2.66521
20
-4.39549
11
2.66146
21
-4.38799
0
LINE
8
BLACK
6
CONTINUOUS
10
2.66146
20
-4.38799
11
2.65397
21
-4.37674
0
LINE
8
BLACK
6
CONTINUOUS
10
2.65397
20
-4.37674
11
2.65022
21
-4.37299
  0
ENDSEC
  0
EOF
