M48
; DRILL file {KiCad (6.99.0-5337-gc57e6db79a-dirty)} date Thu 12 Jan 2023 09:18:54 PM EST
; FORMAT={-:-/ absolute / inch / decimal}
; #@! TF.CreationDate,2023-01-12T21:18:54-05:00
; #@! TF.GenerationSoftware,Kicad,Pcbnew,(6.99.0-5337-gc57e6db79a-dirty)
; #@! TF.FileFunction,Plated,1,2,PTH
FMAT,2
INCH
; #@! TA.AperFunction,Plated,PTH,ViaDrill
T1C0.0157
; #@! TA.AperFunction,Plated,PTH,ComponentDrill
T2C0.0354
; #@! TA.AperFunction,Plated,PTH,ComponentDrill
T3C0.0579
; #@! TA.AperFunction,Plated,PTH,ComponentDrill
T4C0.0787
%
G90
G05
T1
X1.5344Y-1.9762
X1.5383Y-2.055
X1.5598Y-2.774
X1.589Y-2.7307
X1.6224Y-3.6988
X1.6233Y-2.804
X1.6919Y-0.5865
X1.7268Y-2.1831
X1.7299Y-2.7539
X1.81Y-0.1967
X1.8966Y-0.1337
X1.9075Y-2.9642
X1.9236Y-2.0813
X1.9256Y-1.2169
X1.9264Y-2.0242
X1.9445Y-1.3465
X2.247Y-1.0628
X2.2531Y-0.0921
X2.2858Y-0.2587
X2.3012Y-3.6268
X2.4217Y-3.6213
X2.4555Y-2.948
X2.4776Y-2.7165
X2.6998Y-1.2342
X2.7037Y-1.3424
X3.0244Y-0.5492
X3.0327Y-0.4583
X3.1205Y-2.8012
X3.2051Y-2.7996
X3.4299Y-1.1728
X3.4744Y-1.3972
X3.5839Y-2.9425
X3.6205Y-2.237
X3.8957Y-3.2827
X3.9394Y-1.502
X3.9793Y-0.5589
X3.9793Y-0.7012
X4.1417Y-2.7646
X4.1437Y-2.902
X4.3539Y-1.9504
X4.3697Y-1.4484
X4.3778Y-3.2866
X4.4217Y-2.085
X4.4271Y-0.5272
X4.4593Y-3.2154
X4.4996Y-0.5598
X4.6551Y-2.8256
X4.7167Y-2.764
X4.7768Y-1.2465
X4.8146Y-1.3492
X4.8171Y-3.3079
X4.824Y-2.2618
X4.9589Y-3.5232
X5.0886Y-2.9142
X5.0974Y-1.2804
X5.1441Y-1.5811
X5.3602Y-1.5428
X5.3873Y-3.1709
X5.4714Y-0.4841
X5.4754Y-0.7518
X5.5366Y-1.8618
X5.6457Y-3.2874
X5.6543Y-1.8453
X5.6591Y-1.3343
X5.6866Y-0.8882
X5.6945Y-2.922
X5.8087Y-3.7961
X5.813Y-0.5957
X5.8406Y-0.4883
X5.8594Y-3.4992
X5.8728Y-0.7457
X5.8732Y-1.9883
X5.9969Y-1.5079
X6.0383Y-2.1022
X6.0478Y-3.2232
X6.0748Y-3.8012
X6.1368Y-3.3055
X6.1583Y-1.3433
X6.2155Y-0.4841
X6.2155Y-0.6258
X6.2811Y-1.2303
X6.3087Y-3.5189
X6.4106Y-2.7929
X6.4508Y-1.2252
X6.4724Y-1.6244
X6.4925Y-1.3232
X6.4996Y-0.7449
X6.5031Y-3.2236
X6.5606Y-3.4906
X6.5728Y-3.3146
X6.5809Y-2.9001
X6.6053Y-1.2361
X6.6092Y-1.3614
X6.6171Y-2.085
X6.6205Y-1.9864
X6.6565Y-2.7272
X6.6591Y-2.8913
X6.7155Y-2.0906
X6.7465Y-3.4953
X6.7549Y-1.6337
X6.7898Y-1.9413
X6.7953Y-2.7217
X6.8004Y-2.9315
X6.8185Y-0.5878
X6.8217Y-2.1441
X6.8866Y-3.3268
X6.926Y-2.1575
X6.9439Y-0.618
X6.9596Y-0.4762
X7.074Y-3.0744
X7.124Y-3.2217
X7.2134Y-3.0299
X7.2217Y-3.487
X7.3933Y-2.8965
X7.4138Y-1.452
X7.4169Y-0.5602
X7.4181Y-0.485
X7.5024Y-2.7638
X7.5283Y-3.0248
X7.5539Y-2.574
X7.6236Y-2.2016
X7.7575Y-1.3047
X7.7756Y-1.2193
X7.7917Y-0.6886
X7.9551Y-1.8138
X7.9587Y-1.8953
X8.1508Y-1.4453
X8.1728Y-1.6283
X8.2764Y-3.8069
X8.2972Y-2.7886
X8.3Y-0.5236
X8.326Y-0.6459
X8.3543Y-3.7892
X8.3769Y-2.9211
X8.3921Y-2.2224
X8.4457Y-2.9211
X8.5063Y-3.0276
X8.5197Y-3.7012
X8.5618Y-2.772
X8.8098Y-1.4146
X8.8157Y-1.6425
X8.8354Y-1.2583
X8.8803Y-3.7087
X8.9126Y-0.5169
X8.9161Y-2.1472
X8.9457Y-0.6174
X9.0197Y-2.0217
X9.0705Y-1.4472
X9.2229Y-3.7814
X9.2568Y-2.221
X9.2917Y-1.272
X9.3024Y-2.5276
X9.3038Y-3.7715
X9.3252Y-0.7102
X9.3303Y-2.6728
X9.3453Y-1.3059
X9.3854Y-2.5957
X9.3894Y-3.0433
X9.4354Y-2.8319
X9.5344Y-2.0525
X9.5524Y-2.7752
X9.5709Y-2.0966
X9.6409Y-0.8697
X9.6575Y-3.4933
X9.6976Y-1.3776
X9.7075Y-1.0075
X9.7917Y-0.4854
X9.8022Y-2.9781
X9.8047Y-3.6016
X9.8332Y-3.5334
X9.8433Y-1.8075
X9.8898Y-2.3039
X9.8957Y-3.263
X9.8979Y-2.8817
X9.9075Y-3.661
X9.9358Y-2.3325
X9.9409Y-3.5
X9.9571Y-2.9543
X9.9717Y-0.4846
X9.9754Y-2.9892
X9.9929Y-0.7146
X10.0476Y-3.2344
X10.048Y-2.7283
X10.0724Y-1.4622
X10.076Y-1.2913
X10.0862Y-3.6073
X10.1016Y-0.926
X10.1083Y-3.7205
X10.1118Y-0.2984
X10.1177Y-2.3325
X10.1531Y-3.0994
X10.1644Y-2.9207
X10.1752Y-0.8386
X10.1961Y-3.0772
X10.2394Y-2.2055
X10.2655Y-3.1091
X10.2736Y-0.8811
X10.276Y-2.809
X10.3264Y-2.426
X10.3464Y-2.7469
X10.3618Y-3.1466
X10.3724Y-0.5102
X10.3772Y-2.1949
X10.4165Y-2.7476
X10.4425Y-2.6776
X10.4591Y-2.8701
X10.4756Y-2.3315
X10.4768Y-0.4445
X10.5043Y-2.6213
X10.5449Y-0.4949
X10.5587Y-0.8764
X10.6362Y-3.2864
X10.6531Y-2.785
X10.6913Y-3.2953
X10.7776Y-3.2827
X10.8024Y-3.4465
X10.8087Y-3.663
X10.8173Y-3.1996
X10.8378Y-1.8587
X10.8382Y-1.9579
X10.8551Y-3.3748
X10.9783Y-3.2587
X10.9969Y-1.0437
X11.0028Y-0.7061
X11.0547Y-3.3768
X11.1169Y-1.0811
X11.1343Y-0.924
X11.1396Y-1.9531
T2
X3.8453Y-3.428
X3.8953Y-3.428
X3.9453Y-3.428
X3.9953Y-3.428
X4.2783Y-3.428
X4.3283Y-3.428
X4.3783Y-3.428
X4.4283Y-3.428
X4.7114Y-3.428
X4.7614Y-3.428
X4.8114Y-3.428
X4.8614Y-3.428
X6.0781Y-3.426
X6.1281Y-3.426
X6.1781Y-3.426
X6.2281Y-3.426
X6.5112Y-3.426
X6.5612Y-3.426
X6.6112Y-3.426
X6.6612Y-3.426
X6.9443Y-3.426
X6.9943Y-3.426
X7.0443Y-3.426
X7.0943Y-3.426
T3
X0.193Y-0.3214
X0.2396Y-0.2669
X0.3805Y-1.0714
X0.4271Y-1.0169
X0.443Y-0.2214
X0.4742Y-1.8214
X0.4758Y-0.2541
X0.5209Y-1.7669
X0.568Y-3.3214
X0.6146Y-3.2669
X0.6305Y-0.9714
X0.6617Y-2.5714
X0.6633Y-1.0041
X0.7084Y-2.5169
X0.7242Y-1.7214
X0.7571Y-1.7541
X0.818Y-3.2214
X0.8508Y-3.2541
X0.9117Y-2.4714
X0.943Y-0.3214
X0.9446Y-2.5041
X0.9896Y-0.2669
X1.193Y-0.2214
X1.2258Y-0.2541
X1.318Y-1.0714
X1.318Y-3.3214
X1.3646Y-1.0169
X1.3646Y-3.2669
X1.5055Y-1.8214
X1.5521Y-1.7669
X1.568Y-0.9714
X1.568Y-3.2214
X1.6008Y-1.0041
X1.6008Y-3.2541
X1.693Y-0.3214
X1.7396Y-0.2669
X1.7555Y-1.7214
X1.7883Y-1.7541
X1.8805Y-2.5714
X1.9271Y-2.5169
X1.943Y-0.2214
X1.9758Y-0.2541
X2.068Y-1.0714
X2.1146Y-1.0169
X2.1305Y-2.4714
X2.1633Y-2.5041
X2.2555Y-1.8214
X2.2555Y-3.3214
X2.3021Y-1.7669
X2.3021Y-3.2669
X2.318Y-0.9714
X2.3508Y-1.0041
X2.443Y-0.3214
X2.4896Y-0.2669
X2.5055Y-1.7214
X2.5055Y-3.2214
X2.5383Y-1.7541
X2.5383Y-3.2541
X2.6305Y-2.5714
X2.6771Y-2.5169
X2.693Y-0.2214
X2.7258Y-0.2541
X2.818Y-1.0714
X2.8646Y-1.0169
X2.8805Y-2.4714
X2.9133Y-2.5041
X3.0055Y-1.8214
X3.0521Y-1.7669
X3.068Y-0.9714
X3.1008Y-1.0041
X3.193Y-0.3214
X3.2396Y-0.2669
X3.2555Y-1.7214
X3.2883Y-1.7541
X3.3805Y-2.5714
X3.4271Y-2.5169
X3.443Y-0.2214
X3.4758Y-0.2541
X3.568Y-1.0714
X3.6146Y-1.0169
X3.6305Y-2.4714
X3.6633Y-2.5041
X3.7555Y-1.8214
X3.8021Y-1.7669
X3.818Y-0.9714
X3.8508Y-1.0041
X3.943Y-0.3214
X3.9896Y-0.2669
X4.0055Y-1.7214
X4.0383Y-1.7541
X4.1305Y-2.5714
X4.1771Y-2.5169
X4.193Y-0.2214
X4.2258Y-0.2541
X4.318Y-1.0714
X4.3646Y-1.0169
X4.3805Y-2.4714
X4.4133Y-2.5041
X4.5055Y-1.8214
X4.5521Y-1.7669
X4.568Y-0.9714
X4.6008Y-1.0041
X4.693Y-0.3214
X4.7396Y-0.2669
X4.7555Y-1.7214
X4.7883Y-1.7541
X4.8805Y-2.5714
X4.9271Y-2.5169
X4.943Y-0.2214
X4.9758Y-0.2541
X5.068Y-1.0714
X5.1146Y-1.0169
X5.1305Y-2.4714
X5.1633Y-2.5041
X5.2555Y-1.8214
X5.2555Y-3.3214
X5.3021Y-1.7669
X5.307Y-3.2639
X5.318Y-0.9714
X5.3508Y-1.0041
X5.443Y-0.3214
X5.4896Y-0.2669
X5.5039Y-3.2442
X5.5055Y-1.7214
X5.5055Y-3.2214
X5.5383Y-1.7541
X5.6305Y-2.5714
X5.6771Y-2.5169
X5.693Y-0.2214
X5.7258Y-0.2541
X5.818Y-1.0714
X5.8646Y-1.0169
X5.8805Y-2.4714
X5.9133Y-2.5041
X6.0055Y-1.8214
X6.0521Y-1.7669
X6.068Y-0.9714
X6.1008Y-1.0041
X6.193Y-0.3214
X6.2396Y-0.2669
X6.2555Y-1.7214
X6.2883Y-1.7541
X6.3805Y-2.5714
X6.4271Y-2.5169
X6.443Y-0.2214
X6.4758Y-0.2541
X6.568Y-1.0714
X6.6146Y-1.0169
X6.6305Y-2.4714
X6.6633Y-2.5041
X6.7555Y-1.8214
X6.8021Y-1.7669
X6.818Y-0.9714
X6.8508Y-1.0041
X6.943Y-0.3214
X6.9896Y-0.2669
X7.0055Y-1.7214
X7.0383Y-1.7541
X7.1305Y-2.5714
X7.1771Y-2.5169
X7.193Y-0.2214
X7.2258Y-0.2541
X7.318Y-1.0714
X7.3646Y-1.0169
X7.3805Y-2.4714
X7.4133Y-2.5041
X7.5055Y-1.8214
X7.5521Y-1.7669
X7.568Y-0.9714
X7.6008Y-1.0041
X7.693Y-0.3214
X7.7396Y-0.2669
X7.7555Y-1.7214
X7.7883Y-1.7541
X7.8805Y-2.5714
X7.9271Y-2.5169
X7.943Y-0.2214
X7.9758Y-0.2541
X8.068Y-1.0714
X8.1146Y-1.0169
X8.1305Y-2.4714
X8.1633Y-2.5041
X8.2555Y-1.8214
X8.2555Y-3.3214
X8.3021Y-1.7669
X8.3021Y-3.2669
X8.318Y-0.9714
X8.3508Y-1.0041
X8.443Y-0.3214
X8.4896Y-0.2669
X8.5055Y-1.7214
X8.5055Y-3.2214
X8.5383Y-1.7541
X8.5383Y-3.2541
X8.6305Y-2.5714
X8.6771Y-2.5169
X8.693Y-0.2214
X8.7258Y-0.2541
X8.818Y-1.0714
X8.8646Y-1.0169
X8.8805Y-2.4714
X8.9133Y-2.5041
X9.0055Y-1.8214
X9.0521Y-1.7669
X9.068Y-0.9714
X9.1008Y-1.0041
X9.193Y-0.3214
X9.193Y-3.3214
X9.2396Y-0.2669
X9.2396Y-3.2669
X9.2555Y-1.7214
X9.2883Y-1.7541
X9.443Y-0.2214
X9.443Y-3.2214
X9.4758Y-0.2541
X9.4758Y-3.2541
X9.568Y-1.0714
X9.6146Y-1.0169
X9.6617Y-2.5714
X9.7084Y-2.5169
X9.818Y-0.9714
X9.8508Y-1.0041
X9.9117Y-2.4714
X9.943Y-0.3214
X9.9446Y-2.5041
X9.9896Y-0.2669
X10.193Y-0.2214
X10.2242Y-1.8214
X10.2258Y-0.2541
X10.2709Y-1.7669
X10.4742Y-1.7214
X10.5055Y-1.0714
X10.5071Y-1.7541
X10.5521Y-1.0169
X10.693Y-0.3214
X10.693Y-2.5714
X10.7396Y-0.2669
X10.7396Y-2.5169
X10.7555Y-0.9714
X10.7883Y-1.0041
X10.943Y-0.2214
X10.943Y-2.4714
X10.9758Y-0.2541
X10.9758Y-2.5041
T4
X0.1835Y-0.2659
X0.371Y-1.0159
X0.4648Y-1.7659
X0.4985Y-0.2265
X0.5585Y-3.2659
X0.6523Y-2.5159
X0.686Y-0.9765
X0.7797Y-1.7265
X0.8735Y-3.2265
X0.9335Y-0.2659
X0.9672Y-2.4765
X1.2485Y-0.2265
X1.3085Y-1.0159
X1.3085Y-3.2659
X1.496Y-1.7659
X1.6235Y-0.9765
X1.6235Y-3.2265
X1.6835Y-0.2659
X1.811Y-1.7265
X1.871Y-2.5159
X1.9985Y-0.2265
X2.0585Y-1.0159
X2.186Y-2.4765
X2.246Y-1.7659
X2.246Y-3.2659
X2.3735Y-0.9765
X2.4335Y-0.2659
X2.561Y-1.7265
X2.561Y-3.2265
X2.621Y-2.5159
X2.7485Y-0.2265
X2.8085Y-1.0159
X2.936Y-2.4765
X2.996Y-1.7659
X3.1235Y-0.9765
X3.1835Y-0.2659
X3.311Y-1.7265
X3.371Y-2.5159
X3.4985Y-0.2265
X3.5585Y-1.0159
X3.686Y-2.4765
X3.746Y-1.7659
X3.8735Y-0.9765
X3.9335Y-0.2659
X4.061Y-1.7265
X4.121Y-2.5159
X4.2485Y-0.2265
X4.3085Y-1.0159
X4.436Y-2.4765
X4.496Y-1.7659
X4.6235Y-0.9765
X4.6835Y-0.2659
X4.811Y-1.7265
X4.871Y-2.5159
X4.9985Y-0.2265
X5.0585Y-1.0159
X5.186Y-2.4765
X5.246Y-1.7659
X5.3735Y-0.9765
X5.4335Y-0.2659
X5.561Y-1.7265
X5.621Y-2.5159
X5.7485Y-0.2265
X5.8085Y-1.0159
X5.936Y-2.4765
X5.996Y-1.7659
X6.1235Y-0.9765
X6.1835Y-0.2659
X6.311Y-1.7265
X6.371Y-2.5159
X6.4985Y-0.2265
X6.5585Y-1.0159
X6.686Y-2.4765
X6.746Y-1.7659
X6.8735Y-0.9765
X6.9335Y-0.2659
X7.061Y-1.7265
X7.121Y-2.5159
X7.2485Y-0.2265
X7.3085Y-1.0159
X7.436Y-2.4765
X7.496Y-1.7659
X7.6235Y-0.9765
X7.6835Y-0.2659
X7.811Y-1.7265
X7.871Y-2.5159
X7.9985Y-0.2265
X8.0585Y-1.0159
X8.186Y-2.4765
X8.246Y-1.7659
X8.246Y-3.2659
X8.3735Y-0.9765
X8.4335Y-0.2659
X8.561Y-1.7265
X8.561Y-3.2265
X8.621Y-2.5159
X8.7485Y-0.2265
X8.8085Y-1.0159
X8.936Y-2.4765
X8.996Y-1.7659
X9.1235Y-0.9765
X9.1835Y-0.2659
X9.1835Y-3.2659
X9.311Y-1.7265
X9.4985Y-0.2265
X9.4985Y-3.2265
X9.5585Y-1.0159
X9.6523Y-2.5159
X9.8735Y-0.9765
X9.9335Y-0.2659
X9.9672Y-2.4765
X10.2148Y-1.7659
X10.2485Y-0.2265
X10.496Y-1.0159
X10.5297Y-1.7265
X10.6835Y-0.2659
X10.6835Y-2.5159
X10.811Y-0.9765
X10.9985Y-0.2265
X10.9985Y-2.4765
T0
M30
