M48
; DRILL file {KiCad (6.99.0-5337-gc57e6db79a-dirty)} date Thu 12 Jan 2023 09:29:02 PM EST
; FORMAT={-:-/ absolute / inch / decimal}
; #@! TF.CreationDate,2023-01-12T21:29:02-05:00
; #@! TF.GenerationSoftware,Kicad,Pcbnew,(6.99.0-5337-gc57e6db79a-dirty)
; #@! TF.FileFunction,NonPlated,1,2,NPTH
FMAT,2
INCH
; #@! TA.AperFunction,NonPlated,NPTH,ComponentDrill
T1C0.0689
; #@! TA.AperFunction,NonPlated,NPTH,ComponentDrill
T2C0.1200
; #@! TA.AperFunction,NonPlated,NPTH,ComponentDrill
T3C0.1570
%
G90
G05
T1
X0.143Y-0.4214
X0.3305Y-1.1714
X0.4242Y-1.9214
X0.518Y-3.4214
X0.543Y-0.4214
X0.6117Y-2.6714
X0.7305Y-1.1714
X0.8242Y-1.9214
X0.893Y-0.4214
X0.918Y-3.4214
X1.0117Y-2.6714
X1.268Y-1.1714
X1.268Y-3.4214
X1.293Y-0.4214
X1.4555Y-1.9214
X1.643Y-0.4214
X1.668Y-1.1714
X1.668Y-3.4214
X1.8305Y-2.6714
X1.8555Y-1.9214
X2.018Y-1.1714
X2.043Y-0.4214
X2.2055Y-1.9214
X2.2055Y-3.4214
X2.2305Y-2.6714
X2.393Y-0.4214
X2.418Y-1.1714
X2.5805Y-2.6714
X2.6055Y-1.9214
X2.6055Y-3.4214
X2.768Y-1.1714
X2.793Y-0.4214
X2.9555Y-1.9214
X2.9805Y-2.6714
X3.143Y-0.4214
X3.168Y-1.1714
X3.3305Y-2.6714
X3.3555Y-1.9214
X3.518Y-1.1714
X3.543Y-0.4214
X3.7055Y-1.9214
X3.7305Y-2.6714
X3.893Y-0.4214
X3.918Y-1.1714
X4.0805Y-2.6714
X4.1055Y-1.9214
X4.268Y-1.1714
X4.293Y-0.4214
X4.4555Y-1.9214
X4.4805Y-2.6714
X4.643Y-0.4214
X4.668Y-1.1714
X4.8305Y-2.6714
X4.8555Y-1.9214
X5.018Y-1.1714
X5.043Y-0.4214
X5.2055Y-1.9214
X5.2055Y-3.4214
X5.2305Y-2.6714
X5.393Y-0.4214
X5.418Y-1.1714
X5.5805Y-2.6714
X5.6055Y-1.9214
X5.6055Y-3.4214
X5.768Y-1.1714
X5.793Y-0.4214
X5.9555Y-1.9214
X5.9805Y-2.6714
X6.143Y-0.4214
X6.168Y-1.1714
X6.3305Y-2.6714
X6.3555Y-1.9214
X6.518Y-1.1714
X6.543Y-0.4214
X6.7055Y-1.9214
X6.7305Y-2.6714
X6.893Y-0.4214
X6.918Y-1.1714
X7.0805Y-2.6714
X7.1055Y-1.9214
X7.268Y-1.1714
X7.293Y-0.4214
X7.4555Y-1.9214
X7.4805Y-2.6714
X7.643Y-0.4214
X7.668Y-1.1714
X7.8305Y-2.6714
X7.8555Y-1.9214
X8.018Y-1.1714
X8.043Y-0.4214
X8.2055Y-1.9214
X8.2055Y-3.4214
X8.2305Y-2.6714
X8.393Y-0.4214
X8.418Y-1.1714
X8.5805Y-2.6714
X8.6055Y-1.9214
X8.6055Y-3.4214
X8.768Y-1.1714
X8.793Y-0.4214
X8.9555Y-1.9214
X8.9805Y-2.6714
X9.143Y-0.4214
X9.143Y-3.4214
X9.168Y-1.1714
X9.3555Y-1.9214
X9.518Y-1.1714
X9.543Y-0.4214
X9.543Y-3.4214
X9.6117Y-2.6714
X9.893Y-0.4214
X9.918Y-1.1714
X10.0117Y-2.6714
X10.1742Y-1.9214
X10.293Y-0.4214
X10.4555Y-1.1714
X10.5742Y-1.9214
X10.643Y-0.4214
X10.643Y-2.6714
X10.8555Y-1.1714
X11.043Y-0.4214
X11.043Y-2.6714
T2
X3.437Y-3.6964
X7.374Y-3.6964
T3
X0.343Y-0.4214
X0.5305Y-1.1714
X0.6242Y-1.9214
X0.718Y-3.4214
X0.8117Y-2.6714
X1.093Y-0.4214
X1.468Y-1.1714
X1.468Y-3.4214
X1.6555Y-1.9214
X1.843Y-0.4214
X2.0305Y-2.6714
X2.218Y-1.1714
X2.4055Y-1.9214
X2.4055Y-3.4214
X2.593Y-0.4214
X2.7805Y-2.6714
X2.968Y-1.1714
X3.1555Y-1.9214
X3.343Y-0.4214
X3.437Y-3.0964
X3.5305Y-2.6714
X3.718Y-1.1714
X3.9055Y-1.9214
X4.093Y-0.4214
X4.2805Y-2.6714
X4.468Y-1.1714
X4.6555Y-1.9214
X4.843Y-0.4214
X5.0305Y-2.6714
X5.218Y-1.1714
X5.4055Y-1.9214
X5.4055Y-3.4214
X5.593Y-0.4214
X5.7805Y-2.6714
X5.968Y-1.1714
X6.1555Y-1.9214
X6.343Y-0.4214
X6.5305Y-2.6714
X6.718Y-1.1714
X6.9055Y-1.9214
X7.093Y-0.4214
X7.2805Y-2.6714
X7.374Y-3.0964
X7.468Y-1.1714
X7.6555Y-1.9214
X7.843Y-0.4214
X8.0305Y-2.6714
X8.218Y-1.1714
X8.4055Y-1.9214
X8.4055Y-3.4214
X8.593Y-0.4214
X8.7805Y-2.6714
X8.968Y-1.1714
X9.1555Y-1.9214
X9.343Y-0.4214
X9.343Y-3.4214
X9.718Y-1.1714
X9.8117Y-2.6714
X10.093Y-0.4214
X10.3742Y-1.9214
X10.6555Y-1.1714
X10.843Y-0.4214
X10.843Y-2.6714
T0
M30
