  0
SECTION
  2
HEADER
  9
$ANGBASE
  50
0.0
  9
$ANGDIR
  70
1
  9
$MEASUREMENT
  70
0
  0
ENDSEC
  0
SECTION
  2
TABLES
  0
TABLE
  2
LTYPE
  70
4
  0
LTYPE
  5
40F
  2
CONTINUOUS
  70
0
  3
Solid line
  72
65
  73
0
  40
0.0
  0
LTYPE
  5
410
  2
DASHDOT
 70
0
  3
Dash Dot ____ _ ____ _
 72
65
 73
4
 40
2.0
 49
1.25
 49
-0.25
 49
0.25
 49
-0.25
  0
LTYPE
  5
411
  2
DASHED
 70
0
  3
Dashed __ __ __ __ __
 72
65
 73
2
 40
0.75
 49
0.5
 49
-0.25
  0
LTYPE
  5
43B
  2
DOTTED
 70
0
  3
Dotted .  .  .  .
 72
65
 73
2
 40
0.2
 49
0.0
 49
-0.2
  0
ENDTAB
  0
TABLE
  2
STYLE
  70
4
  0
STYLE
  2
KICAD
  70
0
  40
0
  41
1
  42
1
  50
0
  71
0
  3
isocp.shx
  0
STYLE
  2
KICADB
  70
0
  40
0
  41
1
  42
1
  50
0
  71
0
  3
isocp.shx
  0
STYLE
  2
KICADI
  70
0
  40
0
  41
1
  42
1
  50
15
  71
0
  3
isocp.shx
  0
STYLE
  2
KICADBI
  70
0
  40
0
  41
1
  42
1
  50
15
  71
0
  3
isocp.shx
  0
ENDTAB
  0
TABLE
  2
LAYER
  70
1
  0
LAYER
  2
BLACK
  70
0
  62
7
  6
CONTINUOUS
  0
ENDTAB
  0
ENDSEC
  0
SECTION
  2
ENTITIES
0
ARC
8
BLACK
10
11.063
20
-3.77953
40
0.15748
50
-90
51
-0
0
ARC
8
BLACK
10
0.15748
20
-0.15748
40
0.15748
50
90
51
180
0
LINE
8
BLACK
6
CONTINUOUS
10
0.15748
20
-3.93701
11
11.063
21
-3.93701
0
LINE
8
BLACK
6
CONTINUOUS
10
11.2205
20
-3.77953
11
11.2205
21
-0.15748
0
LINE
8
BLACK
6
CONTINUOUS
10
0
20
-0.15748
11
0
21
-3.77953
0
ARC
8
BLACK
10
11.063
20
-0.15748
40
0.15748
50
-0
51
90
0
LINE
8
BLACK
6
CONTINUOUS
10
0.15748
20
0
11
11.063
21
0
0
ARC
8
BLACK
10
0.15748
20
-3.77953
40
0.15748
50
-180
51
-90
0
LINE
8
BLACK
6
CONTINUOUS
10
1.52654
20
-1.96835
11
1.54228
21
-1.98409
0
LINE
8
BLACK
6
CONTINUOUS
10
1.54228
20
-1.96835
11
1.52654
21
-1.98409
0
LINE
8
BLACK
6
CONTINUOUS
10
1.53047
20
-2.04709
11
1.54622
21
-2.06283
0
LINE
8
BLACK
6
CONTINUOUS
10
1.54622
20
-2.04709
11
1.53047
21
-2.06283
0
LINE
8
BLACK
6
CONTINUOUS
10
1.55197
20
-2.76614
11
1.56772
21
-2.78189
0
LINE
8
BLACK
6
CONTINUOUS
10
1.56772
20
-2.76614
11
1.55197
21
-2.78189
0
LINE
8
BLACK
6
CONTINUOUS
10
1.5811
20
-2.72283
11
1.59685
21
-2.73858
0
LINE
8
BLACK
6
CONTINUOUS
10
1.59685
20
-2.72283
11
1.5811
21
-2.73858
0
LINE
8
BLACK
6
CONTINUOUS
10
1.61457
20
-3.69094
11
1.63031
21
-3.70669
0
LINE
8
BLACK
6
CONTINUOUS
10
1.63031
20
-3.69094
11
1.61457
21
-3.70669
0
LINE
8
BLACK
6
CONTINUOUS
10
1.61539
20
-2.79609
11
1.63113
21
-2.81184
0
LINE
8
BLACK
6
CONTINUOUS
10
1.63113
20
-2.79609
11
1.61539
21
-2.81184
0
LINE
8
BLACK
6
CONTINUOUS
10
1.68402
20
-0.578583
11
1.69976
21
-0.594331
0
LINE
8
BLACK
6
CONTINUOUS
10
1.69976
20
-0.578583
11
1.68402
21
-0.594331
0
LINE
8
BLACK
6
CONTINUOUS
10
1.7189
20
-2.1752
11
1.73465
21
-2.19094
0
LINE
8
BLACK
6
CONTINUOUS
10
1.73465
20
-2.1752
11
1.7189
21
-2.19094
0
LINE
8
BLACK
6
CONTINUOUS
10
1.72205
20
-2.74606
11
1.7378
21
-2.76181
0
LINE
8
BLACK
6
CONTINUOUS
10
1.7378
20
-2.74606
11
1.72205
21
-2.76181
0
LINE
8
BLACK
6
CONTINUOUS
10
1.80213
20
-0.188819
11
1.81787
21
-0.204567
0
LINE
8
BLACK
6
CONTINUOUS
10
1.81787
20
-0.188819
11
1.80213
21
-0.204567
0
LINE
8
BLACK
6
CONTINUOUS
10
1.88874
20
-0.125827
11
1.90449
21
-0.141575
0
LINE
8
BLACK
6
CONTINUOUS
10
1.90449
20
-0.125827
11
1.88874
21
-0.141575
0
LINE
8
BLACK
6
CONTINUOUS
10
1.89961
20
-2.9563
11
1.91535
21
-2.97205
0
LINE
8
BLACK
6
CONTINUOUS
10
1.91535
20
-2.9563
11
1.89961
21
-2.97205
0
LINE
8
BLACK
6
CONTINUOUS
10
1.91575
20
-2.07341
11
1.9315
21
-2.08915
0
LINE
8
BLACK
6
CONTINUOUS
10
1.9315
20
-2.07341
11
1.91575
21
-2.08915
0
LINE
8
BLACK
6
CONTINUOUS
10
1.91772
20
-1.20906
11
1.93346
21
-1.2248
0
LINE
8
BLACK
6
CONTINUOUS
10
1.93346
20
-1.20906
11
1.91772
21
-1.2248
0
LINE
8
BLACK
6
CONTINUOUS
10
1.9185
20
-2.01636
11
1.93425
21
-2.03211
0
LINE
8
BLACK
6
CONTINUOUS
10
1.93425
20
-2.01636
11
1.9185
21
-2.03211
0
LINE
8
BLACK
6
CONTINUOUS
10
1.93661
20
-1.33858
11
1.95236
21
-1.35433
0
LINE
8
BLACK
6
CONTINUOUS
10
1.95236
20
-1.33858
11
1.93661
21
-1.35433
0
LINE
8
BLACK
6
CONTINUOUS
10
2.23913
20
-1.05496
11
2.25488
21
-1.07071
0
LINE
8
BLACK
6
CONTINUOUS
10
2.25488
20
-1.05496
11
2.23913
21
-1.07071
0
LINE
8
BLACK
6
CONTINUOUS
10
2.24528
20
-0.084252
11
2.26102
21
-0.1
0
LINE
8
BLACK
6
CONTINUOUS
10
2.26102
20
-0.084252
11
2.24528
21
-0.1
0
LINE
8
BLACK
6
CONTINUOUS
10
2.27795
20
-0.250787
11
2.2937
21
-0.266535
0
LINE
8
BLACK
6
CONTINUOUS
10
2.2937
20
-0.250787
11
2.27795
21
-0.266535
0
LINE
8
BLACK
6
CONTINUOUS
10
2.29331
20
-3.6189
11
2.30906
21
-3.63465
0
LINE
8
BLACK
6
CONTINUOUS
10
2.30906
20
-3.6189
11
2.29331
21
-3.63465
0
LINE
8
BLACK
6
CONTINUOUS
10
2.41378
20
-3.61339
11
2.42953
21
-3.62913
0
LINE
8
BLACK
6
CONTINUOUS
10
2.42953
20
-3.61339
11
2.41378
21
-3.62913
0
LINE
8
BLACK
6
CONTINUOUS
10
2.44764
20
-2.94016
11
2.46339
21
-2.95591
0
LINE
8
BLACK
6
CONTINUOUS
10
2.46339
20
-2.94016
11
2.44764
21
-2.95591
0
LINE
8
BLACK
6
CONTINUOUS
10
2.46969
20
-2.70866
11
2.48543
21
-2.72441
0
LINE
8
BLACK
6
CONTINUOUS
10
2.48543
20
-2.70866
11
2.46969
21
-2.72441
0
LINE
8
BLACK
6
CONTINUOUS
10
2.69189
20
-1.2263
11
2.70764
21
-1.24204
0
LINE
8
BLACK
6
CONTINUOUS
10
2.70764
20
-1.2263
11
2.69189
21
-1.24204
0
LINE
8
BLACK
6
CONTINUOUS
10
2.69583
20
-1.33449
11
2.71157
21
-1.35024
0
LINE
8
BLACK
6
CONTINUOUS
10
2.71157
20
-1.33449
11
2.69583
21
-1.35024
0
LINE
8
BLACK
6
CONTINUOUS
10
3.01654
20
-0.541339
11
3.03228
21
-0.557087
0
LINE
8
BLACK
6
CONTINUOUS
10
3.03228
20
-0.541339
11
3.01654
21
-0.557087
0
LINE
8
BLACK
6
CONTINUOUS
10
3.0248
20
-0.450394
11
3.04055
21
-0.466142
0
LINE
8
BLACK
6
CONTINUOUS
10
3.04055
20
-0.450394
11
3.0248
21
-0.466142
0
LINE
8
BLACK
6
CONTINUOUS
10
3.1126
20
-2.79331
11
3.12835
21
-2.80906
0
LINE
8
BLACK
6
CONTINUOUS
10
3.12835
20
-2.79331
11
3.1126
21
-2.80906
0
LINE
8
BLACK
6
CONTINUOUS
10
3.19724
20
-2.79173
11
3.21299
21
-2.80748
0
LINE
8
BLACK
6
CONTINUOUS
10
3.21299
20
-2.79173
11
3.19724
21
-2.80748
0
LINE
8
BLACK
6
CONTINUOUS
10
3.42205
20
-1.16496
11
3.4378
21
-1.18071
0
LINE
8
BLACK
6
CONTINUOUS
10
3.4378
20
-1.16496
11
3.42205
21
-1.18071
0
LINE
8
BLACK
6
CONTINUOUS
10
3.46654
20
-1.38937
11
3.48228
21
-1.40512
0
LINE
8
BLACK
6
CONTINUOUS
10
3.48228
20
-1.38937
11
3.46654
21
-1.40512
0
LINE
8
BLACK
6
CONTINUOUS
10
3.57598
20
-2.93465
11
3.59173
21
-2.95039
0
LINE
8
BLACK
6
CONTINUOUS
10
3.59173
20
-2.93465
11
3.57598
21
-2.95039
0
LINE
8
BLACK
6
CONTINUOUS
10
3.6126
20
-2.22913
11
3.62835
21
-2.24488
0
LINE
8
BLACK
6
CONTINUOUS
10
3.62835
20
-2.22913
11
3.6126
21
-2.24488
0
LINE
8
BLACK
6
CONTINUOUS
10
3.8878
20
-3.2748
11
3.90354
21
-3.29055
0
LINE
8
BLACK
6
CONTINUOUS
10
3.90354
20
-3.2748
11
3.8878
21
-3.29055
0
LINE
8
BLACK
6
CONTINUOUS
10
3.9315
20
-1.49409
11
3.94724
21
-1.50984
0
LINE
8
BLACK
6
CONTINUOUS
10
3.94724
20
-1.49409
11
3.9315
21
-1.50984
0
LINE
8
BLACK
6
CONTINUOUS
10
3.97142
20
-0.551024
11
3.98717
21
-0.566772
0
LINE
8
BLACK
6
CONTINUOUS
10
3.98717
20
-0.551024
11
3.97142
21
-0.566772
0
LINE
8
BLACK
6
CONTINUOUS
10
3.97142
20
-0.693307
11
3.98717
21
-0.709055
0
LINE
8
BLACK
6
CONTINUOUS
10
3.98717
20
-0.693307
11
3.97142
21
-0.709055
0
LINE
8
BLACK
6
CONTINUOUS
10
4.13386
20
-2.75669
11
4.14961
21
-2.77244
0
LINE
8
BLACK
6
CONTINUOUS
10
4.14961
20
-2.75669
11
4.13386
21
-2.77244
0
LINE
8
BLACK
6
CONTINUOUS
10
4.13583
20
-2.89409
11
4.15157
21
-2.90984
0
LINE
8
BLACK
6
CONTINUOUS
10
4.15157
20
-2.89409
11
4.13583
21
-2.90984
0
LINE
8
BLACK
6
CONTINUOUS
10
4.15551
20
-1.79055
11
4.17126
21
-1.8063
0
LINE
8
BLACK
6
CONTINUOUS
10
4.17126
20
-1.79055
11
4.15551
21
-1.8063
0
LINE
8
BLACK
6
CONTINUOUS
10
4.34606
20
-1.94252
11
4.36181
21
-1.95827
0
LINE
8
BLACK
6
CONTINUOUS
10
4.36181
20
-1.94252
11
4.34606
21
-1.95827
0
LINE
8
BLACK
6
CONTINUOUS
10
4.36181
20
-1.44055
11
4.37756
21
-1.4563
0
LINE
8
BLACK
6
CONTINUOUS
10
4.37756
20
-1.44055
11
4.36181
21
-1.4563
0
LINE
8
BLACK
6
CONTINUOUS
10
4.36988
20
-3.27874
11
4.38563
21
-3.29449
0
LINE
8
BLACK
6
CONTINUOUS
10
4.38563
20
-3.27874
11
4.36988
21
-3.29449
0
LINE
8
BLACK
6
CONTINUOUS
10
4.41378
20
-2.07717
11
4.42953
21
-2.09291
0
LINE
8
BLACK
6
CONTINUOUS
10
4.42953
20
-2.07717
11
4.41378
21
-2.09291
0
LINE
8
BLACK
6
CONTINUOUS
10
4.41927
20
-0.519291
11
4.43502
21
-0.535039
0
LINE
8
BLACK
6
CONTINUOUS
10
4.43502
20
-0.519291
11
4.41927
21
-0.535039
0
LINE
8
BLACK
6
CONTINUOUS
10
4.45138
20
-3.20748
11
4.46713
21
-3.22323
0
LINE
8
BLACK
6
CONTINUOUS
10
4.46713
20
-3.20748
11
4.45138
21
-3.22323
0
LINE
8
BLACK
6
CONTINUOUS
10
4.49173
20
-0.551969
11
4.50748
21
-0.567717
0
LINE
8
BLACK
6
CONTINUOUS
10
4.50748
20
-0.551969
11
4.49173
21
-0.567717
0
LINE
8
BLACK
6
CONTINUOUS
10
4.64724
20
-2.81772
11
4.66299
21
-2.83346
0
LINE
8
BLACK
6
CONTINUOUS
10
4.66299
20
-2.81772
11
4.64724
21
-2.83346
0
LINE
8
BLACK
6
CONTINUOUS
10
4.70886
20
-2.7561
11
4.72461
21
-2.77185
0
LINE
8
BLACK
6
CONTINUOUS
10
4.72461
20
-2.7561
11
4.70886
21
-2.77185
0
LINE
8
BLACK
6
CONTINUOUS
10
4.7689
20
-1.23858
11
4.78465
21
-1.25433
0
LINE
8
BLACK
6
CONTINUOUS
10
4.78465
20
-1.23858
11
4.7689
21
-1.25433
0
LINE
8
BLACK
6
CONTINUOUS
10
4.80669
20
-1.34134
11
4.82244
21
-1.35709
0
LINE
8
BLACK
6
CONTINUOUS
10
4.82244
20
-1.34134
11
4.80669
21
-1.35709
0
LINE
8
BLACK
6
CONTINUOUS
10
4.80925
20
-3.3
11
4.825
21
-3.31575
0
LINE
8
BLACK
6
CONTINUOUS
10
4.825
20
-3.3
11
4.80925
21
-3.31575
0
LINE
8
BLACK
6
CONTINUOUS
10
4.81614
20
-2.25394
11
4.83189
21
-2.26969
0
LINE
8
BLACK
6
CONTINUOUS
10
4.83189
20
-2.25394
11
4.81614
21
-2.26969
0
LINE
8
BLACK
6
CONTINUOUS
10
4.95098
20
-3.51535
11
4.96673
21
-3.5311
0
LINE
8
BLACK
6
CONTINUOUS
10
4.96673
20
-3.51535
11
4.95098
21
-3.5311
0
LINE
8
BLACK
6
CONTINUOUS
10
5.08071
20
-2.9063
11
5.09646
21
-2.92205
0
LINE
8
BLACK
6
CONTINUOUS
10
5.09646
20
-2.9063
11
5.08071
21
-2.92205
0
LINE
8
BLACK
6
CONTINUOUS
10
5.08953
20
-1.2725
11
5.10528
21
-1.28825
0
LINE
8
BLACK
6
CONTINUOUS
10
5.10528
20
-1.2725
11
5.08953
21
-1.28825
0
LINE
8
BLACK
6
CONTINUOUS
10
5.13622
20
-1.57323
11
5.15197
21
-1.58898
0
LINE
8
BLACK
6
CONTINUOUS
10
5.15197
20
-1.57323
11
5.13622
21
-1.58898
0
LINE
8
BLACK
6
CONTINUOUS
10
5.35235
20
-1.53493
11
5.36809
21
-1.55068
0
LINE
8
BLACK
6
CONTINUOUS
10
5.36809
20
-1.53493
11
5.35235
21
-1.55068
0
LINE
8
BLACK
6
CONTINUOUS
10
5.37938
20
-3.16307
11
5.39513
21
-3.17882
0
LINE
8
BLACK
6
CONTINUOUS
10
5.39513
20
-3.16307
11
5.37938
21
-3.17882
0
LINE
8
BLACK
6
CONTINUOUS
10
5.46354
20
-0.47622
11
5.47929
21
-0.491969
0
LINE
8
BLACK
6
CONTINUOUS
10
5.47929
20
-0.47622
11
5.46354
21
-0.491969
0
LINE
8
BLACK
6
CONTINUOUS
10
5.46748
20
-0.743937
11
5.48323
21
-0.759685
0
LINE
8
BLACK
6
CONTINUOUS
10
5.48323
20
-0.743937
11
5.46748
21
-0.759685
0
LINE
8
BLACK
6
CONTINUOUS
10
5.52874
20
-1.85394
11
5.54449
21
-1.86969
0
LINE
8
BLACK
6
CONTINUOUS
10
5.54449
20
-1.85394
11
5.52874
21
-1.86969
0
LINE
8
BLACK
6
CONTINUOUS
10
5.6378
20
-3.27953
11
5.65354
21
-3.29528
0
LINE
8
BLACK
6
CONTINUOUS
10
5.65354
20
-3.27953
11
5.6378
21
-3.29528
0
LINE
8
BLACK
6
CONTINUOUS
10
5.64646
20
-1.8374
11
5.6622
21
-1.85315
0
LINE
8
BLACK
6
CONTINUOUS
10
5.6622
20
-1.8374
11
5.64646
21
-1.85315
0
LINE
8
BLACK
6
CONTINUOUS
10
5.65118
20
-1.32638
11
5.66693
21
-1.34213
0
LINE
8
BLACK
6
CONTINUOUS
10
5.66693
20
-1.32638
11
5.65118
21
-1.34213
0
LINE
8
BLACK
6
CONTINUOUS
10
5.67874
20
-0.880315
11
5.69449
21
-0.896063
0
LINE
8
BLACK
6
CONTINUOUS
10
5.69449
20
-0.880315
11
5.67874
21
-0.896063
0
LINE
8
BLACK
6
CONTINUOUS
10
5.68661
20
-2.91417
11
5.70236
21
-2.92992
0
LINE
8
BLACK
6
CONTINUOUS
10
5.70236
20
-2.91417
11
5.68661
21
-2.92992
0
LINE
8
BLACK
6
CONTINUOUS
10
5.80079
20
-3.78819
11
5.81654
21
-3.80394
0
LINE
8
BLACK
6
CONTINUOUS
10
5.81654
20
-3.78819
11
5.80079
21
-3.80394
0
LINE
8
BLACK
6
CONTINUOUS
10
5.80512
20
-0.587795
11
5.82087
21
-0.603543
0
LINE
8
BLACK
6
CONTINUOUS
10
5.82087
20
-0.587795
11
5.80512
21
-0.603543
0
LINE
8
BLACK
6
CONTINUOUS
10
5.83268
20
-0.480472
11
5.84843
21
-0.496221
0
LINE
8
BLACK
6
CONTINUOUS
10
5.84843
20
-0.480472
11
5.83268
21
-0.496221
0
LINE
8
BLACK
6
CONTINUOUS
10
5.85157
20
-3.49134
11
5.86732
21
-3.50709
0
LINE
8
BLACK
6
CONTINUOUS
10
5.86732
20
-3.49134
11
5.85157
21
-3.50709
0
LINE
8
BLACK
6
CONTINUOUS
10
5.86496
20
-0.737795
11
5.88071
21
-0.753543
0
LINE
8
BLACK
6
CONTINUOUS
10
5.88071
20
-0.737795
11
5.86496
21
-0.753543
0
LINE
8
BLACK
6
CONTINUOUS
10
5.86535
20
-1.98047
11
5.8811
21
-1.99622
0
LINE
8
BLACK
6
CONTINUOUS
10
5.8811
20
-1.98047
11
5.86535
21
-1.99622
0
LINE
8
BLACK
6
CONTINUOUS
10
5.98898
20
-1.5
11
6.00472
21
-1.51575
0
LINE
8
BLACK
6
CONTINUOUS
10
6.00472
20
-1.5
11
5.98898
21
-1.51575
0
LINE
8
BLACK
6
CONTINUOUS
10
6.03047
20
-2.09433
11
6.04622
21
-2.11008
0
LINE
8
BLACK
6
CONTINUOUS
10
6.04622
20
-2.09433
11
6.03047
21
-2.11008
0
LINE
8
BLACK
6
CONTINUOUS
10
6.03996
20
-3.21535
11
6.05571
21
-3.2311
0
LINE
8
BLACK
6
CONTINUOUS
10
6.05571
20
-3.21535
11
6.03996
21
-3.2311
0
LINE
8
BLACK
6
CONTINUOUS
10
6.06693
20
-3.79331
11
6.08268
21
-3.80906
0
LINE
8
BLACK
6
CONTINUOUS
10
6.08268
20
-3.79331
11
6.06693
21
-3.80906
0
LINE
8
BLACK
6
CONTINUOUS
10
6.12894
20
-3.29764
11
6.14469
21
-3.31339
0
LINE
8
BLACK
6
CONTINUOUS
10
6.14469
20
-3.29764
11
6.12894
21
-3.31339
0
LINE
8
BLACK
6
CONTINUOUS
10
6.15039
20
-1.33543
11
6.16614
21
-1.35118
0
LINE
8
BLACK
6
CONTINUOUS
10
6.16614
20
-1.33543
11
6.15039
21
-1.35118
0
LINE
8
BLACK
6
CONTINUOUS
10
6.20764
20
-0.47622
11
6.22339
21
-0.491969
0
LINE
8
BLACK
6
CONTINUOUS
10
6.22339
20
-0.47622
11
6.20764
21
-0.491969
0
LINE
8
BLACK
6
CONTINUOUS
10
6.20764
20
-0.617953
11
6.22339
21
-0.633701
0
LINE
8
BLACK
6
CONTINUOUS
10
6.22339
20
-0.617953
11
6.20764
21
-0.633701
0
LINE
8
BLACK
6
CONTINUOUS
10
6.27323
20
-1.22244
11
6.28898
21
-1.23819
0
LINE
8
BLACK
6
CONTINUOUS
10
6.28898
20
-1.22244
11
6.27323
21
-1.23819
0
LINE
8
BLACK
6
CONTINUOUS
10
6.30079
20
-3.51102
11
6.31654
21
-3.52677
0
LINE
8
BLACK
6
CONTINUOUS
10
6.31654
20
-3.51102
11
6.30079
21
-3.52677
0
LINE
8
BLACK
6
CONTINUOUS
10
6.40276
20
-2.78504
11
6.4185
21
-2.80079
0
LINE
8
BLACK
6
CONTINUOUS
10
6.4185
20
-2.78504
11
6.40276
21
-2.80079
0
LINE
8
BLACK
6
CONTINUOUS
10
6.44291
20
-1.21732
11
6.45866
21
-1.23307
0
LINE
8
BLACK
6
CONTINUOUS
10
6.45866
20
-1.21732
11
6.44291
21
-1.23307
0
LINE
8
BLACK
6
CONTINUOUS
10
6.46457
20
-1.61654
11
6.48031
21
-1.63228
0
LINE
8
BLACK
6
CONTINUOUS
10
6.48031
20
-1.61654
11
6.46457
21
-1.63228
0
LINE
8
BLACK
6
CONTINUOUS
10
6.48465
20
-1.31535
11
6.50039
21
-1.3311
0
LINE
8
BLACK
6
CONTINUOUS
10
6.50039
20
-1.31535
11
6.48465
21
-1.3311
0
LINE
8
BLACK
6
CONTINUOUS
10
6.49173
20
-0.737008
11
6.50748
21
-0.752756
0
LINE
8
BLACK
6
CONTINUOUS
10
6.50748
20
-0.737008
11
6.49173
21
-0.752756
0
LINE
8
BLACK
6
CONTINUOUS
10
6.49528
20
-3.21575
11
6.51102
21
-3.2315
0
LINE
8
BLACK
6
CONTINUOUS
10
6.51102
20
-3.21575
11
6.49528
21
-3.2315
0
LINE
8
BLACK
6
CONTINUOUS
10
6.55276
20
-3.48268
11
6.5685
21
-3.49843
0
LINE
8
BLACK
6
CONTINUOUS
10
6.5685
20
-3.48268
11
6.55276
21
-3.49843
0
LINE
8
BLACK
6
CONTINUOUS
10
6.56496
20
-3.30669
11
6.58071
21
-3.32244
0
LINE
8
BLACK
6
CONTINUOUS
10
6.58071
20
-3.30669
11
6.56496
21
-3.32244
0
LINE
8
BLACK
6
CONTINUOUS
10
6.57303
20
-2.89226
11
6.58878
21
-2.90801
0
LINE
8
BLACK
6
CONTINUOUS
10
6.58878
20
-2.89226
11
6.57303
21
-2.90801
0
LINE
8
BLACK
6
CONTINUOUS
10
6.5974
20
-1.22819
11
6.61315
21
-1.24394
0
LINE
8
BLACK
6
CONTINUOUS
10
6.61315
20
-1.22819
11
6.5974
21
-1.24394
0
LINE
8
BLACK
6
CONTINUOUS
10
6.60134
20
-1.35354
11
6.61709
21
-1.36929
0
LINE
8
BLACK
6
CONTINUOUS
10
6.61709
20
-1.35354
11
6.60134
21
-1.36929
0
LINE
8
BLACK
6
CONTINUOUS
10
6.60921
20
-2.07717
11
6.62496
21
-2.09291
0
LINE
8
BLACK
6
CONTINUOUS
10
6.62496
20
-2.07717
11
6.60921
21
-2.09291
0
LINE
8
BLACK
6
CONTINUOUS
10
6.61262
20
-1.97848
11
6.62837
21
-1.99423
0
LINE
8
BLACK
6
CONTINUOUS
10
6.62837
20
-1.97848
11
6.61262
21
-1.99423
0
LINE
8
BLACK
6
CONTINUOUS
10
6.64858
20
-2.71929
11
6.66433
21
-2.73504
0
LINE
8
BLACK
6
CONTINUOUS
10
6.66433
20
-2.71929
11
6.64858
21
-2.73504
0
LINE
8
BLACK
6
CONTINUOUS
10
6.65118
20
-2.88346
11
6.66693
21
-2.89921
0
LINE
8
BLACK
6
CONTINUOUS
10
6.66693
20
-2.88346
11
6.65118
21
-2.89921
0
LINE
8
BLACK
6
CONTINUOUS
10
6.70764
20
-2.08268
11
6.72339
21
-2.09843
0
LINE
8
BLACK
6
CONTINUOUS
10
6.72339
20
-2.08268
11
6.70764
21
-2.09843
0
LINE
8
BLACK
6
CONTINUOUS
10
6.73858
20
-3.4874
11
6.75433
21
-3.50315
0
LINE
8
BLACK
6
CONTINUOUS
10
6.75433
20
-3.4874
11
6.73858
21
-3.50315
0
LINE
8
BLACK
6
CONTINUOUS
10
6.74701
20
-1.62583
11
6.76276
21
-1.64157
0
LINE
8
BLACK
6
CONTINUOUS
10
6.76276
20
-1.62583
11
6.74701
21
-1.64157
0
LINE
8
BLACK
6
CONTINUOUS
10
6.78189
20
-1.93346
11
6.79764
21
-1.94921
0
LINE
8
BLACK
6
CONTINUOUS
10
6.79764
20
-1.93346
11
6.78189
21
-1.94921
0
LINE
8
BLACK
6
CONTINUOUS
10
6.7874
20
-2.71378
11
6.80315
21
-2.72953
0
LINE
8
BLACK
6
CONTINUOUS
10
6.80315
20
-2.71378
11
6.7874
21
-2.72953
0
LINE
8
BLACK
6
CONTINUOUS
10
6.79252
20
-2.92362
11
6.80827
21
-2.93937
0
LINE
8
BLACK
6
CONTINUOUS
10
6.80827
20
-2.92362
11
6.79252
21
-2.93937
0
LINE
8
BLACK
6
CONTINUOUS
10
6.81063
20
-0.579921
11
6.82638
21
-0.595669
0
LINE
8
BLACK
6
CONTINUOUS
10
6.82638
20
-0.579921
11
6.81063
21
-0.595669
0
LINE
8
BLACK
6
CONTINUOUS
10
6.81378
20
-2.13622
11
6.82953
21
-2.15197
0
LINE
8
BLACK
6
CONTINUOUS
10
6.82953
20
-2.13622
11
6.81378
21
-2.15197
0
LINE
8
BLACK
6
CONTINUOUS
10
6.87874
20
-3.3189
11
6.89449
21
-3.33465
0
LINE
8
BLACK
6
CONTINUOUS
10
6.89449
20
-3.3189
11
6.87874
21
-3.33465
0
LINE
8
BLACK
6
CONTINUOUS
10
6.91811
20
-2.14961
11
6.93386
21
-2.16535
0
LINE
8
BLACK
6
CONTINUOUS
10
6.93386
20
-2.14961
11
6.91811
21
-2.16535
0
LINE
8
BLACK
6
CONTINUOUS
10
6.93598
20
-0.610079
11
6.95173
21
-0.625827
0
LINE
8
BLACK
6
CONTINUOUS
10
6.95173
20
-0.610079
11
6.93598
21
-0.625827
0
LINE
8
BLACK
6
CONTINUOUS
10
6.95173
20
-0.468346
11
6.96748
21
-0.484094
0
LINE
8
BLACK
6
CONTINUOUS
10
6.96748
20
-0.468346
11
6.95173
21
-0.484094
0
LINE
8
BLACK
6
CONTINUOUS
10
7.06614
20
-3.06654
11
7.08189
21
-3.08228
0
LINE
8
BLACK
6
CONTINUOUS
10
7.08189
20
-3.06654
11
7.06614
21
-3.08228
0
LINE
8
BLACK
6
CONTINUOUS
10
7.11614
20
-3.21378
11
7.13189
21
-3.22953
0
LINE
8
BLACK
6
CONTINUOUS
10
7.13189
20
-3.21378
11
7.11614
21
-3.22953
0
LINE
8
BLACK
6
CONTINUOUS
10
7.20551
20
-3.02205
11
7.22126
21
-3.0378
0
LINE
8
BLACK
6
CONTINUOUS
10
7.22126
20
-3.02205
11
7.20551
21
-3.0378
0
LINE
8
BLACK
6
CONTINUOUS
10
7.21378
20
-3.47913
11
7.22953
21
-3.49488
0
LINE
8
BLACK
6
CONTINUOUS
10
7.22953
20
-3.47913
11
7.21378
21
-3.49488
0
LINE
8
BLACK
6
CONTINUOUS
10
7.38543
20
-2.88858
11
7.40118
21
-2.90433
0
LINE
8
BLACK
6
CONTINUOUS
10
7.40118
20
-2.88858
11
7.38543
21
-2.90433
0
LINE
8
BLACK
6
CONTINUOUS
10
7.40591
20
-1.44409
11
7.42165
21
-1.45984
0
LINE
8
BLACK
6
CONTINUOUS
10
7.42165
20
-1.44409
11
7.40591
21
-1.45984
0
LINE
8
BLACK
6
CONTINUOUS
10
7.40906
20
-0.552362
11
7.4248
21
-0.56811
0
LINE
8
BLACK
6
CONTINUOUS
10
7.4248
20
-0.552362
11
7.40906
21
-0.56811
0
LINE
8
BLACK
6
CONTINUOUS
10
7.41024
20
-0.477165
11
7.42598
21
-0.492913
0
LINE
8
BLACK
6
CONTINUOUS
10
7.42598
20
-0.477165
11
7.41024
21
-0.492913
0
LINE
8
BLACK
6
CONTINUOUS
10
7.49449
20
-2.75591
11
7.51024
21
-2.77165
0
LINE
8
BLACK
6
CONTINUOUS
10
7.51024
20
-2.75591
11
7.49449
21
-2.77165
0
LINE
8
BLACK
6
CONTINUOUS
10
7.52047
20
-3.01693
11
7.53622
21
-3.03268
0
LINE
8
BLACK
6
CONTINUOUS
10
7.53622
20
-3.01693
11
7.52047
21
-3.03268
0
LINE
8
BLACK
6
CONTINUOUS
10
7.54606
20
-2.56614
11
7.56181
21
-2.58189
0
LINE
8
BLACK
6
CONTINUOUS
10
7.56181
20
-2.56614
11
7.54606
21
-2.58189
0
LINE
8
BLACK
6
CONTINUOUS
10
7.61575
20
-2.1937
11
7.6315
21
-2.20945
0
LINE
8
BLACK
6
CONTINUOUS
10
7.6315
20
-2.1937
11
7.61575
21
-2.20945
0
LINE
8
BLACK
6
CONTINUOUS
10
7.74961
20
-1.29685
11
7.76535
21
-1.3126
0
LINE
8
BLACK
6
CONTINUOUS
10
7.76535
20
-1.29685
11
7.74961
21
-1.3126
0
LINE
8
BLACK
6
CONTINUOUS
10
7.76772
20
-1.21142
11
7.78346
21
-1.22717
0
LINE
8
BLACK
6
CONTINUOUS
10
7.78346
20
-1.21142
11
7.76772
21
-1.22717
0
LINE
8
BLACK
6
CONTINUOUS
10
7.78386
20
-0.680709
11
7.79961
21
-0.696457
0
LINE
8
BLACK
6
CONTINUOUS
10
7.79961
20
-0.680709
11
7.78386
21
-0.696457
0
LINE
8
BLACK
6
CONTINUOUS
10
7.94724
20
-1.80591
11
7.96299
21
-1.82165
0
LINE
8
BLACK
6
CONTINUOUS
10
7.96299
20
-1.80591
11
7.94724
21
-1.82165
0
LINE
8
BLACK
6
CONTINUOUS
10
7.95079
20
-1.8874
11
7.96654
21
-1.90315
0
LINE
8
BLACK
6
CONTINUOUS
10
7.96654
20
-1.8874
11
7.95079
21
-1.90315
0
LINE
8
BLACK
6
CONTINUOUS
10
8.14291
20
-1.4374
11
8.15866
21
-1.45315
0
LINE
8
BLACK
6
CONTINUOUS
10
8.15866
20
-1.4374
11
8.14291
21
-1.45315
0
LINE
8
BLACK
6
CONTINUOUS
10
8.16496
20
-1.62047
11
8.18071
21
-1.63622
0
LINE
8
BLACK
6
CONTINUOUS
10
8.18071
20
-1.62047
11
8.16496
21
-1.63622
0
LINE
8
BLACK
6
CONTINUOUS
10
8.2685
20
-3.79904
11
8.28425
21
-3.81478
0
LINE
8
BLACK
6
CONTINUOUS
10
8.28425
20
-3.79904
11
8.2685
21
-3.81478
0
LINE
8
BLACK
6
CONTINUOUS
10
8.28937
20
-2.78071
11
8.30512
21
-2.79646
0
LINE
8
BLACK
6
CONTINUOUS
10
8.30512
20
-2.78071
11
8.28937
21
-2.79646
0
LINE
8
BLACK
6
CONTINUOUS
10
8.29213
20
-0.515748
11
8.30787
21
-0.531496
0
LINE
8
BLACK
6
CONTINUOUS
10
8.30787
20
-0.515748
11
8.29213
21
-0.531496
0
LINE
8
BLACK
6
CONTINUOUS
10
8.31811
20
-0.638071
11
8.33386
21
-0.653819
0
LINE
8
BLACK
6
CONTINUOUS
10
8.33386
20
-0.638071
11
8.31811
21
-0.653819
0
LINE
8
BLACK
6
CONTINUOUS
10
8.34646
20
-3.78132
11
8.3622
21
-3.79707
0
LINE
8
BLACK
6
CONTINUOUS
10
8.3622
20
-3.78132
11
8.34646
21
-3.79707
0
LINE
8
BLACK
6
CONTINUOUS
10
8.36906
20
-2.91321
11
8.3848
21
-2.92896
0
LINE
8
BLACK
6
CONTINUOUS
10
8.3848
20
-2.91321
11
8.36906
21
-2.92896
0
LINE
8
BLACK
6
CONTINUOUS
10
8.38425
20
-2.21457
11
8.4
21
-2.23031
0
LINE
8
BLACK
6
CONTINUOUS
10
8.4
20
-2.21457
11
8.38425
21
-2.23031
0
LINE
8
BLACK
6
CONTINUOUS
10
8.4378
20
-2.91321
11
8.45354
21
-2.92896
0
LINE
8
BLACK
6
CONTINUOUS
10
8.45354
20
-2.91321
11
8.4378
21
-2.92896
0
LINE
8
BLACK
6
CONTINUOUS
10
8.49843
20
-3.01969
11
8.51417
21
-3.03543
0
LINE
8
BLACK
6
CONTINUOUS
10
8.51417
20
-3.01969
11
8.49843
21
-3.03543
0
LINE
8
BLACK
6
CONTINUOUS
10
8.51181
20
-3.69331
11
8.52756
21
-3.70906
0
LINE
8
BLACK
6
CONTINUOUS
10
8.52756
20
-3.69331
11
8.51181
21
-3.70906
0
LINE
8
BLACK
6
CONTINUOUS
10
8.55394
20
-2.76417
11
8.56969
21
-2.77992
0
LINE
8
BLACK
6
CONTINUOUS
10
8.56969
20
-2.76417
11
8.55394
21
-2.77992
0
LINE
8
BLACK
6
CONTINUOUS
10
8.80197
20
-1.40669
11
8.81772
21
-1.42244
0
LINE
8
BLACK
6
CONTINUOUS
10
8.81772
20
-1.40669
11
8.80197
21
-1.42244
0
LINE
8
BLACK
6
CONTINUOUS
10
8.80787
20
-1.63465
11
8.82362
21
-1.65039
0
LINE
8
BLACK
6
CONTINUOUS
10
8.82362
20
-1.63465
11
8.80787
21
-1.65039
0
LINE
8
BLACK
6
CONTINUOUS
10
8.82756
20
-1.25039
11
8.84331
21
-1.26614
0
LINE
8
BLACK
6
CONTINUOUS
10
8.84331
20
-1.25039
11
8.82756
21
-1.26614
0
LINE
8
BLACK
6
CONTINUOUS
10
8.87244
20
-3.70079
11
8.88819
21
-3.71654
0
LINE
8
BLACK
6
CONTINUOUS
10
8.88819
20
-3.70079
11
8.87244
21
-3.71654
0
LINE
8
BLACK
6
CONTINUOUS
10
8.90472
20
-0.509055
11
8.92047
21
-0.524803
0
LINE
8
BLACK
6
CONTINUOUS
10
8.92047
20
-0.509055
11
8.90472
21
-0.524803
0
LINE
8
BLACK
6
CONTINUOUS
10
8.90827
20
-2.13937
11
8.92402
21
-2.15512
0
LINE
8
BLACK
6
CONTINUOUS
10
8.92402
20
-2.13937
11
8.90827
21
-2.15512
0
LINE
8
BLACK
6
CONTINUOUS
10
8.9378
20
-0.609547
11
8.95354
21
-0.625295
0
LINE
8
BLACK
6
CONTINUOUS
10
8.95354
20
-0.609547
11
8.9378
21
-0.625295
0
LINE
8
BLACK
6
CONTINUOUS
10
9.01181
20
-2.01378
11
9.02756
21
-2.02953
0
LINE
8
BLACK
6
CONTINUOUS
10
9.02756
20
-2.01378
11
9.01181
21
-2.02953
0
LINE
8
BLACK
6
CONTINUOUS
10
9.0626
20
-1.43937
11
9.07835
21
-1.45512
0
LINE
8
BLACK
6
CONTINUOUS
10
9.07835
20
-1.43937
11
9.0626
21
-1.45512
0
LINE
8
BLACK
6
CONTINUOUS
10
9.21507
20
-3.77352
11
9.23081
21
-3.78926
0
LINE
8
BLACK
6
CONTINUOUS
10
9.23081
20
-3.77352
11
9.21507
21
-3.78926
0
LINE
8
BLACK
6
CONTINUOUS
10
9.2489
20
-2.21313
11
9.26465
21
-2.22888
0
LINE
8
BLACK
6
CONTINUOUS
10
9.26465
20
-2.21313
11
9.2489
21
-2.22888
0
LINE
8
BLACK
6
CONTINUOUS
10
9.28386
20
-1.26417
11
9.29961
21
-1.27992
0
LINE
8
BLACK
6
CONTINUOUS
10
9.29961
20
-1.26417
11
9.28386
21
-1.27992
0
LINE
8
BLACK
6
CONTINUOUS
10
9.29449
20
-2.51969
11
9.31024
21
-2.53543
0
LINE
8
BLACK
6
CONTINUOUS
10
9.31024
20
-2.51969
11
9.29449
21
-2.53543
0
LINE
8
BLACK
6
CONTINUOUS
10
9.29596
20
-3.7636
11
9.31171
21
-3.77935
0
LINE
8
BLACK
6
CONTINUOUS
10
9.31171
20
-3.7636
11
9.29596
21
-3.77935
0
LINE
8
BLACK
6
CONTINUOUS
10
9.31732
20
-0.702362
11
9.33307
21
-0.71811
0
LINE
8
BLACK
6
CONTINUOUS
10
9.33307
20
-0.702362
11
9.31732
21
-0.71811
0
LINE
8
BLACK
6
CONTINUOUS
10
9.32244
20
-2.66496
11
9.33819
21
-2.68071
0
LINE
8
BLACK
6
CONTINUOUS
10
9.33819
20
-2.66496
11
9.32244
21
-2.68071
0
LINE
8
BLACK
6
CONTINUOUS
10
9.3374
20
-1.29803
11
9.35315
21
-1.31378
0
LINE
8
BLACK
6
CONTINUOUS
10
9.35315
20
-1.29803
11
9.3374
21
-1.31378
0
LINE
8
BLACK
6
CONTINUOUS
10
9.37756
20
-2.5878
11
9.39331
21
-2.60354
0
LINE
8
BLACK
6
CONTINUOUS
10
9.39331
20
-2.5878
11
9.37756
21
-2.60354
0
LINE
8
BLACK
6
CONTINUOUS
10
9.3815
20
-3.03543
11
9.39724
21
-3.05118
0
LINE
8
BLACK
6
CONTINUOUS
10
9.39724
20
-3.03543
11
9.3815
21
-3.05118
0
LINE
8
BLACK
6
CONTINUOUS
10
9.42756
20
-2.82402
11
9.44331
21
-2.83976
0
LINE
8
BLACK
6
CONTINUOUS
10
9.44331
20
-2.82402
11
9.42756
21
-2.83976
0
LINE
8
BLACK
6
CONTINUOUS
10
9.52648
20
-2.04459
11
9.54223
21
-2.06034
0
LINE
8
BLACK
6
CONTINUOUS
10
9.54223
20
-2.04459
11
9.52648
21
-2.06034
0
LINE
8
BLACK
6
CONTINUOUS
10
9.54449
20
-2.76732
11
9.56024
21
-2.78307
0
LINE
8
BLACK
6
CONTINUOUS
10
9.56024
20
-2.76732
11
9.54449
21
-2.78307
0
LINE
8
BLACK
6
CONTINUOUS
10
9.56299
20
-2.08876
11
9.57874
21
-2.10451
0
LINE
8
BLACK
6
CONTINUOUS
10
9.57874
20
-2.08876
11
9.56299
21
-2.10451
0
LINE
8
BLACK
6
CONTINUOUS
10
9.63307
20
-0.861811
11
9.64882
21
-0.877559
0
LINE
8
BLACK
6
CONTINUOUS
10
9.64882
20
-0.861811
11
9.63307
21
-0.877559
0
LINE
8
BLACK
6
CONTINUOUS
10
9.64961
20
-3.48543
11
9.66535
21
-3.50118
0
LINE
8
BLACK
6
CONTINUOUS
10
9.66535
20
-3.48543
11
9.64961
21
-3.50118
0
LINE
8
BLACK
6
CONTINUOUS
10
9.68976
20
-1.36969
11
9.70551
21
-1.38543
0
LINE
8
BLACK
6
CONTINUOUS
10
9.70551
20
-1.36969
11
9.68976
21
-1.38543
0
LINE
8
BLACK
6
CONTINUOUS
10
9.69961
20
-0.999606
11
9.71535
21
-1.01535
0
LINE
8
BLACK
6
CONTINUOUS
10
9.71535
20
-0.999606
11
9.69961
21
-1.01535
0
LINE
8
BLACK
6
CONTINUOUS
10
9.78386
20
-0.477559
11
9.79961
21
-0.493307
0
LINE
8
BLACK
6
CONTINUOUS
10
9.79961
20
-0.477559
11
9.78386
21
-0.493307
0
LINE
8
BLACK
6
CONTINUOUS
10
9.79434
20
-2.97026
11
9.81009
21
-2.986
0
LINE
8
BLACK
6
CONTINUOUS
10
9.81009
20
-2.97026
11
9.79434
21
-2.986
0
LINE
8
BLACK
6
CONTINUOUS
10
9.79685
20
-3.59368
11
9.8126
21
-3.60943
0
LINE
8
BLACK
6
CONTINUOUS
10
9.8126
20
-3.59368
11
9.79685
21
-3.60943
0
LINE
8
BLACK
6
CONTINUOUS
10
9.82531
20
-3.52548
11
9.84105
21
-3.54123
0
LINE
8
BLACK
6
CONTINUOUS
10
9.84105
20
-3.52548
11
9.82531
21
-3.54123
0
LINE
8
BLACK
6
CONTINUOUS
10
9.83543
20
-1.79961
11
9.85118
21
-1.81535
0
LINE
8
BLACK
6
CONTINUOUS
10
9.85118
20
-1.79961
11
9.83543
21
-1.81535
0
LINE
8
BLACK
6
CONTINUOUS
10
9.8878
20
-3.25512
11
9.90354
21
-3.27087
0
LINE
8
BLACK
6
CONTINUOUS
10
9.90354
20
-3.25512
11
9.8878
21
-3.27087
0
LINE
8
BLACK
6
CONTINUOUS
10
9.88998
20
-2.87383
11
9.90573
21
-2.88958
0
LINE
8
BLACK
6
CONTINUOUS
10
9.90573
20
-2.87383
11
9.88998
21
-2.88958
0
LINE
8
BLACK
6
CONTINUOUS
10
9.89961
20
-3.65315
11
9.91535
21
-3.6689
0
LINE
8
BLACK
6
CONTINUOUS
10
9.91535
20
-3.65315
11
9.89961
21
-3.6689
0
LINE
8
BLACK
6
CONTINUOUS
10
9.92795
20
-2.32459
11
9.9437
21
-2.34033
0
LINE
8
BLACK
6
CONTINUOUS
10
9.9437
20
-2.32459
11
9.92795
21
-2.34033
0
LINE
8
BLACK
6
CONTINUOUS
10
9.93307
20
-3.49213
11
9.94882
21
-3.50787
0
LINE
8
BLACK
6
CONTINUOUS
10
9.94882
20
-3.49213
11
9.93307
21
-3.50787
0
LINE
8
BLACK
6
CONTINUOUS
10
9.94921
20
-2.94646
11
9.96496
21
-2.9622
0
LINE
8
BLACK
6
CONTINUOUS
10
9.96496
20
-2.94646
11
9.94921
21
-2.9622
0
LINE
8
BLACK
6
CONTINUOUS
10
9.96378
20
-0.476772
11
9.97953
21
-0.49252
0
LINE
8
BLACK
6
CONTINUOUS
10
9.97953
20
-0.476772
11
9.96378
21
-0.49252
0
LINE
8
BLACK
6
CONTINUOUS
10
9.96378
20
-2.29606
11
9.97953
21
-2.31181
0
LINE
8
BLACK
6
CONTINUOUS
10
9.97953
20
-2.29606
11
9.96378
21
-2.31181
0
LINE
8
BLACK
6
CONTINUOUS
10
9.96748
20
-2.98131
11
9.98323
21
-2.99706
0
LINE
8
BLACK
6
CONTINUOUS
10
9.98323
20
-2.98131
11
9.96748
21
-2.99706
0
LINE
8
BLACK
6
CONTINUOUS
10
9.98504
20
-0.706693
11
10.0008
21
-0.722441
0
LINE
8
BLACK
6
CONTINUOUS
10
10.0008
20
-0.706693
11
9.98504
21
-0.722441
0
LINE
8
BLACK
6
CONTINUOUS
10
10.0398
20
-3.22653
11
10.0555
21
-3.24228
0
LINE
8
BLACK
6
CONTINUOUS
10
10.0555
20
-3.22653
11
10.0398
21
-3.24228
0
LINE
8
BLACK
6
CONTINUOUS
10
10.0646
20
-1.45433
11
10.0803
21
-1.47008
0
LINE
8
BLACK
6
CONTINUOUS
10
10.0803
20
-1.45433
11
10.0646
21
-1.47008
0
LINE
8
BLACK
6
CONTINUOUS
10
10.0681
20
-1.28346
11
10.0839
21
-1.29921
0
LINE
8
BLACK
6
CONTINUOUS
10
10.0839
20
-1.28346
11
10.0681
21
-1.29921
0
LINE
8
BLACK
6
CONTINUOUS
10
10.0783
20
-3.59939
11
10.0941
21
-3.61514
0
LINE
8
BLACK
6
CONTINUOUS
10
10.0941
20
-3.59939
11
10.0783
21
-3.61514
0
LINE
8
BLACK
6
CONTINUOUS
10
10.0937
20
-0.91811
11
10.1094
21
-0.933858
0
LINE
8
BLACK
6
CONTINUOUS
10
10.1094
20
-0.91811
11
10.0937
21
-0.933858
0
LINE
8
BLACK
6
CONTINUOUS
10
10.1004
20
-3.7126
11
10.1161
21
-3.72835
0
LINE
8
BLACK
6
CONTINUOUS
10
10.1161
20
-3.7126
11
10.1004
21
-3.72835
0
LINE
8
BLACK
6
CONTINUOUS
10
10.1039
20
-0.290551
11
10.1197
21
-0.306299
0
LINE
8
BLACK
6
CONTINUOUS
10
10.1197
20
-0.290551
11
10.1039
21
-0.306299
0
LINE
8
BLACK
6
CONTINUOUS
10
10.1098
20
-2.32459
11
10.1256
21
-2.34033
0
LINE
8
BLACK
6
CONTINUOUS
10
10.1256
20
-2.32459
11
10.1098
21
-2.34033
0
LINE
8
BLACK
6
CONTINUOUS
10
10.1158
20
-2.28569
11
10.1315
21
-2.30144
0
LINE
8
BLACK
6
CONTINUOUS
10
10.1315
20
-2.28569
11
10.1158
21
-2.30144
0
LINE
8
BLACK
6
CONTINUOUS
10
10.1453
20
-3.09152
11
10.161
21
-3.10727
0
LINE
8
BLACK
6
CONTINUOUS
10
10.161
20
-3.09152
11
10.1453
21
-3.10727
0
LINE
8
BLACK
6
CONTINUOUS
10
10.1565
20
-2.9128
11
10.1722
21
-2.92854
0
LINE
8
BLACK
6
CONTINUOUS
10
10.1722
20
-2.9128
11
10.1565
21
-2.92854
0
LINE
8
BLACK
6
CONTINUOUS
10
10.1673
20
-0.830709
11
10.1831
21
-0.846457
0
LINE
8
BLACK
6
CONTINUOUS
10
10.1831
20
-0.830709
11
10.1673
21
-0.846457
0
LINE
8
BLACK
6
CONTINUOUS
10
10.1882
20
-3.06929
11
10.204
21
-3.08504
0
LINE
8
BLACK
6
CONTINUOUS
10
10.204
20
-3.06929
11
10.1882
21
-3.08504
0
LINE
8
BLACK
6
CONTINUOUS
10
10.2315
20
-2.19764
11
10.2472
21
-2.21339
0
LINE
8
BLACK
6
CONTINUOUS
10
10.2472
20
-2.19764
11
10.2315
21
-2.21339
0
LINE
8
BLACK
6
CONTINUOUS
10
10.2576
20
-3.10118
11
10.2734
21
-3.11693
0
LINE
8
BLACK
6
CONTINUOUS
10
10.2734
20
-3.10118
11
10.2576
21
-3.11693
0
LINE
8
BLACK
6
CONTINUOUS
10
10.2657
20
-0.873228
11
10.2815
21
-0.888976
0
LINE
8
BLACK
6
CONTINUOUS
10
10.2815
20
-0.873228
11
10.2657
21
-0.888976
0
LINE
8
BLACK
6
CONTINUOUS
10
10.2682
20
-2.80113
11
10.2839
21
-2.81688
0
LINE
8
BLACK
6
CONTINUOUS
10
10.2839
20
-2.80113
11
10.2682
21
-2.81688
0
LINE
8
BLACK
6
CONTINUOUS
10
10.3185
20
-2.41811
11
10.3343
21
-2.43386
0
LINE
8
BLACK
6
CONTINUOUS
10
10.3343
20
-2.41811
11
10.3185
21
-2.43386
0
LINE
8
BLACK
6
CONTINUOUS
10
10.3385
20
-2.73898
11
10.3543
21
-2.75472
0
LINE
8
BLACK
6
CONTINUOUS
10
10.3543
20
-2.73898
11
10.3385
21
-2.75472
0
LINE
8
BLACK
6
CONTINUOUS
10
10.3539
20
-3.13876
11
10.3697
21
-3.15451
0
LINE
8
BLACK
6
CONTINUOUS
10
10.3697
20
-3.13876
11
10.3539
21
-3.15451
0
LINE
8
BLACK
6
CONTINUOUS
10
10.3646
20
-0.502362
11
10.3803
21
-0.51811
0
LINE
8
BLACK
6
CONTINUOUS
10
10.3803
20
-0.502362
11
10.3646
21
-0.51811
0
LINE
8
BLACK
6
CONTINUOUS
10
10.4087
20
-2.73976
11
10.4244
21
-2.75551
0
LINE
8
BLACK
6
CONTINUOUS
10
10.4244
20
-2.73976
11
10.4087
21
-2.75551
0
LINE
8
BLACK
6
CONTINUOUS
10
10.4512
20
-2.8622
11
10.4669
21
-2.87795
0
LINE
8
BLACK
6
CONTINUOUS
10
10.4669
20
-2.8622
11
10.4512
21
-2.87795
0
LINE
8
BLACK
6
CONTINUOUS
10
10.4689
20
-0.436614
11
10.4846
21
-0.452362
0
LINE
8
BLACK
6
CONTINUOUS
10
10.4846
20
-0.436614
11
10.4689
21
-0.452362
0
LINE
8
BLACK
6
CONTINUOUS
10
10.5202
20
-2.3526
11
10.536
21
-2.36834
0
LINE
8
BLACK
6
CONTINUOUS
10
10.536
20
-2.3526
11
10.5202
21
-2.36834
0
LINE
8
BLACK
6
CONTINUOUS
10
10.537
20
-0.487008
11
10.5528
21
-0.502756
0
LINE
8
BLACK
6
CONTINUOUS
10
10.5528
20
-0.487008
11
10.537
21
-0.502756
0
LINE
8
BLACK
6
CONTINUOUS
10
10.5508
20
-0.868504
11
10.5665
21
-0.884252
0
LINE
8
BLACK
6
CONTINUOUS
10
10.5665
20
-0.868504
11
10.5508
21
-0.884252
0
LINE
8
BLACK
6
CONTINUOUS
10
10.5992
20
-2.1626
11
10.615
21
-2.17835
0
LINE
8
BLACK
6
CONTINUOUS
10
10.615
20
-2.1626
11
10.5992
21
-2.17835
0
LINE
8
BLACK
6
CONTINUOUS
10
10.6284
20
-3.27855
11
10.6441
21
-3.2943
0
LINE
8
BLACK
6
CONTINUOUS
10
10.6441
20
-3.27855
11
10.6284
21
-3.2943
0
LINE
8
BLACK
6
CONTINUOUS
10
10.6453
20
-2.77717
11
10.661
21
-2.79291
0
LINE
8
BLACK
6
CONTINUOUS
10
10.661
20
-2.77717
11
10.6453
21
-2.79291
0
LINE
8
BLACK
6
CONTINUOUS
10
10.6835
20
-3.28738
11
10.6992
21
-3.30313
0
LINE
8
BLACK
6
CONTINUOUS
10
10.6992
20
-3.28738
11
10.6835
21
-3.30313
0
LINE
8
BLACK
6
CONTINUOUS
10
10.7697
20
-3.2748
11
10.7854
21
-3.29055
0
LINE
8
BLACK
6
CONTINUOUS
10
10.7854
20
-3.2748
11
10.7697
21
-3.29055
0
LINE
8
BLACK
6
CONTINUOUS
10
10.7945
20
-3.43858
11
10.8102
21
-3.45433
0
LINE
8
BLACK
6
CONTINUOUS
10
10.8102
20
-3.43858
11
10.7945
21
-3.45433
0
LINE
8
BLACK
6
CONTINUOUS
10
10.8008
20
-3.65512
11
10.8165
21
-3.67087
0
LINE
8
BLACK
6
CONTINUOUS
10
10.8165
20
-3.65512
11
10.8008
21
-3.67087
0
LINE
8
BLACK
6
CONTINUOUS
10
10.8094
20
-3.19173
11
10.8252
21
-3.20748
0
LINE
8
BLACK
6
CONTINUOUS
10
10.8252
20
-3.19173
11
10.8094
21
-3.20748
0
LINE
8
BLACK
6
CONTINUOUS
10
10.8299
20
-1.85079
11
10.8457
21
-1.86654
0
LINE
8
BLACK
6
CONTINUOUS
10
10.8457
20
-1.85079
11
10.8299
21
-1.86654
0
LINE
8
BLACK
6
CONTINUOUS
10
10.8303
20
-1.95
11
10.8461
21
-1.96575
0
LINE
8
BLACK
6
CONTINUOUS
10
10.8461
20
-1.95
11
10.8303
21
-1.96575
0
LINE
8
BLACK
6
CONTINUOUS
10
10.8472
20
-3.36693
11
10.863
21
-3.38268
0
LINE
8
BLACK
6
CONTINUOUS
10
10.863
20
-3.36693
11
10.8472
21
-3.38268
0
LINE
8
BLACK
6
CONTINUOUS
10
10.9705
20
-3.25079
11
10.9862
21
-3.26654
0
LINE
8
BLACK
6
CONTINUOUS
10
10.9862
20
-3.25079
11
10.9705
21
-3.26654
0
LINE
8
BLACK
6
CONTINUOUS
10
10.989
20
-1.03583
11
11.0047
21
-1.05157
0
LINE
8
BLACK
6
CONTINUOUS
10
11.0047
20
-1.03583
11
10.989
21
-1.05157
0
LINE
8
BLACK
6
CONTINUOUS
10
10.9949
20
-0.698248
11
11.0106
21
-0.713996
0
LINE
8
BLACK
6
CONTINUOUS
10
11.0106
20
-0.698248
11
10.9949
21
-0.713996
0
LINE
8
BLACK
6
CONTINUOUS
10
11.0469
20
-3.3689
11
11.0626
21
-3.38465
0
LINE
8
BLACK
6
CONTINUOUS
10
11.0626
20
-3.3689
11
11.0469
21
-3.38465
0
LINE
8
BLACK
6
CONTINUOUS
10
11.1091
20
-1.07323
11
11.1248
21
-1.08898
0
LINE
8
BLACK
6
CONTINUOUS
10
11.1248
20
-1.07323
11
11.1091
21
-1.08898
0
LINE
8
BLACK
6
CONTINUOUS
10
11.1264
20
-0.916142
11
11.1421
21
-0.93189
0
LINE
8
BLACK
6
CONTINUOUS
10
11.1421
20
-0.916142
11
11.1264
21
-0.93189
0
LINE
8
BLACK
6
CONTINUOUS
10
11.1317
20
-1.94528
11
11.1475
21
-1.96102
0
LINE
8
BLACK
6
CONTINUOUS
10
11.1475
20
-1.94528
11
11.1317
21
-1.96102
0
CIRCLE
8
BLACK
10
3.84528
20
-3.42795
40
0.0177165
0
CIRCLE
8
BLACK
10
3.89528
20
-3.42795
40
0.0177165
0
CIRCLE
8
BLACK
10
3.94528
20
-3.42795
40
0.0177165
0
CIRCLE
8
BLACK
10
3.99528
20
-3.42795
40
0.0177165
0
CIRCLE
8
BLACK
10
4.27835
20
-3.42795
40
0.0177165
0
CIRCLE
8
BLACK
10
4.32835
20
-3.42795
40
0.0177165
0
CIRCLE
8
BLACK
10
4.37835
20
-3.42795
40
0.0177165
0
CIRCLE
8
BLACK
10
4.42835
20
-3.42795
40
0.0177165
0
CIRCLE
8
BLACK
10
4.71142
20
-3.42795
40
0.0177165
0
CIRCLE
8
BLACK
10
4.76142
20
-3.42795
40
0.0177165
0
CIRCLE
8
BLACK
10
4.81142
20
-3.42795
40
0.0177165
0
CIRCLE
8
BLACK
10
4.86142
20
-3.42795
40
0.0177165
0
CIRCLE
8
BLACK
10
6.07815
20
-3.42598
40
0.0177165
0
CIRCLE
8
BLACK
10
6.12815
20
-3.42598
40
0.0177165
0
CIRCLE
8
BLACK
10
6.17815
20
-3.42598
40
0.0177165
0
CIRCLE
8
BLACK
10
6.22815
20
-3.42598
40
0.0177165
0
CIRCLE
8
BLACK
10
6.51122
20
-3.42598
40
0.0177165
0
CIRCLE
8
BLACK
10
6.56122
20
-3.42598
40
0.0177165
0
CIRCLE
8
BLACK
10
6.61122
20
-3.42598
40
0.0177165
0
CIRCLE
8
BLACK
10
6.66122
20
-3.42598
40
0.0177165
0
CIRCLE
8
BLACK
10
6.94429
20
-3.42598
40
0.0177165
0
CIRCLE
8
BLACK
10
6.99429
20
-3.42598
40
0.0177165
0
CIRCLE
8
BLACK
10
7.04429
20
-3.42598
40
0.0177165
0
CIRCLE
8
BLACK
10
7.09429
20
-3.42598
40
0.0177165
0
LINE
8
BLACK
6
CONTINUOUS
10
0.192953
20
-0.292461
11
0.192953
21
-0.350335
0
LINE
8
BLACK
6
CONTINUOUS
10
0.164016
20
-0.321398
11
0.22189
21
-0.321398
0
LINE
8
BLACK
6
CONTINUOUS
10
0.239606
20
-0.237933
11
0.239606
21
-0.295807
0
LINE
8
BLACK
6
CONTINUOUS
10
0.210669
20
-0.26687
11
0.268543
21
-0.26687
0
LINE
8
BLACK
6
CONTINUOUS
10
0.380453
20
-1.04246
11
0.380453
21
-1.10033
0
LINE
8
BLACK
6
CONTINUOUS
10
0.351516
20
-1.0714
11
0.40939
21
-1.0714
0
LINE
8
BLACK
6
CONTINUOUS
10
0.427106
20
-0.987933
11
0.427106
21
-1.04581
0
LINE
8
BLACK
6
CONTINUOUS
10
0.398169
20
-1.01687
11
0.456043
21
-1.01687
0
LINE
8
BLACK
6
CONTINUOUS
10
0.442953
20
-0.192461
11
0.442953
21
-0.250335
0
LINE
8
BLACK
6
CONTINUOUS
10
0.414016
20
-0.221398
11
0.47189
21
-0.221398
0
LINE
8
BLACK
6
CONTINUOUS
10
0.474203
20
-1.79246
11
0.474203
21
-1.85033
0
LINE
8
BLACK
6
CONTINUOUS
10
0.445266
20
-1.8214
11
0.50314
21
-1.8214
0
LINE
8
BLACK
6
CONTINUOUS
10
0.475827
20
-0.225138
11
0.475827
21
-0.283012
0
LINE
8
BLACK
6
CONTINUOUS
10
0.44689
20
-0.254075
11
0.504764
21
-0.254075
0
LINE
8
BLACK
6
CONTINUOUS
10
0.520856
20
-1.73793
11
0.520856
21
-1.79581
0
LINE
8
BLACK
6
CONTINUOUS
10
0.491919
20
-1.76687
11
0.549793
21
-1.76687
0
LINE
8
BLACK
6
CONTINUOUS
10
0.567953
20
-3.29246
11
0.567953
21
-3.35033
0
LINE
8
BLACK
6
CONTINUOUS
10
0.539016
20
-3.3214
11
0.59689
21
-3.3214
0
LINE
8
BLACK
6
CONTINUOUS
10
0.614606
20
-3.23793
11
0.614606
21
-3.29581
0
LINE
8
BLACK
6
CONTINUOUS
10
0.585669
20
-3.26687
11
0.643543
21
-3.26687
0
LINE
8
BLACK
6
CONTINUOUS
10
0.630453
20
-0.942461
11
0.630453
21
-1.00033
0
LINE
8
BLACK
6
CONTINUOUS
10
0.601516
20
-0.971398
11
0.65939
21
-0.971398
0
LINE
8
BLACK
6
CONTINUOUS
10
0.661703
20
-2.54246
11
0.661703
21
-2.60033
0
LINE
8
BLACK
6
CONTINUOUS
10
0.632766
20
-2.5714
11
0.69064
21
-2.5714
0
LINE
8
BLACK
6
CONTINUOUS
10
0.663327
20
-0.975138
11
0.663327
21
-1.03301
0
LINE
8
BLACK
6
CONTINUOUS
10
0.63439
20
-1.00407
11
0.692264
21
-1.00407
0
LINE
8
BLACK
6
CONTINUOUS
10
0.708356
20
-2.48793
11
0.708356
21
-2.54581
0
LINE
8
BLACK
6
CONTINUOUS
10
0.679419
20
-2.51687
11
0.737293
21
-2.51687
0
LINE
8
BLACK
6
CONTINUOUS
10
0.724203
20
-1.69246
11
0.724203
21
-1.75033
0
LINE
8
BLACK
6
CONTINUOUS
10
0.695266
20
-1.7214
11
0.75314
21
-1.7214
0
LINE
8
BLACK
6
CONTINUOUS
10
0.757077
20
-1.72514
11
0.757077
21
-1.78301
0
LINE
8
BLACK
6
CONTINUOUS
10
0.72814
20
-1.75407
11
0.786014
21
-1.75407
0
LINE
8
BLACK
6
CONTINUOUS
10
0.817953
20
-3.19246
11
0.817953
21
-3.25033
0
LINE
8
BLACK
6
CONTINUOUS
10
0.789016
20
-3.2214
11
0.84689
21
-3.2214
0
LINE
8
BLACK
6
CONTINUOUS
10
0.850827
20
-3.22514
11
0.850827
21
-3.28301
0
LINE
8
BLACK
6
CONTINUOUS
10
0.82189
20
-3.25407
11
0.879764
21
-3.25407
0
LINE
8
BLACK
6
CONTINUOUS
10
0.911703
20
-2.44246
11
0.911703
21
-2.50033
0
LINE
8
BLACK
6
CONTINUOUS
10
0.882766
20
-2.4714
11
0.94064
21
-2.4714
0
LINE
8
BLACK
6
CONTINUOUS
10
0.942953
20
-0.292461
11
0.942953
21
-0.350335
0
LINE
8
BLACK
6
CONTINUOUS
10
0.914016
20
-0.321398
11
0.97189
21
-0.321398
0
LINE
8
BLACK
6
CONTINUOUS
10
0.944577
20
-2.47514
11
0.944577
21
-2.53301
0
LINE
8
BLACK
6
CONTINUOUS
10
0.91564
20
-2.50407
11
0.973514
21
-2.50407
0
LINE
8
BLACK
6
CONTINUOUS
10
0.989606
20
-0.237933
11
0.989606
21
-0.295807
0
LINE
8
BLACK
6
CONTINUOUS
10
0.960669
20
-0.26687
11
1.01854
21
-0.26687
0
LINE
8
BLACK
6
CONTINUOUS
10
1.19295
20
-0.192461
11
1.19295
21
-0.250335
0
LINE
8
BLACK
6
CONTINUOUS
10
1.16402
20
-0.221398
11
1.22189
21
-0.221398
0
LINE
8
BLACK
6
CONTINUOUS
10
1.22583
20
-0.225138
11
1.22583
21
-0.283012
0
LINE
8
BLACK
6
CONTINUOUS
10
1.19689
20
-0.254075
11
1.25476
21
-0.254075
0
LINE
8
BLACK
6
CONTINUOUS
10
1.31795
20
-1.04246
11
1.31795
21
-1.10033
0
LINE
8
BLACK
6
CONTINUOUS
10
1.28902
20
-1.0714
11
1.34689
21
-1.0714
0
LINE
8
BLACK
6
CONTINUOUS
10
1.31795
20
-3.29246
11
1.31795
21
-3.35033
0
LINE
8
BLACK
6
CONTINUOUS
10
1.28902
20
-3.3214
11
1.34689
21
-3.3214
0
LINE
8
BLACK
6
CONTINUOUS
10
1.36461
20
-0.987933
11
1.36461
21
-1.04581
0
LINE
8
BLACK
6
CONTINUOUS
10
1.33567
20
-1.01687
11
1.39354
21
-1.01687
0
LINE
8
BLACK
6
CONTINUOUS
10
1.36461
20
-3.23793
11
1.36461
21
-3.29581
0
LINE
8
BLACK
6
CONTINUOUS
10
1.33567
20
-3.26687
11
1.39354
21
-3.26687
0
LINE
8
BLACK
6
CONTINUOUS
10
1.50545
20
-1.79246
11
1.50545
21
-1.85033
0
LINE
8
BLACK
6
CONTINUOUS
10
1.47652
20
-1.8214
11
1.53439
21
-1.8214
0
LINE
8
BLACK
6
CONTINUOUS
10
1.55211
20
-1.73793
11
1.55211
21
-1.79581
0
LINE
8
BLACK
6
CONTINUOUS
10
1.52317
20
-1.76687
11
1.58104
21
-1.76687
0
LINE
8
BLACK
6
CONTINUOUS
10
1.56795
20
-0.942461
11
1.56795
21
-1.00033
0
LINE
8
BLACK
6
CONTINUOUS
10
1.53902
20
-0.971398
11
1.59689
21
-0.971398
0
LINE
8
BLACK
6
CONTINUOUS
10
1.56795
20
-3.19246
11
1.56795
21
-3.25033
0
LINE
8
BLACK
6
CONTINUOUS
10
1.53902
20
-3.2214
11
1.59689
21
-3.2214
0
LINE
8
BLACK
6
CONTINUOUS
10
1.60083
20
-0.975138
11
1.60083
21
-1.03301
0
LINE
8
BLACK
6
CONTINUOUS
10
1.57189
20
-1.00407
11
1.62976
21
-1.00407
0
LINE
8
BLACK
6
CONTINUOUS
10
1.60083
20
-3.22514
11
1.60083
21
-3.28301
0
LINE
8
BLACK
6
CONTINUOUS
10
1.57189
20
-3.25407
11
1.62976
21
-3.25407
0
LINE
8
BLACK
6
CONTINUOUS
10
1.69295
20
-0.292461
11
1.69295
21
-0.350335
0
LINE
8
BLACK
6
CONTINUOUS
10
1.66402
20
-0.321398
11
1.72189
21
-0.321398
0
LINE
8
BLACK
6
CONTINUOUS
10
1.73961
20
-0.237933
11
1.73961
21
-0.295807
0
LINE
8
BLACK
6
CONTINUOUS
10
1.71067
20
-0.26687
11
1.76854
21
-0.26687
0
LINE
8
BLACK
6
CONTINUOUS
10
1.75545
20
-1.69246
11
1.75545
21
-1.75033
0
LINE
8
BLACK
6
CONTINUOUS
10
1.72652
20
-1.7214
11
1.78439
21
-1.7214
0
LINE
8
BLACK
6
CONTINUOUS
10
1.78833
20
-1.72514
11
1.78833
21
-1.78301
0
LINE
8
BLACK
6
CONTINUOUS
10
1.75939
20
-1.75407
11
1.81726
21
-1.75407
0
LINE
8
BLACK
6
CONTINUOUS
10
1.88045
20
-2.54246
11
1.88045
21
-2.60033
0
LINE
8
BLACK
6
CONTINUOUS
10
1.85152
20
-2.5714
11
1.90939
21
-2.5714
0
LINE
8
BLACK
6
CONTINUOUS
10
1.92711
20
-2.48793
11
1.92711
21
-2.54581
0
LINE
8
BLACK
6
CONTINUOUS
10
1.89817
20
-2.51687
11
1.95604
21
-2.51687
0
LINE
8
BLACK
6
CONTINUOUS
10
1.94295
20
-0.192461
11
1.94295
21
-0.250335
0
LINE
8
BLACK
6
CONTINUOUS
10
1.91402
20
-0.221398
11
1.97189
21
-0.221398
0
LINE
8
BLACK
6
CONTINUOUS
10
1.97583
20
-0.225138
11
1.97583
21
-0.283012
0
LINE
8
BLACK
6
CONTINUOUS
10
1.94689
20
-0.254075
11
2.00476
21
-0.254075
0
LINE
8
BLACK
6
CONTINUOUS
10
2.06795
20
-1.04246
11
2.06795
21
-1.10033
0
LINE
8
BLACK
6
CONTINUOUS
10
2.03902
20
-1.0714
11
2.09689
21
-1.0714
0
LINE
8
BLACK
6
CONTINUOUS
10
2.11461
20
-0.987933
11
2.11461
21
-1.04581
0
LINE
8
BLACK
6
CONTINUOUS
10
2.08567
20
-1.01687
11
2.14354
21
-1.01687
0
LINE
8
BLACK
6
CONTINUOUS
10
2.13045
20
-2.44246
11
2.13045
21
-2.50033
0
LINE
8
BLACK
6
CONTINUOUS
10
2.10152
20
-2.4714
11
2.15939
21
-2.4714
0
LINE
8
BLACK
6
CONTINUOUS
10
2.16333
20
-2.47514
11
2.16333
21
-2.53301
0
LINE
8
BLACK
6
CONTINUOUS
10
2.13439
20
-2.50407
11
2.19226
21
-2.50407
0
LINE
8
BLACK
6
CONTINUOUS
10
2.25545
20
-1.79246
11
2.25545
21
-1.85033
0
LINE
8
BLACK
6
CONTINUOUS
10
2.22652
20
-1.8214
11
2.28439
21
-1.8214
0
LINE
8
BLACK
6
CONTINUOUS
10
2.25545
20
-3.29246
11
2.25545
21
-3.35033
0
LINE
8
BLACK
6
CONTINUOUS
10
2.22652
20
-3.3214
11
2.28439
21
-3.3214
0
LINE
8
BLACK
6
CONTINUOUS
10
2.30211
20
-1.73793
11
2.30211
21
-1.79581
0
LINE
8
BLACK
6
CONTINUOUS
10
2.27317
20
-1.76687
11
2.33104
21
-1.76687
0
LINE
8
BLACK
6
CONTINUOUS
10
2.30211
20
-3.23793
11
2.30211
21
-3.29581
0
LINE
8
BLACK
6
CONTINUOUS
10
2.27317
20
-3.26687
11
2.33104
21
-3.26687
0
LINE
8
BLACK
6
CONTINUOUS
10
2.31795
20
-0.942461
11
2.31795
21
-1.00033
0
LINE
8
BLACK
6
CONTINUOUS
10
2.28902
20
-0.971398
11
2.34689
21
-0.971398
0
LINE
8
BLACK
6
CONTINUOUS
10
2.35083
20
-0.975138
11
2.35083
21
-1.03301
0
LINE
8
BLACK
6
CONTINUOUS
10
2.32189
20
-1.00407
11
2.37976
21
-1.00407
0
LINE
8
BLACK
6
CONTINUOUS
10
2.44295
20
-0.292461
11
2.44295
21
-0.350335
0
LINE
8
BLACK
6
CONTINUOUS
10
2.41402
20
-0.321398
11
2.47189
21
-0.321398
0
LINE
8
BLACK
6
CONTINUOUS
10
2.48961
20
-0.237933
11
2.48961
21
-0.295807
0
LINE
8
BLACK
6
CONTINUOUS
10
2.46067
20
-0.26687
11
2.51854
21
-0.26687
0
LINE
8
BLACK
6
CONTINUOUS
10
2.50545
20
-1.69246
11
2.50545
21
-1.75033
0
LINE
8
BLACK
6
CONTINUOUS
10
2.47652
20
-1.7214
11
2.53439
21
-1.7214
0
LINE
8
BLACK
6
CONTINUOUS
10
2.50545
20
-3.19246
11
2.50545
21
-3.25033
0
LINE
8
BLACK
6
CONTINUOUS
10
2.47652
20
-3.2214
11
2.53439
21
-3.2214
0
LINE
8
BLACK
6
CONTINUOUS
10
2.53833
20
-1.72514
11
2.53833
21
-1.78301
0
LINE
8
BLACK
6
CONTINUOUS
10
2.50939
20
-1.75407
11
2.56726
21
-1.75407
0
LINE
8
BLACK
6
CONTINUOUS
10
2.53833
20
-3.22514
11
2.53833
21
-3.28301
0
LINE
8
BLACK
6
CONTINUOUS
10
2.50939
20
-3.25407
11
2.56726
21
-3.25407
0
LINE
8
BLACK
6
CONTINUOUS
10
2.63045
20
-2.54246
11
2.63045
21
-2.60033
0
LINE
8
BLACK
6
CONTINUOUS
10
2.60152
20
-2.5714
11
2.65939
21
-2.5714
0
LINE
8
BLACK
6
CONTINUOUS
10
2.67711
20
-2.48793
11
2.67711
21
-2.54581
0
LINE
8
BLACK
6
CONTINUOUS
10
2.64817
20
-2.51687
11
2.70604
21
-2.51687
0
LINE
8
BLACK
6
CONTINUOUS
10
2.69295
20
-0.192461
11
2.69295
21
-0.250335
0
LINE
8
BLACK
6
CONTINUOUS
10
2.66402
20
-0.221398
11
2.72189
21
-0.221398
0
LINE
8
BLACK
6
CONTINUOUS
10
2.72583
20
-0.225138
11
2.72583
21
-0.283012
0
LINE
8
BLACK
6
CONTINUOUS
10
2.69689
20
-0.254075
11
2.75476
21
-0.254075
0
LINE
8
BLACK
6
CONTINUOUS
10
2.81795
20
-1.04246
11
2.81795
21
-1.10033
0
LINE
8
BLACK
6
CONTINUOUS
10
2.78902
20
-1.0714
11
2.84689
21
-1.0714
0
LINE
8
BLACK
6
CONTINUOUS
10
2.86461
20
-0.987933
11
2.86461
21
-1.04581
0
LINE
8
BLACK
6
CONTINUOUS
10
2.83567
20
-1.01687
11
2.89354
21
-1.01687
0
LINE
8
BLACK
6
CONTINUOUS
10
2.88045
20
-2.44246
11
2.88045
21
-2.50033
0
LINE
8
BLACK
6
CONTINUOUS
10
2.85152
20
-2.4714
11
2.90939
21
-2.4714
0
LINE
8
BLACK
6
CONTINUOUS
10
2.91333
20
-2.47514
11
2.91333
21
-2.53301
0
LINE
8
BLACK
6
CONTINUOUS
10
2.88439
20
-2.50407
11
2.94226
21
-2.50407
0
LINE
8
BLACK
6
CONTINUOUS
10
3.00545
20
-1.79246
11
3.00545
21
-1.85033
0
LINE
8
BLACK
6
CONTINUOUS
10
2.97652
20
-1.8214
11
3.03439
21
-1.8214
0
LINE
8
BLACK
6
CONTINUOUS
10
3.05211
20
-1.73793
11
3.05211
21
-1.79581
0
LINE
8
BLACK
6
CONTINUOUS
10
3.02317
20
-1.76687
11
3.08104
21
-1.76687
0
LINE
8
BLACK
6
CONTINUOUS
10
3.06795
20
-0.942461
11
3.06795
21
-1.00033
0
LINE
8
BLACK
6
CONTINUOUS
10
3.03902
20
-0.971398
11
3.09689
21
-0.971398
0
LINE
8
BLACK
6
CONTINUOUS
10
3.10083
20
-0.975138
11
3.10083
21
-1.03301
0
LINE
8
BLACK
6
CONTINUOUS
10
3.07189
20
-1.00407
11
3.12976
21
-1.00407
0
LINE
8
BLACK
6
CONTINUOUS
10
3.19295
20
-0.292461
11
3.19295
21
-0.350335
0
LINE
8
BLACK
6
CONTINUOUS
10
3.16402
20
-0.321398
11
3.22189
21
-0.321398
0
LINE
8
BLACK
6
CONTINUOUS
10
3.23961
20
-0.237933
11
3.23961
21
-0.295807
0
LINE
8
BLACK
6
CONTINUOUS
10
3.21067
20
-0.26687
11
3.26854
21
-0.26687
0
LINE
8
BLACK
6
CONTINUOUS
10
3.25545
20
-1.69246
11
3.25545
21
-1.75033
0
LINE
8
BLACK
6
CONTINUOUS
10
3.22652
20
-1.7214
11
3.28439
21
-1.7214
0
LINE
8
BLACK
6
CONTINUOUS
10
3.28833
20
-1.72514
11
3.28833
21
-1.78301
0
LINE
8
BLACK
6
CONTINUOUS
10
3.25939
20
-1.75407
11
3.31726
21
-1.75407
0
LINE
8
BLACK
6
CONTINUOUS
10
3.38045
20
-2.54246
11
3.38045
21
-2.60033
0
LINE
8
BLACK
6
CONTINUOUS
10
3.35152
20
-2.5714
11
3.40939
21
-2.5714
0
LINE
8
BLACK
6
CONTINUOUS
10
3.42711
20
-2.48793
11
3.42711
21
-2.54581
0
LINE
8
BLACK
6
CONTINUOUS
10
3.39817
20
-2.51687
11
3.45604
21
-2.51687
0
LINE
8
BLACK
6
CONTINUOUS
10
3.44295
20
-0.192461
11
3.44295
21
-0.250335
0
LINE
8
BLACK
6
CONTINUOUS
10
3.41402
20
-0.221398
11
3.47189
21
-0.221398
0
LINE
8
BLACK
6
CONTINUOUS
10
3.47583
20
-0.225138
11
3.47583
21
-0.283012
0
LINE
8
BLACK
6
CONTINUOUS
10
3.44689
20
-0.254075
11
3.50476
21
-0.254075
0
LINE
8
BLACK
6
CONTINUOUS
10
3.56795
20
-1.04246
11
3.56795
21
-1.10033
0
LINE
8
BLACK
6
CONTINUOUS
10
3.53902
20
-1.0714
11
3.59689
21
-1.0714
0
LINE
8
BLACK
6
CONTINUOUS
10
3.61461
20
-0.987933
11
3.61461
21
-1.04581
0
LINE
8
BLACK
6
CONTINUOUS
10
3.58567
20
-1.01687
11
3.64354
21
-1.01687
0
LINE
8
BLACK
6
CONTINUOUS
10
3.63045
20
-2.44246
11
3.63045
21
-2.50033
0
LINE
8
BLACK
6
CONTINUOUS
10
3.60152
20
-2.4714
11
3.65939
21
-2.4714
0
LINE
8
BLACK
6
CONTINUOUS
10
3.66333
20
-2.47514
11
3.66333
21
-2.53301
0
LINE
8
BLACK
6
CONTINUOUS
10
3.63439
20
-2.50407
11
3.69226
21
-2.50407
0
LINE
8
BLACK
6
CONTINUOUS
10
3.75545
20
-1.79246
11
3.75545
21
-1.85033
0
LINE
8
BLACK
6
CONTINUOUS
10
3.72652
20
-1.8214
11
3.78439
21
-1.8214
0
LINE
8
BLACK
6
CONTINUOUS
10
3.80211
20
-1.73793
11
3.80211
21
-1.79581
0
LINE
8
BLACK
6
CONTINUOUS
10
3.77317
20
-1.76687
11
3.83104
21
-1.76687
0
LINE
8
BLACK
6
CONTINUOUS
10
3.81795
20
-0.942461
11
3.81795
21
-1.00033
0
LINE
8
BLACK
6
CONTINUOUS
10
3.78902
20
-0.971398
11
3.84689
21
-0.971398
0
LINE
8
BLACK
6
CONTINUOUS
10
3.85083
20
-0.975138
11
3.85083
21
-1.03301
0
LINE
8
BLACK
6
CONTINUOUS
10
3.82189
20
-1.00407
11
3.87976
21
-1.00407
0
LINE
8
BLACK
6
CONTINUOUS
10
3.94295
20
-0.292461
11
3.94295
21
-0.350335
0
LINE
8
BLACK
6
CONTINUOUS
10
3.91402
20
-0.321398
11
3.97189
21
-0.321398
0
LINE
8
BLACK
6
CONTINUOUS
10
3.98961
20
-0.237933
11
3.98961
21
-0.295807
0
LINE
8
BLACK
6
CONTINUOUS
10
3.96067
20
-0.26687
11
4.01854
21
-0.26687
0
LINE
8
BLACK
6
CONTINUOUS
10
4.00545
20
-1.69246
11
4.00545
21
-1.75033
0
LINE
8
BLACK
6
CONTINUOUS
10
3.97652
20
-1.7214
11
4.03439
21
-1.7214
0
LINE
8
BLACK
6
CONTINUOUS
10
4.03833
20
-1.72514
11
4.03833
21
-1.78301
0
LINE
8
BLACK
6
CONTINUOUS
10
4.00939
20
-1.75407
11
4.06726
21
-1.75407
0
LINE
8
BLACK
6
CONTINUOUS
10
4.13045
20
-2.54246
11
4.13045
21
-2.60033
0
LINE
8
BLACK
6
CONTINUOUS
10
4.10152
20
-2.5714
11
4.15939
21
-2.5714
0
LINE
8
BLACK
6
CONTINUOUS
10
4.17711
20
-2.48793
11
4.17711
21
-2.54581
0
LINE
8
BLACK
6
CONTINUOUS
10
4.14817
20
-2.51687
11
4.20604
21
-2.51687
0
LINE
8
BLACK
6
CONTINUOUS
10
4.19295
20
-0.192461
11
4.19295
21
-0.250335
0
LINE
8
BLACK
6
CONTINUOUS
10
4.16402
20
-0.221398
11
4.22189
21
-0.221398
0
LINE
8
BLACK
6
CONTINUOUS
10
4.22583
20
-0.225138
11
4.22583
21
-0.283012
0
LINE
8
BLACK
6
CONTINUOUS
10
4.19689
20
-0.254075
11
4.25476
21
-0.254075
0
LINE
8
BLACK
6
CONTINUOUS
10
4.31795
20
-1.04246
11
4.31795
21
-1.10033
0
LINE
8
BLACK
6
CONTINUOUS
10
4.28902
20
-1.0714
11
4.34689
21
-1.0714
0
LINE
8
BLACK
6
CONTINUOUS
10
4.36461
20
-0.987933
11
4.36461
21
-1.04581
0
LINE
8
BLACK
6
CONTINUOUS
10
4.33567
20
-1.01687
11
4.39354
21
-1.01687
0
LINE
8
BLACK
6
CONTINUOUS
10
4.38045
20
-2.44246
11
4.38045
21
-2.50033
0
LINE
8
BLACK
6
CONTINUOUS
10
4.35152
20
-2.4714
11
4.40939
21
-2.4714
0
LINE
8
BLACK
6
CONTINUOUS
10
4.41333
20
-2.47514
11
4.41333
21
-2.53301
0
LINE
8
BLACK
6
CONTINUOUS
10
4.38439
20
-2.50407
11
4.44226
21
-2.50407
0
LINE
8
BLACK
6
CONTINUOUS
10
4.50545
20
-1.79246
11
4.50545
21
-1.85033
0
LINE
8
BLACK
6
CONTINUOUS
10
4.47652
20
-1.8214
11
4.53439
21
-1.8214
0
LINE
8
BLACK
6
CONTINUOUS
10
4.55211
20
-1.73793
11
4.55211
21
-1.79581
0
LINE
8
BLACK
6
CONTINUOUS
10
4.52317
20
-1.76687
11
4.58104
21
-1.76687
0
LINE
8
BLACK
6
CONTINUOUS
10
4.56795
20
-0.942461
11
4.56795
21
-1.00033
0
LINE
8
BLACK
6
CONTINUOUS
10
4.53902
20
-0.971398
11
4.59689
21
-0.971398
0
LINE
8
BLACK
6
CONTINUOUS
10
4.60083
20
-0.975138
11
4.60083
21
-1.03301
0
LINE
8
BLACK
6
CONTINUOUS
10
4.57189
20
-1.00407
11
4.62976
21
-1.00407
0
LINE
8
BLACK
6
CONTINUOUS
10
4.69295
20
-0.292461
11
4.69295
21
-0.350335
0
LINE
8
BLACK
6
CONTINUOUS
10
4.66402
20
-0.321398
11
4.72189
21
-0.321398
0
LINE
8
BLACK
6
CONTINUOUS
10
4.73961
20
-0.237933
11
4.73961
21
-0.295807
0
LINE
8
BLACK
6
CONTINUOUS
10
4.71067
20
-0.26687
11
4.76854
21
-0.26687
0
LINE
8
BLACK
6
CONTINUOUS
10
4.75545
20
-1.69246
11
4.75545
21
-1.75033
0
LINE
8
BLACK
6
CONTINUOUS
10
4.72652
20
-1.7214
11
4.78439
21
-1.7214
0
LINE
8
BLACK
6
CONTINUOUS
10
4.78833
20
-1.72514
11
4.78833
21
-1.78301
0
LINE
8
BLACK
6
CONTINUOUS
10
4.75939
20
-1.75407
11
4.81726
21
-1.75407
0
LINE
8
BLACK
6
CONTINUOUS
10
4.88045
20
-2.54246
11
4.88045
21
-2.60033
0
LINE
8
BLACK
6
CONTINUOUS
10
4.85152
20
-2.5714
11
4.90939
21
-2.5714
0
LINE
8
BLACK
6
CONTINUOUS
10
4.92711
20
-2.48793
11
4.92711
21
-2.54581
0
LINE
8
BLACK
6
CONTINUOUS
10
4.89817
20
-2.51687
11
4.95604
21
-2.51687
0
LINE
8
BLACK
6
CONTINUOUS
10
4.94295
20
-0.192461
11
4.94295
21
-0.250335
0
LINE
8
BLACK
6
CONTINUOUS
10
4.91402
20
-0.221398
11
4.97189
21
-0.221398
0
LINE
8
BLACK
6
CONTINUOUS
10
4.97583
20
-0.225138
11
4.97583
21
-0.283012
0
LINE
8
BLACK
6
CONTINUOUS
10
4.94689
20
-0.254075
11
5.00476
21
-0.254075
0
LINE
8
BLACK
6
CONTINUOUS
10
5.06795
20
-1.04246
11
5.06795
21
-1.10033
0
LINE
8
BLACK
6
CONTINUOUS
10
5.03902
20
-1.0714
11
5.09689
21
-1.0714
0
LINE
8
BLACK
6
CONTINUOUS
10
5.11461
20
-0.987933
11
5.11461
21
-1.04581
0
LINE
8
BLACK
6
CONTINUOUS
10
5.08567
20
-1.01687
11
5.14354
21
-1.01687
0
LINE
8
BLACK
6
CONTINUOUS
10
5.13045
20
-2.44246
11
5.13045
21
-2.50033
0
LINE
8
BLACK
6
CONTINUOUS
10
5.10152
20
-2.4714
11
5.15939
21
-2.4714
0
LINE
8
BLACK
6
CONTINUOUS
10
5.16333
20
-2.47514
11
5.16333
21
-2.53301
0
LINE
8
BLACK
6
CONTINUOUS
10
5.13439
20
-2.50407
11
5.19226
21
-2.50407
0
LINE
8
BLACK
6
CONTINUOUS
10
5.25545
20
-1.79246
11
5.25545
21
-1.85033
0
LINE
8
BLACK
6
CONTINUOUS
10
5.22652
20
-1.8214
11
5.28439
21
-1.8214
0
LINE
8
BLACK
6
CONTINUOUS
10
5.25545
20
-3.29246
11
5.25545
21
-3.35033
0
LINE
8
BLACK
6
CONTINUOUS
10
5.22652
20
-3.3214
11
5.28439
21
-3.3214
0
LINE
8
BLACK
6
CONTINUOUS
10
5.30211
20
-1.73793
11
5.30211
21
-1.79581
0
LINE
8
BLACK
6
CONTINUOUS
10
5.27317
20
-1.76687
11
5.33104
21
-1.76687
0
LINE
8
BLACK
6
CONTINUOUS
10
5.30703
20
-3.23498
11
5.30703
21
-3.29285
0
LINE
8
BLACK
6
CONTINUOUS
10
5.27809
20
-3.26392
11
5.33596
21
-3.26392
0
LINE
8
BLACK
6
CONTINUOUS
10
5.31795
20
-0.942461
11
5.31795
21
-1.00033
0
LINE
8
BLACK
6
CONTINUOUS
10
5.28902
20
-0.971398
11
5.34689
21
-0.971398
0
LINE
8
BLACK
6
CONTINUOUS
10
5.35083
20
-0.975138
11
5.35083
21
-1.03301
0
LINE
8
BLACK
6
CONTINUOUS
10
5.32189
20
-1.00407
11
5.37976
21
-1.00407
0
LINE
8
BLACK
6
CONTINUOUS
10
5.44295
20
-0.292461
11
5.44295
21
-0.350335
0
LINE
8
BLACK
6
CONTINUOUS
10
5.41402
20
-0.321398
11
5.47189
21
-0.321398
0
LINE
8
BLACK
6
CONTINUOUS
10
5.48961
20
-0.237933
11
5.48961
21
-0.295807
0
LINE
8
BLACK
6
CONTINUOUS
10
5.46067
20
-0.26687
11
5.51854
21
-0.26687
0
LINE
8
BLACK
6
CONTINUOUS
10
5.50388
20
-3.2153
11
5.50388
21
-3.27317
0
LINE
8
BLACK
6
CONTINUOUS
10
5.47494
20
-3.24423
11
5.53281
21
-3.24423
0
LINE
8
BLACK
6
CONTINUOUS
10
5.50545
20
-1.69246
11
5.50545
21
-1.75033
0
LINE
8
BLACK
6
CONTINUOUS
10
5.47652
20
-1.7214
11
5.53439
21
-1.7214
0
LINE
8
BLACK
6
CONTINUOUS
10
5.50545
20
-3.19246
11
5.50545
21
-3.25033
0
LINE
8
BLACK
6
CONTINUOUS
10
5.47652
20
-3.2214
11
5.53439
21
-3.2214
0
LINE
8
BLACK
6
CONTINUOUS
10
5.53833
20
-1.72514
11
5.53833
21
-1.78301
0
LINE
8
BLACK
6
CONTINUOUS
10
5.50939
20
-1.75407
11
5.56726
21
-1.75407
0
LINE
8
BLACK
6
CONTINUOUS
10
5.63045
20
-2.54246
11
5.63045
21
-2.60033
0
LINE
8
BLACK
6
CONTINUOUS
10
5.60152
20
-2.5714
11
5.65939
21
-2.5714
0
LINE
8
BLACK
6
CONTINUOUS
10
5.67711
20
-2.48793
11
5.67711
21
-2.54581
0
LINE
8
BLACK
6
CONTINUOUS
10
5.64817
20
-2.51687
11
5.70604
21
-2.51687
0
LINE
8
BLACK
6
CONTINUOUS
10
5.69295
20
-0.192461
11
5.69295
21
-0.250335
0
LINE
8
BLACK
6
CONTINUOUS
10
5.66402
20
-0.221398
11
5.72189
21
-0.221398
0
LINE
8
BLACK
6
CONTINUOUS
10
5.72583
20
-0.225138
11
5.72583
21
-0.283012
0
LINE
8
BLACK
6
CONTINUOUS
10
5.69689
20
-0.254075
11
5.75476
21
-0.254075
0
LINE
8
BLACK
6
CONTINUOUS
10
5.81795
20
-1.04246
11
5.81795
21
-1.10033
0
LINE
8
BLACK
6
CONTINUOUS
10
5.78902
20
-1.0714
11
5.84689
21
-1.0714
0
LINE
8
BLACK
6
CONTINUOUS
10
5.86461
20
-0.987933
11
5.86461
21
-1.04581
0
LINE
8
BLACK
6
CONTINUOUS
10
5.83567
20
-1.01687
11
5.89354
21
-1.01687
0
LINE
8
BLACK
6
CONTINUOUS
10
5.88045
20
-2.44246
11
5.88045
21
-2.50033
0
LINE
8
BLACK
6
CONTINUOUS
10
5.85152
20
-2.4714
11
5.90939
21
-2.4714
0
LINE
8
BLACK
6
CONTINUOUS
10
5.91333
20
-2.47514
11
5.91333
21
-2.53301
0
LINE
8
BLACK
6
CONTINUOUS
10
5.88439
20
-2.50407
11
5.94226
21
-2.50407
0
LINE
8
BLACK
6
CONTINUOUS
10
6.00545
20
-1.79246
11
6.00545
21
-1.85033
0
LINE
8
BLACK
6
CONTINUOUS
10
5.97652
20
-1.8214
11
6.03439
21
-1.8214
0
LINE
8
BLACK
6
CONTINUOUS
10
6.05211
20
-1.73793
11
6.05211
21
-1.79581
0
LINE
8
BLACK
6
CONTINUOUS
10
6.02317
20
-1.76687
11
6.08104
21
-1.76687
0
LINE
8
BLACK
6
CONTINUOUS
10
6.06795
20
-0.942461
11
6.06795
21
-1.00033
0
LINE
8
BLACK
6
CONTINUOUS
10
6.03902
20
-0.971398
11
6.09689
21
-0.971398
0
LINE
8
BLACK
6
CONTINUOUS
10
6.10083
20
-0.975138
11
6.10083
21
-1.03301
0
LINE
8
BLACK
6
CONTINUOUS
10
6.07189
20
-1.00407
11
6.12976
21
-1.00407
0
LINE
8
BLACK
6
CONTINUOUS
10
6.19295
20
-0.292461
11
6.19295
21
-0.350335
0
LINE
8
BLACK
6
CONTINUOUS
10
6.16402
20
-0.321398
11
6.22189
21
-0.321398
0
LINE
8
BLACK
6
CONTINUOUS
10
6.23961
20
-0.237933
11
6.23961
21
-0.295807
0
LINE
8
BLACK
6
CONTINUOUS
10
6.21067
20
-0.26687
11
6.26854
21
-0.26687
0
LINE
8
BLACK
6
CONTINUOUS
10
6.25545
20
-1.69246
11
6.25545
21
-1.75033
0
LINE
8
BLACK
6
CONTINUOUS
10
6.22652
20
-1.7214
11
6.28439
21
-1.7214
0
LINE
8
BLACK
6
CONTINUOUS
10
6.28833
20
-1.72514
11
6.28833
21
-1.78301
0
LINE
8
BLACK
6
CONTINUOUS
10
6.25939
20
-1.75407
11
6.31726
21
-1.75407
0
LINE
8
BLACK
6
CONTINUOUS
10
6.38045
20
-2.54246
11
6.38045
21
-2.60033
0
LINE
8
BLACK
6
CONTINUOUS
10
6.35152
20
-2.5714
11
6.40939
21
-2.5714
0
LINE
8
BLACK
6
CONTINUOUS
10
6.42711
20
-2.48793
11
6.42711
21
-2.54581
0
LINE
8
BLACK
6
CONTINUOUS
10
6.39817
20
-2.51687
11
6.45604
21
-2.51687
0
LINE
8
BLACK
6
CONTINUOUS
10
6.44295
20
-0.192461
11
6.44295
21
-0.250335
0
LINE
8
BLACK
6
CONTINUOUS
10
6.41402
20
-0.221398
11
6.47189
21
-0.221398
0
LINE
8
BLACK
6
CONTINUOUS
10
6.47583
20
-0.225138
11
6.47583
21
-0.283012
0
LINE
8
BLACK
6
CONTINUOUS
10
6.44689
20
-0.254075
11
6.50476
21
-0.254075
0
LINE
8
BLACK
6
CONTINUOUS
10
6.56795
20
-1.04246
11
6.56795
21
-1.10033
0
LINE
8
BLACK
6
CONTINUOUS
10
6.53902
20
-1.0714
11
6.59689
21
-1.0714
0
LINE
8
BLACK
6
CONTINUOUS
10
6.61461
20
-0.987933
11
6.61461
21
-1.04581
0
LINE
8
BLACK
6
CONTINUOUS
10
6.58567
20
-1.01687
11
6.64354
21
-1.01687
0
LINE
8
BLACK
6
CONTINUOUS
10
6.63045
20
-2.44246
11
6.63045
21
-2.50033
0
LINE
8
BLACK
6
CONTINUOUS
10
6.60152
20
-2.4714
11
6.65939
21
-2.4714
0
LINE
8
BLACK
6
CONTINUOUS
10
6.66333
20
-2.47514
11
6.66333
21
-2.53301
0
LINE
8
BLACK
6
CONTINUOUS
10
6.63439
20
-2.50407
11
6.69226
21
-2.50407
0
LINE
8
BLACK
6
CONTINUOUS
10
6.75545
20
-1.79246
11
6.75545
21
-1.85033
0
LINE
8
BLACK
6
CONTINUOUS
10
6.72652
20
-1.8214
11
6.78439
21
-1.8214
0
LINE
8
BLACK
6
CONTINUOUS
10
6.80211
20
-1.73793
11
6.80211
21
-1.79581
0
LINE
8
BLACK
6
CONTINUOUS
10
6.77317
20
-1.76687
11
6.83104
21
-1.76687
0
LINE
8
BLACK
6
CONTINUOUS
10
6.81795
20
-0.942461
11
6.81795
21
-1.00033
0
LINE
8
BLACK
6
CONTINUOUS
10
6.78902
20
-0.971398
11
6.84689
21
-0.971398
0
LINE
8
BLACK
6
CONTINUOUS
10
6.85083
20
-0.975138
11
6.85083
21
-1.03301
0
LINE
8
BLACK
6
CONTINUOUS
10
6.82189
20
-1.00407
11
6.87976
21
-1.00407
0
LINE
8
BLACK
6
CONTINUOUS
10
6.94295
20
-0.292461
11
6.94295
21
-0.350335
0
LINE
8
BLACK
6
CONTINUOUS
10
6.91402
20
-0.321398
11
6.97189
21
-0.321398
0
LINE
8
BLACK
6
CONTINUOUS
10
6.98961
20
-0.237933
11
6.98961
21
-0.295807
0
LINE
8
BLACK
6
CONTINUOUS
10
6.96067
20
-0.26687
11
7.01854
21
-0.26687
0
LINE
8
BLACK
6
CONTINUOUS
10
7.00545
20
-1.69246
11
7.00545
21
-1.75033
0
LINE
8
BLACK
6
CONTINUOUS
10
6.97652
20
-1.7214
11
7.03439
21
-1.7214
0
LINE
8
BLACK
6
CONTINUOUS
10
7.03833
20
-1.72514
11
7.03833
21
-1.78301
0
LINE
8
BLACK
6
CONTINUOUS
10
7.00939
20
-1.75407
11
7.06726
21
-1.75407
0
LINE
8
BLACK
6
CONTINUOUS
10
7.13045
20
-2.54246
11
7.13045
21
-2.60033
0
LINE
8
BLACK
6
CONTINUOUS
10
7.10152
20
-2.5714
11
7.15939
21
-2.5714
0
LINE
8
BLACK
6
CONTINUOUS
10
7.17711
20
-2.48793
11
7.17711
21
-2.54581
0
LINE
8
BLACK
6
CONTINUOUS
10
7.14817
20
-2.51687
11
7.20604
21
-2.51687
0
LINE
8
BLACK
6
CONTINUOUS
10
7.19295
20
-0.192461
11
7.19295
21
-0.250335
0
LINE
8
BLACK
6
CONTINUOUS
10
7.16402
20
-0.221398
11
7.22189
21
-0.221398
0
LINE
8
BLACK
6
CONTINUOUS
10
7.22583
20
-0.225138
11
7.22583
21
-0.283012
0
LINE
8
BLACK
6
CONTINUOUS
10
7.19689
20
-0.254075
11
7.25476
21
-0.254075
0
LINE
8
BLACK
6
CONTINUOUS
10
7.31795
20
-1.04246
11
7.31795
21
-1.10033
0
LINE
8
BLACK
6
CONTINUOUS
10
7.28902
20
-1.0714
11
7.34689
21
-1.0714
0
LINE
8
BLACK
6
CONTINUOUS
10
7.36461
20
-0.987933
11
7.36461
21
-1.04581
0
LINE
8
BLACK
6
CONTINUOUS
10
7.33567
20
-1.01687
11
7.39354
21
-1.01687
0
LINE
8
BLACK
6
CONTINUOUS
10
7.38045
20
-2.44246
11
7.38045
21
-2.50033
0
LINE
8
BLACK
6
CONTINUOUS
10
7.35152
20
-2.4714
11
7.40939
21
-2.4714
0
LINE
8
BLACK
6
CONTINUOUS
10
7.41333
20
-2.47514
11
7.41333
21
-2.53301
0
LINE
8
BLACK
6
CONTINUOUS
10
7.38439
20
-2.50407
11
7.44226
21
-2.50407
0
LINE
8
BLACK
6
CONTINUOUS
10
7.50545
20
-1.79246
11
7.50545
21
-1.85033
0
LINE
8
BLACK
6
CONTINUOUS
10
7.47652
20
-1.8214
11
7.53439
21
-1.8214
0
LINE
8
BLACK
6
CONTINUOUS
10
7.55211
20
-1.73793
11
7.55211
21
-1.79581
0
LINE
8
BLACK
6
CONTINUOUS
10
7.52317
20
-1.76687
11
7.58104
21
-1.76687
0
LINE
8
BLACK
6
CONTINUOUS
10
7.56795
20
-0.942461
11
7.56795
21
-1.00033
0
LINE
8
BLACK
6
CONTINUOUS
10
7.53902
20
-0.971398
11
7.59689
21
-0.971398
0
LINE
8
BLACK
6
CONTINUOUS
10
7.60083
20
-0.975138
11
7.60083
21
-1.03301
0
LINE
8
BLACK
6
CONTINUOUS
10
7.57189
20
-1.00407
11
7.62976
21
-1.00407
0
LINE
8
BLACK
6
CONTINUOUS
10
7.69295
20
-0.292461
11
7.69295
21
-0.350335
0
LINE
8
BLACK
6
CONTINUOUS
10
7.66402
20
-0.321398
11
7.72189
21
-0.321398
0
LINE
8
BLACK
6
CONTINUOUS
10
7.73961
20
-0.237933
11
7.73961
21
-0.295807
0
LINE
8
BLACK
6
CONTINUOUS
10
7.71067
20
-0.26687
11
7.76854
21
-0.26687
0
LINE
8
BLACK
6
CONTINUOUS
10
7.75545
20
-1.69246
11
7.75545
21
-1.75033
0
LINE
8
BLACK
6
CONTINUOUS
10
7.72652
20
-1.7214
11
7.78439
21
-1.7214
0
LINE
8
BLACK
6
CONTINUOUS
10
7.78833
20
-1.72514
11
7.78833
21
-1.78301
0
LINE
8
BLACK
6
CONTINUOUS
10
7.75939
20
-1.75407
11
7.81726
21
-1.75407
0
LINE
8
BLACK
6
CONTINUOUS
10
7.88045
20
-2.54246
11
7.88045
21
-2.60033
0
LINE
8
BLACK
6
CONTINUOUS
10
7.85152
20
-2.5714
11
7.90939
21
-2.5714
0
LINE
8
BLACK
6
CONTINUOUS
10
7.92711
20
-2.48793
11
7.92711
21
-2.54581
0
LINE
8
BLACK
6
CONTINUOUS
10
7.89817
20
-2.51687
11
7.95604
21
-2.51687
0
LINE
8
BLACK
6
CONTINUOUS
10
7.94295
20
-0.192461
11
7.94295
21
-0.250335
0
LINE
8
BLACK
6
CONTINUOUS
10
7.91402
20
-0.221398
11
7.97189
21
-0.221398
0
LINE
8
BLACK
6
CONTINUOUS
10
7.97583
20
-0.225138
11
7.97583
21
-0.283012
0
LINE
8
BLACK
6
CONTINUOUS
10
7.94689
20
-0.254075
11
8.00476
21
-0.254075
0
LINE
8
BLACK
6
CONTINUOUS
10
8.06795
20
-1.04246
11
8.06795
21
-1.10033
0
LINE
8
BLACK
6
CONTINUOUS
10
8.03902
20
-1.0714
11
8.09689
21
-1.0714
0
LINE
8
BLACK
6
CONTINUOUS
10
8.11461
20
-0.987933
11
8.11461
21
-1.04581
0
LINE
8
BLACK
6
CONTINUOUS
10
8.08567
20
-1.01687
11
8.14354
21
-1.01687
0
LINE
8
BLACK
6
CONTINUOUS
10
8.13045
20
-2.44246
11
8.13045
21
-2.50033
0
LINE
8
BLACK
6
CONTINUOUS
10
8.10152
20
-2.4714
11
8.15939
21
-2.4714
0
LINE
8
BLACK
6
CONTINUOUS
10
8.16333
20
-2.47514
11
8.16333
21
-2.53301
0
LINE
8
BLACK
6
CONTINUOUS
10
8.13439
20
-2.50407
11
8.19226
21
-2.50407
0
LINE
8
BLACK
6
CONTINUOUS
10
8.25545
20
-1.79246
11
8.25545
21
-1.85033
0
LINE
8
BLACK
6
CONTINUOUS
10
8.22652
20
-1.8214
11
8.28439
21
-1.8214
0
LINE
8
BLACK
6
CONTINUOUS
10
8.25545
20
-3.29246
11
8.25545
21
-3.35033
0
LINE
8
BLACK
6
CONTINUOUS
10
8.22652
20
-3.3214
11
8.28439
21
-3.3214
0
LINE
8
BLACK
6
CONTINUOUS
10
8.30211
20
-1.73793
11
8.30211
21
-1.79581
0
LINE
8
BLACK
6
CONTINUOUS
10
8.27317
20
-1.76687
11
8.33104
21
-1.76687
0
LINE
8
BLACK
6
CONTINUOUS
10
8.30211
20
-3.23793
11
8.30211
21
-3.29581
0
LINE
8
BLACK
6
CONTINUOUS
10
8.27317
20
-3.26687
11
8.33104
21
-3.26687
0
LINE
8
BLACK
6
CONTINUOUS
10
8.31795
20
-0.942461
11
8.31795
21
-1.00033
0
LINE
8
BLACK
6
CONTINUOUS
10
8.28902
20
-0.971398
11
8.34689
21
-0.971398
0
LINE
8
BLACK
6
CONTINUOUS
10
8.35083
20
-0.975138
11
8.35083
21
-1.03301
0
LINE
8
BLACK
6
CONTINUOUS
10
8.32189
20
-1.00407
11
8.37976
21
-1.00407
0
LINE
8
BLACK
6
CONTINUOUS
10
8.44295
20
-0.292461
11
8.44295
21
-0.350335
0
LINE
8
BLACK
6
CONTINUOUS
10
8.41402
20
-0.321398
11
8.47189
21
-0.321398
0
LINE
8
BLACK
6
CONTINUOUS
10
8.48961
20
-0.237933
11
8.48961
21
-0.295807
0
LINE
8
BLACK
6
CONTINUOUS
10
8.46067
20
-0.26687
11
8.51854
21
-0.26687
0
LINE
8
BLACK
6
CONTINUOUS
10
8.50545
20
-1.69246
11
8.50545
21
-1.75033
0
LINE
8
BLACK
6
CONTINUOUS
10
8.47652
20
-1.7214
11
8.53439
21
-1.7214
0
LINE
8
BLACK
6
CONTINUOUS
10
8.50545
20
-3.19246
11
8.50545
21
-3.25033
0
LINE
8
BLACK
6
CONTINUOUS
10
8.47652
20
-3.2214
11
8.53439
21
-3.2214
0
LINE
8
BLACK
6
CONTINUOUS
10
8.53833
20
-1.72514
11
8.53833
21
-1.78301
0
LINE
8
BLACK
6
CONTINUOUS
10
8.50939
20
-1.75407
11
8.56726
21
-1.75407
0
LINE
8
BLACK
6
CONTINUOUS
10
8.53833
20
-3.22514
11
8.53833
21
-3.28301
0
LINE
8
BLACK
6
CONTINUOUS
10
8.50939
20
-3.25407
11
8.56726
21
-3.25407
0
LINE
8
BLACK
6
CONTINUOUS
10
8.63045
20
-2.54246
11
8.63045
21
-2.60033
0
LINE
8
BLACK
6
CONTINUOUS
10
8.60152
20
-2.5714
11
8.65939
21
-2.5714
0
LINE
8
BLACK
6
CONTINUOUS
10
8.67711
20
-2.48793
11
8.67711
21
-2.54581
0
LINE
8
BLACK
6
CONTINUOUS
10
8.64817
20
-2.51687
11
8.70604
21
-2.51687
0
LINE
8
BLACK
6
CONTINUOUS
10
8.69295
20
-0.192461
11
8.69295
21
-0.250335
0
LINE
8
BLACK
6
CONTINUOUS
10
8.66402
20
-0.221398
11
8.72189
21
-0.221398
0
LINE
8
BLACK
6
CONTINUOUS
10
8.72583
20
-0.225138
11
8.72583
21
-0.283012
0
LINE
8
BLACK
6
CONTINUOUS
10
8.69689
20
-0.254075
11
8.75476
21
-0.254075
0
LINE
8
BLACK
6
CONTINUOUS
10
8.81795
20
-1.04246
11
8.81795
21
-1.10033
0
LINE
8
BLACK
6
CONTINUOUS
10
8.78902
20
-1.0714
11
8.84689
21
-1.0714
0
LINE
8
BLACK
6
CONTINUOUS
10
8.86461
20
-0.987933
11
8.86461
21
-1.04581
0
LINE
8
BLACK
6
CONTINUOUS
10
8.83567
20
-1.01687
11
8.89354
21
-1.01687
0
LINE
8
BLACK
6
CONTINUOUS
10
8.88045
20
-2.44246
11
8.88045
21
-2.50033
0
LINE
8
BLACK
6
CONTINUOUS
10
8.85152
20
-2.4714
11
8.90939
21
-2.4714
0
LINE
8
BLACK
6
CONTINUOUS
10
8.91333
20
-2.47514
11
8.91333
21
-2.53301
0
LINE
8
BLACK
6
CONTINUOUS
10
8.88439
20
-2.50407
11
8.94226
21
-2.50407
0
LINE
8
BLACK
6
CONTINUOUS
10
9.00545
20
-1.79246
11
9.00545
21
-1.85033
0
LINE
8
BLACK
6
CONTINUOUS
10
8.97652
20
-1.8214
11
9.03439
21
-1.8214
0
LINE
8
BLACK
6
CONTINUOUS
10
9.05211
20
-1.73793
11
9.05211
21
-1.79581
0
LINE
8
BLACK
6
CONTINUOUS
10
9.02317
20
-1.76687
11
9.08104
21
-1.76687
0
LINE
8
BLACK
6
CONTINUOUS
10
9.06795
20
-0.942461
11
9.06795
21
-1.00033
0
LINE
8
BLACK
6
CONTINUOUS
10
9.03902
20
-0.971398
11
9.09689
21
-0.971398
0
LINE
8
BLACK
6
CONTINUOUS
10
9.10083
20
-0.975138
11
9.10083
21
-1.03301
0
LINE
8
BLACK
6
CONTINUOUS
10
9.07189
20
-1.00407
11
9.12976
21
-1.00407
0
LINE
8
BLACK
6
CONTINUOUS
10
9.19295
20
-0.292461
11
9.19295
21
-0.350335
0
LINE
8
BLACK
6
CONTINUOUS
10
9.16402
20
-0.321398
11
9.22189
21
-0.321398
0
LINE
8
BLACK
6
CONTINUOUS
10
9.19295
20
-3.29246
11
9.19295
21
-3.35033
0
LINE
8
BLACK
6
CONTINUOUS
10
9.16402
20
-3.3214
11
9.22189
21
-3.3214
0
LINE
8
BLACK
6
CONTINUOUS
10
9.23961
20
-0.237933
11
9.23961
21
-0.295807
0
LINE
8
BLACK
6
CONTINUOUS
10
9.21067
20
-0.26687
11
9.26854
21
-0.26687
0
LINE
8
BLACK
6
CONTINUOUS
10
9.23961
20
-3.23793
11
9.23961
21
-3.29581
0
LINE
8
BLACK
6
CONTINUOUS
10
9.21067
20
-3.26687
11
9.26854
21
-3.26687
0
LINE
8
BLACK
6
CONTINUOUS
10
9.25545
20
-1.69246
11
9.25545
21
-1.75033
0
LINE
8
BLACK
6
CONTINUOUS
10
9.22652
20
-1.7214
11
9.28439
21
-1.7214
0
LINE
8
BLACK
6
CONTINUOUS
10
9.28833
20
-1.72514
11
9.28833
21
-1.78301
0
LINE
8
BLACK
6
CONTINUOUS
10
9.25939
20
-1.75407
11
9.31726
21
-1.75407
0
LINE
8
BLACK
6
CONTINUOUS
10
9.44295
20
-0.192461
11
9.44295
21
-0.250335
0
LINE
8
BLACK
6
CONTINUOUS
10
9.41402
20
-0.221398
11
9.47189
21
-0.221398
0
LINE
8
BLACK
6
CONTINUOUS
10
9.44295
20
-3.19246
11
9.44295
21
-3.25033
0
LINE
8
BLACK
6
CONTINUOUS
10
9.41402
20
-3.2214
11
9.47189
21
-3.2214
0
LINE
8
BLACK
6
CONTINUOUS
10
9.47583
20
-0.225138
11
9.47583
21
-0.283012
0
LINE
8
BLACK
6
CONTINUOUS
10
9.44689
20
-0.254075
11
9.50476
21
-0.254075
0
LINE
8
BLACK
6
CONTINUOUS
10
9.47583
20
-3.22514
11
9.47583
21
-3.28301
0
LINE
8
BLACK
6
CONTINUOUS
10
9.44689
20
-3.25407
11
9.50476
21
-3.25407
0
LINE
8
BLACK
6
CONTINUOUS
10
9.56795
20
-1.04246
11
9.56795
21
-1.10033
0
LINE
8
BLACK
6
CONTINUOUS
10
9.53902
20
-1.0714
11
9.59689
21
-1.0714
0
LINE
8
BLACK
6
CONTINUOUS
10
9.61461
20
-0.987933
11
9.61461
21
-1.04581
0
LINE
8
BLACK
6
CONTINUOUS
10
9.58567
20
-1.01687
11
9.64354
21
-1.01687
0
LINE
8
BLACK
6
CONTINUOUS
10
9.6617
20
-2.54246
11
9.6617
21
-2.60033
0
LINE
8
BLACK
6
CONTINUOUS
10
9.63277
20
-2.5714
11
9.69064
21
-2.5714
0
LINE
8
BLACK
6
CONTINUOUS
10
9.70836
20
-2.48793
11
9.70836
21
-2.54581
0
LINE
8
BLACK
6
CONTINUOUS
10
9.67942
20
-2.51687
11
9.73729
21
-2.51687
0
LINE
8
BLACK
6
CONTINUOUS
10
9.81795
20
-0.942461
11
9.81795
21
-1.00033
0
LINE
8
BLACK
6
CONTINUOUS
10
9.78902
20
-0.971398
11
9.84689
21
-0.971398
0
LINE
8
BLACK
6
CONTINUOUS
10
9.85083
20
-0.975138
11
9.85083
21
-1.03301
0
LINE
8
BLACK
6
CONTINUOUS
10
9.82189
20
-1.00407
11
9.87976
21
-1.00407
0
LINE
8
BLACK
6
CONTINUOUS
10
9.9117
20
-2.44246
11
9.9117
21
-2.50033
0
LINE
8
BLACK
6
CONTINUOUS
10
9.88277
20
-2.4714
11
9.94064
21
-2.4714
0
LINE
8
BLACK
6
CONTINUOUS
10
9.94295
20
-0.292461
11
9.94295
21
-0.350335
0
LINE
8
BLACK
6
CONTINUOUS
10
9.91402
20
-0.321398
11
9.97189
21
-0.321398
0
LINE
8
BLACK
6
CONTINUOUS
10
9.94458
20
-2.47514
11
9.94458
21
-2.53301
0
LINE
8
BLACK
6
CONTINUOUS
10
9.91564
20
-2.50407
11
9.97351
21
-2.50407
0
LINE
8
BLACK
6
CONTINUOUS
10
9.98961
20
-0.237933
11
9.98961
21
-0.295807
0
LINE
8
BLACK
6
CONTINUOUS
10
9.96067
20
-0.26687
11
10.0185
21
-0.26687
0
LINE
8
BLACK
6
CONTINUOUS
10
10.193
20
-0.192461
11
10.193
21
-0.250335
0
LINE
8
BLACK
6
CONTINUOUS
10
10.164
20
-0.221398
11
10.2219
21
-0.221398
0
LINE
8
BLACK
6
CONTINUOUS
10
10.2242
20
-1.79246
11
10.2242
21
-1.85033
0
LINE
8
BLACK
6
CONTINUOUS
10
10.1953
20
-1.8214
11
10.2531
21
-1.8214
0
LINE
8
BLACK
6
CONTINUOUS
10
10.2258
20
-0.225138
11
10.2258
21
-0.283012
0
LINE
8
BLACK
6
CONTINUOUS
10
10.1969
20
-0.254075
11
10.2548
21
-0.254075
0
LINE
8
BLACK
6
CONTINUOUS
10
10.2709
20
-1.73793
11
10.2709
21
-1.79581
0
LINE
8
BLACK
6
CONTINUOUS
10
10.2419
20
-1.76687
11
10.2998
21
-1.76687
0
LINE
8
BLACK
6
CONTINUOUS
10
10.4742
20
-1.69246
11
10.4742
21
-1.75033
0
LINE
8
BLACK
6
CONTINUOUS
10
10.4453
20
-1.7214
11
10.5031
21
-1.7214
0
LINE
8
BLACK
6
CONTINUOUS
10
10.5055
20
-1.04246
11
10.5055
21
-1.10033
0
LINE
8
BLACK
6
CONTINUOUS
10
10.4765
20
-1.0714
11
10.5344
21
-1.0714
0
LINE
8
BLACK
6
CONTINUOUS
10
10.5071
20
-1.72514
11
10.5071
21
-1.78301
0
LINE
8
BLACK
6
CONTINUOUS
10
10.4781
20
-1.75407
11
10.536
21
-1.75407
0
LINE
8
BLACK
6
CONTINUOUS
10
10.5521
20
-0.987933
11
10.5521
21
-1.04581
0
LINE
8
BLACK
6
CONTINUOUS
10
10.5232
20
-1.01687
11
10.581
21
-1.01687
0
LINE
8
BLACK
6
CONTINUOUS
10
10.693
20
-0.292461
11
10.693
21
-0.350335
0
LINE
8
BLACK
6
CONTINUOUS
10
10.664
20
-0.321398
11
10.7219
21
-0.321398
0
LINE
8
BLACK
6
CONTINUOUS
10
10.693
20
-2.54246
11
10.693
21
-2.60033
0
LINE
8
BLACK
6
CONTINUOUS
10
10.664
20
-2.5714
11
10.7219
21
-2.5714
0
LINE
8
BLACK
6
CONTINUOUS
10
10.7396
20
-0.237933
11
10.7396
21
-0.295807
0
LINE
8
BLACK
6
CONTINUOUS
10
10.7107
20
-0.26687
11
10.7685
21
-0.26687
0
LINE
8
BLACK
6
CONTINUOUS
10
10.7396
20
-2.48793
11
10.7396
21
-2.54581
0
LINE
8
BLACK
6
CONTINUOUS
10
10.7107
20
-2.51687
11
10.7685
21
-2.51687
0
LINE
8
BLACK
6
CONTINUOUS
10
10.7555
20
-0.942461
11
10.7555
21
-1.00033
0
LINE
8
BLACK
6
CONTINUOUS
10
10.7265
20
-0.971398
11
10.7844
21
-0.971398
0
LINE
8
BLACK
6
CONTINUOUS
10
10.7883
20
-0.975138
11
10.7883
21
-1.03301
0
LINE
8
BLACK
6
CONTINUOUS
10
10.7594
20
-1.00407
11
10.8173
21
-1.00407
0
LINE
8
BLACK
6
CONTINUOUS
10
10.943
20
-0.192461
11
10.943
21
-0.250335
0
LINE
8
BLACK
6
CONTINUOUS
10
10.914
20
-0.221398
11
10.9719
21
-0.221398
0
LINE
8
BLACK
6
CONTINUOUS
10
10.943
20
-2.44246
11
10.943
21
-2.50033
0
LINE
8
BLACK
6
CONTINUOUS
10
10.914
20
-2.4714
11
10.9719
21
-2.4714
0
LINE
8
BLACK
6
CONTINUOUS
10
10.9758
20
-0.225138
11
10.9758
21
-0.283012
0
LINE
8
BLACK
6
CONTINUOUS
10
10.9469
20
-0.254075
11
11.0048
21
-0.254075
0
LINE
8
BLACK
6
CONTINUOUS
10
10.9758
20
-2.47514
11
10.9758
21
-2.53301
0
LINE
8
BLACK
6
CONTINUOUS
10
10.9469
20
-2.50407
11
11.0048
21
-2.50407
0
LINE
8
BLACK
6
CONTINUOUS
10
0.211343
20
-0.293725
11
0.211343
21
-0.238047
0
LINE
8
BLACK
6
CONTINUOUS
10
0.211343
20
-0.238047
11
0.155665
21
-0.238047
0
LINE
8
BLACK
6
CONTINUOUS
10
0.155665
20
-0.238047
11
0.155665
21
-0.293725
0
LINE
8
BLACK
6
CONTINUOUS
10
0.155665
20
-0.293725
11
0.211343
21
-0.293725
0
LINE
8
BLACK
6
CONTINUOUS
10
0.398843
20
-1.04372
11
0.398843
21
-0.988047
0
LINE
8
BLACK
6
CONTINUOUS
10
0.398843
20
-0.988047
11
0.343165
21
-0.988047
0
LINE
8
BLACK
6
CONTINUOUS
10
0.343165
20
-0.988047
11
0.343165
21
-1.04372
0
LINE
8
BLACK
6
CONTINUOUS
10
0.343165
20
-1.04372
11
0.398843
21
-1.04372
0
LINE
8
BLACK
6
CONTINUOUS
10
0.492593
20
-1.79372
11
0.492593
21
-1.73805
0
LINE
8
BLACK
6
CONTINUOUS
10
0.492593
20
-1.73805
11
0.436915
21
-1.73805
0
LINE
8
BLACK
6
CONTINUOUS
10
0.436915
20
-1.73805
11
0.436915
21
-1.79372
0
LINE
8
BLACK
6
CONTINUOUS
10
0.436915
20
-1.79372
11
0.492593
21
-1.79372
0
LINE
8
BLACK
6
CONTINUOUS
10
0.526304
20
-0.254355
11
0.526304
21
-0.198677
0
LINE
8
BLACK
6
CONTINUOUS
10
0.526304
20
-0.198677
11
0.470625
21
-0.198677
0
LINE
8
BLACK
6
CONTINUOUS
10
0.470625
20
-0.198677
11
0.470625
21
-0.254355
0
LINE
8
BLACK
6
CONTINUOUS
10
0.470625
20
-0.254355
11
0.526304
21
-0.254355
0
LINE
8
BLACK
6
CONTINUOUS
10
0.586343
20
-3.29372
11
0.586343
21
-3.23805
0
LINE
8
BLACK
6
CONTINUOUS
10
0.586343
20
-3.23805
11
0.530665
21
-3.23805
0
LINE
8
BLACK
6
CONTINUOUS
10
0.530665
20
-3.23805
11
0.530665
21
-3.29372
0
LINE
8
BLACK
6
CONTINUOUS
10
0.530665
20
-3.29372
11
0.586343
21
-3.29372
0
LINE
8
BLACK
6
CONTINUOUS
10
0.680093
20
-2.54372
11
0.680093
21
-2.48805
0
LINE
8
BLACK
6
CONTINUOUS
10
0.680093
20
-2.48805
11
0.624415
21
-2.48805
0
LINE
8
BLACK
6
CONTINUOUS
10
0.624415
20
-2.48805
11
0.624415
21
-2.54372
0
LINE
8
BLACK
6
CONTINUOUS
10
0.624415
20
-2.54372
11
0.680093
21
-2.54372
0
LINE
8
BLACK
6
CONTINUOUS
10
0.713804
20
-1.00435
11
0.713804
21
-0.948677
0
LINE
8
BLACK
6
CONTINUOUS
10
0.713804
20
-0.948677
11
0.658125
21
-0.948677
0
LINE
8
BLACK
6
CONTINUOUS
10
0.658125
20
-0.948677
11
0.658125
21
-1.00435
0
LINE
8
BLACK
6
CONTINUOUS
10
0.658125
20
-1.00435
11
0.713804
21
-1.00435
0
LINE
8
BLACK
6
CONTINUOUS
10
0.807554
20
-1.75435
11
0.807554
21
-1.69868
0
LINE
8
BLACK
6
CONTINUOUS
10
0.807554
20
-1.69868
11
0.751875
21
-1.69868
0
LINE
8
BLACK
6
CONTINUOUS
10
0.751875
20
-1.69868
11
0.751875
21
-1.75435
0
LINE
8
BLACK
6
CONTINUOUS
10
0.751875
20
-1.75435
11
0.807554
21
-1.75435
0
LINE
8
BLACK
6
CONTINUOUS
10
0.901304
20
-3.25435
11
0.901304
21
-3.19868
0
LINE
8
BLACK
6
CONTINUOUS
10
0.901304
20
-3.19868
11
0.845625
21
-3.19868
0
LINE
8
BLACK
6
CONTINUOUS
10
0.845625
20
-3.19868
11
0.845625
21
-3.25435
0
LINE
8
BLACK
6
CONTINUOUS
10
0.845625
20
-3.25435
11
0.901304
21
-3.25435
0
LINE
8
BLACK
6
CONTINUOUS
10
0.961343
20
-0.293725
11
0.961343
21
-0.238047
0
LINE
8
BLACK
6
CONTINUOUS
10
0.961343
20
-0.238047
11
0.905665
21
-0.238047
0
LINE
8
BLACK
6
CONTINUOUS
10
0.905665
20
-0.238047
11
0.905665
21
-0.293725
0
LINE
8
BLACK
6
CONTINUOUS
10
0.905665
20
-0.293725
11
0.961343
21
-0.293725
0
LINE
8
BLACK
6
CONTINUOUS
10
0.995054
20
-2.50435
11
0.995054
21
-2.44868
0
LINE
8
BLACK
6
CONTINUOUS
10
0.995054
20
-2.44868
11
0.939375
21
-2.44868
0
LINE
8
BLACK
6
CONTINUOUS
10
0.939375
20
-2.44868
11
0.939375
21
-2.50435
0
LINE
8
BLACK
6
CONTINUOUS
10
0.939375
20
-2.50435
11
0.995054
21
-2.50435
0
LINE
8
BLACK
6
CONTINUOUS
10
1.2763
20
-0.254355
11
1.2763
21
-0.198677
0
LINE
8
BLACK
6
CONTINUOUS
10
1.2763
20
-0.198677
11
1.22063
21
-0.198677
0
LINE
8
BLACK
6
CONTINUOUS
10
1.22063
20
-0.198677
11
1.22063
21
-0.254355
0
LINE
8
BLACK
6
CONTINUOUS
10
1.22063
20
-0.254355
11
1.2763
21
-0.254355
0
LINE
8
BLACK
6
CONTINUOUS
10
1.33634
20
-1.04372
11
1.33634
21
-0.988047
0
LINE
8
BLACK
6
CONTINUOUS
10
1.33634
20
-0.988047
11
1.28066
21
-0.988047
0
LINE
8
BLACK
6
CONTINUOUS
10
1.28066
20
-0.988047
11
1.28066
21
-1.04372
0
LINE
8
BLACK
6
CONTINUOUS
10
1.28066
20
-1.04372
11
1.33634
21
-1.04372
0
LINE
8
BLACK
6
CONTINUOUS
10
1.33634
20
-3.29372
11
1.33634
21
-3.23805
0
LINE
8
BLACK
6
CONTINUOUS
10
1.33634
20
-3.23805
11
1.28066
21
-3.23805
0
LINE
8
BLACK
6
CONTINUOUS
10
1.28066
20
-3.23805
11
1.28066
21
-3.29372
0
LINE
8
BLACK
6
CONTINUOUS
10
1.28066
20
-3.29372
11
1.33634
21
-3.29372
0
LINE
8
BLACK
6
CONTINUOUS
10
1.52384
20
-1.79372
11
1.52384
21
-1.73805
0
LINE
8
BLACK
6
CONTINUOUS
10
1.52384
20
-1.73805
11
1.46816
21
-1.73805
0
LINE
8
BLACK
6
CONTINUOUS
10
1.46816
20
-1.73805
11
1.46816
21
-1.79372
0
LINE
8
BLACK
6
CONTINUOUS
10
1.46816
20
-1.79372
11
1.52384
21
-1.79372
0
LINE
8
BLACK
6
CONTINUOUS
10
1.6513
20
-1.00435
11
1.6513
21
-0.948677
0
LINE
8
BLACK
6
CONTINUOUS
10
1.6513
20
-0.948677
11
1.59563
21
-0.948677
0
LINE
8
BLACK
6
CONTINUOUS
10
1.59563
20
-0.948677
11
1.59563
21
-1.00435
0
LINE
8
BLACK
6
CONTINUOUS
10
1.59563
20
-1.00435
11
1.6513
21
-1.00435
0
LINE
8
BLACK
6
CONTINUOUS
10
1.6513
20
-3.25435
11
1.6513
21
-3.19868
0
LINE
8
BLACK
6
CONTINUOUS
10
1.6513
20
-3.19868
11
1.59563
21
-3.19868
0
LINE
8
BLACK
6
CONTINUOUS
10
1.59563
20
-3.19868
11
1.59563
21
-3.25435
0
LINE
8
BLACK
6
CONTINUOUS
10
1.59563
20
-3.25435
11
1.6513
21
-3.25435
0
LINE
8
BLACK
6
CONTINUOUS
10
1.71134
20
-0.293725
11
1.71134
21
-0.238047
0
LINE
8
BLACK
6
CONTINUOUS
10
1.71134
20
-0.238047
11
1.65566
21
-0.238047
0
LINE
8
BLACK
6
CONTINUOUS
10
1.65566
20
-0.238047
11
1.65566
21
-0.293725
0
LINE
8
BLACK
6
CONTINUOUS
10
1.65566
20
-0.293725
11
1.71134
21
-0.293725
0
LINE
8
BLACK
6
CONTINUOUS
10
1.8388
20
-1.75435
11
1.8388
21
-1.69868
0
LINE
8
BLACK
6
CONTINUOUS
10
1.8388
20
-1.69868
11
1.78313
21
-1.69868
0
LINE
8
BLACK
6
CONTINUOUS
10
1.78313
20
-1.69868
11
1.78313
21
-1.75435
0
LINE
8
BLACK
6
CONTINUOUS
10
1.78313
20
-1.75435
11
1.8388
21
-1.75435
0
LINE
8
BLACK
6
CONTINUOUS
10
1.89884
20
-2.54372
11
1.89884
21
-2.48805
0
LINE
8
BLACK
6
CONTINUOUS
10
1.89884
20
-2.48805
11
1.84316
21
-2.48805
0
LINE
8
BLACK
6
CONTINUOUS
10
1.84316
20
-2.48805
11
1.84316
21
-2.54372
0
LINE
8
BLACK
6
CONTINUOUS
10
1.84316
20
-2.54372
11
1.89884
21
-2.54372
0
LINE
8
BLACK
6
CONTINUOUS
10
2.0263
20
-0.254355
11
2.0263
21
-0.198677
0
LINE
8
BLACK
6
CONTINUOUS
10
2.0263
20
-0.198677
11
1.97063
21
-0.198677
0
LINE
8
BLACK
6
CONTINUOUS
10
1.97063
20
-0.198677
11
1.97063
21
-0.254355
0
LINE
8
BLACK
6
CONTINUOUS
10
1.97063
20
-0.254355
11
2.0263
21
-0.254355
0
LINE
8
BLACK
6
CONTINUOUS
10
2.08634
20
-1.04372
11
2.08634
21
-0.988047
0
LINE
8
BLACK
6
CONTINUOUS
10
2.08634
20
-0.988047
11
2.03066
21
-0.988047
0
LINE
8
BLACK
6
CONTINUOUS
10
2.03066
20
-0.988047
11
2.03066
21
-1.04372
0
LINE
8
BLACK
6
CONTINUOUS
10
2.03066
20
-1.04372
11
2.08634
21
-1.04372
0
LINE
8
BLACK
6
CONTINUOUS
10
2.2138
20
-2.50435
11
2.2138
21
-2.44868
0
LINE
8
BLACK
6
CONTINUOUS
10
2.2138
20
-2.44868
11
2.15813
21
-2.44868
0
LINE
8
BLACK
6
CONTINUOUS
10
2.15813
20
-2.44868
11
2.15813
21
-2.50435
0
LINE
8
BLACK
6
CONTINUOUS
10
2.15813
20
-2.50435
11
2.2138
21
-2.50435
0
LINE
8
BLACK
6
CONTINUOUS
10
2.27384
20
-1.79372
11
2.27384
21
-1.73805
0
LINE
8
BLACK
6
CONTINUOUS
10
2.27384
20
-1.73805
11
2.21816
21
-1.73805
0
LINE
8
BLACK
6
CONTINUOUS
10
2.21816
20
-1.73805
11
2.21816
21
-1.79372
0
LINE
8
BLACK
6
CONTINUOUS
10
2.21816
20
-1.79372
11
2.27384
21
-1.79372
0
LINE
8
BLACK
6
CONTINUOUS
10
2.27384
20
-3.29372
11
2.27384
21
-3.23805
0
LINE
8
BLACK
6
CONTINUOUS
10
2.27384
20
-3.23805
11
2.21816
21
-3.23805
0
LINE
8
BLACK
6
CONTINUOUS
10
2.21816
20
-3.23805
11
2.21816
21
-3.29372
0
LINE
8
BLACK
6
CONTINUOUS
10
2.21816
20
-3.29372
11
2.27384
21
-3.29372
0
LINE
8
BLACK
6
CONTINUOUS
10
2.4013
20
-1.00435
11
2.4013
21
-0.948677
0
LINE
8
BLACK
6
CONTINUOUS
10
2.4013
20
-0.948677
11
2.34563
21
-0.948677
0
LINE
8
BLACK
6
CONTINUOUS
10
2.34563
20
-0.948677
11
2.34563
21
-1.00435
0
LINE
8
BLACK
6
CONTINUOUS
10
2.34563
20
-1.00435
11
2.4013
21
-1.00435
0
LINE
8
BLACK
6
CONTINUOUS
10
2.46134
20
-0.293725
11
2.46134
21
-0.238047
0
LINE
8
BLACK
6
CONTINUOUS
10
2.46134
20
-0.238047
11
2.40566
21
-0.238047
0
LINE
8
BLACK
6
CONTINUOUS
10
2.40566
20
-0.238047
11
2.40566
21
-0.293725
0
LINE
8
BLACK
6
CONTINUOUS
10
2.40566
20
-0.293725
11
2.46134
21
-0.293725
0
LINE
8
BLACK
6
CONTINUOUS
10
2.5888
20
-1.75435
11
2.5888
21
-1.69868
0
LINE
8
BLACK
6
CONTINUOUS
10
2.5888
20
-1.69868
11
2.53313
21
-1.69868
0
LINE
8
BLACK
6
CONTINUOUS
10
2.53313
20
-1.69868
11
2.53313
21
-1.75435
0
LINE
8
BLACK
6
CONTINUOUS
10
2.53313
20
-1.75435
11
2.5888
21
-1.75435
0
LINE
8
BLACK
6
CONTINUOUS
10
2.5888
20
-3.25435
11
2.5888
21
-3.19868
0
LINE
8
BLACK
6
CONTINUOUS
10
2.5888
20
-3.19868
11
2.53313
21
-3.19868
0
LINE
8
BLACK
6
CONTINUOUS
10
2.53313
20
-3.19868
11
2.53313
21
-3.25435
0
LINE
8
BLACK
6
CONTINUOUS
10
2.53313
20
-3.25435
11
2.5888
21
-3.25435
0
LINE
8
BLACK
6
CONTINUOUS
10
2.64884
20
-2.54372
11
2.64884
21
-2.48805
0
LINE
8
BLACK
6
CONTINUOUS
10
2.64884
20
-2.48805
11
2.59316
21
-2.48805
0
LINE
8
BLACK
6
CONTINUOUS
10
2.59316
20
-2.48805
11
2.59316
21
-2.54372
0
LINE
8
BLACK
6
CONTINUOUS
10
2.59316
20
-2.54372
11
2.64884
21
-2.54372
0
LINE
8
BLACK
6
CONTINUOUS
10
2.7763
20
-0.254355
11
2.7763
21
-0.198677
0
LINE
8
BLACK
6
CONTINUOUS
10
2.7763
20
-0.198677
11
2.72063
21
-0.198677
0
LINE
8
BLACK
6
CONTINUOUS
10
2.72063
20
-0.198677
11
2.72063
21
-0.254355
0
LINE
8
BLACK
6
CONTINUOUS
10
2.72063
20
-0.254355
11
2.7763
21
-0.254355
0
LINE
8
BLACK
6
CONTINUOUS
10
2.83634
20
-1.04372
11
2.83634
21
-0.988047
0
LINE
8
BLACK
6
CONTINUOUS
10
2.83634
20
-0.988047
11
2.78066
21
-0.988047
0
LINE
8
BLACK
6
CONTINUOUS
10
2.78066
20
-0.988047
11
2.78066
21
-1.04372
0
LINE
8
BLACK
6
CONTINUOUS
10
2.78066
20
-1.04372
11
2.83634
21
-1.04372
0
LINE
8
BLACK
6
CONTINUOUS
10
2.9638
20
-2.50435
11
2.9638
21
-2.44868
0
LINE
8
BLACK
6
CONTINUOUS
10
2.9638
20
-2.44868
11
2.90813
21
-2.44868
0
LINE
8
BLACK
6
CONTINUOUS
10
2.90813
20
-2.44868
11
2.90813
21
-2.50435
0
LINE
8
BLACK
6
CONTINUOUS
10
2.90813
20
-2.50435
11
2.9638
21
-2.50435
0
LINE
8
BLACK
6
CONTINUOUS
10
3.02384
20
-1.79372
11
3.02384
21
-1.73805
0
LINE
8
BLACK
6
CONTINUOUS
10
3.02384
20
-1.73805
11
2.96816
21
-1.73805
0
LINE
8
BLACK
6
CONTINUOUS
10
2.96816
20
-1.73805
11
2.96816
21
-1.79372
0
LINE
8
BLACK
6
CONTINUOUS
10
2.96816
20
-1.79372
11
3.02384
21
-1.79372
0
LINE
8
BLACK
6
CONTINUOUS
10
3.1513
20
-1.00435
11
3.1513
21
-0.948677
0
LINE
8
BLACK
6
CONTINUOUS
10
3.1513
20
-0.948677
11
3.09563
21
-0.948677
0
LINE
8
BLACK
6
CONTINUOUS
10
3.09563
20
-0.948677
11
3.09563
21
-1.00435
0
LINE
8
BLACK
6
CONTINUOUS
10
3.09563
20
-1.00435
11
3.1513
21
-1.00435
0
LINE
8
BLACK
6
CONTINUOUS
10
3.21134
20
-0.293725
11
3.21134
21
-0.238047
0
LINE
8
BLACK
6
CONTINUOUS
10
3.21134
20
-0.238047
11
3.15566
21
-0.238047
0
LINE
8
BLACK
6
CONTINUOUS
10
3.15566
20
-0.238047
11
3.15566
21
-0.293725
0
LINE
8
BLACK
6
CONTINUOUS
10
3.15566
20
-0.293725
11
3.21134
21
-0.293725
0
LINE
8
BLACK
6
CONTINUOUS
10
3.3388
20
-1.75435
11
3.3388
21
-1.69868
0
LINE
8
BLACK
6
CONTINUOUS
10
3.3388
20
-1.69868
11
3.28313
21
-1.69868
0
LINE
8
BLACK
6
CONTINUOUS
10
3.28313
20
-1.69868
11
3.28313
21
-1.75435
0
LINE
8
BLACK
6
CONTINUOUS
10
3.28313
20
-1.75435
11
3.3388
21
-1.75435
0
LINE
8
BLACK
6
CONTINUOUS
10
3.39884
20
-2.54372
11
3.39884
21
-2.48805
0
LINE
8
BLACK
6
CONTINUOUS
10
3.39884
20
-2.48805
11
3.34316
21
-2.48805
0
LINE
8
BLACK
6
CONTINUOUS
10
3.34316
20
-2.48805
11
3.34316
21
-2.54372
0
LINE
8
BLACK
6
CONTINUOUS
10
3.34316
20
-2.54372
11
3.39884
21
-2.54372
0
LINE
8
BLACK
6
CONTINUOUS
10
3.5263
20
-0.254355
11
3.5263
21
-0.198677
0
LINE
8
BLACK
6
CONTINUOUS
10
3.5263
20
-0.198677
11
3.47063
21
-0.198677
0
LINE
8
BLACK
6
CONTINUOUS
10
3.47063
20
-0.198677
11
3.47063
21
-0.254355
0
LINE
8
BLACK
6
CONTINUOUS
10
3.47063
20
-0.254355
11
3.5263
21
-0.254355
0
LINE
8
BLACK
6
CONTINUOUS
10
3.58634
20
-1.04372
11
3.58634
21
-0.988047
0
LINE
8
BLACK
6
CONTINUOUS
10
3.58634
20
-0.988047
11
3.53066
21
-0.988047
0
LINE
8
BLACK
6
CONTINUOUS
10
3.53066
20
-0.988047
11
3.53066
21
-1.04372
0
LINE
8
BLACK
6
CONTINUOUS
10
3.53066
20
-1.04372
11
3.58634
21
-1.04372
0
LINE
8
BLACK
6
CONTINUOUS
10
3.7138
20
-2.50435
11
3.7138
21
-2.44868
0
LINE
8
BLACK
6
CONTINUOUS
10
3.7138
20
-2.44868
11
3.65813
21
-2.44868
0
LINE
8
BLACK
6
CONTINUOUS
10
3.65813
20
-2.44868
11
3.65813
21
-2.50435
0
LINE
8
BLACK
6
CONTINUOUS
10
3.65813
20
-2.50435
11
3.7138
21
-2.50435
0
LINE
8
BLACK
6
CONTINUOUS
10
3.77384
20
-1.79372
11
3.77384
21
-1.73805
0
LINE
8
BLACK
6
CONTINUOUS
10
3.77384
20
-1.73805
11
3.71816
21
-1.73805
0
LINE
8
BLACK
6
CONTINUOUS
10
3.71816
20
-1.73805
11
3.71816
21
-1.79372
0
LINE
8
BLACK
6
CONTINUOUS
10
3.71816
20
-1.79372
11
3.77384
21
-1.79372
0
LINE
8
BLACK
6
CONTINUOUS
10
3.9013
20
-1.00435
11
3.9013
21
-0.948677
0
LINE
8
BLACK
6
CONTINUOUS
10
3.9013
20
-0.948677
11
3.84563
21
-0.948677
0
LINE
8
BLACK
6
CONTINUOUS
10
3.84563
20
-0.948677
11
3.84563
21
-1.00435
0
LINE
8
BLACK
6
CONTINUOUS
10
3.84563
20
-1.00435
11
3.9013
21
-1.00435
0
LINE
8
BLACK
6
CONTINUOUS
10
3.96134
20
-0.293725
11
3.96134
21
-0.238047
0
LINE
8
BLACK
6
CONTINUOUS
10
3.96134
20
-0.238047
11
3.90566
21
-0.238047
0
LINE
8
BLACK
6
CONTINUOUS
10
3.90566
20
-0.238047
11
3.90566
21
-0.293725
0
LINE
8
BLACK
6
CONTINUOUS
10
3.90566
20
-0.293725
11
3.96134
21
-0.293725
0
LINE
8
BLACK
6
CONTINUOUS
10
4.0888
20
-1.75435
11
4.0888
21
-1.69868
0
LINE
8
BLACK
6
CONTINUOUS
10
4.0888
20
-1.69868
11
4.03313
21
-1.69868
0
LINE
8
BLACK
6
CONTINUOUS
10
4.03313
20
-1.69868
11
4.03313
21
-1.75435
0
LINE
8
BLACK
6
CONTINUOUS
10
4.03313
20
-1.75435
11
4.0888
21
-1.75435
0
LINE
8
BLACK
6
CONTINUOUS
10
4.14884
20
-2.54372
11
4.14884
21
-2.48805
0
LINE
8
BLACK
6
CONTINUOUS
10
4.14884
20
-2.48805
11
4.09316
21
-2.48805
0
LINE
8
BLACK
6
CONTINUOUS
10
4.09316
20
-2.48805
11
4.09316
21
-2.54372
0
LINE
8
BLACK
6
CONTINUOUS
10
4.09316
20
-2.54372
11
4.14884
21
-2.54372
0
LINE
8
BLACK
6
CONTINUOUS
10
4.2763
20
-0.254355
11
4.2763
21
-0.198677
0
LINE
8
BLACK
6
CONTINUOUS
10
4.2763
20
-0.198677
11
4.22063
21
-0.198677
0
LINE
8
BLACK
6
CONTINUOUS
10
4.22063
20
-0.198677
11
4.22063
21
-0.254355
0
LINE
8
BLACK
6
CONTINUOUS
10
4.22063
20
-0.254355
11
4.2763
21
-0.254355
0
LINE
8
BLACK
6
CONTINUOUS
10
4.33634
20
-1.04372
11
4.33634
21
-0.988047
0
LINE
8
BLACK
6
CONTINUOUS
10
4.33634
20
-0.988047
11
4.28066
21
-0.988047
0
LINE
8
BLACK
6
CONTINUOUS
10
4.28066
20
-0.988047
11
4.28066
21
-1.04372
0
LINE
8
BLACK
6
CONTINUOUS
10
4.28066
20
-1.04372
11
4.33634
21
-1.04372
0
LINE
8
BLACK
6
CONTINUOUS
10
4.4638
20
-2.50435
11
4.4638
21
-2.44868
0
LINE
8
BLACK
6
CONTINUOUS
10
4.4638
20
-2.44868
11
4.40813
21
-2.44868
0
LINE
8
BLACK
6
CONTINUOUS
10
4.40813
20
-2.44868
11
4.40813
21
-2.50435
0
LINE
8
BLACK
6
CONTINUOUS
10
4.40813
20
-2.50435
11
4.4638
21
-2.50435
0
LINE
8
BLACK
6
CONTINUOUS
10
4.52384
20
-1.79372
11
4.52384
21
-1.73805
0
LINE
8
BLACK
6
CONTINUOUS
10
4.52384
20
-1.73805
11
4.46816
21
-1.73805
0
LINE
8
BLACK
6
CONTINUOUS
10
4.46816
20
-1.73805
11
4.46816
21
-1.79372
0
LINE
8
BLACK
6
CONTINUOUS
10
4.46816
20
-1.79372
11
4.52384
21
-1.79372
0
LINE
8
BLACK
6
CONTINUOUS
10
4.6513
20
-1.00435
11
4.6513
21
-0.948677
0
LINE
8
BLACK
6
CONTINUOUS
10
4.6513
20
-0.948677
11
4.59563
21
-0.948677
0
LINE
8
BLACK
6
CONTINUOUS
10
4.59563
20
-0.948677
11
4.59563
21
-1.00435
0
LINE
8
BLACK
6
CONTINUOUS
10
4.59563
20
-1.00435
11
4.6513
21
-1.00435
0
LINE
8
BLACK
6
CONTINUOUS
10
4.71134
20
-0.293725
11
4.71134
21
-0.238047
0
LINE
8
BLACK
6
CONTINUOUS
10
4.71134
20
-0.238047
11
4.65566
21
-0.238047
0
LINE
8
BLACK
6
CONTINUOUS
10
4.65566
20
-0.238047
11
4.65566
21
-0.293725
0
LINE
8
BLACK
6
CONTINUOUS
10
4.65566
20
-0.293725
11
4.71134
21
-0.293725
0
LINE
8
BLACK
6
CONTINUOUS
10
4.8388
20
-1.75435
11
4.8388
21
-1.69868
0
LINE
8
BLACK
6
CONTINUOUS
10
4.8388
20
-1.69868
11
4.78313
21
-1.69868
0
LINE
8
BLACK
6
CONTINUOUS
10
4.78313
20
-1.69868
11
4.78313
21
-1.75435
0
LINE
8
BLACK
6
CONTINUOUS
10
4.78313
20
-1.75435
11
4.8388
21
-1.75435
0
LINE
8
BLACK
6
CONTINUOUS
10
4.89884
20
-2.54372
11
4.89884
21
-2.48805
0
LINE
8
BLACK
6
CONTINUOUS
10
4.89884
20
-2.48805
11
4.84316
21
-2.48805
0
LINE
8
BLACK
6
CONTINUOUS
10
4.84316
20
-2.48805
11
4.84316
21
-2.54372
0
LINE
8
BLACK
6
CONTINUOUS
10
4.84316
20
-2.54372
11
4.89884
21
-2.54372
0
LINE
8
BLACK
6
CONTINUOUS
10
5.0263
20
-0.254355
11
5.0263
21
-0.198677
0
LINE
8
BLACK
6
CONTINUOUS
10
5.0263
20
-0.198677
11
4.97063
21
-0.198677
0
LINE
8
BLACK
6
CONTINUOUS
10
4.97063
20
-0.198677
11
4.97063
21
-0.254355
0
LINE
8
BLACK
6
CONTINUOUS
10
4.97063
20
-0.254355
11
5.0263
21
-0.254355
0
LINE
8
BLACK
6
CONTINUOUS
10
5.08634
20
-1.04372
11
5.08634
21
-0.988047
0
LINE
8
BLACK
6
CONTINUOUS
10
5.08634
20
-0.988047
11
5.03066
21
-0.988047
0
LINE
8
BLACK
6
CONTINUOUS
10
5.03066
20
-0.988047
11
5.03066
21
-1.04372
0
LINE
8
BLACK
6
CONTINUOUS
10
5.03066
20
-1.04372
11
5.08634
21
-1.04372
0
LINE
8
BLACK
6
CONTINUOUS
10
5.2138
20
-2.50435
11
5.2138
21
-2.44868
0
LINE
8
BLACK
6
CONTINUOUS
10
5.2138
20
-2.44868
11
5.15813
21
-2.44868
0
LINE
8
BLACK
6
CONTINUOUS
10
5.15813
20
-2.44868
11
5.15813
21
-2.50435
0
LINE
8
BLACK
6
CONTINUOUS
10
5.15813
20
-2.50435
11
5.2138
21
-2.50435
0
LINE
8
BLACK
6
CONTINUOUS
10
5.27384
20
-1.79372
11
5.27384
21
-1.73805
0
LINE
8
BLACK
6
CONTINUOUS
10
5.27384
20
-1.73805
11
5.21816
21
-1.73805
0
LINE
8
BLACK
6
CONTINUOUS
10
5.21816
20
-1.73805
11
5.21816
21
-1.79372
0
LINE
8
BLACK
6
CONTINUOUS
10
5.21816
20
-1.79372
11
5.27384
21
-1.79372
0
LINE
8
BLACK
6
CONTINUOUS
10
5.4013
20
-1.00435
11
5.4013
21
-0.948677
0
LINE
8
BLACK
6
CONTINUOUS
10
5.4013
20
-0.948677
11
5.34563
21
-0.948677
0
LINE
8
BLACK
6
CONTINUOUS
10
5.34563
20
-0.948677
11
5.34563
21
-1.00435
0
LINE
8
BLACK
6
CONTINUOUS
10
5.34563
20
-1.00435
11
5.4013
21
-1.00435
0
LINE
8
BLACK
6
CONTINUOUS
10
5.46134
20
-0.293725
11
5.46134
21
-0.238047
0
LINE
8
BLACK
6
CONTINUOUS
10
5.46134
20
-0.238047
11
5.40566
21
-0.238047
0
LINE
8
BLACK
6
CONTINUOUS
10
5.40566
20
-0.238047
11
5.40566
21
-0.293725
0
LINE
8
BLACK
6
CONTINUOUS
10
5.40566
20
-0.293725
11
5.46134
21
-0.293725
0
LINE
8
BLACK
6
CONTINUOUS
10
5.5888
20
-1.75435
11
5.5888
21
-1.69868
0
LINE
8
BLACK
6
CONTINUOUS
10
5.5888
20
-1.69868
11
5.53313
21
-1.69868
0
LINE
8
BLACK
6
CONTINUOUS
10
5.53313
20
-1.69868
11
5.53313
21
-1.75435
0
LINE
8
BLACK
6
CONTINUOUS
10
5.53313
20
-1.75435
11
5.5888
21
-1.75435
0
LINE
8
BLACK
6
CONTINUOUS
10
5.64884
20
-2.54372
11
5.64884
21
-2.48805
0
LINE
8
BLACK
6
CONTINUOUS
10
5.64884
20
-2.48805
11
5.59316
21
-2.48805
0
LINE
8
BLACK
6
CONTINUOUS
10
5.59316
20
-2.48805
11
5.59316
21
-2.54372
0
LINE
8
BLACK
6
CONTINUOUS
10
5.59316
20
-2.54372
11
5.64884
21
-2.54372
0
LINE
8
BLACK
6
CONTINUOUS
10
5.7763
20
-0.254355
11
5.7763
21
-0.198677
0
LINE
8
BLACK
6
CONTINUOUS
10
5.7763
20
-0.198677
11
5.72063
21
-0.198677
0
LINE
8
BLACK
6
CONTINUOUS
10
5.72063
20
-0.198677
11
5.72063
21
-0.254355
0
LINE
8
BLACK
6
CONTINUOUS
10
5.72063
20
-0.254355
11
5.7763
21
-0.254355
0
LINE
8
BLACK
6
CONTINUOUS
10
5.83634
20
-1.04372
11
5.83634
21
-0.988047
0
LINE
8
BLACK
6
CONTINUOUS
10
5.83634
20
-0.988047
11
5.78066
21
-0.988047
0
LINE
8
BLACK
6
CONTINUOUS
10
5.78066
20
-0.988047
11
5.78066
21
-1.04372
0
LINE
8
BLACK
6
CONTINUOUS
10
5.78066
20
-1.04372
11
5.83634
21
-1.04372
0
LINE
8
BLACK
6
CONTINUOUS
10
5.9638
20
-2.50435
11
5.9638
21
-2.44868
0
LINE
8
BLACK
6
CONTINUOUS
10
5.9638
20
-2.44868
11
5.90813
21
-2.44868
0
LINE
8
BLACK
6
CONTINUOUS
10
5.90813
20
-2.44868
11
5.90813
21
-2.50435
0
LINE
8
BLACK
6
CONTINUOUS
10
5.90813
20
-2.50435
11
5.9638
21
-2.50435
0
LINE
8
BLACK
6
CONTINUOUS
10
6.02384
20
-1.79372
11
6.02384
21
-1.73805
0
LINE
8
BLACK
6
CONTINUOUS
10
6.02384
20
-1.73805
11
5.96816
21
-1.73805
0
LINE
8
BLACK
6
CONTINUOUS
10
5.96816
20
-1.73805
11
5.96816
21
-1.79372
0
LINE
8
BLACK
6
CONTINUOUS
10
5.96816
20
-1.79372
11
6.02384
21
-1.79372
0
LINE
8
BLACK
6
CONTINUOUS
10
6.1513
20
-1.00435
11
6.1513
21
-0.948677
0
LINE
8
BLACK
6
CONTINUOUS
10
6.1513
20
-0.948677
11
6.09563
21
-0.948677
0
LINE
8
BLACK
6
CONTINUOUS
10
6.09563
20
-0.948677
11
6.09563
21
-1.00435
0
LINE
8
BLACK
6
CONTINUOUS
10
6.09563
20
-1.00435
11
6.1513
21
-1.00435
0
LINE
8
BLACK
6
CONTINUOUS
10
6.21134
20
-0.293725
11
6.21134
21
-0.238047
0
LINE
8
BLACK
6
CONTINUOUS
10
6.21134
20
-0.238047
11
6.15566
21
-0.238047
0
LINE
8
BLACK
6
CONTINUOUS
10
6.15566
20
-0.238047
11
6.15566
21
-0.293725
0
LINE
8
BLACK
6
CONTINUOUS
10
6.15566
20
-0.293725
11
6.21134
21
-0.293725
0
LINE
8
BLACK
6
CONTINUOUS
10
6.3388
20
-1.75435
11
6.3388
21
-1.69868
0
LINE
8
BLACK
6
CONTINUOUS
10
6.3388
20
-1.69868
11
6.28313
21
-1.69868
0
LINE
8
BLACK
6
CONTINUOUS
10
6.28313
20
-1.69868
11
6.28313
21
-1.75435
0
LINE
8
BLACK
6
CONTINUOUS
10
6.28313
20
-1.75435
11
6.3388
21
-1.75435
0
LINE
8
BLACK
6
CONTINUOUS
10
6.39884
20
-2.54372
11
6.39884
21
-2.48805
0
LINE
8
BLACK
6
CONTINUOUS
10
6.39884
20
-2.48805
11
6.34316
21
-2.48805
0
LINE
8
BLACK
6
CONTINUOUS
10
6.34316
20
-2.48805
11
6.34316
21
-2.54372
0
LINE
8
BLACK
6
CONTINUOUS
10
6.34316
20
-2.54372
11
6.39884
21
-2.54372
0
LINE
8
BLACK
6
CONTINUOUS
10
6.5263
20
-0.254355
11
6.5263
21
-0.198677
0
LINE
8
BLACK
6
CONTINUOUS
10
6.5263
20
-0.198677
11
6.47063
21
-0.198677
0
LINE
8
BLACK
6
CONTINUOUS
10
6.47063
20
-0.198677
11
6.47063
21
-0.254355
0
LINE
8
BLACK
6
CONTINUOUS
10
6.47063
20
-0.254355
11
6.5263
21
-0.254355
0
LINE
8
BLACK
6
CONTINUOUS
10
6.58634
20
-1.04372
11
6.58634
21
-0.988047
0
LINE
8
BLACK
6
CONTINUOUS
10
6.58634
20
-0.988047
11
6.53066
21
-0.988047
0
LINE
8
BLACK
6
CONTINUOUS
10
6.53066
20
-0.988047
11
6.53066
21
-1.04372
0
LINE
8
BLACK
6
CONTINUOUS
10
6.53066
20
-1.04372
11
6.58634
21
-1.04372
0
LINE
8
BLACK
6
CONTINUOUS
10
6.7138
20
-2.50435
11
6.7138
21
-2.44868
0
LINE
8
BLACK
6
CONTINUOUS
10
6.7138
20
-2.44868
11
6.65813
21
-2.44868
0
LINE
8
BLACK
6
CONTINUOUS
10
6.65813
20
-2.44868
11
6.65813
21
-2.50435
0
LINE
8
BLACK
6
CONTINUOUS
10
6.65813
20
-2.50435
11
6.7138
21
-2.50435
0
LINE
8
BLACK
6
CONTINUOUS
10
6.77384
20
-1.79372
11
6.77384
21
-1.73805
0
LINE
8
BLACK
6
CONTINUOUS
10
6.77384
20
-1.73805
11
6.71816
21
-1.73805
0
LINE
8
BLACK
6
CONTINUOUS
10
6.71816
20
-1.73805
11
6.71816
21
-1.79372
0
LINE
8
BLACK
6
CONTINUOUS
10
6.71816
20
-1.79372
11
6.77384
21
-1.79372
0
LINE
8
BLACK
6
CONTINUOUS
10
6.9013
20
-1.00435
11
6.9013
21
-0.948677
0
LINE
8
BLACK
6
CONTINUOUS
10
6.9013
20
-0.948677
11
6.84563
21
-0.948677
0
LINE
8
BLACK
6
CONTINUOUS
10
6.84563
20
-0.948677
11
6.84563
21
-1.00435
0
LINE
8
BLACK
6
CONTINUOUS
10
6.84563
20
-1.00435
11
6.9013
21
-1.00435
0
LINE
8
BLACK
6
CONTINUOUS
10
6.96134
20
-0.293725
11
6.96134
21
-0.238047
0
LINE
8
BLACK
6
CONTINUOUS
10
6.96134
20
-0.238047
11
6.90566
21
-0.238047
0
LINE
8
BLACK
6
CONTINUOUS
10
6.90566
20
-0.238047
11
6.90566
21
-0.293725
0
LINE
8
BLACK
6
CONTINUOUS
10
6.90566
20
-0.293725
11
6.96134
21
-0.293725
0
LINE
8
BLACK
6
CONTINUOUS
10
7.0888
20
-1.75435
11
7.0888
21
-1.69868
0
LINE
8
BLACK
6
CONTINUOUS
10
7.0888
20
-1.69868
11
7.03313
21
-1.69868
0
LINE
8
BLACK
6
CONTINUOUS
10
7.03313
20
-1.69868
11
7.03313
21
-1.75435
0
LINE
8
BLACK
6
CONTINUOUS
10
7.03313
20
-1.75435
11
7.0888
21
-1.75435
0
LINE
8
BLACK
6
CONTINUOUS
10
7.14884
20
-2.54372
11
7.14884
21
-2.48805
0
LINE
8
BLACK
6
CONTINUOUS
10
7.14884
20
-2.48805
11
7.09316
21
-2.48805
0
LINE
8
BLACK
6
CONTINUOUS
10
7.09316
20
-2.48805
11
7.09316
21
-2.54372
0
LINE
8
BLACK
6
CONTINUOUS
10
7.09316
20
-2.54372
11
7.14884
21
-2.54372
0
LINE
8
BLACK
6
CONTINUOUS
10
7.2763
20
-0.254355
11
7.2763
21
-0.198677
0
LINE
8
BLACK
6
CONTINUOUS
10
7.2763
20
-0.198677
11
7.22063
21
-0.198677
0
LINE
8
BLACK
6
CONTINUOUS
10
7.22063
20
-0.198677
11
7.22063
21
-0.254355
0
LINE
8
BLACK
6
CONTINUOUS
10
7.22063
20
-0.254355
11
7.2763
21
-0.254355
0
LINE
8
BLACK
6
CONTINUOUS
10
7.33634
20
-1.04372
11
7.33634
21
-0.988047
0
LINE
8
BLACK
6
CONTINUOUS
10
7.33634
20
-0.988047
11
7.28066
21
-0.988047
0
LINE
8
BLACK
6
CONTINUOUS
10
7.28066
20
-0.988047
11
7.28066
21
-1.04372
0
LINE
8
BLACK
6
CONTINUOUS
10
7.28066
20
-1.04372
11
7.33634
21
-1.04372
0
LINE
8
BLACK
6
CONTINUOUS
10
7.4638
20
-2.50435
11
7.4638
21
-2.44868
0
LINE
8
BLACK
6
CONTINUOUS
10
7.4638
20
-2.44868
11
7.40813
21
-2.44868
0
LINE
8
BLACK
6
CONTINUOUS
10
7.40813
20
-2.44868
11
7.40813
21
-2.50435
0
LINE
8
BLACK
6
CONTINUOUS
10
7.40813
20
-2.50435
11
7.4638
21
-2.50435
0
LINE
8
BLACK
6
CONTINUOUS
10
7.52384
20
-1.79372
11
7.52384
21
-1.73805
0
LINE
8
BLACK
6
CONTINUOUS
10
7.52384
20
-1.73805
11
7.46816
21
-1.73805
0
LINE
8
BLACK
6
CONTINUOUS
10
7.46816
20
-1.73805
11
7.46816
21
-1.79372
0
LINE
8
BLACK
6
CONTINUOUS
10
7.46816
20
-1.79372
11
7.52384
21
-1.79372
0
LINE
8
BLACK
6
CONTINUOUS
10
7.6513
20
-1.00435
11
7.6513
21
-0.948677
0
LINE
8
BLACK
6
CONTINUOUS
10
7.6513
20
-0.948677
11
7.59563
21
-0.948677
0
LINE
8
BLACK
6
CONTINUOUS
10
7.59563
20
-0.948677
11
7.59563
21
-1.00435
0
LINE
8
BLACK
6
CONTINUOUS
10
7.59563
20
-1.00435
11
7.6513
21
-1.00435
0
LINE
8
BLACK
6
CONTINUOUS
10
7.71134
20
-0.293725
11
7.71134
21
-0.238047
0
LINE
8
BLACK
6
CONTINUOUS
10
7.71134
20
-0.238047
11
7.65566
21
-0.238047
0
LINE
8
BLACK
6
CONTINUOUS
10
7.65566
20
-0.238047
11
7.65566
21
-0.293725
0
LINE
8
BLACK
6
CONTINUOUS
10
7.65566
20
-0.293725
11
7.71134
21
-0.293725
0
LINE
8
BLACK
6
CONTINUOUS
10
7.8388
20
-1.75435
11
7.8388
21
-1.69868
0
LINE
8
BLACK
6
CONTINUOUS
10
7.8388
20
-1.69868
11
7.78313
21
-1.69868
0
LINE
8
BLACK
6
CONTINUOUS
10
7.78313
20
-1.69868
11
7.78313
21
-1.75435
0
LINE
8
BLACK
6
CONTINUOUS
10
7.78313
20
-1.75435
11
7.8388
21
-1.75435
0
LINE
8
BLACK
6
CONTINUOUS
10
7.89884
20
-2.54372
11
7.89884
21
-2.48805
0
LINE
8
BLACK
6
CONTINUOUS
10
7.89884
20
-2.48805
11
7.84316
21
-2.48805
0
LINE
8
BLACK
6
CONTINUOUS
10
7.84316
20
-2.48805
11
7.84316
21
-2.54372
0
LINE
8
BLACK
6
CONTINUOUS
10
7.84316
20
-2.54372
11
7.89884
21
-2.54372
0
LINE
8
BLACK
6
CONTINUOUS
10
8.0263
20
-0.254355
11
8.0263
21
-0.198677
0
LINE
8
BLACK
6
CONTINUOUS
10
8.0263
20
-0.198677
11
7.97063
21
-0.198677
0
LINE
8
BLACK
6
CONTINUOUS
10
7.97063
20
-0.198677
11
7.97063
21
-0.254355
0
LINE
8
BLACK
6
CONTINUOUS
10
7.97063
20
-0.254355
11
8.0263
21
-0.254355
0
LINE
8
BLACK
6
CONTINUOUS
10
8.08634
20
-1.04372
11
8.08634
21
-0.988047
0
LINE
8
BLACK
6
CONTINUOUS
10
8.08634
20
-0.988047
11
8.03066
21
-0.988047
0
LINE
8
BLACK
6
CONTINUOUS
10
8.03066
20
-0.988047
11
8.03066
21
-1.04372
0
LINE
8
BLACK
6
CONTINUOUS
10
8.03066
20
-1.04372
11
8.08634
21
-1.04372
0
LINE
8
BLACK
6
CONTINUOUS
10
8.2138
20
-2.50435
11
8.2138
21
-2.44868
0
LINE
8
BLACK
6
CONTINUOUS
10
8.2138
20
-2.44868
11
8.15813
21
-2.44868
0
LINE
8
BLACK
6
CONTINUOUS
10
8.15813
20
-2.44868
11
8.15813
21
-2.50435
0
LINE
8
BLACK
6
CONTINUOUS
10
8.15813
20
-2.50435
11
8.2138
21
-2.50435
0
LINE
8
BLACK
6
CONTINUOUS
10
8.27384
20
-1.79372
11
8.27384
21
-1.73805
0
LINE
8
BLACK
6
CONTINUOUS
10
8.27384
20
-1.73805
11
8.21816
21
-1.73805
0
LINE
8
BLACK
6
CONTINUOUS
10
8.21816
20
-1.73805
11
8.21816
21
-1.79372
0
LINE
8
BLACK
6
CONTINUOUS
10
8.21816
20
-1.79372
11
8.27384
21
-1.79372
0
LINE
8
BLACK
6
CONTINUOUS
10
8.27384
20
-3.29372
11
8.27384
21
-3.23805
0
LINE
8
BLACK
6
CONTINUOUS
10
8.27384
20
-3.23805
11
8.21816
21
-3.23805
0
LINE
8
BLACK
6
CONTINUOUS
10
8.21816
20
-3.23805
11
8.21816
21
-3.29372
0
LINE
8
BLACK
6
CONTINUOUS
10
8.21816
20
-3.29372
11
8.27384
21
-3.29372
0
LINE
8
BLACK
6
CONTINUOUS
10
8.4013
20
-1.00435
11
8.4013
21
-0.948677
0
LINE
8
BLACK
6
CONTINUOUS
10
8.4013
20
-0.948677
11
8.34563
21
-0.948677
0
LINE
8
BLACK
6
CONTINUOUS
10
8.34563
20
-0.948677
11
8.34563
21
-1.00435
0
LINE
8
BLACK
6
CONTINUOUS
10
8.34563
20
-1.00435
11
8.4013
21
-1.00435
0
LINE
8
BLACK
6
CONTINUOUS
10
8.46134
20
-0.293725
11
8.46134
21
-0.238047
0
LINE
8
BLACK
6
CONTINUOUS
10
8.46134
20
-0.238047
11
8.40566
21
-0.238047
0
LINE
8
BLACK
6
CONTINUOUS
10
8.40566
20
-0.238047
11
8.40566
21
-0.293725
0
LINE
8
BLACK
6
CONTINUOUS
10
8.40566
20
-0.293725
11
8.46134
21
-0.293725
0
LINE
8
BLACK
6
CONTINUOUS
10
8.5888
20
-1.75435
11
8.5888
21
-1.69868
0
LINE
8
BLACK
6
CONTINUOUS
10
8.5888
20
-1.69868
11
8.53313
21
-1.69868
0
LINE
8
BLACK
6
CONTINUOUS
10
8.53313
20
-1.69868
11
8.53313
21
-1.75435
0
LINE
8
BLACK
6
CONTINUOUS
10
8.53313
20
-1.75435
11
8.5888
21
-1.75435
0
LINE
8
BLACK
6
CONTINUOUS
10
8.5888
20
-3.25435
11
8.5888
21
-3.19868
0
LINE
8
BLACK
6
CONTINUOUS
10
8.5888
20
-3.19868
11
8.53313
21
-3.19868
0
LINE
8
BLACK
6
CONTINUOUS
10
8.53313
20
-3.19868
11
8.53313
21
-3.25435
0
LINE
8
BLACK
6
CONTINUOUS
10
8.53313
20
-3.25435
11
8.5888
21
-3.25435
0
LINE
8
BLACK
6
CONTINUOUS
10
8.64884
20
-2.54372
11
8.64884
21
-2.48805
0
LINE
8
BLACK
6
CONTINUOUS
10
8.64884
20
-2.48805
11
8.59316
21
-2.48805
0
LINE
8
BLACK
6
CONTINUOUS
10
8.59316
20
-2.48805
11
8.59316
21
-2.54372
0
LINE
8
BLACK
6
CONTINUOUS
10
8.59316
20
-2.54372
11
8.64884
21
-2.54372
0
LINE
8
BLACK
6
CONTINUOUS
10
8.7763
20
-0.254355
11
8.7763
21
-0.198677
0
LINE
8
BLACK
6
CONTINUOUS
10
8.7763
20
-0.198677
11
8.72063
21
-0.198677
0
LINE
8
BLACK
6
CONTINUOUS
10
8.72063
20
-0.198677
11
8.72063
21
-0.254355
0
LINE
8
BLACK
6
CONTINUOUS
10
8.72063
20
-0.254355
11
8.7763
21
-0.254355
0
LINE
8
BLACK
6
CONTINUOUS
10
8.83634
20
-1.04372
11
8.83634
21
-0.988047
0
LINE
8
BLACK
6
CONTINUOUS
10
8.83634
20
-0.988047
11
8.78066
21
-0.988047
0
LINE
8
BLACK
6
CONTINUOUS
10
8.78066
20
-0.988047
11
8.78066
21
-1.04372
0
LINE
8
BLACK
6
CONTINUOUS
10
8.78066
20
-1.04372
11
8.83634
21
-1.04372
0
LINE
8
BLACK
6
CONTINUOUS
10
8.9638
20
-2.50435
11
8.9638
21
-2.44868
0
LINE
8
BLACK
6
CONTINUOUS
10
8.9638
20
-2.44868
11
8.90813
21
-2.44868
0
LINE
8
BLACK
6
CONTINUOUS
10
8.90813
20
-2.44868
11
8.90813
21
-2.50435
0
LINE
8
BLACK
6
CONTINUOUS
10
8.90813
20
-2.50435
11
8.9638
21
-2.50435
0
LINE
8
BLACK
6
CONTINUOUS
10
9.02384
20
-1.79372
11
9.02384
21
-1.73805
0
LINE
8
BLACK
6
CONTINUOUS
10
9.02384
20
-1.73805
11
8.96816
21
-1.73805
0
LINE
8
BLACK
6
CONTINUOUS
10
8.96816
20
-1.73805
11
8.96816
21
-1.79372
0
LINE
8
BLACK
6
CONTINUOUS
10
8.96816
20
-1.79372
11
9.02384
21
-1.79372
0
LINE
8
BLACK
6
CONTINUOUS
10
9.1513
20
-1.00435
11
9.1513
21
-0.948677
0
LINE
8
BLACK
6
CONTINUOUS
10
9.1513
20
-0.948677
11
9.09563
21
-0.948677
0
LINE
8
BLACK
6
CONTINUOUS
10
9.09563
20
-0.948677
11
9.09563
21
-1.00435
0
LINE
8
BLACK
6
CONTINUOUS
10
9.09563
20
-1.00435
11
9.1513
21
-1.00435
0
LINE
8
BLACK
6
CONTINUOUS
10
9.21134
20
-0.293725
11
9.21134
21
-0.238047
0
LINE
8
BLACK
6
CONTINUOUS
10
9.21134
20
-0.238047
11
9.15566
21
-0.238047
0
LINE
8
BLACK
6
CONTINUOUS
10
9.15566
20
-0.238047
11
9.15566
21
-0.293725
0
LINE
8
BLACK
6
CONTINUOUS
10
9.15566
20
-0.293725
11
9.21134
21
-0.293725
0
LINE
8
BLACK
6
CONTINUOUS
10
9.21134
20
-3.29372
11
9.21134
21
-3.23805
0
LINE
8
BLACK
6
CONTINUOUS
10
9.21134
20
-3.23805
11
9.15566
21
-3.23805
0
LINE
8
BLACK
6
CONTINUOUS
10
9.15566
20
-3.23805
11
9.15566
21
-3.29372
0
LINE
8
BLACK
6
CONTINUOUS
10
9.15566
20
-3.29372
11
9.21134
21
-3.29372
0
LINE
8
BLACK
6
CONTINUOUS
10
9.3388
20
-1.75435
11
9.3388
21
-1.69868
0
LINE
8
BLACK
6
CONTINUOUS
10
9.3388
20
-1.69868
11
9.28313
21
-1.69868
0
LINE
8
BLACK
6
CONTINUOUS
10
9.28313
20
-1.69868
11
9.28313
21
-1.75435
0
LINE
8
BLACK
6
CONTINUOUS
10
9.28313
20
-1.75435
11
9.3388
21
-1.75435
0
LINE
8
BLACK
6
CONTINUOUS
10
9.5263
20
-0.254355
11
9.5263
21
-0.198677
0
LINE
8
BLACK
6
CONTINUOUS
10
9.5263
20
-0.198677
11
9.47063
21
-0.198677
0
LINE
8
BLACK
6
CONTINUOUS
10
9.47063
20
-0.198677
11
9.47063
21
-0.254355
0
LINE
8
BLACK
6
CONTINUOUS
10
9.47063
20
-0.254355
11
9.5263
21
-0.254355
0
LINE
8
BLACK
6
CONTINUOUS
10
9.5263
20
-3.25435
11
9.5263
21
-3.19868
0
LINE
8
BLACK
6
CONTINUOUS
10
9.5263
20
-3.19868
11
9.47063
21
-3.19868
0
LINE
8
BLACK
6
CONTINUOUS
10
9.47063
20
-3.19868
11
9.47063
21
-3.25435
0
LINE
8
BLACK
6
CONTINUOUS
10
9.47063
20
-3.25435
11
9.5263
21
-3.25435
0
LINE
8
BLACK
6
CONTINUOUS
10
9.58634
20
-1.04372
11
9.58634
21
-0.988047
0
LINE
8
BLACK
6
CONTINUOUS
10
9.58634
20
-0.988047
11
9.53066
21
-0.988047
0
LINE
8
BLACK
6
CONTINUOUS
10
9.53066
20
-0.988047
11
9.53066
21
-1.04372
0
LINE
8
BLACK
6
CONTINUOUS
10
9.53066
20
-1.04372
11
9.58634
21
-1.04372
0
LINE
8
BLACK
6
CONTINUOUS
10
9.68009
20
-2.54372
11
9.68009
21
-2.48805
0
LINE
8
BLACK
6
CONTINUOUS
10
9.68009
20
-2.48805
11
9.62441
21
-2.48805
0
LINE
8
BLACK
6
CONTINUOUS
10
9.62441
20
-2.48805
11
9.62441
21
-2.54372
0
LINE
8
BLACK
6
CONTINUOUS
10
9.62441
20
-2.54372
11
9.68009
21
-2.54372
0
LINE
8
BLACK
6
CONTINUOUS
10
9.9013
20
-1.00435
11
9.9013
21
-0.948677
0
LINE
8
BLACK
6
CONTINUOUS
10
9.9013
20
-0.948677
11
9.84563
21
-0.948677
0
LINE
8
BLACK
6
CONTINUOUS
10
9.84563
20
-0.948677
11
9.84563
21
-1.00435
0
LINE
8
BLACK
6
CONTINUOUS
10
9.84563
20
-1.00435
11
9.9013
21
-1.00435
0
LINE
8
BLACK
6
CONTINUOUS
10
9.96134
20
-0.293725
11
9.96134
21
-0.238047
0
LINE
8
BLACK
6
CONTINUOUS
10
9.96134
20
-0.238047
11
9.90566
21
-0.238047
0
LINE
8
BLACK
6
CONTINUOUS
10
9.90566
20
-0.238047
11
9.90566
21
-0.293725
0
LINE
8
BLACK
6
CONTINUOUS
10
9.90566
20
-0.293725
11
9.96134
21
-0.293725
0
LINE
8
BLACK
6
CONTINUOUS
10
9.99505
20
-2.50435
11
9.99505
21
-2.44868
0
LINE
8
BLACK
6
CONTINUOUS
10
9.99505
20
-2.44868
11
9.93938
21
-2.44868
0
LINE
8
BLACK
6
CONTINUOUS
10
9.93938
20
-2.44868
11
9.93938
21
-2.50435
0
LINE
8
BLACK
6
CONTINUOUS
10
9.93938
20
-2.50435
11
9.99505
21
-2.50435
0
LINE
8
BLACK
6
CONTINUOUS
10
10.2426
20
-1.79372
11
10.2426
21
-1.73805
0
LINE
8
BLACK
6
CONTINUOUS
10
10.2426
20
-1.73805
11
10.1869
21
-1.73805
0
LINE
8
BLACK
6
CONTINUOUS
10
10.1869
20
-1.73805
11
10.1869
21
-1.79372
0
LINE
8
BLACK
6
CONTINUOUS
10
10.1869
20
-1.79372
11
10.2426
21
-1.79372
0
LINE
8
BLACK
6
CONTINUOUS
10
10.2763
20
-0.254355
11
10.2763
21
-0.198677
0
LINE
8
BLACK
6
CONTINUOUS
10
10.2763
20
-0.198677
11
10.2206
21
-0.198677
0
LINE
8
BLACK
6
CONTINUOUS
10
10.2206
20
-0.198677
11
10.2206
21
-0.254355
0
LINE
8
BLACK
6
CONTINUOUS
10
10.2206
20
-0.254355
11
10.2763
21
-0.254355
0
LINE
8
BLACK
6
CONTINUOUS
10
10.5238
20
-1.04372
11
10.5238
21
-0.988047
0
LINE
8
BLACK
6
CONTINUOUS
10
10.5238
20
-0.988047
11
10.4682
21
-0.988047
0
LINE
8
BLACK
6
CONTINUOUS
10
10.4682
20
-0.988047
11
10.4682
21
-1.04372
0
LINE
8
BLACK
6
CONTINUOUS
10
10.4682
20
-1.04372
11
10.5238
21
-1.04372
0
LINE
8
BLACK
6
CONTINUOUS
10
10.5576
20
-1.75435
11
10.5576
21
-1.69868
0
LINE
8
BLACK
6
CONTINUOUS
10
10.5576
20
-1.69868
11
10.5019
21
-1.69868
0
LINE
8
BLACK
6
CONTINUOUS
10
10.5019
20
-1.69868
11
10.5019
21
-1.75435
0
LINE
8
BLACK
6
CONTINUOUS
10
10.5019
20
-1.75435
11
10.5576
21
-1.75435
0
LINE
8
BLACK
6
CONTINUOUS
10
10.7113
20
-0.293725
11
10.7113
21
-0.238047
0
LINE
8
BLACK
6
CONTINUOUS
10
10.7113
20
-0.238047
11
10.6557
21
-0.238047
0
LINE
8
BLACK
6
CONTINUOUS
10
10.6557
20
-0.238047
11
10.6557
21
-0.293725
0
LINE
8
BLACK
6
CONTINUOUS
10
10.6557
20
-0.293725
11
10.7113
21
-0.293725
0
LINE
8
BLACK
6
CONTINUOUS
10
10.7113
20
-2.54372
11
10.7113
21
-2.48805
0
LINE
8
BLACK
6
CONTINUOUS
10
10.7113
20
-2.48805
11
10.6557
21
-2.48805
0
LINE
8
BLACK
6
CONTINUOUS
10
10.6557
20
-2.48805
11
10.6557
21
-2.54372
0
LINE
8
BLACK
6
CONTINUOUS
10
10.6557
20
-2.54372
11
10.7113
21
-2.54372
0
LINE
8
BLACK
6
CONTINUOUS
10
10.8388
20
-1.00435
11
10.8388
21
-0.948677
0
LINE
8
BLACK
6
CONTINUOUS
10
10.8388
20
-0.948677
11
10.7831
21
-0.948677
0
LINE
8
BLACK
6
CONTINUOUS
10
10.7831
20
-0.948677
11
10.7831
21
-1.00435
0
LINE
8
BLACK
6
CONTINUOUS
10
10.7831
20
-1.00435
11
10.8388
21
-1.00435
0
LINE
8
BLACK
6
CONTINUOUS
10
11.0263
20
-0.254355
11
11.0263
21
-0.198677
0
LINE
8
BLACK
6
CONTINUOUS
10
11.0263
20
-0.198677
11
10.9706
21
-0.198677
0
LINE
8
BLACK
6
CONTINUOUS
10
10.9706
20
-0.198677
11
10.9706
21
-0.254355
0
LINE
8
BLACK
6
CONTINUOUS
10
10.9706
20
-0.254355
11
11.0263
21
-0.254355
0
LINE
8
BLACK
6
CONTINUOUS
10
11.0263
20
-2.50435
11
11.0263
21
-2.44868
0
LINE
8
BLACK
6
CONTINUOUS
10
11.0263
20
-2.44868
11
10.9706
21
-2.44868
0
LINE
8
BLACK
6
CONTINUOUS
10
10.9706
20
-2.44868
11
10.9706
21
-2.50435
0
LINE
8
BLACK
6
CONTINUOUS
10
10.9706
20
-2.50435
11
11.0263
21
-2.50435
0
LINE
8
BLACK
6
CONTINUOUS
10
0.094535
20
-4.0555
11
0.094535
21
-3.97676
0
LINE
8
BLACK
6
CONTINUOUS
10
0.094535
20
-3.97676
11
0.113283
21
-3.97676
0
LINE
8
BLACK
6
CONTINUOUS
10
0.113283
20
-3.97676
11
0.124531
21
-3.98051
0
LINE
8
BLACK
6
CONTINUOUS
10
0.124531
20
-3.98051
11
0.13203
21
-3.98801
0
LINE
8
BLACK
6
CONTINUOUS
10
0.13203
20
-3.98801
11
0.13578
21
-3.99551
0
LINE
8
BLACK
6
CONTINUOUS
10
0.13578
20
-3.99551
11
0.139529
21
-4.01051
0
LINE
8
BLACK
6
CONTINUOUS
10
0.139529
20
-4.01051
11
0.139529
21
-4.02176
0
LINE
8
BLACK
6
CONTINUOUS
10
0.139529
20
-4.02176
11
0.13578
21
-4.03675
0
LINE
8
BLACK
6
CONTINUOUS
10
0.13578
20
-4.03675
11
0.13203
21
-4.04425
0
LINE
8
BLACK
6
CONTINUOUS
10
0.13203
20
-4.04425
11
0.124531
21
-4.05175
0
LINE
8
BLACK
6
CONTINUOUS
10
0.124531
20
-4.05175
11
0.113283
21
-4.0555
0
LINE
8
BLACK
6
CONTINUOUS
10
0.113283
20
-4.0555
11
0.094535
21
-4.0555
0
LINE
8
BLACK
6
CONTINUOUS
10
0.173275
20
-4.0555
11
0.173275
21
-4.00301
0
LINE
8
BLACK
6
CONTINUOUS
10
0.173275
20
-4.01801
11
0.177025
21
-4.01051
0
LINE
8
BLACK
6
CONTINUOUS
10
0.177025
20
-4.01051
11
0.180774
21
-4.00676
0
LINE
8
BLACK
6
CONTINUOUS
10
0.180774
20
-4.00676
11
0.188273
21
-4.00301
0
LINE
8
BLACK
6
CONTINUOUS
10
0.188273
20
-4.00301
11
0.195772
21
-4.00301
0
LINE
8
BLACK
6
CONTINUOUS
10
0.222019
20
-4.0555
11
0.222019
21
-4.00301
0
LINE
8
BLACK
6
CONTINUOUS
10
0.222019
20
-3.97676
11
0.21827
21
-3.98051
0
LINE
8
BLACK
6
CONTINUOUS
10
0.21827
20
-3.98051
11
0.222019
21
-3.98426
0
LINE
8
BLACK
6
CONTINUOUS
10
0.222019
20
-3.98426
11
0.225769
21
-3.98051
0
LINE
8
BLACK
6
CONTINUOUS
10
0.225769
20
-3.98051
11
0.222019
21
-3.97676
0
LINE
8
BLACK
6
CONTINUOUS
10
0.222019
20
-3.97676
11
0.222019
21
-3.98426
0
LINE
8
BLACK
6
CONTINUOUS
10
0.270763
20
-4.0555
11
0.263264
21
-4.05175
0
LINE
8
BLACK
6
CONTINUOUS
10
0.263264
20
-4.05175
11
0.259514
21
-4.04425
0
LINE
8
BLACK
6
CONTINUOUS
10
0.259514
20
-4.04425
11
0.259514
21
-3.97676
0
LINE
8
BLACK
6
CONTINUOUS
10
0.312008
20
-4.0555
11
0.304509
21
-4.05175
0
LINE
8
BLACK
6
CONTINUOUS
10
0.304509
20
-4.05175
11
0.300759
21
-4.04425
0
LINE
8
BLACK
6
CONTINUOUS
10
0.300759
20
-4.04425
11
0.300759
21
-3.97676
0
LINE
8
BLACK
6
CONTINUOUS
10
0.389248
20
-4.0555
11
0.389248
21
-3.97676
0
LINE
8
BLACK
6
CONTINUOUS
10
0.389248
20
-3.97676
11
0.415495
21
-4.03301
0
LINE
8
BLACK
6
CONTINUOUS
10
0.415495
20
-4.03301
11
0.441742
21
-3.97676
0
LINE
8
BLACK
6
CONTINUOUS
10
0.441742
20
-3.97676
11
0.441742
21
-4.0555
0
LINE
8
BLACK
6
CONTINUOUS
10
0.512983
20
-4.0555
11
0.512983
21
-4.01426
0
LINE
8
BLACK
6
CONTINUOUS
10
0.512983
20
-4.01426
11
0.509233
21
-4.00676
0
LINE
8
BLACK
6
CONTINUOUS
10
0.509233
20
-4.00676
11
0.501734
21
-4.00301
0
LINE
8
BLACK
6
CONTINUOUS
10
0.501734
20
-4.00301
11
0.486736
21
-4.00301
0
LINE
8
BLACK
6
CONTINUOUS
10
0.486736
20
-4.00301
11
0.479237
21
-4.00676
0
LINE
8
BLACK
6
CONTINUOUS
10
0.512983
20
-4.05175
11
0.505484
21
-4.0555
0
LINE
8
BLACK
6
CONTINUOUS
10
0.505484
20
-4.0555
11
0.486736
21
-4.0555
0
LINE
8
BLACK
6
CONTINUOUS
10
0.486736
20
-4.0555
11
0.479237
21
-4.05175
0
LINE
8
BLACK
6
CONTINUOUS
10
0.479237
20
-4.05175
11
0.475487
21
-4.04425
0
LINE
8
BLACK
6
CONTINUOUS
10
0.475487
20
-4.04425
11
0.475487
21
-4.03675
0
LINE
8
BLACK
6
CONTINUOUS
10
0.475487
20
-4.03675
11
0.479237
21
-4.02926
0
LINE
8
BLACK
6
CONTINUOUS
10
0.479237
20
-4.02926
11
0.486736
21
-4.02551
0
LINE
8
BLACK
6
CONTINUOUS
10
0.486736
20
-4.02551
11
0.505484
21
-4.02551
0
LINE
8
BLACK
6
CONTINUOUS
10
0.505484
20
-4.02551
11
0.512983
21
-4.02176
0
LINE
8
BLACK
6
CONTINUOUS
10
0.550478
20
-4.00301
11
0.550478
21
-4.08175
0
LINE
8
BLACK
6
CONTINUOUS
10
0.550478
20
-4.00676
11
0.557977
21
-4.00301
0
LINE
8
BLACK
6
CONTINUOUS
10
0.557977
20
-4.00301
11
0.572975
21
-4.00301
0
LINE
8
BLACK
6
CONTINUOUS
10
0.572975
20
-4.00301
11
0.580474
21
-4.00676
0
LINE
8
BLACK
6
CONTINUOUS
10
0.580474
20
-4.00676
11
0.584224
21
-4.01051
0
LINE
8
BLACK
6
CONTINUOUS
10
0.584224
20
-4.01051
11
0.587973
21
-4.01801
0
LINE
8
BLACK
6
CONTINUOUS
10
0.587973
20
-4.01801
11
0.587973
21
-4.0405
0
LINE
8
BLACK
6
CONTINUOUS
10
0.587973
20
-4.0405
11
0.584224
21
-4.048
0
LINE
8
BLACK
6
CONTINUOUS
10
0.584224
20
-4.048
11
0.580474
21
-4.05175
0
LINE
8
BLACK
6
CONTINUOUS
10
0.580474
20
-4.05175
11
0.572975
21
-4.0555
0
LINE
8
BLACK
6
CONTINUOUS
10
0.572975
20
-4.0555
11
0.557977
21
-4.0555
0
LINE
8
BLACK
6
CONTINUOUS
10
0.557977
20
-4.0555
11
0.550478
21
-4.05175
0
LINE
8
BLACK
6
CONTINUOUS
10
0.621719
20
-4.048
11
0.625469
21
-4.05175
0
LINE
8
BLACK
6
CONTINUOUS
10
0.625469
20
-4.05175
11
0.621719
21
-4.0555
0
LINE
8
BLACK
6
CONTINUOUS
10
0.621719
20
-4.0555
11
0.61797
21
-4.05175
0
LINE
8
BLACK
6
CONTINUOUS
10
0.61797
20
-4.05175
11
0.621719
21
-4.048
0
LINE
8
BLACK
6
CONTINUOUS
10
0.621719
20
-4.048
11
0.621719
21
-4.0555
0
LINE
8
BLACK
6
CONTINUOUS
10
0.621719
20
-4.00676
11
0.625469
21
-4.01051
0
LINE
8
BLACK
6
CONTINUOUS
10
0.625469
20
-4.01051
11
0.621719
21
-4.01426
0
LINE
8
BLACK
6
CONTINUOUS
10
0.621719
20
-4.01426
11
0.61797
21
-4.01051
0
LINE
8
BLACK
6
CONTINUOUS
10
0.61797
20
-4.01051
11
0.621719
21
-4.00676
0
LINE
8
BLACK
6
CONTINUOUS
10
0.621719
20
-4.00676
11
0.621719
21
-4.01426
0
LINE
8
BLACK
6
CONTINUOUS
10
-0.0187008
20
-4.18406
11
-0.00295276
21
-4.1998
0
LINE
8
BLACK
6
CONTINUOUS
10
-0.00295276
20
-4.18406
11
-0.0187008
21
-4.1998
0
LINE
8
BLACK
6
CONTINUOUS
10
0.109533
20
-4.14212
11
0.117032
21
-4.14212
0
LINE
8
BLACK
6
CONTINUOUS
10
0.117032
20
-4.14212
11
0.124531
21
-4.14587
0
LINE
8
BLACK
6
CONTINUOUS
10
0.124531
20
-4.14587
11
0.128281
21
-4.14962
0
LINE
8
BLACK
6
CONTINUOUS
10
0.128281
20
-4.14962
11
0.13203
21
-4.15711
0
LINE
8
BLACK
6
CONTINUOUS
10
0.13203
20
-4.15711
11
0.13578
21
-4.17211
0
LINE
8
BLACK
6
CONTINUOUS
10
0.13578
20
-4.17211
11
0.13578
21
-4.19086
0
LINE
8
BLACK
6
CONTINUOUS
10
0.13578
20
-4.19086
11
0.13203
21
-4.20586
0
LINE
8
BLACK
6
CONTINUOUS
10
0.13203
20
-4.20586
11
0.128281
21
-4.21336
0
LINE
8
BLACK
6
CONTINUOUS
10
0.128281
20
-4.21336
11
0.124531
21
-4.21711
0
LINE
8
BLACK
6
CONTINUOUS
10
0.124531
20
-4.21711
11
0.117032
21
-4.22086
0
LINE
8
BLACK
6
CONTINUOUS
10
0.117032
20
-4.22086
11
0.109533
21
-4.22086
0
LINE
8
BLACK
6
CONTINUOUS
10
0.109533
20
-4.22086
11
0.102034
21
-4.21711
0
LINE
8
BLACK
6
CONTINUOUS
10
0.102034
20
-4.21711
11
0.0982846
21
-4.21336
0
LINE
8
BLACK
6
CONTINUOUS
10
0.0982846
20
-4.21336
11
0.094535
21
-4.20586
0
LINE
8
BLACK
6
CONTINUOUS
10
0.094535
20
-4.20586
11
0.0907855
21
-4.19086
0
LINE
8
BLACK
6
CONTINUOUS
10
0.0907855
20
-4.19086
11
0.0907855
21
-4.17211
0
LINE
8
BLACK
6
CONTINUOUS
10
0.0907855
20
-4.17211
11
0.094535
21
-4.15711
0
LINE
8
BLACK
6
CONTINUOUS
10
0.094535
20
-4.15711
11
0.0982846
21
-4.14962
0
LINE
8
BLACK
6
CONTINUOUS
10
0.0982846
20
-4.14962
11
0.102034
21
-4.14587
0
LINE
8
BLACK
6
CONTINUOUS
10
0.102034
20
-4.14587
11
0.109533
21
-4.14212
0
LINE
8
BLACK
6
CONTINUOUS
10
0.169526
20
-4.21336
11
0.173275
21
-4.21711
0
LINE
8
BLACK
6
CONTINUOUS
10
0.173275
20
-4.21711
11
0.169526
21
-4.22086
0
LINE
8
BLACK
6
CONTINUOUS
10
0.169526
20
-4.22086
11
0.165776
21
-4.21711
0
LINE
8
BLACK
6
CONTINUOUS
10
0.165776
20
-4.21711
11
0.169526
21
-4.21336
0
LINE
8
BLACK
6
CONTINUOUS
10
0.169526
20
-4.21336
11
0.169526
21
-4.22086
0
LINE
8
BLACK
6
CONTINUOUS
10
0.240767
20
-4.16836
11
0.240767
21
-4.22086
0
LINE
8
BLACK
6
CONTINUOUS
10
0.222019
20
-4.13837
11
0.203271
21
-4.19461
0
LINE
8
BLACK
6
CONTINUOUS
10
0.203271
20
-4.19461
11
0.252015
21
-4.19461
0
LINE
8
BLACK
6
CONTINUOUS
10
0.29701
20
-4.14212
11
0.304509
21
-4.14212
0
LINE
8
BLACK
6
CONTINUOUS
10
0.304509
20
-4.14212
11
0.312008
21
-4.14587
0
LINE
8
BLACK
6
CONTINUOUS
10
0.312008
20
-4.14587
11
0.315757
21
-4.14962
0
LINE
8
BLACK
6
CONTINUOUS
10
0.315757
20
-4.14962
11
0.319507
21
-4.15711
0
LINE
8
BLACK
6
CONTINUOUS
10
0.319507
20
-4.15711
11
0.323256
21
-4.17211
0
LINE
8
BLACK
6
CONTINUOUS
10
0.323256
20
-4.17211
11
0.323256
21
-4.19086
0
LINE
8
BLACK
6
CONTINUOUS
10
0.323256
20
-4.19086
11
0.319507
21
-4.20586
0
LINE
8
BLACK
6
CONTINUOUS
10
0.319507
20
-4.20586
11
0.315757
21
-4.21336
0
LINE
8
BLACK
6
CONTINUOUS
10
0.315757
20
-4.21336
11
0.312008
21
-4.21711
0
LINE
8
BLACK
6
CONTINUOUS
10
0.312008
20
-4.21711
11
0.304509
21
-4.22086
0
LINE
8
BLACK
6
CONTINUOUS
10
0.304509
20
-4.22086
11
0.29701
21
-4.22086
0
LINE
8
BLACK
6
CONTINUOUS
10
0.29701
20
-4.22086
11
0.289511
21
-4.21711
0
LINE
8
BLACK
6
CONTINUOUS
10
0.289511
20
-4.21711
11
0.285761
21
-4.21336
0
LINE
8
BLACK
6
CONTINUOUS
10
0.285761
20
-4.21336
11
0.282012
21
-4.20586
0
LINE
8
BLACK
6
CONTINUOUS
10
0.282012
20
-4.20586
11
0.278262
21
-4.19086
0
LINE
8
BLACK
6
CONTINUOUS
10
0.278262
20
-4.19086
11
0.278262
21
-4.17211
0
LINE
8
BLACK
6
CONTINUOUS
10
0.278262
20
-4.17211
11
0.282012
21
-4.15711
0
LINE
8
BLACK
6
CONTINUOUS
10
0.282012
20
-4.15711
11
0.285761
21
-4.14962
0
LINE
8
BLACK
6
CONTINUOUS
10
0.285761
20
-4.14962
11
0.289511
21
-4.14587
0
LINE
8
BLACK
6
CONTINUOUS
10
0.289511
20
-4.14587
11
0.29701
21
-4.14212
0
LINE
8
BLACK
6
CONTINUOUS
10
0.372
20
-4.14212
11
0.379499
21
-4.14212
0
LINE
8
BLACK
6
CONTINUOUS
10
0.379499
20
-4.14212
11
0.386999
21
-4.14587
0
LINE
8
BLACK
6
CONTINUOUS
10
0.386999
20
-4.14587
11
0.390748
21
-4.14962
0
LINE
8
BLACK
6
CONTINUOUS
10
0.390748
20
-4.14962
11
0.394498
21
-4.15711
0
LINE
8
BLACK
6
CONTINUOUS
10
0.394498
20
-4.15711
11
0.398247
21
-4.17211
0
LINE
8
BLACK
6
CONTINUOUS
10
0.398247
20
-4.17211
11
0.398247
21
-4.19086
0
LINE
8
BLACK
6
CONTINUOUS
10
0.398247
20
-4.19086
11
0.394498
21
-4.20586
0
LINE
8
BLACK
6
CONTINUOUS
10
0.394498
20
-4.20586
11
0.390748
21
-4.21336
0
LINE
8
BLACK
6
CONTINUOUS
10
0.390748
20
-4.21336
11
0.386999
21
-4.21711
0
LINE
8
BLACK
6
CONTINUOUS
10
0.386999
20
-4.21711
11
0.379499
21
-4.22086
0
LINE
8
BLACK
6
CONTINUOUS
10
0.379499
20
-4.22086
11
0.372
21
-4.22086
0
LINE
8
BLACK
6
CONTINUOUS
10
0.372
20
-4.22086
11
0.364501
21
-4.21711
0
LINE
8
BLACK
6
CONTINUOUS
10
0.364501
20
-4.21711
11
0.360752
21
-4.21336
0
LINE
8
BLACK
6
CONTINUOUS
10
0.360752
20
-4.21336
11
0.357002
21
-4.20586
0
LINE
8
BLACK
6
CONTINUOUS
10
0.357002
20
-4.20586
11
0.353253
21
-4.19086
0
LINE
8
BLACK
6
CONTINUOUS
10
0.353253
20
-4.19086
11
0.353253
21
-4.17211
0
LINE
8
BLACK
6
CONTINUOUS
10
0.353253
20
-4.17211
11
0.357002
21
-4.15711
0
LINE
8
BLACK
6
CONTINUOUS
10
0.357002
20
-4.15711
11
0.360752
21
-4.14962
0
LINE
8
BLACK
6
CONTINUOUS
10
0.360752
20
-4.14962
11
0.364501
21
-4.14587
0
LINE
8
BLACK
6
CONTINUOUS
10
0.364501
20
-4.14587
11
0.372
21
-4.14212
0
LINE
8
BLACK
6
CONTINUOUS
10
0.431993
20
-4.22086
11
0.431993
21
-4.16836
0
LINE
8
BLACK
6
CONTINUOUS
10
0.431993
20
-4.17586
11
0.435742
21
-4.17211
0
LINE
8
BLACK
6
CONTINUOUS
10
0.435742
20
-4.17211
11
0.443241
21
-4.16836
0
LINE
8
BLACK
6
CONTINUOUS
10
0.443241
20
-4.16836
11
0.45449
21
-4.16836
0
LINE
8
BLACK
6
CONTINUOUS
10
0.45449
20
-4.16836
11
0.461989
21
-4.17211
0
LINE
8
BLACK
6
CONTINUOUS
10
0.461989
20
-4.17211
11
0.465739
21
-4.17961
0
LINE
8
BLACK
6
CONTINUOUS
10
0.465739
20
-4.17961
11
0.465739
21
-4.22086
0
LINE
8
BLACK
6
CONTINUOUS
10
0.465739
20
-4.17961
11
0.469488
21
-4.17211
0
LINE
8
BLACK
6
CONTINUOUS
10
0.469488
20
-4.17211
11
0.476987
21
-4.16836
0
LINE
8
BLACK
6
CONTINUOUS
10
0.476987
20
-4.16836
11
0.488236
21
-4.16836
0
LINE
8
BLACK
6
CONTINUOUS
10
0.488236
20
-4.16836
11
0.495735
21
-4.17211
0
LINE
8
BLACK
6
CONTINUOUS
10
0.495735
20
-4.17211
11
0.499484
21
-4.17961
0
LINE
8
BLACK
6
CONTINUOUS
10
0.499484
20
-4.17961
11
0.499484
21
-4.22086
0
LINE
8
BLACK
6
CONTINUOUS
10
0.53698
20
-4.22086
11
0.53698
21
-4.16836
0
LINE
8
BLACK
6
CONTINUOUS
10
0.53698
20
-4.17586
11
0.540729
21
-4.17211
0
LINE
8
BLACK
6
CONTINUOUS
10
0.540729
20
-4.17211
11
0.548228
21
-4.16836
0
LINE
8
BLACK
6
CONTINUOUS
10
0.548228
20
-4.16836
11
0.559477
21
-4.16836
0
LINE
8
BLACK
6
CONTINUOUS
10
0.559477
20
-4.16836
11
0.566976
21
-4.17211
0
LINE
8
BLACK
6
CONTINUOUS
10
0.566976
20
-4.17211
11
0.570726
21
-4.17961
0
LINE
8
BLACK
6
CONTINUOUS
10
0.570726
20
-4.17961
11
0.570726
21
-4.22086
0
LINE
8
BLACK
6
CONTINUOUS
10
0.570726
20
-4.17961
11
0.574475
21
-4.17211
0
LINE
8
BLACK
6
CONTINUOUS
10
0.574475
20
-4.17211
11
0.581974
21
-4.16836
0
LINE
8
BLACK
6
CONTINUOUS
10
0.581974
20
-4.16836
11
0.593223
21
-4.16836
0
LINE
8
BLACK
6
CONTINUOUS
10
0.593223
20
-4.16836
11
0.600722
21
-4.17211
0
LINE
8
BLACK
6
CONTINUOUS
10
0.600722
20
-4.17211
11
0.604471
21
-4.17961
0
LINE
8
BLACK
6
CONTINUOUS
10
0.604471
20
-4.17961
11
0.604471
21
-4.22086
0
LINE
8
BLACK
6
CONTINUOUS
10
0.745454
20
-4.13837
11
0.677962
21
-4.2396
0
LINE
8
BLACK
6
CONTINUOUS
10
0.833943
20
-4.14212
11
0.841442
21
-4.14212
0
LINE
8
BLACK
6
CONTINUOUS
10
0.841442
20
-4.14212
11
0.848941
21
-4.14587
0
LINE
8
BLACK
6
CONTINUOUS
10
0.848941
20
-4.14587
11
0.85269
21
-4.14962
0
LINE
8
BLACK
6
CONTINUOUS
10
0.85269
20
-4.14962
11
0.85644
21
-4.15711
0
LINE
8
BLACK
6
CONTINUOUS
10
0.85644
20
-4.15711
11
0.860189
21
-4.17211
0
LINE
8
BLACK
6
CONTINUOUS
10
0.860189
20
-4.17211
11
0.860189
21
-4.19086
0
LINE
8
BLACK
6
CONTINUOUS
10
0.860189
20
-4.19086
11
0.85644
21
-4.20586
0
LINE
8
BLACK
6
CONTINUOUS
10
0.85644
20
-4.20586
11
0.85269
21
-4.21336
0
LINE
8
BLACK
6
CONTINUOUS
10
0.85269
20
-4.21336
11
0.848941
21
-4.21711
0
LINE
8
BLACK
6
CONTINUOUS
10
0.848941
20
-4.21711
11
0.841442
21
-4.22086
0
LINE
8
BLACK
6
CONTINUOUS
10
0.841442
20
-4.22086
11
0.833943
21
-4.22086
0
LINE
8
BLACK
6
CONTINUOUS
10
0.833943
20
-4.22086
11
0.826444
21
-4.21711
0
LINE
8
BLACK
6
CONTINUOUS
10
0.826444
20
-4.21711
11
0.822694
21
-4.21336
0
LINE
8
BLACK
6
CONTINUOUS
10
0.822694
20
-4.21336
11
0.818945
21
-4.20586
0
LINE
8
BLACK
6
CONTINUOUS
10
0.818945
20
-4.20586
11
0.815195
21
-4.19086
0
LINE
8
BLACK
6
CONTINUOUS
10
0.815195
20
-4.19086
11
0.815195
21
-4.17211
0
LINE
8
BLACK
6
CONTINUOUS
10
0.815195
20
-4.17211
11
0.818945
21
-4.15711
0
LINE
8
BLACK
6
CONTINUOUS
10
0.818945
20
-4.15711
11
0.822694
21
-4.14962
0
LINE
8
BLACK
6
CONTINUOUS
10
0.822694
20
-4.14962
11
0.826444
21
-4.14587
0
LINE
8
BLACK
6
CONTINUOUS
10
0.826444
20
-4.14587
11
0.833943
21
-4.14212
0
LINE
8
BLACK
6
CONTINUOUS
10
0.893935
20
-4.21336
11
0.897685
21
-4.21711
0
LINE
8
BLACK
6
CONTINUOUS
10
0.897685
20
-4.21711
11
0.893935
21
-4.22086
0
LINE
8
BLACK
6
CONTINUOUS
10
0.893935
20
-4.22086
11
0.890186
21
-4.21711
0
LINE
8
BLACK
6
CONTINUOUS
10
0.890186
20
-4.21711
11
0.893935
21
-4.21336
0
LINE
8
BLACK
6
CONTINUOUS
10
0.893935
20
-4.21336
11
0.893935
21
-4.22086
0
LINE
8
BLACK
6
CONTINUOUS
10
0.946429
20
-4.14212
11
0.953928
21
-4.14212
0
LINE
8
BLACK
6
CONTINUOUS
10
0.953928
20
-4.14212
11
0.961427
21
-4.14587
0
LINE
8
BLACK
6
CONTINUOUS
10
0.961427
20
-4.14587
11
0.965176
21
-4.14962
0
LINE
8
BLACK
6
CONTINUOUS
10
0.965176
20
-4.14962
11
0.968926
21
-4.15711
0
LINE
8
BLACK
6
CONTINUOUS
10
0.968926
20
-4.15711
11
0.972675
21
-4.17211
0
LINE
8
BLACK
6
CONTINUOUS
10
0.972675
20
-4.17211
11
0.972675
21
-4.19086
0
LINE
8
BLACK
6
CONTINUOUS
10
0.972675
20
-4.19086
11
0.968926
21
-4.20586
0
LINE
8
BLACK
6
CONTINUOUS
10
0.968926
20
-4.20586
11
0.965176
21
-4.21336
0
LINE
8
BLACK
6
CONTINUOUS
10
0.965176
20
-4.21336
11
0.961427
21
-4.21711
0
LINE
8
BLACK
6
CONTINUOUS
10
0.961427
20
-4.21711
11
0.953928
21
-4.22086
0
LINE
8
BLACK
6
CONTINUOUS
10
0.953928
20
-4.22086
11
0.946429
21
-4.22086
0
LINE
8
BLACK
6
CONTINUOUS
10
0.946429
20
-4.22086
11
0.93893
21
-4.21711
0
LINE
8
BLACK
6
CONTINUOUS
10
0.93893
20
-4.21711
11
0.93518
21
-4.21336
0
LINE
8
BLACK
6
CONTINUOUS
10
0.93518
20
-4.21336
11
0.93143
21
-4.20586
0
LINE
8
BLACK
6
CONTINUOUS
10
0.93143
20
-4.20586
11
0.927681
21
-4.19086
0
LINE
8
BLACK
6
CONTINUOUS
10
0.927681
20
-4.19086
11
0.927681
21
-4.17211
0
LINE
8
BLACK
6
CONTINUOUS
10
0.927681
20
-4.17211
11
0.93143
21
-4.15711
0
LINE
8
BLACK
6
CONTINUOUS
10
0.93143
20
-4.15711
11
0.93518
21
-4.14962
0
LINE
8
BLACK
6
CONTINUOUS
10
0.93518
20
-4.14962
11
0.93893
21
-4.14587
0
LINE
8
BLACK
6
CONTINUOUS
10
0.93893
20
-4.14587
11
0.946429
21
-4.14212
0
LINE
8
BLACK
6
CONTINUOUS
10
1.04767
20
-4.22086
11
1.00267
21
-4.22086
0
LINE
8
BLACK
6
CONTINUOUS
10
1.02517
20
-4.22086
11
1.02517
21
-4.14212
0
LINE
8
BLACK
6
CONTINUOUS
10
1.02517
20
-4.14212
11
1.01767
21
-4.15337
0
LINE
8
BLACK
6
CONTINUOUS
10
1.01767
20
-4.15337
11
1.01017
21
-4.16086
0
LINE
8
BLACK
6
CONTINUOUS
10
1.01017
20
-4.16086
11
1.00267
21
-4.16461
0
LINE
8
BLACK
6
CONTINUOUS
10
1.11891
20
-4.14212
11
1.08141
21
-4.14212
0
LINE
8
BLACK
6
CONTINUOUS
10
1.08141
20
-4.14212
11
1.07766
21
-4.17961
0
LINE
8
BLACK
6
CONTINUOUS
10
1.07766
20
-4.17961
11
1.08141
21
-4.17586
0
LINE
8
BLACK
6
CONTINUOUS
10
1.08141
20
-4.17586
11
1.08891
21
-4.17211
0
LINE
8
BLACK
6
CONTINUOUS
10
1.08891
20
-4.17211
11
1.10766
21
-4.17211
0
LINE
8
BLACK
6
CONTINUOUS
10
1.10766
20
-4.17211
11
1.11516
21
-4.17586
0
LINE
8
BLACK
6
CONTINUOUS
10
1.11516
20
-4.17586
11
1.11891
21
-4.17961
0
LINE
8
BLACK
6
CONTINUOUS
10
1.11891
20
-4.17961
11
1.12266
21
-4.18711
0
LINE
8
BLACK
6
CONTINUOUS
10
1.12266
20
-4.18711
11
1.12266
21
-4.20586
0
LINE
8
BLACK
6
CONTINUOUS
10
1.12266
20
-4.20586
11
1.11891
21
-4.21336
0
LINE
8
BLACK
6
CONTINUOUS
10
1.11891
20
-4.21336
11
1.11516
21
-4.21711
0
LINE
8
BLACK
6
CONTINUOUS
10
1.11516
20
-4.21711
11
1.10766
21
-4.22086
0
LINE
8
BLACK
6
CONTINUOUS
10
1.10766
20
-4.22086
11
1.08891
21
-4.22086
0
LINE
8
BLACK
6
CONTINUOUS
10
1.08891
20
-4.22086
11
1.08141
21
-4.21711
0
LINE
8
BLACK
6
CONTINUOUS
10
1.08141
20
-4.21711
11
1.07766
21
-4.21336
0
LINE
8
BLACK
6
CONTINUOUS
10
1.1489
20
-4.14212
11
1.2014
21
-4.14212
0
LINE
8
BLACK
6
CONTINUOUS
10
1.2014
20
-4.14212
11
1.16765
21
-4.22086
0
LINE
8
BLACK
6
CONTINUOUS
10
1.22764
20
-4.14212
11
1.22764
21
-4.15711
0
LINE
8
BLACK
6
CONTINUOUS
10
1.25764
20
-4.14212
11
1.25764
21
-4.15711
0
LINE
8
BLACK
6
CONTINUOUS
10
1.36113
20
-4.25085
11
1.35738
21
-4.2471
0
LINE
8
BLACK
6
CONTINUOUS
10
1.35738
20
-4.2471
11
1.34988
21
-4.23585
0
LINE
8
BLACK
6
CONTINUOUS
10
1.34988
20
-4.23585
11
1.34613
21
-4.22836
0
LINE
8
BLACK
6
CONTINUOUS
10
1.34613
20
-4.22836
11
1.34238
21
-4.21711
0
LINE
8
BLACK
6
CONTINUOUS
10
1.34238
20
-4.21711
11
1.33863
21
-4.19836
0
LINE
8
BLACK
6
CONTINUOUS
10
1.33863
20
-4.19836
11
1.33863
21
-4.18336
0
LINE
8
BLACK
6
CONTINUOUS
10
1.33863
20
-4.18336
11
1.34238
21
-4.16461
0
LINE
8
BLACK
6
CONTINUOUS
10
1.34238
20
-4.16461
11
1.34613
21
-4.15337
0
LINE
8
BLACK
6
CONTINUOUS
10
1.34613
20
-4.15337
11
1.34988
21
-4.14587
0
LINE
8
BLACK
6
CONTINUOUS
10
1.34988
20
-4.14587
11
1.35738
21
-4.13462
0
LINE
8
BLACK
6
CONTINUOUS
10
1.35738
20
-4.13462
11
1.36113
21
-4.13087
0
LINE
8
BLACK
6
CONTINUOUS
10
1.38737
20
-4.14962
11
1.39112
21
-4.14587
0
LINE
8
BLACK
6
CONTINUOUS
10
1.39112
20
-4.14587
11
1.39862
21
-4.14212
0
LINE
8
BLACK
6
CONTINUOUS
10
1.39862
20
-4.14212
11
1.41737
21
-4.14212
0
LINE
8
BLACK
6
CONTINUOUS
10
1.41737
20
-4.14212
11
1.42487
21
-4.14587
0
LINE
8
BLACK
6
CONTINUOUS
10
1.42487
20
-4.14587
11
1.42862
21
-4.14962
0
LINE
8
BLACK
6
CONTINUOUS
10
1.42862
20
-4.14962
11
1.43237
21
-4.15711
0
LINE
8
BLACK
6
CONTINUOUS
10
1.43237
20
-4.15711
11
1.43237
21
-4.16461
0
LINE
8
BLACK
6
CONTINUOUS
10
1.43237
20
-4.16461
11
1.42862
21
-4.17586
0
LINE
8
BLACK
6
CONTINUOUS
10
1.42862
20
-4.17586
11
1.38362
21
-4.22086
0
LINE
8
BLACK
6
CONTINUOUS
10
1.38362
20
-4.22086
11
1.43237
21
-4.22086
0
LINE
8
BLACK
6
CONTINUOUS
10
1.46236
20
-4.14962
11
1.46611
21
-4.14587
0
LINE
8
BLACK
6
CONTINUOUS
10
1.46611
20
-4.14587
11
1.47361
21
-4.14212
0
LINE
8
BLACK
6
CONTINUOUS
10
1.47361
20
-4.14212
11
1.49236
21
-4.14212
0
LINE
8
BLACK
6
CONTINUOUS
10
1.49236
20
-4.14212
11
1.49986
21
-4.14587
0
LINE
8
BLACK
6
CONTINUOUS
10
1.49986
20
-4.14587
11
1.50361
21
-4.14962
0
LINE
8
BLACK
6
CONTINUOUS
10
1.50361
20
-4.14962
11
1.50736
21
-4.15711
0
LINE
8
BLACK
6
CONTINUOUS
10
1.50736
20
-4.15711
11
1.50736
21
-4.16461
0
LINE
8
BLACK
6
CONTINUOUS
10
1.50736
20
-4.16461
11
1.50361
21
-4.17586
0
LINE
8
BLACK
6
CONTINUOUS
10
1.50361
20
-4.17586
11
1.45861
21
-4.22086
0
LINE
8
BLACK
6
CONTINUOUS
10
1.45861
20
-4.22086
11
1.50736
21
-4.22086
0
LINE
8
BLACK
6
CONTINUOUS
10
1.53361
20
-4.14212
11
1.5861
21
-4.14212
0
LINE
8
BLACK
6
CONTINUOUS
10
1.5861
20
-4.14212
11
1.55235
21
-4.22086
0
LINE
8
BLACK
6
CONTINUOUS
10
1.66334
20
-4.22086
11
1.66334
21
-4.14212
0
LINE
8
BLACK
6
CONTINUOUS
10
1.69708
20
-4.22086
11
1.69708
21
-4.17961
0
LINE
8
BLACK
6
CONTINUOUS
10
1.69708
20
-4.17961
11
1.69334
21
-4.17211
0
LINE
8
BLACK
6
CONTINUOUS
10
1.69334
20
-4.17211
11
1.68584
21
-4.16836
0
LINE
8
BLACK
6
CONTINUOUS
10
1.68584
20
-4.16836
11
1.67459
21
-4.16836
0
LINE
8
BLACK
6
CONTINUOUS
10
1.67459
20
-4.16836
11
1.66709
21
-4.17211
0
LINE
8
BLACK
6
CONTINUOUS
10
1.66709
20
-4.17211
11
1.66334
21
-4.17586
0
LINE
8
BLACK
6
CONTINUOUS
10
1.74583
20
-4.22086
11
1.73833
21
-4.21711
0
LINE
8
BLACK
6
CONTINUOUS
10
1.73833
20
-4.21711
11
1.73458
21
-4.21336
0
LINE
8
BLACK
6
CONTINUOUS
10
1.73458
20
-4.21336
11
1.73083
21
-4.20586
0
LINE
8
BLACK
6
CONTINUOUS
10
1.73083
20
-4.20586
11
1.73083
21
-4.18336
0
LINE
8
BLACK
6
CONTINUOUS
10
1.73083
20
-4.18336
11
1.73458
21
-4.17586
0
LINE
8
BLACK
6
CONTINUOUS
10
1.73458
20
-4.17586
11
1.73833
21
-4.17211
0
LINE
8
BLACK
6
CONTINUOUS
10
1.73833
20
-4.17211
11
1.74583
21
-4.16836
0
LINE
8
BLACK
6
CONTINUOUS
10
1.74583
20
-4.16836
11
1.75708
21
-4.16836
0
LINE
8
BLACK
6
CONTINUOUS
10
1.75708
20
-4.16836
11
1.76458
21
-4.17211
0
LINE
8
BLACK
6
CONTINUOUS
10
1.76458
20
-4.17211
11
1.76833
21
-4.17586
0
LINE
8
BLACK
6
CONTINUOUS
10
1.76833
20
-4.17586
11
1.77208
21
-4.18336
0
LINE
8
BLACK
6
CONTINUOUS
10
1.77208
20
-4.18336
11
1.77208
21
-4.20586
0
LINE
8
BLACK
6
CONTINUOUS
10
1.77208
20
-4.20586
11
1.76833
21
-4.21336
0
LINE
8
BLACK
6
CONTINUOUS
10
1.76833
20
-4.21336
11
1.76458
21
-4.21711
0
LINE
8
BLACK
6
CONTINUOUS
10
1.76458
20
-4.21711
11
1.75708
21
-4.22086
0
LINE
8
BLACK
6
CONTINUOUS
10
1.75708
20
-4.22086
11
1.74583
21
-4.22086
0
LINE
8
BLACK
6
CONTINUOUS
10
1.81707
20
-4.22086
11
1.80957
21
-4.21711
0
LINE
8
BLACK
6
CONTINUOUS
10
1.80957
20
-4.21711
11
1.80582
21
-4.20961
0
LINE
8
BLACK
6
CONTINUOUS
10
1.80582
20
-4.20961
11
1.80582
21
-4.14212
0
LINE
8
BLACK
6
CONTINUOUS
10
1.87706
20
-4.21711
11
1.86956
21
-4.22086
0
LINE
8
BLACK
6
CONTINUOUS
10
1.86956
20
-4.22086
11
1.85457
21
-4.22086
0
LINE
8
BLACK
6
CONTINUOUS
10
1.85457
20
-4.22086
11
1.84707
21
-4.21711
0
LINE
8
BLACK
6
CONTINUOUS
10
1.84707
20
-4.21711
11
1.84332
21
-4.20961
0
LINE
8
BLACK
6
CONTINUOUS
10
1.84332
20
-4.20961
11
1.84332
21
-4.17961
0
LINE
8
BLACK
6
CONTINUOUS
10
1.84332
20
-4.17961
11
1.84707
21
-4.17211
0
LINE
8
BLACK
6
CONTINUOUS
10
1.84707
20
-4.17211
11
1.85457
21
-4.16836
0
LINE
8
BLACK
6
CONTINUOUS
10
1.85457
20
-4.16836
11
1.86956
21
-4.16836
0
LINE
8
BLACK
6
CONTINUOUS
10
1.86956
20
-4.16836
11
1.87706
21
-4.17211
0
LINE
8
BLACK
6
CONTINUOUS
10
1.87706
20
-4.17211
11
1.88081
21
-4.17961
0
LINE
8
BLACK
6
CONTINUOUS
10
1.88081
20
-4.17961
11
1.88081
21
-4.18711
0
LINE
8
BLACK
6
CONTINUOUS
10
1.88081
20
-4.18711
11
1.84332
21
-4.19461
0
LINE
8
BLACK
6
CONTINUOUS
10
1.91081
20
-4.21711
11
1.91831
21
-4.22086
0
LINE
8
BLACK
6
CONTINUOUS
10
1.91831
20
-4.22086
11
1.93331
21
-4.22086
0
LINE
8
BLACK
6
CONTINUOUS
10
1.93331
20
-4.22086
11
1.9408
21
-4.21711
0
LINE
8
BLACK
6
CONTINUOUS
10
1.9408
20
-4.21711
11
1.94455
21
-4.20961
0
LINE
8
BLACK
6
CONTINUOUS
10
1.94455
20
-4.20961
11
1.94455
21
-4.20586
0
LINE
8
BLACK
6
CONTINUOUS
10
1.94455
20
-4.20586
11
1.9408
21
-4.19836
0
LINE
8
BLACK
6
CONTINUOUS
10
1.9408
20
-4.19836
11
1.93331
21
-4.19461
0
LINE
8
BLACK
6
CONTINUOUS
10
1.93331
20
-4.19461
11
1.92206
21
-4.19461
0
LINE
8
BLACK
6
CONTINUOUS
10
1.92206
20
-4.19461
11
1.91456
21
-4.19086
0
LINE
8
BLACK
6
CONTINUOUS
10
1.91456
20
-4.19086
11
1.91081
21
-4.18336
0
LINE
8
BLACK
6
CONTINUOUS
10
1.91081
20
-4.18336
11
1.91081
21
-4.17961
0
LINE
8
BLACK
6
CONTINUOUS
10
1.91081
20
-4.17961
11
1.91456
21
-4.17211
0
LINE
8
BLACK
6
CONTINUOUS
10
1.91456
20
-4.17211
11
1.92206
21
-4.16836
0
LINE
8
BLACK
6
CONTINUOUS
10
1.92206
20
-4.16836
11
1.93331
21
-4.16836
0
LINE
8
BLACK
6
CONTINUOUS
10
1.93331
20
-4.16836
11
1.9408
21
-4.17211
0
LINE
8
BLACK
6
CONTINUOUS
10
1.9708
20
-4.25085
11
1.97455
21
-4.2471
0
LINE
8
BLACK
6
CONTINUOUS
10
1.97455
20
-4.2471
11
1.98205
21
-4.23585
0
LINE
8
BLACK
6
CONTINUOUS
10
1.98205
20
-4.23585
11
1.9858
21
-4.22836
0
LINE
8
BLACK
6
CONTINUOUS
10
1.9858
20
-4.22836
11
1.98955
21
-4.21711
0
LINE
8
BLACK
6
CONTINUOUS
10
1.98955
20
-4.21711
11
1.9933
21
-4.19836
0
LINE
8
BLACK
6
CONTINUOUS
10
1.9933
20
-4.19836
11
1.9933
21
-4.18336
0
LINE
8
BLACK
6
CONTINUOUS
10
1.9933
20
-4.18336
11
1.98955
21
-4.16461
0
LINE
8
BLACK
6
CONTINUOUS
10
1.98955
20
-4.16461
11
1.9858
21
-4.15337
0
LINE
8
BLACK
6
CONTINUOUS
10
1.9858
20
-4.15337
11
1.98205
21
-4.14587
0
LINE
8
BLACK
6
CONTINUOUS
10
1.98205
20
-4.14587
11
1.97455
21
-4.13462
0
LINE
8
BLACK
6
CONTINUOUS
10
1.97455
20
-4.13462
11
1.9708
21
-4.13087
0
CIRCLE
8
BLACK
10
-0.0206693
20
-4.29587
40
0.0177165
0
LINE
8
BLACK
6
CONTINUOUS
10
0.109533
20
-4.24605
11
0.117032
21
-4.24605
0
LINE
8
BLACK
6
CONTINUOUS
10
0.117032
20
-4.24605
11
0.124531
21
-4.2498
0
LINE
8
BLACK
6
CONTINUOUS
10
0.124531
20
-4.2498
11
0.128281
21
-4.25355
0
LINE
8
BLACK
6
CONTINUOUS
10
0.128281
20
-4.25355
11
0.13203
21
-4.26105
0
LINE
8
BLACK
6
CONTINUOUS
10
0.13203
20
-4.26105
11
0.13578
21
-4.27605
0
LINE
8
BLACK
6
CONTINUOUS
10
0.13578
20
-4.27605
11
0.13578
21
-4.2948
0
LINE
8
BLACK
6
CONTINUOUS
10
0.13578
20
-4.2948
11
0.13203
21
-4.3098
0
LINE
8
BLACK
6
CONTINUOUS
10
0.13203
20
-4.3098
11
0.128281
21
-4.31729
0
LINE
8
BLACK
6
CONTINUOUS
10
0.128281
20
-4.31729
11
0.124531
21
-4.32104
0
LINE
8
BLACK
6
CONTINUOUS
10
0.124531
20
-4.32104
11
0.117032
21
-4.32479
0
LINE
8
BLACK
6
CONTINUOUS
10
0.117032
20
-4.32479
11
0.109533
21
-4.32479
0
LINE
8
BLACK
6
CONTINUOUS
10
0.109533
20
-4.32479
11
0.102034
21
-4.32104
0
LINE
8
BLACK
6
CONTINUOUS
10
0.102034
20
-4.32104
11
0.0982846
21
-4.31729
0
LINE
8
BLACK
6
CONTINUOUS
10
0.0982846
20
-4.31729
11
0.094535
21
-4.3098
0
LINE
8
BLACK
6
CONTINUOUS
10
0.094535
20
-4.3098
11
0.0907855
21
-4.2948
0
LINE
8
BLACK
6
CONTINUOUS
10
0.0907855
20
-4.2948
11
0.0907855
21
-4.27605
0
LINE
8
BLACK
6
CONTINUOUS
10
0.0907855
20
-4.27605
11
0.094535
21
-4.26105
0
LINE
8
BLACK
6
CONTINUOUS
10
0.094535
20
-4.26105
11
0.0982846
21
-4.25355
0
LINE
8
BLACK
6
CONTINUOUS
10
0.0982846
20
-4.25355
11
0.102034
21
-4.2498
0
LINE
8
BLACK
6
CONTINUOUS
10
0.102034
20
-4.2498
11
0.109533
21
-4.24605
0
LINE
8
BLACK
6
CONTINUOUS
10
0.169526
20
-4.31729
11
0.173275
21
-4.32104
0
LINE
8
BLACK
6
CONTINUOUS
10
0.173275
20
-4.32104
11
0.169526
21
-4.32479
0
LINE
8
BLACK
6
CONTINUOUS
10
0.169526
20
-4.32479
11
0.165776
21
-4.32104
0
LINE
8
BLACK
6
CONTINUOUS
10
0.165776
20
-4.32104
11
0.169526
21
-4.31729
0
LINE
8
BLACK
6
CONTINUOUS
10
0.169526
20
-4.31729
11
0.169526
21
-4.32479
0
LINE
8
BLACK
6
CONTINUOUS
10
0.210771
20
-4.32479
11
0.225769
21
-4.32479
0
LINE
8
BLACK
6
CONTINUOUS
10
0.225769
20
-4.32479
11
0.233268
21
-4.32104
0
LINE
8
BLACK
6
CONTINUOUS
10
0.233268
20
-4.32104
11
0.237017
21
-4.31729
0
LINE
8
BLACK
6
CONTINUOUS
10
0.237017
20
-4.31729
11
0.244516
21
-4.30605
0
LINE
8
BLACK
6
CONTINUOUS
10
0.244516
20
-4.30605
11
0.248266
21
-4.29105
0
LINE
8
BLACK
6
CONTINUOUS
10
0.248266
20
-4.29105
11
0.248266
21
-4.26105
0
LINE
8
BLACK
6
CONTINUOUS
10
0.248266
20
-4.26105
11
0.244516
21
-4.25355
0
LINE
8
BLACK
6
CONTINUOUS
10
0.244516
20
-4.25355
11
0.240767
21
-4.2498
0
LINE
8
BLACK
6
CONTINUOUS
10
0.240767
20
-4.2498
11
0.233268
21
-4.24605
0
LINE
8
BLACK
6
CONTINUOUS
10
0.233268
20
-4.24605
11
0.21827
21
-4.24605
0
LINE
8
BLACK
6
CONTINUOUS
10
0.21827
20
-4.24605
11
0.210771
21
-4.2498
0
LINE
8
BLACK
6
CONTINUOUS
10
0.210771
20
-4.2498
11
0.207021
21
-4.25355
0
LINE
8
BLACK
6
CONTINUOUS
10
0.207021
20
-4.25355
11
0.203271
21
-4.26105
0
LINE
8
BLACK
6
CONTINUOUS
10
0.203271
20
-4.26105
11
0.203271
21
-4.2798
0
LINE
8
BLACK
6
CONTINUOUS
10
0.203271
20
-4.2798
11
0.207021
21
-4.2873
0
LINE
8
BLACK
6
CONTINUOUS
10
0.207021
20
-4.2873
11
0.210771
21
-4.29105
0
LINE
8
BLACK
6
CONTINUOUS
10
0.210771
20
-4.29105
11
0.21827
21
-4.2948
0
LINE
8
BLACK
6
CONTINUOUS
10
0.21827
20
-4.2948
11
0.233268
21
-4.2948
0
LINE
8
BLACK
6
CONTINUOUS
10
0.233268
20
-4.2948
11
0.240767
21
-4.29105
0
LINE
8
BLACK
6
CONTINUOUS
10
0.240767
20
-4.29105
11
0.244516
21
-4.2873
0
LINE
8
BLACK
6
CONTINUOUS
10
0.244516
20
-4.2873
11
0.248266
21
-4.2798
0
LINE
8
BLACK
6
CONTINUOUS
10
0.29701
20
-4.24605
11
0.304509
21
-4.24605
0
LINE
8
BLACK
6
CONTINUOUS
10
0.304509
20
-4.24605
11
0.312008
21
-4.2498
0
LINE
8
BLACK
6
CONTINUOUS
10
0.312008
20
-4.2498
11
0.315757
21
-4.25355
0
LINE
8
BLACK
6
CONTINUOUS
10
0.315757
20
-4.25355
11
0.319507
21
-4.26105
0
LINE
8
BLACK
6
CONTINUOUS
10
0.319507
20
-4.26105
11
0.323256
21
-4.27605
0
LINE
8
BLACK
6
CONTINUOUS
10
0.323256
20
-4.27605
11
0.323256
21
-4.2948
0
LINE
8
BLACK
6
CONTINUOUS
10
0.323256
20
-4.2948
11
0.319507
21
-4.3098
0
LINE
8
BLACK
6
CONTINUOUS
10
0.319507
20
-4.3098
11
0.315757
21
-4.31729
0
LINE
8
BLACK
6
CONTINUOUS
10
0.315757
20
-4.31729
11
0.312008
21
-4.32104
0
LINE
8
BLACK
6
CONTINUOUS
10
0.312008
20
-4.32104
11
0.304509
21
-4.32479
0
LINE
8
BLACK
6
CONTINUOUS
10
0.304509
20
-4.32479
11
0.29701
21
-4.32479
0
LINE
8
BLACK
6
CONTINUOUS
10
0.29701
20
-4.32479
11
0.289511
21
-4.32104
0
LINE
8
BLACK
6
CONTINUOUS
10
0.289511
20
-4.32104
11
0.285761
21
-4.31729
0
LINE
8
BLACK
6
CONTINUOUS
10
0.285761
20
-4.31729
11
0.282012
21
-4.3098
0
LINE
8
BLACK
6
CONTINUOUS
10
0.282012
20
-4.3098
11
0.278262
21
-4.2948
0
LINE
8
BLACK
6
CONTINUOUS
10
0.278262
20
-4.2948
11
0.278262
21
-4.27605
0
LINE
8
BLACK
6
CONTINUOUS
10
0.278262
20
-4.27605
11
0.282012
21
-4.26105
0
LINE
8
BLACK
6
CONTINUOUS
10
0.282012
20
-4.26105
11
0.285761
21
-4.25355
0
LINE
8
BLACK
6
CONTINUOUS
10
0.285761
20
-4.25355
11
0.289511
21
-4.2498
0
LINE
8
BLACK
6
CONTINUOUS
10
0.289511
20
-4.2498
11
0.29701
21
-4.24605
0
LINE
8
BLACK
6
CONTINUOUS
10
0.372
20
-4.24605
11
0.379499
21
-4.24605
0
LINE
8
BLACK
6
CONTINUOUS
10
0.379499
20
-4.24605
11
0.386999
21
-4.2498
0
LINE
8
BLACK
6
CONTINUOUS
10
0.386999
20
-4.2498
11
0.390748
21
-4.25355
0
LINE
8
BLACK
6
CONTINUOUS
10
0.390748
20
-4.25355
11
0.394498
21
-4.26105
0
LINE
8
BLACK
6
CONTINUOUS
10
0.394498
20
-4.26105
11
0.398247
21
-4.27605
0
LINE
8
BLACK
6
CONTINUOUS
10
0.398247
20
-4.27605
11
0.398247
21
-4.2948
0
LINE
8
BLACK
6
CONTINUOUS
10
0.398247
20
-4.2948
11
0.394498
21
-4.3098
0
LINE
8
BLACK
6
CONTINUOUS
10
0.394498
20
-4.3098
11
0.390748
21
-4.31729
0
LINE
8
BLACK
6
CONTINUOUS
10
0.390748
20
-4.31729
11
0.386999
21
-4.32104
0
LINE
8
BLACK
6
CONTINUOUS
10
0.386999
20
-4.32104
11
0.379499
21
-4.32479
0
LINE
8
BLACK
6
CONTINUOUS
10
0.379499
20
-4.32479
11
0.372
21
-4.32479
0
LINE
8
BLACK
6
CONTINUOUS
10
0.372
20
-4.32479
11
0.364501
21
-4.32104
0
LINE
8
BLACK
6
CONTINUOUS
10
0.364501
20
-4.32104
11
0.360752
21
-4.31729
0
LINE
8
BLACK
6
CONTINUOUS
10
0.360752
20
-4.31729
11
0.357002
21
-4.3098
0
LINE
8
BLACK
6
CONTINUOUS
10
0.357002
20
-4.3098
11
0.353253
21
-4.2948
0
LINE
8
BLACK
6
CONTINUOUS
10
0.353253
20
-4.2948
11
0.353253
21
-4.27605
0
LINE
8
BLACK
6
CONTINUOUS
10
0.353253
20
-4.27605
11
0.357002
21
-4.26105
0
LINE
8
BLACK
6
CONTINUOUS
10
0.357002
20
-4.26105
11
0.360752
21
-4.25355
0
LINE
8
BLACK
6
CONTINUOUS
10
0.360752
20
-4.25355
11
0.364501
21
-4.2498
0
LINE
8
BLACK
6
CONTINUOUS
10
0.364501
20
-4.2498
11
0.372
21
-4.24605
0
LINE
8
BLACK
6
CONTINUOUS
10
0.431993
20
-4.32479
11
0.431993
21
-4.2723
0
LINE
8
BLACK
6
CONTINUOUS
10
0.431993
20
-4.2798
11
0.435742
21
-4.27605
0
LINE
8
BLACK
6
CONTINUOUS
10
0.435742
20
-4.27605
11
0.443241
21
-4.2723
0
LINE
8
BLACK
6
CONTINUOUS
10
0.443241
20
-4.2723
11
0.45449
21
-4.2723
0
LINE
8
BLACK
6
CONTINUOUS
10
0.45449
20
-4.2723
11
0.461989
21
-4.27605
0
LINE
8
BLACK
6
CONTINUOUS
10
0.461989
20
-4.27605
11
0.465739
21
-4.28355
0
LINE
8
BLACK
6
CONTINUOUS
10
0.465739
20
-4.28355
11
0.465739
21
-4.32479
0
LINE
8
BLACK
6
CONTINUOUS
10
0.465739
20
-4.28355
11
0.469488
21
-4.27605
0
LINE
8
BLACK
6
CONTINUOUS
10
0.469488
20
-4.27605
11
0.476987
21
-4.2723
0
LINE
8
BLACK
6
CONTINUOUS
10
0.476987
20
-4.2723
11
0.488236
21
-4.2723
0
LINE
8
BLACK
6
CONTINUOUS
10
0.488236
20
-4.2723
11
0.495735
21
-4.27605
0
LINE
8
BLACK
6
CONTINUOUS
10
0.495735
20
-4.27605
11
0.499484
21
-4.28355
0
LINE
8
BLACK
6
CONTINUOUS
10
0.499484
20
-4.28355
11
0.499484
21
-4.32479
0
LINE
8
BLACK
6
CONTINUOUS
10
0.53698
20
-4.32479
11
0.53698
21
-4.2723
0
LINE
8
BLACK
6
CONTINUOUS
10
0.53698
20
-4.2798
11
0.540729
21
-4.27605
0
LINE
8
BLACK
6
CONTINUOUS
10
0.540729
20
-4.27605
11
0.548228
21
-4.2723
0
LINE
8
BLACK
6
CONTINUOUS
10
0.548228
20
-4.2723
11
0.559477
21
-4.2723
0
LINE
8
BLACK
6
CONTINUOUS
10
0.559477
20
-4.2723
11
0.566976
21
-4.27605
0
LINE
8
BLACK
6
CONTINUOUS
10
0.566976
20
-4.27605
11
0.570726
21
-4.28355
0
LINE
8
BLACK
6
CONTINUOUS
10
0.570726
20
-4.28355
11
0.570726
21
-4.32479
0
LINE
8
BLACK
6
CONTINUOUS
10
0.570726
20
-4.28355
11
0.574475
21
-4.27605
0
LINE
8
BLACK
6
CONTINUOUS
10
0.574475
20
-4.27605
11
0.581974
21
-4.2723
0
LINE
8
BLACK
6
CONTINUOUS
10
0.581974
20
-4.2723
11
0.593223
21
-4.2723
0
LINE
8
BLACK
6
CONTINUOUS
10
0.593223
20
-4.2723
11
0.600722
21
-4.27605
0
LINE
8
BLACK
6
CONTINUOUS
10
0.600722
20
-4.27605
11
0.604471
21
-4.28355
0
LINE
8
BLACK
6
CONTINUOUS
10
0.604471
20
-4.28355
11
0.604471
21
-4.32479
0
LINE
8
BLACK
6
CONTINUOUS
10
0.745454
20
-4.2423
11
0.677962
21
-4.34354
0
LINE
8
BLACK
6
CONTINUOUS
10
0.833943
20
-4.24605
11
0.841442
21
-4.24605
0
LINE
8
BLACK
6
CONTINUOUS
10
0.841442
20
-4.24605
11
0.848941
21
-4.2498
0
LINE
8
BLACK
6
CONTINUOUS
10
0.848941
20
-4.2498
11
0.85269
21
-4.25355
0
LINE
8
BLACK
6
CONTINUOUS
10
0.85269
20
-4.25355
11
0.85644
21
-4.26105
0
LINE
8
BLACK
6
CONTINUOUS
10
0.85644
20
-4.26105
11
0.860189
21
-4.27605
0
LINE
8
BLACK
6
CONTINUOUS
10
0.860189
20
-4.27605
11
0.860189
21
-4.2948
0
LINE
8
BLACK
6
CONTINUOUS
10
0.860189
20
-4.2948
11
0.85644
21
-4.3098
0
LINE
8
BLACK
6
CONTINUOUS
10
0.85644
20
-4.3098
11
0.85269
21
-4.31729
0
LINE
8
BLACK
6
CONTINUOUS
10
0.85269
20
-4.31729
11
0.848941
21
-4.32104
0
LINE
8
BLACK
6
CONTINUOUS
10
0.848941
20
-4.32104
11
0.841442
21
-4.32479
0
LINE
8
BLACK
6
CONTINUOUS
10
0.841442
20
-4.32479
11
0.833943
21
-4.32479
0
LINE
8
BLACK
6
CONTINUOUS
10
0.833943
20
-4.32479
11
0.826444
21
-4.32104
0
LINE
8
BLACK
6
CONTINUOUS
10
0.826444
20
-4.32104
11
0.822694
21
-4.31729
0
LINE
8
BLACK
6
CONTINUOUS
10
0.822694
20
-4.31729
11
0.818945
21
-4.3098
0
LINE
8
BLACK
6
CONTINUOUS
10
0.818945
20
-4.3098
11
0.815195
21
-4.2948
0
LINE
8
BLACK
6
CONTINUOUS
10
0.815195
20
-4.2948
11
0.815195
21
-4.27605
0
LINE
8
BLACK
6
CONTINUOUS
10
0.815195
20
-4.27605
11
0.818945
21
-4.26105
0
LINE
8
BLACK
6
CONTINUOUS
10
0.818945
20
-4.26105
11
0.822694
21
-4.25355
0
LINE
8
BLACK
6
CONTINUOUS
10
0.822694
20
-4.25355
11
0.826444
21
-4.2498
0
LINE
8
BLACK
6
CONTINUOUS
10
0.826444
20
-4.2498
11
0.833943
21
-4.24605
0
LINE
8
BLACK
6
CONTINUOUS
10
0.893935
20
-4.31729
11
0.897685
21
-4.32104
0
LINE
8
BLACK
6
CONTINUOUS
10
0.897685
20
-4.32104
11
0.893935
21
-4.32479
0
LINE
8
BLACK
6
CONTINUOUS
10
0.893935
20
-4.32479
11
0.890186
21
-4.32104
0
LINE
8
BLACK
6
CONTINUOUS
10
0.890186
20
-4.32104
11
0.893935
21
-4.31729
0
LINE
8
BLACK
6
CONTINUOUS
10
0.893935
20
-4.31729
11
0.893935
21
-4.32479
0
LINE
8
BLACK
6
CONTINUOUS
10
0.946429
20
-4.24605
11
0.953928
21
-4.24605
0
LINE
8
BLACK
6
CONTINUOUS
10
0.953928
20
-4.24605
11
0.961427
21
-4.2498
0
LINE
8
BLACK
6
CONTINUOUS
10
0.961427
20
-4.2498
11
0.965176
21
-4.25355
0
LINE
8
BLACK
6
CONTINUOUS
10
0.965176
20
-4.25355
11
0.968926
21
-4.26105
0
LINE
8
BLACK
6
CONTINUOUS
10
0.968926
20
-4.26105
11
0.972675
21
-4.27605
0
LINE
8
BLACK
6
CONTINUOUS
10
0.972675
20
-4.27605
11
0.972675
21
-4.2948
0
LINE
8
BLACK
6
CONTINUOUS
10
0.972675
20
-4.2948
11
0.968926
21
-4.3098
0
LINE
8
BLACK
6
CONTINUOUS
10
0.968926
20
-4.3098
11
0.965176
21
-4.31729
0
LINE
8
BLACK
6
CONTINUOUS
10
0.965176
20
-4.31729
11
0.961427
21
-4.32104
0
LINE
8
BLACK
6
CONTINUOUS
10
0.961427
20
-4.32104
11
0.953928
21
-4.32479
0
LINE
8
BLACK
6
CONTINUOUS
10
0.953928
20
-4.32479
11
0.946429
21
-4.32479
0
LINE
8
BLACK
6
CONTINUOUS
10
0.946429
20
-4.32479
11
0.93893
21
-4.32104
0
LINE
8
BLACK
6
CONTINUOUS
10
0.93893
20
-4.32104
11
0.93518
21
-4.31729
0
LINE
8
BLACK
6
CONTINUOUS
10
0.93518
20
-4.31729
11
0.93143
21
-4.3098
0
LINE
8
BLACK
6
CONTINUOUS
10
0.93143
20
-4.3098
11
0.927681
21
-4.2948
0
LINE
8
BLACK
6
CONTINUOUS
10
0.927681
20
-4.2948
11
0.927681
21
-4.27605
0
LINE
8
BLACK
6
CONTINUOUS
10
0.927681
20
-4.27605
11
0.93143
21
-4.26105
0
LINE
8
BLACK
6
CONTINUOUS
10
0.93143
20
-4.26105
11
0.93518
21
-4.25355
0
LINE
8
BLACK
6
CONTINUOUS
10
0.93518
20
-4.25355
11
0.93893
21
-4.2498
0
LINE
8
BLACK
6
CONTINUOUS
10
0.93893
20
-4.2498
11
0.946429
21
-4.24605
0
LINE
8
BLACK
6
CONTINUOUS
10
0.998922
20
-4.24605
11
1.04767
21
-4.24605
0
LINE
8
BLACK
6
CONTINUOUS
10
1.04767
20
-4.24605
11
1.02142
21
-4.27605
0
LINE
8
BLACK
6
CONTINUOUS
10
1.02142
20
-4.27605
11
1.03267
21
-4.27605
0
LINE
8
BLACK
6
CONTINUOUS
10
1.03267
20
-4.27605
11
1.04017
21
-4.2798
0
LINE
8
BLACK
6
CONTINUOUS
10
1.04017
20
-4.2798
11
1.04392
21
-4.28355
0
LINE
8
BLACK
6
CONTINUOUS
10
1.04392
20
-4.28355
11
1.04767
21
-4.29105
0
LINE
8
BLACK
6
CONTINUOUS
10
1.04767
20
-4.29105
11
1.04767
21
-4.3098
0
LINE
8
BLACK
6
CONTINUOUS
10
1.04767
20
-4.3098
11
1.04392
21
-4.31729
0
LINE
8
BLACK
6
CONTINUOUS
10
1.04392
20
-4.31729
11
1.04017
21
-4.32104
0
LINE
8
BLACK
6
CONTINUOUS
10
1.04017
20
-4.32104
11
1.03267
21
-4.32479
0
LINE
8
BLACK
6
CONTINUOUS
10
1.03267
20
-4.32479
11
1.01017
21
-4.32479
0
LINE
8
BLACK
6
CONTINUOUS
10
1.01017
20
-4.32479
11
1.00267
21
-4.32104
0
LINE
8
BLACK
6
CONTINUOUS
10
1.00267
20
-4.32104
11
0.998922
21
-4.31729
0
LINE
8
BLACK
6
CONTINUOUS
10
1.11891
20
-4.24605
11
1.08141
21
-4.24605
0
LINE
8
BLACK
6
CONTINUOUS
10
1.08141
20
-4.24605
11
1.07766
21
-4.28355
0
LINE
8
BLACK
6
CONTINUOUS
10
1.07766
20
-4.28355
11
1.08141
21
-4.2798
0
LINE
8
BLACK
6
CONTINUOUS
10
1.08141
20
-4.2798
11
1.08891
21
-4.27605
0
LINE
8
BLACK
6
CONTINUOUS
10
1.08891
20
-4.27605
11
1.10766
21
-4.27605
0
LINE
8
BLACK
6
CONTINUOUS
10
1.10766
20
-4.27605
11
1.11516
21
-4.2798
0
LINE
8
BLACK
6
CONTINUOUS
10
1.11516
20
-4.2798
11
1.11891
21
-4.28355
0
LINE
8
BLACK
6
CONTINUOUS
10
1.11891
20
-4.28355
11
1.12266
21
-4.29105
0
LINE
8
BLACK
6
CONTINUOUS
10
1.12266
20
-4.29105
11
1.12266
21
-4.3098
0
LINE
8
BLACK
6
CONTINUOUS
10
1.12266
20
-4.3098
11
1.11891
21
-4.31729
0
LINE
8
BLACK
6
CONTINUOUS
10
1.11891
20
-4.31729
11
1.11516
21
-4.32104
0
LINE
8
BLACK
6
CONTINUOUS
10
1.11516
20
-4.32104
11
1.10766
21
-4.32479
0
LINE
8
BLACK
6
CONTINUOUS
10
1.10766
20
-4.32479
11
1.08891
21
-4.32479
0
LINE
8
BLACK
6
CONTINUOUS
10
1.08891
20
-4.32479
11
1.08141
21
-4.32104
0
LINE
8
BLACK
6
CONTINUOUS
10
1.08141
20
-4.32104
11
1.07766
21
-4.31729
0
LINE
8
BLACK
6
CONTINUOUS
10
1.19015
20
-4.2723
11
1.19015
21
-4.32479
0
LINE
8
BLACK
6
CONTINUOUS
10
1.1714
20
-4.2423
11
1.15265
21
-4.29855
0
LINE
8
BLACK
6
CONTINUOUS
10
1.15265
20
-4.29855
11
1.2014
21
-4.29855
0
LINE
8
BLACK
6
CONTINUOUS
10
1.22764
20
-4.24605
11
1.22764
21
-4.26105
0
LINE
8
BLACK
6
CONTINUOUS
10
1.25764
20
-4.24605
11
1.25764
21
-4.26105
0
LINE
8
BLACK
6
CONTINUOUS
10
1.36113
20
-4.35479
11
1.35738
21
-4.35104
0
LINE
8
BLACK
6
CONTINUOUS
10
1.35738
20
-4.35104
11
1.34988
21
-4.33979
0
LINE
8
BLACK
6
CONTINUOUS
10
1.34988
20
-4.33979
11
1.34613
21
-4.33229
0
LINE
8
BLACK
6
CONTINUOUS
10
1.34613
20
-4.33229
11
1.34238
21
-4.32104
0
LINE
8
BLACK
6
CONTINUOUS
10
1.34238
20
-4.32104
11
1.33863
21
-4.3023
0
LINE
8
BLACK
6
CONTINUOUS
10
1.33863
20
-4.3023
11
1.33863
21
-4.2873
0
LINE
8
BLACK
6
CONTINUOUS
10
1.33863
20
-4.2873
11
1.34238
21
-4.26855
0
LINE
8
BLACK
6
CONTINUOUS
10
1.34238
20
-4.26855
11
1.34613
21
-4.2573
0
LINE
8
BLACK
6
CONTINUOUS
10
1.34613
20
-4.2573
11
1.34988
21
-4.2498
0
LINE
8
BLACK
6
CONTINUOUS
10
1.34988
20
-4.2498
11
1.35738
21
-4.23855
0
LINE
8
BLACK
6
CONTINUOUS
10
1.35738
20
-4.23855
11
1.36113
21
-4.2348
0
LINE
8
BLACK
6
CONTINUOUS
10
1.38737
20
-4.25355
11
1.39112
21
-4.2498
0
LINE
8
BLACK
6
CONTINUOUS
10
1.39112
20
-4.2498
11
1.39862
21
-4.24605
0
LINE
8
BLACK
6
CONTINUOUS
10
1.39862
20
-4.24605
11
1.41737
21
-4.24605
0
LINE
8
BLACK
6
CONTINUOUS
10
1.41737
20
-4.24605
11
1.42487
21
-4.2498
0
LINE
8
BLACK
6
CONTINUOUS
10
1.42487
20
-4.2498
11
1.42862
21
-4.25355
0
LINE
8
BLACK
6
CONTINUOUS
10
1.42862
20
-4.25355
11
1.43237
21
-4.26105
0
LINE
8
BLACK
6
CONTINUOUS
10
1.43237
20
-4.26105
11
1.43237
21
-4.26855
0
LINE
8
BLACK
6
CONTINUOUS
10
1.43237
20
-4.26855
11
1.42862
21
-4.2798
0
LINE
8
BLACK
6
CONTINUOUS
10
1.42862
20
-4.2798
11
1.38362
21
-4.32479
0
LINE
8
BLACK
6
CONTINUOUS
10
1.38362
20
-4.32479
11
1.43237
21
-4.32479
0
LINE
8
BLACK
6
CONTINUOUS
10
1.49986
20
-4.2723
11
1.49986
21
-4.32479
0
LINE
8
BLACK
6
CONTINUOUS
10
1.48111
20
-4.2423
11
1.46236
21
-4.29855
0
LINE
8
BLACK
6
CONTINUOUS
10
1.46236
20
-4.29855
11
1.51111
21
-4.29855
0
LINE
8
BLACK
6
CONTINUOUS
10
1.58835
20
-4.32479
11
1.58835
21
-4.24605
0
LINE
8
BLACK
6
CONTINUOUS
10
1.62209
20
-4.32479
11
1.62209
21
-4.28355
0
LINE
8
BLACK
6
CONTINUOUS
10
1.62209
20
-4.28355
11
1.61834
21
-4.27605
0
LINE
8
BLACK
6
CONTINUOUS
10
1.61834
20
-4.27605
11
1.61085
21
-4.2723
0
LINE
8
BLACK
6
CONTINUOUS
10
1.61085
20
-4.2723
11
1.5996
21
-4.2723
0
LINE
8
BLACK
6
CONTINUOUS
10
1.5996
20
-4.2723
11
1.5921
21
-4.27605
0
LINE
8
BLACK
6
CONTINUOUS
10
1.5921
20
-4.27605
11
1.58835
21
-4.2798
0
LINE
8
BLACK
6
CONTINUOUS
10
1.67084
20
-4.32479
11
1.66334
21
-4.32104
0
LINE
8
BLACK
6
CONTINUOUS
10
1.66334
20
-4.32104
11
1.65959
21
-4.31729
0
LINE
8
BLACK
6
CONTINUOUS
10
1.65959
20
-4.31729
11
1.65584
21
-4.3098
0
LINE
8
BLACK
6
CONTINUOUS
10
1.65584
20
-4.3098
11
1.65584
21
-4.2873
0
LINE
8
BLACK
6
CONTINUOUS
10
1.65584
20
-4.2873
11
1.65959
21
-4.2798
0
LINE
8
BLACK
6
CONTINUOUS
10
1.65959
20
-4.2798
11
1.66334
21
-4.27605
0
LINE
8
BLACK
6
CONTINUOUS
10
1.66334
20
-4.27605
11
1.67084
21
-4.2723
0
LINE
8
BLACK
6
CONTINUOUS
10
1.67084
20
-4.2723
11
1.68209
21
-4.2723
0
LINE
8
BLACK
6
CONTINUOUS
10
1.68209
20
-4.2723
11
1.68959
21
-4.27605
0
LINE
8
BLACK
6
CONTINUOUS
10
1.68959
20
-4.27605
11
1.69334
21
-4.2798
0
LINE
8
BLACK
6
CONTINUOUS
10
1.69334
20
-4.2798
11
1.69708
21
-4.2873
0
LINE
8
BLACK
6
CONTINUOUS
10
1.69708
20
-4.2873
11
1.69708
21
-4.3098
0
LINE
8
BLACK
6
CONTINUOUS
10
1.69708
20
-4.3098
11
1.69334
21
-4.31729
0
LINE
8
BLACK
6
CONTINUOUS
10
1.69334
20
-4.31729
11
1.68959
21
-4.32104
0
LINE
8
BLACK
6
CONTINUOUS
10
1.68959
20
-4.32104
11
1.68209
21
-4.32479
0
LINE
8
BLACK
6
CONTINUOUS
10
1.68209
20
-4.32479
11
1.67084
21
-4.32479
0
LINE
8
BLACK
6
CONTINUOUS
10
1.74208
20
-4.32479
11
1.73458
21
-4.32104
0
LINE
8
BLACK
6
CONTINUOUS
10
1.73458
20
-4.32104
11
1.73083
21
-4.31355
0
LINE
8
BLACK
6
CONTINUOUS
10
1.73083
20
-4.31355
11
1.73083
21
-4.24605
0
LINE
8
BLACK
6
CONTINUOUS
10
1.80207
20
-4.32104
11
1.79457
21
-4.32479
0
LINE
8
BLACK
6
CONTINUOUS
10
1.79457
20
-4.32479
11
1.77957
21
-4.32479
0
LINE
8
BLACK
6
CONTINUOUS
10
1.77957
20
-4.32479
11
1.77208
21
-4.32104
0
LINE
8
BLACK
6
CONTINUOUS
10
1.77208
20
-4.32104
11
1.76833
21
-4.31355
0
LINE
8
BLACK
6
CONTINUOUS
10
1.76833
20
-4.31355
11
1.76833
21
-4.28355
0
LINE
8
BLACK
6
CONTINUOUS
10
1.76833
20
-4.28355
11
1.77208
21
-4.27605
0
LINE
8
BLACK
6
CONTINUOUS
10
1.77208
20
-4.27605
11
1.77957
21
-4.2723
0
LINE
8
BLACK
6
CONTINUOUS
10
1.77957
20
-4.2723
11
1.79457
21
-4.2723
0
LINE
8
BLACK
6
CONTINUOUS
10
1.79457
20
-4.2723
11
1.80207
21
-4.27605
0
LINE
8
BLACK
6
CONTINUOUS
10
1.80207
20
-4.27605
11
1.80582
21
-4.28355
0
LINE
8
BLACK
6
CONTINUOUS
10
1.80582
20
-4.28355
11
1.80582
21
-4.29105
0
LINE
8
BLACK
6
CONTINUOUS
10
1.80582
20
-4.29105
11
1.76833
21
-4.29855
0
LINE
8
BLACK
6
CONTINUOUS
10
1.83582
20
-4.32104
11
1.84332
21
-4.32479
0
LINE
8
BLACK
6
CONTINUOUS
10
1.84332
20
-4.32479
11
1.85831
21
-4.32479
0
LINE
8
BLACK
6
CONTINUOUS
10
1.85831
20
-4.32479
11
1.86581
21
-4.32104
0
LINE
8
BLACK
6
CONTINUOUS
10
1.86581
20
-4.32104
11
1.86956
21
-4.31355
0
LINE
8
BLACK
6
CONTINUOUS
10
1.86956
20
-4.31355
11
1.86956
21
-4.3098
0
LINE
8
BLACK
6
CONTINUOUS
10
1.86956
20
-4.3098
11
1.86581
21
-4.3023
0
LINE
8
BLACK
6
CONTINUOUS
10
1.86581
20
-4.3023
11
1.85831
21
-4.29855
0
LINE
8
BLACK
6
CONTINUOUS
10
1.85831
20
-4.29855
11
1.84707
21
-4.29855
0
LINE
8
BLACK
6
CONTINUOUS
10
1.84707
20
-4.29855
11
1.83957
21
-4.2948
0
LINE
8
BLACK
6
CONTINUOUS
10
1.83957
20
-4.2948
11
1.83582
21
-4.2873
0
LINE
8
BLACK
6
CONTINUOUS
10
1.83582
20
-4.2873
11
1.83582
21
-4.28355
0
LINE
8
BLACK
6
CONTINUOUS
10
1.83582
20
-4.28355
11
1.83957
21
-4.27605
0
LINE
8
BLACK
6
CONTINUOUS
10
1.83957
20
-4.27605
11
1.84707
21
-4.2723
0
LINE
8
BLACK
6
CONTINUOUS
10
1.84707
20
-4.2723
11
1.85831
21
-4.2723
0
LINE
8
BLACK
6
CONTINUOUS
10
1.85831
20
-4.2723
11
1.86581
21
-4.27605
0
LINE
8
BLACK
6
CONTINUOUS
10
1.89581
20
-4.35479
11
1.89956
21
-4.35104
0
LINE
8
BLACK
6
CONTINUOUS
10
1.89956
20
-4.35104
11
1.90706
21
-4.33979
0
LINE
8
BLACK
6
CONTINUOUS
10
1.90706
20
-4.33979
11
1.91081
21
-4.33229
0
LINE
8
BLACK
6
CONTINUOUS
10
1.91081
20
-4.33229
11
1.91456
21
-4.32104
0
LINE
8
BLACK
6
CONTINUOUS
10
1.91456
20
-4.32104
11
1.91831
21
-4.3023
0
LINE
8
BLACK
6
CONTINUOUS
10
1.91831
20
-4.3023
11
1.91831
21
-4.2873
0
LINE
8
BLACK
6
CONTINUOUS
10
1.91831
20
-4.2873
11
1.91456
21
-4.26855
0
LINE
8
BLACK
6
CONTINUOUS
10
1.91456
20
-4.26855
11
1.91081
21
-4.2573
0
LINE
8
BLACK
6
CONTINUOUS
10
1.91081
20
-4.2573
11
1.90706
21
-4.2498
0
LINE
8
BLACK
6
CONTINUOUS
10
1.90706
20
-4.2498
11
1.89956
21
-4.23855
0
LINE
8
BLACK
6
CONTINUOUS
10
1.89956
20
-4.23855
11
1.89581
21
-4.2348
0
LINE
8
BLACK
6
CONTINUOUS
10
-0.0318898
20
-4.37087
11
-0.0318898
21
-4.42874
0
LINE
8
BLACK
6
CONTINUOUS
10
-0.0608268
20
-4.3998
11
-0.00295276
21
-4.3998
0
LINE
8
BLACK
6
CONTINUOUS
10
0.13578
20
-4.42873
11
0.0907855
21
-4.42873
0
LINE
8
BLACK
6
CONTINUOUS
10
0.113283
20
-4.42873
11
0.113283
21
-4.34999
0
LINE
8
BLACK
6
CONTINUOUS
10
0.113283
20
-4.34999
11
0.105784
21
-4.36124
0
LINE
8
BLACK
6
CONTINUOUS
10
0.105784
20
-4.36124
11
0.0982846
21
-4.36874
0
LINE
8
BLACK
6
CONTINUOUS
10
0.0982846
20
-4.36874
11
0.0907855
21
-4.37249
0
LINE
8
BLACK
6
CONTINUOUS
10
0.169526
20
-4.42123
11
0.173275
21
-4.42498
0
LINE
8
BLACK
6
CONTINUOUS
10
0.173275
20
-4.42498
11
0.169526
21
-4.42873
0
LINE
8
BLACK
6
CONTINUOUS
10
0.169526
20
-4.42873
11
0.165776
21
-4.42498
0
LINE
8
BLACK
6
CONTINUOUS
10
0.165776
20
-4.42498
11
0.169526
21
-4.42123
0
LINE
8
BLACK
6
CONTINUOUS
10
0.169526
20
-4.42123
11
0.169526
21
-4.42873
0
LINE
8
BLACK
6
CONTINUOUS
10
0.240767
20
-4.37624
11
0.240767
21
-4.42873
0
LINE
8
BLACK
6
CONTINUOUS
10
0.222019
20
-4.34624
11
0.203271
21
-4.40248
0
LINE
8
BLACK
6
CONTINUOUS
10
0.203271
20
-4.40248
11
0.252015
21
-4.40248
0
LINE
8
BLACK
6
CONTINUOUS
10
0.274513
20
-4.34999
11
0.327006
21
-4.34999
0
LINE
8
BLACK
6
CONTINUOUS
10
0.327006
20
-4.34999
11
0.29326
21
-4.42873
0
LINE
8
BLACK
6
CONTINUOUS
10
0.372
20
-4.34999
11
0.379499
21
-4.34999
0
LINE
8
BLACK
6
CONTINUOUS
10
0.379499
20
-4.34999
11
0.386999
21
-4.35374
0
LINE
8
BLACK
6
CONTINUOUS
10
0.386999
20
-4.35374
11
0.390748
21
-4.35749
0
LINE
8
BLACK
6
CONTINUOUS
10
0.390748
20
-4.35749
11
0.394498
21
-4.36499
0
LINE
8
BLACK
6
CONTINUOUS
10
0.394498
20
-4.36499
11
0.398247
21
-4.37999
0
LINE
8
BLACK
6
CONTINUOUS
10
0.398247
20
-4.37999
11
0.398247
21
-4.39873
0
LINE
8
BLACK
6
CONTINUOUS
10
0.398247
20
-4.39873
11
0.394498
21
-4.41373
0
LINE
8
BLACK
6
CONTINUOUS
10
0.394498
20
-4.41373
11
0.390748
21
-4.42123
0
LINE
8
BLACK
6
CONTINUOUS
10
0.390748
20
-4.42123
11
0.386999
21
-4.42498
0
LINE
8
BLACK
6
CONTINUOUS
10
0.386999
20
-4.42498
11
0.379499
21
-4.42873
0
LINE
8
BLACK
6
CONTINUOUS
10
0.379499
20
-4.42873
11
0.372
21
-4.42873
0
LINE
8
BLACK
6
CONTINUOUS
10
0.372
20
-4.42873
11
0.364501
21
-4.42498
0
LINE
8
BLACK
6
CONTINUOUS
10
0.364501
20
-4.42498
11
0.360752
21
-4.42123
0
LINE
8
BLACK
6
CONTINUOUS
10
0.360752
20
-4.42123
11
0.357002
21
-4.41373
0
LINE
8
BLACK
6
CONTINUOUS
10
0.357002
20
-4.41373
11
0.353253
21
-4.39873
0
LINE
8
BLACK
6
CONTINUOUS
10
0.353253
20
-4.39873
11
0.353253
21
-4.37999
0
LINE
8
BLACK
6
CONTINUOUS
10
0.353253
20
-4.37999
11
0.357002
21
-4.36499
0
LINE
8
BLACK
6
CONTINUOUS
10
0.357002
20
-4.36499
11
0.360752
21
-4.35749
0
LINE
8
BLACK
6
CONTINUOUS
10
0.360752
20
-4.35749
11
0.364501
21
-4.35374
0
LINE
8
BLACK
6
CONTINUOUS
10
0.364501
20
-4.35374
11
0.372
21
-4.34999
0
LINE
8
BLACK
6
CONTINUOUS
10
0.431993
20
-4.42873
11
0.431993
21
-4.37624
0
LINE
8
BLACK
6
CONTINUOUS
10
0.431993
20
-4.38374
11
0.435742
21
-4.37999
0
LINE
8
BLACK
6
CONTINUOUS
10
0.435742
20
-4.37999
11
0.443241
21
-4.37624
0
LINE
8
BLACK
6
CONTINUOUS
10
0.443241
20
-4.37624
11
0.45449
21
-4.37624
0
LINE
8
BLACK
6
CONTINUOUS
10
0.45449
20
-4.37624
11
0.461989
21
-4.37999
0
LINE
8
BLACK
6
CONTINUOUS
10
0.461989
20
-4.37999
11
0.465739
21
-4.38749
0
LINE
8
BLACK
6
CONTINUOUS
10
0.465739
20
-4.38749
11
0.465739
21
-4.42873
0
LINE
8
BLACK
6
CONTINUOUS
10
0.465739
20
-4.38749
11
0.469488
21
-4.37999
0
LINE
8
BLACK
6
CONTINUOUS
10
0.469488
20
-4.37999
11
0.476987
21
-4.37624
0
LINE
8
BLACK
6
CONTINUOUS
10
0.476987
20
-4.37624
11
0.488236
21
-4.37624
0
LINE
8
BLACK
6
CONTINUOUS
10
0.488236
20
-4.37624
11
0.495735
21
-4.37999
0
LINE
8
BLACK
6
CONTINUOUS
10
0.495735
20
-4.37999
11
0.499484
21
-4.38749
0
LINE
8
BLACK
6
CONTINUOUS
10
0.499484
20
-4.38749
11
0.499484
21
-4.42873
0
LINE
8
BLACK
6
CONTINUOUS
10
0.53698
20
-4.42873
11
0.53698
21
-4.37624
0
LINE
8
BLACK
6
CONTINUOUS
10
0.53698
20
-4.38374
11
0.540729
21
-4.37999
0
LINE
8
BLACK
6
CONTINUOUS
10
0.540729
20
-4.37999
11
0.548228
21
-4.37624
0
LINE
8
BLACK
6
CONTINUOUS
10
0.548228
20
-4.37624
11
0.559477
21
-4.37624
0
LINE
8
BLACK
6
CONTINUOUS
10
0.559477
20
-4.37624
11
0.566976
21
-4.37999
0
LINE
8
BLACK
6
CONTINUOUS
10
0.566976
20
-4.37999
11
0.570726
21
-4.38749
0
LINE
8
BLACK
6
CONTINUOUS
10
0.570726
20
-4.38749
11
0.570726
21
-4.42873
0
LINE
8
BLACK
6
CONTINUOUS
10
0.570726
20
-4.38749
11
0.574475
21
-4.37999
0
LINE
8
BLACK
6
CONTINUOUS
10
0.574475
20
-4.37999
11
0.581974
21
-4.37624
0
LINE
8
BLACK
6
CONTINUOUS
10
0.581974
20
-4.37624
11
0.593223
21
-4.37624
0
LINE
8
BLACK
6
CONTINUOUS
10
0.593223
20
-4.37624
11
0.600722
21
-4.37999
0
LINE
8
BLACK
6
CONTINUOUS
10
0.600722
20
-4.37999
11
0.604471
21
-4.38749
0
LINE
8
BLACK
6
CONTINUOUS
10
0.604471
20
-4.38749
11
0.604471
21
-4.42873
0
LINE
8
BLACK
6
CONTINUOUS
10
0.745454
20
-4.34624
11
0.677962
21
-4.44748
0
LINE
8
BLACK
6
CONTINUOUS
10
0.833943
20
-4.34999
11
0.841442
21
-4.34999
0
LINE
8
BLACK
6
CONTINUOUS
10
0.841442
20
-4.34999
11
0.848941
21
-4.35374
0
LINE
8
BLACK
6
CONTINUOUS
10
0.848941
20
-4.35374
11
0.85269
21
-4.35749
0
LINE
8
BLACK
6
CONTINUOUS
10
0.85269
20
-4.35749
11
0.85644
21
-4.36499
0
LINE
8
BLACK
6
CONTINUOUS
10
0.85644
20
-4.36499
11
0.860189
21
-4.37999
0
LINE
8
BLACK
6
CONTINUOUS
10
0.860189
20
-4.37999
11
0.860189
21
-4.39873
0
LINE
8
BLACK
6
CONTINUOUS
10
0.860189
20
-4.39873
11
0.85644
21
-4.41373
0
LINE
8
BLACK
6
CONTINUOUS
10
0.85644
20
-4.41373
11
0.85269
21
-4.42123
0
LINE
8
BLACK
6
CONTINUOUS
10
0.85269
20
-4.42123
11
0.848941
21
-4.42498
0
LINE
8
BLACK
6
CONTINUOUS
10
0.848941
20
-4.42498
11
0.841442
21
-4.42873
0
LINE
8
BLACK
6
CONTINUOUS
10
0.841442
20
-4.42873
11
0.833943
21
-4.42873
0
LINE
8
BLACK
6
CONTINUOUS
10
0.833943
20
-4.42873
11
0.826444
21
-4.42498
0
LINE
8
BLACK
6
CONTINUOUS
10
0.826444
20
-4.42498
11
0.822694
21
-4.42123
0
LINE
8
BLACK
6
CONTINUOUS
10
0.822694
20
-4.42123
11
0.818945
21
-4.41373
0
LINE
8
BLACK
6
CONTINUOUS
10
0.818945
20
-4.41373
11
0.815195
21
-4.39873
0
LINE
8
BLACK
6
CONTINUOUS
10
0.815195
20
-4.39873
11
0.815195
21
-4.37999
0
LINE
8
BLACK
6
CONTINUOUS
10
0.815195
20
-4.37999
11
0.818945
21
-4.36499
0
LINE
8
BLACK
6
CONTINUOUS
10
0.818945
20
-4.36499
11
0.822694
21
-4.35749
0
LINE
8
BLACK
6
CONTINUOUS
10
0.822694
20
-4.35749
11
0.826444
21
-4.35374
0
LINE
8
BLACK
6
CONTINUOUS
10
0.826444
20
-4.35374
11
0.833943
21
-4.34999
0
LINE
8
BLACK
6
CONTINUOUS
10
0.893935
20
-4.42123
11
0.897685
21
-4.42498
0
LINE
8
BLACK
6
CONTINUOUS
10
0.897685
20
-4.42498
11
0.893935
21
-4.42873
0
LINE
8
BLACK
6
CONTINUOUS
10
0.893935
20
-4.42873
11
0.890186
21
-4.42498
0
LINE
8
BLACK
6
CONTINUOUS
10
0.890186
20
-4.42498
11
0.893935
21
-4.42123
0
LINE
8
BLACK
6
CONTINUOUS
10
0.893935
20
-4.42123
11
0.893935
21
-4.42873
0
LINE
8
BLACK
6
CONTINUOUS
10
0.946429
20
-4.34999
11
0.953928
21
-4.34999
0
LINE
8
BLACK
6
CONTINUOUS
10
0.953928
20
-4.34999
11
0.961427
21
-4.35374
0
LINE
8
BLACK
6
CONTINUOUS
10
0.961427
20
-4.35374
11
0.965176
21
-4.35749
0
LINE
8
BLACK
6
CONTINUOUS
10
0.965176
20
-4.35749
11
0.968926
21
-4.36499
0
LINE
8
BLACK
6
CONTINUOUS
10
0.968926
20
-4.36499
11
0.972675
21
-4.37999
0
LINE
8
BLACK
6
CONTINUOUS
10
0.972675
20
-4.37999
11
0.972675
21
-4.39873
0
LINE
8
BLACK
6
CONTINUOUS
10
0.972675
20
-4.39873
11
0.968926
21
-4.41373
0
LINE
8
BLACK
6
CONTINUOUS
10
0.968926
20
-4.41373
11
0.965176
21
-4.42123
0
LINE
8
BLACK
6
CONTINUOUS
10
0.965176
20
-4.42123
11
0.961427
21
-4.42498
0
LINE
8
BLACK
6
CONTINUOUS
10
0.961427
20
-4.42498
11
0.953928
21
-4.42873
0
LINE
8
BLACK
6
CONTINUOUS
10
0.953928
20
-4.42873
11
0.946429
21
-4.42873
0
LINE
8
BLACK
6
CONTINUOUS
10
0.946429
20
-4.42873
11
0.93893
21
-4.42498
0
LINE
8
BLACK
6
CONTINUOUS
10
0.93893
20
-4.42498
11
0.93518
21
-4.42123
0
LINE
8
BLACK
6
CONTINUOUS
10
0.93518
20
-4.42123
11
0.93143
21
-4.41373
0
LINE
8
BLACK
6
CONTINUOUS
10
0.93143
20
-4.41373
11
0.927681
21
-4.39873
0
LINE
8
BLACK
6
CONTINUOUS
10
0.927681
20
-4.39873
11
0.927681
21
-4.37999
0
LINE
8
BLACK
6
CONTINUOUS
10
0.927681
20
-4.37999
11
0.93143
21
-4.36499
0
LINE
8
BLACK
6
CONTINUOUS
10
0.93143
20
-4.36499
11
0.93518
21
-4.35749
0
LINE
8
BLACK
6
CONTINUOUS
10
0.93518
20
-4.35749
11
0.93893
21
-4.35374
0
LINE
8
BLACK
6
CONTINUOUS
10
0.93893
20
-4.35374
11
0.946429
21
-4.34999
0
LINE
8
BLACK
6
CONTINUOUS
10
1.04392
20
-4.34999
11
1.00642
21
-4.34999
0
LINE
8
BLACK
6
CONTINUOUS
10
1.00642
20
-4.34999
11
1.00267
21
-4.38749
0
LINE
8
BLACK
6
CONTINUOUS
10
1.00267
20
-4.38749
11
1.00642
21
-4.38374
0
LINE
8
BLACK
6
CONTINUOUS
10
1.00642
20
-4.38374
11
1.01392
21
-4.37999
0
LINE
8
BLACK
6
CONTINUOUS
10
1.01392
20
-4.37999
11
1.03267
21
-4.37999
0
LINE
8
BLACK
6
CONTINUOUS
10
1.03267
20
-4.37999
11
1.04017
21
-4.38374
0
LINE
8
BLACK
6
CONTINUOUS
10
1.04017
20
-4.38374
11
1.04392
21
-4.38749
0
LINE
8
BLACK
6
CONTINUOUS
10
1.04392
20
-4.38749
11
1.04767
21
-4.39499
0
LINE
8
BLACK
6
CONTINUOUS
10
1.04767
20
-4.39499
11
1.04767
21
-4.41373
0
LINE
8
BLACK
6
CONTINUOUS
10
1.04767
20
-4.41373
11
1.04392
21
-4.42123
0
LINE
8
BLACK
6
CONTINUOUS
10
1.04392
20
-4.42123
11
1.04017
21
-4.42498
0
LINE
8
BLACK
6
CONTINUOUS
10
1.04017
20
-4.42498
11
1.03267
21
-4.42873
0
LINE
8
BLACK
6
CONTINUOUS
10
1.03267
20
-4.42873
11
1.01392
21
-4.42873
0
LINE
8
BLACK
6
CONTINUOUS
10
1.01392
20
-4.42873
11
1.00642
21
-4.42498
0
LINE
8
BLACK
6
CONTINUOUS
10
1.00642
20
-4.42498
11
1.00267
21
-4.42123
0
LINE
8
BLACK
6
CONTINUOUS
10
1.07391
20
-4.34999
11
1.12641
21
-4.34999
0
LINE
8
BLACK
6
CONTINUOUS
10
1.12641
20
-4.34999
11
1.09266
21
-4.42873
0
LINE
8
BLACK
6
CONTINUOUS
10
1.16015
20
-4.42873
11
1.17515
21
-4.42873
0
LINE
8
BLACK
6
CONTINUOUS
10
1.17515
20
-4.42873
11
1.18265
21
-4.42498
0
LINE
8
BLACK
6
CONTINUOUS
10
1.18265
20
-4.42498
11
1.1864
21
-4.42123
0
LINE
8
BLACK
6
CONTINUOUS
10
1.1864
20
-4.42123
11
1.1939
21
-4.40998
0
LINE
8
BLACK
6
CONTINUOUS
10
1.1939
20
-4.40998
11
1.19765
21
-4.39499
0
LINE
8
BLACK
6
CONTINUOUS
10
1.19765
20
-4.39499
11
1.19765
21
-4.36499
0
LINE
8
BLACK
6
CONTINUOUS
10
1.19765
20
-4.36499
11
1.1939
21
-4.35749
0
LINE
8
BLACK
6
CONTINUOUS
10
1.1939
20
-4.35749
11
1.19015
21
-4.35374
0
LINE
8
BLACK
6
CONTINUOUS
10
1.19015
20
-4.35374
11
1.18265
21
-4.34999
0
LINE
8
BLACK
6
CONTINUOUS
10
1.18265
20
-4.34999
11
1.16765
21
-4.34999
0
LINE
8
BLACK
6
CONTINUOUS
10
1.16765
20
-4.34999
11
1.16015
21
-4.35374
0
LINE
8
BLACK
6
CONTINUOUS
10
1.16015
20
-4.35374
11
1.1564
21
-4.35749
0
LINE
8
BLACK
6
CONTINUOUS
10
1.1564
20
-4.35749
11
1.15265
21
-4.36499
0
LINE
8
BLACK
6
CONTINUOUS
10
1.15265
20
-4.36499
11
1.15265
21
-4.38374
0
LINE
8
BLACK
6
CONTINUOUS
10
1.15265
20
-4.38374
11
1.1564
21
-4.39124
0
LINE
8
BLACK
6
CONTINUOUS
10
1.1564
20
-4.39124
11
1.16015
21
-4.39499
0
LINE
8
BLACK
6
CONTINUOUS
10
1.16015
20
-4.39499
11
1.16765
21
-4.39873
0
LINE
8
BLACK
6
CONTINUOUS
10
1.16765
20
-4.39873
11
1.18265
21
-4.39873
0
LINE
8
BLACK
6
CONTINUOUS
10
1.18265
20
-4.39873
11
1.19015
21
-4.39499
0
LINE
8
BLACK
6
CONTINUOUS
10
1.19015
20
-4.39499
11
1.1939
21
-4.39124
0
LINE
8
BLACK
6
CONTINUOUS
10
1.1939
20
-4.39124
11
1.19765
21
-4.38374
0
LINE
8
BLACK
6
CONTINUOUS
10
1.22764
20
-4.34999
11
1.22764
21
-4.36499
0
LINE
8
BLACK
6
CONTINUOUS
10
1.25764
20
-4.34999
11
1.25764
21
-4.36499
0
LINE
8
BLACK
6
CONTINUOUS
10
1.36113
20
-4.45873
11
1.35738
21
-4.45498
0
LINE
8
BLACK
6
CONTINUOUS
10
1.35738
20
-4.45498
11
1.34988
21
-4.44373
0
LINE
8
BLACK
6
CONTINUOUS
10
1.34988
20
-4.44373
11
1.34613
21
-4.43623
0
LINE
8
BLACK
6
CONTINUOUS
10
1.34613
20
-4.43623
11
1.34238
21
-4.42498
0
LINE
8
BLACK
6
CONTINUOUS
10
1.34238
20
-4.42498
11
1.33863
21
-4.40623
0
LINE
8
BLACK
6
CONTINUOUS
10
1.33863
20
-4.40623
11
1.33863
21
-4.39124
0
LINE
8
BLACK
6
CONTINUOUS
10
1.33863
20
-4.39124
11
1.34238
21
-4.37249
0
LINE
8
BLACK
6
CONTINUOUS
10
1.34238
20
-4.37249
11
1.34613
21
-4.36124
0
LINE
8
BLACK
6
CONTINUOUS
10
1.34613
20
-4.36124
11
1.34988
21
-4.35374
0
LINE
8
BLACK
6
CONTINUOUS
10
1.34988
20
-4.35374
11
1.35738
21
-4.34249
0
LINE
8
BLACK
6
CONTINUOUS
10
1.35738
20
-4.34249
11
1.36113
21
-4.33874
0
LINE
8
BLACK
6
CONTINUOUS
10
1.38737
20
-4.35749
11
1.39112
21
-4.35374
0
LINE
8
BLACK
6
CONTINUOUS
10
1.39112
20
-4.35374
11
1.39862
21
-4.34999
0
LINE
8
BLACK
6
CONTINUOUS
10
1.39862
20
-4.34999
11
1.41737
21
-4.34999
0
LINE
8
BLACK
6
CONTINUOUS
10
1.41737
20
-4.34999
11
1.42487
21
-4.35374
0
LINE
8
BLACK
6
CONTINUOUS
10
1.42487
20
-4.35374
11
1.42862
21
-4.35749
0
LINE
8
BLACK
6
CONTINUOUS
10
1.42862
20
-4.35749
11
1.43237
21
-4.36499
0
LINE
8
BLACK
6
CONTINUOUS
10
1.43237
20
-4.36499
11
1.43237
21
-4.37249
0
LINE
8
BLACK
6
CONTINUOUS
10
1.43237
20
-4.37249
11
1.42862
21
-4.38374
0
LINE
8
BLACK
6
CONTINUOUS
10
1.42862
20
-4.38374
11
1.38362
21
-4.42873
0
LINE
8
BLACK
6
CONTINUOUS
10
1.38362
20
-4.42873
11
1.43237
21
-4.42873
0
LINE
8
BLACK
6
CONTINUOUS
10
1.49986
20
-4.37624
11
1.49986
21
-4.42873
0
LINE
8
BLACK
6
CONTINUOUS
10
1.48111
20
-4.34624
11
1.46236
21
-4.40248
0
LINE
8
BLACK
6
CONTINUOUS
10
1.46236
20
-4.40248
11
1.51111
21
-4.40248
0
LINE
8
BLACK
6
CONTINUOUS
10
1.57485
20
-4.37624
11
1.57485
21
-4.42873
0
LINE
8
BLACK
6
CONTINUOUS
10
1.5561
20
-4.34624
11
1.53735
21
-4.40248
0
LINE
8
BLACK
6
CONTINUOUS
10
1.53735
20
-4.40248
11
1.5861
21
-4.40248
0
LINE
8
BLACK
6
CONTINUOUS
10
1.66334
20
-4.42873
11
1.66334
21
-4.34999
0
LINE
8
BLACK
6
CONTINUOUS
10
1.69708
20
-4.42873
11
1.69708
21
-4.38749
0
LINE
8
BLACK
6
CONTINUOUS
10
1.69708
20
-4.38749
11
1.69334
21
-4.37999
0
LINE
8
BLACK
6
CONTINUOUS
10
1.69334
20
-4.37999
11
1.68584
21
-4.37624
0
LINE
8
BLACK
6
CONTINUOUS
10
1.68584
20
-4.37624
11
1.67459
21
-4.37624
0
LINE
8
BLACK
6
CONTINUOUS
10
1.67459
20
-4.37624
11
1.66709
21
-4.37999
0
LINE
8
BLACK
6
CONTINUOUS
10
1.66709
20
-4.37999
11
1.66334
21
-4.38374
0
LINE
8
BLACK
6
CONTINUOUS
10
1.74583
20
-4.42873
11
1.73833
21
-4.42498
0
LINE
8
BLACK
6
CONTINUOUS
10
1.73833
20
-4.42498
11
1.73458
21
-4.42123
0
LINE
8
BLACK
6
CONTINUOUS
10
1.73458
20
-4.42123
11
1.73083
21
-4.41373
0
LINE
8
BLACK
6
CONTINUOUS
10
1.73083
20
-4.41373
11
1.73083
21
-4.39124
0
LINE
8
BLACK
6
CONTINUOUS
10
1.73083
20
-4.39124
11
1.73458
21
-4.38374
0
LINE
8
BLACK
6
CONTINUOUS
10
1.73458
20
-4.38374
11
1.73833
21
-4.37999
0
LINE
8
BLACK
6
CONTINUOUS
10
1.73833
20
-4.37999
11
1.74583
21
-4.37624
0
LINE
8
BLACK
6
CONTINUOUS
10
1.74583
20
-4.37624
11
1.75708
21
-4.37624
0
LINE
8
BLACK
6
CONTINUOUS
10
1.75708
20
-4.37624
11
1.76458
21
-4.37999
0
LINE
8
BLACK
6
CONTINUOUS
10
1.76458
20
-4.37999
11
1.76833
21
-4.38374
0
LINE
8
BLACK
6
CONTINUOUS
10
1.76833
20
-4.38374
11
1.77208
21
-4.39124
0
LINE
8
BLACK
6
CONTINUOUS
10
1.77208
20
-4.39124
11
1.77208
21
-4.41373
0
LINE
8
BLACK
6
CONTINUOUS
10
1.77208
20
-4.41373
11
1.76833
21
-4.42123
0
LINE
8
BLACK
6
CONTINUOUS
10
1.76833
20
-4.42123
11
1.76458
21
-4.42498
0
LINE
8
BLACK
6
CONTINUOUS
10
1.76458
20
-4.42498
11
1.75708
21
-4.42873
0
LINE
8
BLACK
6
CONTINUOUS
10
1.75708
20
-4.42873
11
1.74583
21
-4.42873
0
LINE
8
BLACK
6
CONTINUOUS
10
1.81707
20
-4.42873
11
1.80957
21
-4.42498
0
LINE
8
BLACK
6
CONTINUOUS
10
1.80957
20
-4.42498
11
1.80582
21
-4.41748
0
LINE
8
BLACK
6
CONTINUOUS
10
1.80582
20
-4.41748
11
1.80582
21
-4.34999
0
LINE
8
BLACK
6
CONTINUOUS
10
1.87706
20
-4.42498
11
1.86956
21
-4.42873
0
LINE
8
BLACK
6
CONTINUOUS
10
1.86956
20
-4.42873
11
1.85457
21
-4.42873
0
LINE
8
BLACK
6
CONTINUOUS
10
1.85457
20
-4.42873
11
1.84707
21
-4.42498
0
LINE
8
BLACK
6
CONTINUOUS
10
1.84707
20
-4.42498
11
1.84332
21
-4.41748
0
LINE
8
BLACK
6
CONTINUOUS
10
1.84332
20
-4.41748
11
1.84332
21
-4.38749
0
LINE
8
BLACK
6
CONTINUOUS
10
1.84332
20
-4.38749
11
1.84707
21
-4.37999
0
LINE
8
BLACK
6
CONTINUOUS
10
1.84707
20
-4.37999
11
1.85457
21
-4.37624
0
LINE
8
BLACK
6
CONTINUOUS
10
1.85457
20
-4.37624
11
1.86956
21
-4.37624
0
LINE
8
BLACK
6
CONTINUOUS
10
1.86956
20
-4.37624
11
1.87706
21
-4.37999
0
LINE
8
BLACK
6
CONTINUOUS
10
1.87706
20
-4.37999
11
1.88081
21
-4.38749
0
LINE
8
BLACK
6
CONTINUOUS
10
1.88081
20
-4.38749
11
1.88081
21
-4.39499
0
LINE
8
BLACK
6
CONTINUOUS
10
1.88081
20
-4.39499
11
1.84332
21
-4.40248
0
LINE
8
BLACK
6
CONTINUOUS
10
1.91081
20
-4.42498
11
1.91831
21
-4.42873
0
LINE
8
BLACK
6
CONTINUOUS
10
1.91831
20
-4.42873
11
1.93331
21
-4.42873
0
LINE
8
BLACK
6
CONTINUOUS
10
1.93331
20
-4.42873
11
1.9408
21
-4.42498
0
LINE
8
BLACK
6
CONTINUOUS
10
1.9408
20
-4.42498
11
1.94455
21
-4.41748
0
LINE
8
BLACK
6
CONTINUOUS
10
1.94455
20
-4.41748
11
1.94455
21
-4.41373
0
LINE
8
BLACK
6
CONTINUOUS
10
1.94455
20
-4.41373
11
1.9408
21
-4.40623
0
LINE
8
BLACK
6
CONTINUOUS
10
1.9408
20
-4.40623
11
1.93331
21
-4.40248
0
LINE
8
BLACK
6
CONTINUOUS
10
1.93331
20
-4.40248
11
1.92206
21
-4.40248
0
LINE
8
BLACK
6
CONTINUOUS
10
1.92206
20
-4.40248
11
1.91456
21
-4.39873
0
LINE
8
BLACK
6
CONTINUOUS
10
1.91456
20
-4.39873
11
1.91081
21
-4.39124
0
LINE
8
BLACK
6
CONTINUOUS
10
1.91081
20
-4.39124
11
1.91081
21
-4.38749
0
LINE
8
BLACK
6
CONTINUOUS
10
1.91081
20
-4.38749
11
1.91456
21
-4.37999
0
LINE
8
BLACK
6
CONTINUOUS
10
1.91456
20
-4.37999
11
1.92206
21
-4.37624
0
LINE
8
BLACK
6
CONTINUOUS
10
1.92206
20
-4.37624
11
1.93331
21
-4.37624
0
LINE
8
BLACK
6
CONTINUOUS
10
1.93331
20
-4.37624
11
1.9408
21
-4.37999
0
LINE
8
BLACK
6
CONTINUOUS
10
1.9708
20
-4.45873
11
1.97455
21
-4.45498
0
LINE
8
BLACK
6
CONTINUOUS
10
1.97455
20
-4.45498
11
1.98205
21
-4.44373
0
LINE
8
BLACK
6
CONTINUOUS
10
1.98205
20
-4.44373
11
1.9858
21
-4.43623
0
LINE
8
BLACK
6
CONTINUOUS
10
1.9858
20
-4.43623
11
1.98955
21
-4.42498
0
LINE
8
BLACK
6
CONTINUOUS
10
1.98955
20
-4.42498
11
1.9933
21
-4.40623
0
LINE
8
BLACK
6
CONTINUOUS
10
1.9933
20
-4.40623
11
1.9933
21
-4.39124
0
LINE
8
BLACK
6
CONTINUOUS
10
1.9933
20
-4.39124
11
1.98955
21
-4.37249
0
LINE
8
BLACK
6
CONTINUOUS
10
1.98955
20
-4.37249
11
1.9858
21
-4.36124
0
LINE
8
BLACK
6
CONTINUOUS
10
1.9858
20
-4.36124
11
1.98205
21
-4.35374
0
LINE
8
BLACK
6
CONTINUOUS
10
1.98205
20
-4.35374
11
1.97455
21
-4.34249
0
LINE
8
BLACK
6
CONTINUOUS
10
1.97455
20
-4.34249
11
1.9708
21
-4.33874
0
LINE
8
BLACK
6
CONTINUOUS
10
-0.0144837
20
-4.53276
11
-0.0144837
21
-4.47708
0
LINE
8
BLACK
6
CONTINUOUS
10
-0.0144837
20
-4.47708
11
-0.070162
21
-4.47708
0
LINE
8
BLACK
6
CONTINUOUS
10
-0.070162
20
-4.47708
11
-0.070162
21
-4.53276
0
LINE
8
BLACK
6
CONTINUOUS
10
-0.070162
20
-4.53276
11
-0.0144837
21
-4.53276
0
LINE
8
BLACK
6
CONTINUOUS
10
0.0907855
20
-4.46261
11
0.094535
21
-4.45886
0
LINE
8
BLACK
6
CONTINUOUS
10
0.094535
20
-4.45886
11
0.102034
21
-4.45511
0
LINE
8
BLACK
6
CONTINUOUS
10
0.102034
20
-4.45511
11
0.120782
21
-4.45511
0
LINE
8
BLACK
6
CONTINUOUS
10
0.120782
20
-4.45511
11
0.128281
21
-4.45886
0
LINE
8
BLACK
6
CONTINUOUS
10
0.128281
20
-4.45886
11
0.13203
21
-4.46261
0
LINE
8
BLACK
6
CONTINUOUS
10
0.13203
20
-4.46261
11
0.13578
21
-4.47011
0
LINE
8
BLACK
6
CONTINUOUS
10
0.13578
20
-4.47011
11
0.13578
21
-4.47761
0
LINE
8
BLACK
6
CONTINUOUS
10
0.13578
20
-4.47761
11
0.13203
21
-4.48885
0
LINE
8
BLACK
6
CONTINUOUS
10
0.13203
20
-4.48885
11
0.087036
21
-4.53385
0
LINE
8
BLACK
6
CONTINUOUS
10
0.087036
20
-4.53385
11
0.13578
21
-4.53385
0
LINE
8
BLACK
6
CONTINUOUS
10
0.169526
20
-4.52635
11
0.173275
21
-4.5301
0
LINE
8
BLACK
6
CONTINUOUS
10
0.173275
20
-4.5301
11
0.169526
21
-4.53385
0
LINE
8
BLACK
6
CONTINUOUS
10
0.169526
20
-4.53385
11
0.165776
21
-4.5301
0
LINE
8
BLACK
6
CONTINUOUS
10
0.165776
20
-4.5301
11
0.169526
21
-4.52635
0
LINE
8
BLACK
6
CONTINUOUS
10
0.169526
20
-4.52635
11
0.169526
21
-4.53385
0
LINE
8
BLACK
6
CONTINUOUS
10
0.222019
20
-4.45511
11
0.229518
21
-4.45511
0
LINE
8
BLACK
6
CONTINUOUS
10
0.229518
20
-4.45511
11
0.237017
21
-4.45886
0
LINE
8
BLACK
6
CONTINUOUS
10
0.237017
20
-4.45886
11
0.240767
21
-4.46261
0
LINE
8
BLACK
6
CONTINUOUS
10
0.240767
20
-4.46261
11
0.244516
21
-4.47011
0
LINE
8
BLACK
6
CONTINUOUS
10
0.244516
20
-4.47011
11
0.248266
21
-4.4851
0
LINE
8
BLACK
6
CONTINUOUS
10
0.248266
20
-4.4851
11
0.248266
21
-4.50385
0
LINE
8
BLACK
6
CONTINUOUS
10
0.248266
20
-4.50385
11
0.244516
21
-4.51885
0
LINE
8
BLACK
6
CONTINUOUS
10
0.244516
20
-4.51885
11
0.240767
21
-4.52635
0
LINE
8
BLACK
6
CONTINUOUS
10
0.240767
20
-4.52635
11
0.237017
21
-4.5301
0
LINE
8
BLACK
6
CONTINUOUS
10
0.237017
20
-4.5301
11
0.229518
21
-4.53385
0
LINE
8
BLACK
6
CONTINUOUS
10
0.229518
20
-4.53385
11
0.222019
21
-4.53385
0
LINE
8
BLACK
6
CONTINUOUS
10
0.222019
20
-4.53385
11
0.21452
21
-4.5301
0
LINE
8
BLACK
6
CONTINUOUS
10
0.21452
20
-4.5301
11
0.210771
21
-4.52635
0
LINE
8
BLACK
6
CONTINUOUS
10
0.210771
20
-4.52635
11
0.207021
21
-4.51885
0
LINE
8
BLACK
6
CONTINUOUS
10
0.207021
20
-4.51885
11
0.203271
21
-4.50385
0
LINE
8
BLACK
6
CONTINUOUS
10
0.203271
20
-4.50385
11
0.203271
21
-4.4851
0
LINE
8
BLACK
6
CONTINUOUS
10
0.203271
20
-4.4851
11
0.207021
21
-4.47011
0
LINE
8
BLACK
6
CONTINUOUS
10
0.207021
20
-4.47011
11
0.210771
21
-4.46261
0
LINE
8
BLACK
6
CONTINUOUS
10
0.210771
20
-4.46261
11
0.21452
21
-4.45886
0
LINE
8
BLACK
6
CONTINUOUS
10
0.21452
20
-4.45886
11
0.222019
21
-4.45511
0
LINE
8
BLACK
6
CONTINUOUS
10
0.29701
20
-4.45511
11
0.304509
21
-4.45511
0
LINE
8
BLACK
6
CONTINUOUS
10
0.304509
20
-4.45511
11
0.312008
21
-4.45886
0
LINE
8
BLACK
6
CONTINUOUS
10
0.312008
20
-4.45886
11
0.315757
21
-4.46261
0
LINE
8
BLACK
6
CONTINUOUS
10
0.315757
20
-4.46261
11
0.319507
21
-4.47011
0
LINE
8
BLACK
6
CONTINUOUS
10
0.319507
20
-4.47011
11
0.323256
21
-4.4851
0
LINE
8
BLACK
6
CONTINUOUS
10
0.323256
20
-4.4851
11
0.323256
21
-4.50385
0
LINE
8
BLACK
6
CONTINUOUS
10
0.323256
20
-4.50385
11
0.319507
21
-4.51885
0
LINE
8
BLACK
6
CONTINUOUS
10
0.319507
20
-4.51885
11
0.315757
21
-4.52635
0
LINE
8
BLACK
6
CONTINUOUS
10
0.315757
20
-4.52635
11
0.312008
21
-4.5301
0
LINE
8
BLACK
6
CONTINUOUS
10
0.312008
20
-4.5301
11
0.304509
21
-4.53385
0
LINE
8
BLACK
6
CONTINUOUS
10
0.304509
20
-4.53385
11
0.29701
21
-4.53385
0
LINE
8
BLACK
6
CONTINUOUS
10
0.29701
20
-4.53385
11
0.289511
21
-4.5301
0
LINE
8
BLACK
6
CONTINUOUS
10
0.289511
20
-4.5301
11
0.285761
21
-4.52635
0
LINE
8
BLACK
6
CONTINUOUS
10
0.285761
20
-4.52635
11
0.282012
21
-4.51885
0
LINE
8
BLACK
6
CONTINUOUS
10
0.282012
20
-4.51885
11
0.278262
21
-4.50385
0
LINE
8
BLACK
6
CONTINUOUS
10
0.278262
20
-4.50385
11
0.278262
21
-4.4851
0
LINE
8
BLACK
6
CONTINUOUS
10
0.278262
20
-4.4851
11
0.282012
21
-4.47011
0
LINE
8
BLACK
6
CONTINUOUS
10
0.282012
20
-4.47011
11
0.285761
21
-4.46261
0
LINE
8
BLACK
6
CONTINUOUS
10
0.285761
20
-4.46261
11
0.289511
21
-4.45886
0
LINE
8
BLACK
6
CONTINUOUS
10
0.289511
20
-4.45886
11
0.29701
21
-4.45511
0
LINE
8
BLACK
6
CONTINUOUS
10
0.372
20
-4.45511
11
0.379499
21
-4.45511
0
LINE
8
BLACK
6
CONTINUOUS
10
0.379499
20
-4.45511
11
0.386999
21
-4.45886
0
LINE
8
BLACK
6
CONTINUOUS
10
0.386999
20
-4.45886
11
0.390748
21
-4.46261
0
LINE
8
BLACK
6
CONTINUOUS
10
0.390748
20
-4.46261
11
0.394498
21
-4.47011
0
LINE
8
BLACK
6
CONTINUOUS
10
0.394498
20
-4.47011
11
0.398247
21
-4.4851
0
LINE
8
BLACK
6
CONTINUOUS
10
0.398247
20
-4.4851
11
0.398247
21
-4.50385
0
LINE
8
BLACK
6
CONTINUOUS
10
0.398247
20
-4.50385
11
0.394498
21
-4.51885
0
LINE
8
BLACK
6
CONTINUOUS
10
0.394498
20
-4.51885
11
0.390748
21
-4.52635
0
LINE
8
BLACK
6
CONTINUOUS
10
0.390748
20
-4.52635
11
0.386999
21
-4.5301
0
LINE
8
BLACK
6
CONTINUOUS
10
0.386999
20
-4.5301
11
0.379499
21
-4.53385
0
LINE
8
BLACK
6
CONTINUOUS
10
0.379499
20
-4.53385
11
0.372
21
-4.53385
0
LINE
8
BLACK
6
CONTINUOUS
10
0.372
20
-4.53385
11
0.364501
21
-4.5301
0
LINE
8
BLACK
6
CONTINUOUS
10
0.364501
20
-4.5301
11
0.360752
21
-4.52635
0
LINE
8
BLACK
6
CONTINUOUS
10
0.360752
20
-4.52635
11
0.357002
21
-4.51885
0
LINE
8
BLACK
6
CONTINUOUS
10
0.357002
20
-4.51885
11
0.353253
21
-4.50385
0
LINE
8
BLACK
6
CONTINUOUS
10
0.353253
20
-4.50385
11
0.353253
21
-4.4851
0
LINE
8
BLACK
6
CONTINUOUS
10
0.353253
20
-4.4851
11
0.357002
21
-4.47011
0
LINE
8
BLACK
6
CONTINUOUS
10
0.357002
20
-4.47011
11
0.360752
21
-4.46261
0
LINE
8
BLACK
6
CONTINUOUS
10
0.360752
20
-4.46261
11
0.364501
21
-4.45886
0
LINE
8
BLACK
6
CONTINUOUS
10
0.364501
20
-4.45886
11
0.372
21
-4.45511
0
LINE
8
BLACK
6
CONTINUOUS
10
0.431993
20
-4.53385
11
0.431993
21
-4.48136
0
LINE
8
BLACK
6
CONTINUOUS
10
0.431993
20
-4.48885
11
0.435742
21
-4.4851
0
LINE
8
BLACK
6
CONTINUOUS
10
0.435742
20
-4.4851
11
0.443241
21
-4.48136
0
LINE
8
BLACK
6
CONTINUOUS
10
0.443241
20
-4.48136
11
0.45449
21
-4.48136
0
LINE
8
BLACK
6
CONTINUOUS
10
0.45449
20
-4.48136
11
0.461989
21
-4.4851
0
LINE
8
BLACK
6
CONTINUOUS
10
0.461989
20
-4.4851
11
0.465739
21
-4.4926
0
LINE
8
BLACK
6
CONTINUOUS
10
0.465739
20
-4.4926
11
0.465739
21
-4.53385
0
LINE
8
BLACK
6
CONTINUOUS
10
0.465739
20
-4.4926
11
0.469488
21
-4.4851
0
LINE
8
BLACK
6
CONTINUOUS
10
0.469488
20
-4.4851
11
0.476987
21
-4.48136
0
LINE
8
BLACK
6
CONTINUOUS
10
0.476987
20
-4.48136
11
0.488236
21
-4.48136
0
LINE
8
BLACK
6
CONTINUOUS
10
0.488236
20
-4.48136
11
0.495735
21
-4.4851
0
LINE
8
BLACK
6
CONTINUOUS
10
0.495735
20
-4.4851
11
0.499484
21
-4.4926
0
LINE
8
BLACK
6
CONTINUOUS
10
0.499484
20
-4.4926
11
0.499484
21
-4.53385
0
LINE
8
BLACK
6
CONTINUOUS
10
0.53698
20
-4.53385
11
0.53698
21
-4.48136
0
LINE
8
BLACK
6
CONTINUOUS
10
0.53698
20
-4.48885
11
0.540729
21
-4.4851
0
LINE
8
BLACK
6
CONTINUOUS
10
0.540729
20
-4.4851
11
0.548228
21
-4.48136
0
LINE
8
BLACK
6
CONTINUOUS
10
0.548228
20
-4.48136
11
0.559477
21
-4.48136
0
LINE
8
BLACK
6
CONTINUOUS
10
0.559477
20
-4.48136
11
0.566976
21
-4.4851
0
LINE
8
BLACK
6
CONTINUOUS
10
0.566976
20
-4.4851
11
0.570726
21
-4.4926
0
LINE
8
BLACK
6
CONTINUOUS
10
0.570726
20
-4.4926
11
0.570726
21
-4.53385
0
LINE
8
BLACK
6
CONTINUOUS
10
0.570726
20
-4.4926
11
0.574475
21
-4.4851
0
LINE
8
BLACK
6
CONTINUOUS
10
0.574475
20
-4.4851
11
0.581974
21
-4.48136
0
LINE
8
BLACK
6
CONTINUOUS
10
0.581974
20
-4.48136
11
0.593223
21
-4.48136
0
LINE
8
BLACK
6
CONTINUOUS
10
0.593223
20
-4.48136
11
0.600722
21
-4.4851
0
LINE
8
BLACK
6
CONTINUOUS
10
0.600722
20
-4.4851
11
0.604471
21
-4.4926
0
LINE
8
BLACK
6
CONTINUOUS
10
0.604471
20
-4.4926
11
0.604471
21
-4.53385
0
LINE
8
BLACK
6
CONTINUOUS
10
0.745454
20
-4.45136
11
0.677962
21
-4.5526
0
LINE
8
BLACK
6
CONTINUOUS
10
0.833943
20
-4.45511
11
0.841442
21
-4.45511
0
LINE
8
BLACK
6
CONTINUOUS
10
0.841442
20
-4.45511
11
0.848941
21
-4.45886
0
LINE
8
BLACK
6
CONTINUOUS
10
0.848941
20
-4.45886
11
0.85269
21
-4.46261
0
LINE
8
BLACK
6
CONTINUOUS
10
0.85269
20
-4.46261
11
0.85644
21
-4.47011
0
LINE
8
BLACK
6
CONTINUOUS
10
0.85644
20
-4.47011
11
0.860189
21
-4.4851
0
LINE
8
BLACK
6
CONTINUOUS
10
0.860189
20
-4.4851
11
0.860189
21
-4.50385
0
LINE
8
BLACK
6
CONTINUOUS
10
0.860189
20
-4.50385
11
0.85644
21
-4.51885
0
LINE
8
BLACK
6
CONTINUOUS
10
0.85644
20
-4.51885
11
0.85269
21
-4.52635
0
LINE
8
BLACK
6
CONTINUOUS
10
0.85269
20
-4.52635
11
0.848941
21
-4.5301
0
LINE
8
BLACK
6
CONTINUOUS
10
0.848941
20
-4.5301
11
0.841442
21
-4.53385
0
LINE
8
BLACK
6
CONTINUOUS
10
0.841442
20
-4.53385
11
0.833943
21
-4.53385
0
LINE
8
BLACK
6
CONTINUOUS
10
0.833943
20
-4.53385
11
0.826444
21
-4.5301
0
LINE
8
BLACK
6
CONTINUOUS
10
0.826444
20
-4.5301
11
0.822694
21
-4.52635
0
LINE
8
BLACK
6
CONTINUOUS
10
0.822694
20
-4.52635
11
0.818945
21
-4.51885
0
LINE
8
BLACK
6
CONTINUOUS
10
0.818945
20
-4.51885
11
0.815195
21
-4.50385
0
LINE
8
BLACK
6
CONTINUOUS
10
0.815195
20
-4.50385
11
0.815195
21
-4.4851
0
LINE
8
BLACK
6
CONTINUOUS
10
0.815195
20
-4.4851
11
0.818945
21
-4.47011
0
LINE
8
BLACK
6
CONTINUOUS
10
0.818945
20
-4.47011
11
0.822694
21
-4.46261
0
LINE
8
BLACK
6
CONTINUOUS
10
0.822694
20
-4.46261
11
0.826444
21
-4.45886
0
LINE
8
BLACK
6
CONTINUOUS
10
0.826444
20
-4.45886
11
0.833943
21
-4.45511
0
LINE
8
BLACK
6
CONTINUOUS
10
0.893935
20
-4.52635
11
0.897685
21
-4.5301
0
LINE
8
BLACK
6
CONTINUOUS
10
0.897685
20
-4.5301
11
0.893935
21
-4.53385
0
LINE
8
BLACK
6
CONTINUOUS
10
0.893935
20
-4.53385
11
0.890186
21
-4.5301
0
LINE
8
BLACK
6
CONTINUOUS
10
0.890186
20
-4.5301
11
0.893935
21
-4.52635
0
LINE
8
BLACK
6
CONTINUOUS
10
0.893935
20
-4.52635
11
0.893935
21
-4.53385
0
LINE
8
BLACK
6
CONTINUOUS
10
0.946429
20
-4.45511
11
0.953928
21
-4.45511
0
LINE
8
BLACK
6
CONTINUOUS
10
0.953928
20
-4.45511
11
0.961427
21
-4.45886
0
LINE
8
BLACK
6
CONTINUOUS
10
0.961427
20
-4.45886
11
0.965176
21
-4.46261
0
LINE
8
BLACK
6
CONTINUOUS
10
0.965176
20
-4.46261
11
0.968926
21
-4.47011
0
LINE
8
BLACK
6
CONTINUOUS
10
0.968926
20
-4.47011
11
0.972675
21
-4.4851
0
LINE
8
BLACK
6
CONTINUOUS
10
0.972675
20
-4.4851
11
0.972675
21
-4.50385
0
LINE
8
BLACK
6
CONTINUOUS
10
0.972675
20
-4.50385
11
0.968926
21
-4.51885
0
LINE
8
BLACK
6
CONTINUOUS
10
0.968926
20
-4.51885
11
0.965176
21
-4.52635
0
LINE
8
BLACK
6
CONTINUOUS
10
0.965176
20
-4.52635
11
0.961427
21
-4.5301
0
LINE
8
BLACK
6
CONTINUOUS
10
0.961427
20
-4.5301
11
0.953928
21
-4.53385
0
LINE
8
BLACK
6
CONTINUOUS
10
0.953928
20
-4.53385
11
0.946429
21
-4.53385
0
LINE
8
BLACK
6
CONTINUOUS
10
0.946429
20
-4.53385
11
0.93893
21
-4.5301
0
LINE
8
BLACK
6
CONTINUOUS
10
0.93893
20
-4.5301
11
0.93518
21
-4.52635
0
LINE
8
BLACK
6
CONTINUOUS
10
0.93518
20
-4.52635
11
0.93143
21
-4.51885
0
LINE
8
BLACK
6
CONTINUOUS
10
0.93143
20
-4.51885
11
0.927681
21
-4.50385
0
LINE
8
BLACK
6
CONTINUOUS
10
0.927681
20
-4.50385
11
0.927681
21
-4.4851
0
LINE
8
BLACK
6
CONTINUOUS
10
0.927681
20
-4.4851
11
0.93143
21
-4.47011
0
LINE
8
BLACK
6
CONTINUOUS
10
0.93143
20
-4.47011
11
0.93518
21
-4.46261
0
LINE
8
BLACK
6
CONTINUOUS
10
0.93518
20
-4.46261
11
0.93893
21
-4.45886
0
LINE
8
BLACK
6
CONTINUOUS
10
0.93893
20
-4.45886
11
0.946429
21
-4.45511
0
LINE
8
BLACK
6
CONTINUOUS
10
0.998922
20
-4.45511
11
1.05142
21
-4.45511
0
LINE
8
BLACK
6
CONTINUOUS
10
1.05142
20
-4.45511
11
1.01767
21
-4.53385
0
LINE
8
BLACK
6
CONTINUOUS
10
1.09266
20
-4.48885
11
1.08516
21
-4.4851
0
LINE
8
BLACK
6
CONTINUOUS
10
1.08516
20
-4.4851
11
1.08141
21
-4.48136
0
LINE
8
BLACK
6
CONTINUOUS
10
1.08141
20
-4.48136
11
1.07766
21
-4.47386
0
LINE
8
BLACK
6
CONTINUOUS
10
1.07766
20
-4.47386
11
1.07766
21
-4.47011
0
LINE
8
BLACK
6
CONTINUOUS
10
1.07766
20
-4.47011
11
1.08141
21
-4.46261
0
LINE
8
BLACK
6
CONTINUOUS
10
1.08141
20
-4.46261
11
1.08516
21
-4.45886
0
LINE
8
BLACK
6
CONTINUOUS
10
1.08516
20
-4.45886
11
1.09266
21
-4.45511
0
LINE
8
BLACK
6
CONTINUOUS
10
1.09266
20
-4.45511
11
1.10766
21
-4.45511
0
LINE
8
BLACK
6
CONTINUOUS
10
1.10766
20
-4.45511
11
1.11516
21
-4.45886
0
LINE
8
BLACK
6
CONTINUOUS
10
1.11516
20
-4.45886
11
1.11891
21
-4.46261
0
LINE
8
BLACK
6
CONTINUOUS
10
1.11891
20
-4.46261
11
1.12266
21
-4.47011
0
LINE
8
BLACK
6
CONTINUOUS
10
1.12266
20
-4.47011
11
1.12266
21
-4.47386
0
LINE
8
BLACK
6
CONTINUOUS
10
1.12266
20
-4.47386
11
1.11891
21
-4.48136
0
LINE
8
BLACK
6
CONTINUOUS
10
1.11891
20
-4.48136
11
1.11516
21
-4.4851
0
LINE
8
BLACK
6
CONTINUOUS
10
1.11516
20
-4.4851
11
1.10766
21
-4.48885
0
LINE
8
BLACK
6
CONTINUOUS
10
1.10766
20
-4.48885
11
1.09266
21
-4.48885
0
LINE
8
BLACK
6
CONTINUOUS
10
1.09266
20
-4.48885
11
1.08516
21
-4.4926
0
LINE
8
BLACK
6
CONTINUOUS
10
1.08516
20
-4.4926
11
1.08141
21
-4.49635
0
LINE
8
BLACK
6
CONTINUOUS
10
1.08141
20
-4.49635
11
1.07766
21
-4.50385
0
LINE
8
BLACK
6
CONTINUOUS
10
1.07766
20
-4.50385
11
1.07766
21
-4.51885
0
LINE
8
BLACK
6
CONTINUOUS
10
1.07766
20
-4.51885
11
1.08141
21
-4.52635
0
LINE
8
BLACK
6
CONTINUOUS
10
1.08141
20
-4.52635
11
1.08516
21
-4.5301
0
LINE
8
BLACK
6
CONTINUOUS
10
1.08516
20
-4.5301
11
1.09266
21
-4.53385
0
LINE
8
BLACK
6
CONTINUOUS
10
1.09266
20
-4.53385
11
1.10766
21
-4.53385
0
LINE
8
BLACK
6
CONTINUOUS
10
1.10766
20
-4.53385
11
1.11516
21
-4.5301
0
LINE
8
BLACK
6
CONTINUOUS
10
1.11516
20
-4.5301
11
1.11891
21
-4.52635
0
LINE
8
BLACK
6
CONTINUOUS
10
1.11891
20
-4.52635
11
1.12266
21
-4.51885
0
LINE
8
BLACK
6
CONTINUOUS
10
1.12266
20
-4.51885
11
1.12266
21
-4.50385
0
LINE
8
BLACK
6
CONTINUOUS
10
1.12266
20
-4.50385
11
1.11891
21
-4.49635
0
LINE
8
BLACK
6
CONTINUOUS
10
1.11891
20
-4.49635
11
1.11516
21
-4.4926
0
LINE
8
BLACK
6
CONTINUOUS
10
1.11516
20
-4.4926
11
1.10766
21
-4.48885
0
LINE
8
BLACK
6
CONTINUOUS
10
1.1489
20
-4.45511
11
1.2014
21
-4.45511
0
LINE
8
BLACK
6
CONTINUOUS
10
1.2014
20
-4.45511
11
1.16765
21
-4.53385
0
LINE
8
BLACK
6
CONTINUOUS
10
1.22764
20
-4.45511
11
1.22764
21
-4.47011
0
LINE
8
BLACK
6
CONTINUOUS
10
1.25764
20
-4.45511
11
1.25764
21
-4.47011
0
LINE
8
BLACK
6
CONTINUOUS
10
1.36113
20
-4.56385
11
1.35738
21
-4.5601
0
LINE
8
BLACK
6
CONTINUOUS
10
1.35738
20
-4.5601
11
1.34988
21
-4.54885
0
LINE
8
BLACK
6
CONTINUOUS
10
1.34988
20
-4.54885
11
1.34613
21
-4.54135
0
LINE
8
BLACK
6
CONTINUOUS
10
1.34613
20
-4.54135
11
1.34238
21
-4.5301
0
LINE
8
BLACK
6
CONTINUOUS
10
1.34238
20
-4.5301
11
1.33863
21
-4.51135
0
LINE
8
BLACK
6
CONTINUOUS
10
1.33863
20
-4.51135
11
1.33863
21
-4.49635
0
LINE
8
BLACK
6
CONTINUOUS
10
1.33863
20
-4.49635
11
1.34238
21
-4.47761
0
LINE
8
BLACK
6
CONTINUOUS
10
1.34238
20
-4.47761
11
1.34613
21
-4.46636
0
LINE
8
BLACK
6
CONTINUOUS
10
1.34613
20
-4.46636
11
1.34988
21
-4.45886
0
LINE
8
BLACK
6
CONTINUOUS
10
1.34988
20
-4.45886
11
1.35738
21
-4.44761
0
LINE
8
BLACK
6
CONTINUOUS
10
1.35738
20
-4.44761
11
1.36113
21
-4.44386
0
LINE
8
BLACK
6
CONTINUOUS
10
1.43237
20
-4.53385
11
1.38737
21
-4.53385
0
LINE
8
BLACK
6
CONTINUOUS
10
1.40987
20
-4.53385
11
1.40987
21
-4.45511
0
LINE
8
BLACK
6
CONTINUOUS
10
1.40987
20
-4.45511
11
1.40237
21
-4.46636
0
LINE
8
BLACK
6
CONTINUOUS
10
1.40237
20
-4.46636
11
1.39487
21
-4.47386
0
LINE
8
BLACK
6
CONTINUOUS
10
1.39487
20
-4.47386
11
1.38737
21
-4.47761
0
LINE
8
BLACK
6
CONTINUOUS
10
1.46236
20
-4.46261
11
1.46611
21
-4.45886
0
LINE
8
BLACK
6
CONTINUOUS
10
1.46611
20
-4.45886
11
1.47361
21
-4.45511
0
LINE
8
BLACK
6
CONTINUOUS
10
1.47361
20
-4.45511
11
1.49236
21
-4.45511
0
LINE
8
BLACK
6
CONTINUOUS
10
1.49236
20
-4.45511
11
1.49986
21
-4.45886
0
LINE
8
BLACK
6
CONTINUOUS
10
1.49986
20
-4.45886
11
1.50361
21
-4.46261
0
LINE
8
BLACK
6
CONTINUOUS
10
1.50361
20
-4.46261
11
1.50736
21
-4.47011
0
LINE
8
BLACK
6
CONTINUOUS
10
1.50736
20
-4.47011
11
1.50736
21
-4.47761
0
LINE
8
BLACK
6
CONTINUOUS
10
1.50736
20
-4.47761
11
1.50361
21
-4.48885
0
LINE
8
BLACK
6
CONTINUOUS
10
1.50361
20
-4.48885
11
1.45861
21
-4.53385
0
LINE
8
BLACK
6
CONTINUOUS
10
1.45861
20
-4.53385
11
1.50736
21
-4.53385
0
LINE
8
BLACK
6
CONTINUOUS
10
1.5561
20
-4.45511
11
1.5636
21
-4.45511
0
LINE
8
BLACK
6
CONTINUOUS
10
1.5636
20
-4.45511
11
1.5711
21
-4.45886
0
LINE
8
BLACK
6
CONTINUOUS
10
1.5711
20
-4.45886
11
1.57485
21
-4.46261
0
LINE
8
BLACK
6
CONTINUOUS
10
1.57485
20
-4.46261
11
1.5786
21
-4.47011
0
LINE
8
BLACK
6
CONTINUOUS
10
1.5786
20
-4.47011
11
1.58235
21
-4.4851
0
LINE
8
BLACK
6
CONTINUOUS
10
1.58235
20
-4.4851
11
1.58235
21
-4.50385
0
LINE
8
BLACK
6
CONTINUOUS
10
1.58235
20
-4.50385
11
1.5786
21
-4.51885
0
LINE
8
BLACK
6
CONTINUOUS
10
1.5786
20
-4.51885
11
1.57485
21
-4.52635
0
LINE
8
BLACK
6
CONTINUOUS
10
1.57485
20
-4.52635
11
1.5711
21
-4.5301
0
LINE
8
BLACK
6
CONTINUOUS
10
1.5711
20
-4.5301
11
1.5636
21
-4.53385
0
LINE
8
BLACK
6
CONTINUOUS
10
1.5636
20
-4.53385
11
1.5561
21
-4.53385
0
LINE
8
BLACK
6
CONTINUOUS
10
1.5561
20
-4.53385
11
1.5486
21
-4.5301
0
LINE
8
BLACK
6
CONTINUOUS
10
1.5486
20
-4.5301
11
1.54485
21
-4.52635
0
LINE
8
BLACK
6
CONTINUOUS
10
1.54485
20
-4.52635
11
1.5411
21
-4.51885
0
LINE
8
BLACK
6
CONTINUOUS
10
1.5411
20
-4.51885
11
1.53735
21
-4.50385
0
LINE
8
BLACK
6
CONTINUOUS
10
1.53735
20
-4.50385
11
1.53735
21
-4.4851
0
LINE
8
BLACK
6
CONTINUOUS
10
1.53735
20
-4.4851
11
1.5411
21
-4.47011
0
LINE
8
BLACK
6
CONTINUOUS
10
1.5411
20
-4.47011
11
1.54485
21
-4.46261
0
LINE
8
BLACK
6
CONTINUOUS
10
1.54485
20
-4.46261
11
1.5486
21
-4.45886
0
LINE
8
BLACK
6
CONTINUOUS
10
1.5486
20
-4.45886
11
1.5561
21
-4.45511
0
LINE
8
BLACK
6
CONTINUOUS
10
1.66334
20
-4.53385
11
1.66334
21
-4.45511
0
LINE
8
BLACK
6
CONTINUOUS
10
1.69708
20
-4.53385
11
1.69708
21
-4.4926
0
LINE
8
BLACK
6
CONTINUOUS
10
1.69708
20
-4.4926
11
1.69334
21
-4.4851
0
LINE
8
BLACK
6
CONTINUOUS
10
1.69334
20
-4.4851
11
1.68584
21
-4.48136
0
LINE
8
BLACK
6
CONTINUOUS
10
1.68584
20
-4.48136
11
1.67459
21
-4.48136
0
LINE
8
BLACK
6
CONTINUOUS
10
1.67459
20
-4.48136
11
1.66709
21
-4.4851
0
LINE
8
BLACK
6
CONTINUOUS
10
1.66709
20
-4.4851
11
1.66334
21
-4.48885
0
LINE
8
BLACK
6
CONTINUOUS
10
1.74583
20
-4.53385
11
1.73833
21
-4.5301
0
LINE
8
BLACK
6
CONTINUOUS
10
1.73833
20
-4.5301
11
1.73458
21
-4.52635
0
LINE
8
BLACK
6
CONTINUOUS
10
1.73458
20
-4.52635
11
1.73083
21
-4.51885
0
LINE
8
BLACK
6
CONTINUOUS
10
1.73083
20
-4.51885
11
1.73083
21
-4.49635
0
LINE
8
BLACK
6
CONTINUOUS
10
1.73083
20
-4.49635
11
1.73458
21
-4.48885
0
LINE
8
BLACK
6
CONTINUOUS
10
1.73458
20
-4.48885
11
1.73833
21
-4.4851
0
LINE
8
BLACK
6
CONTINUOUS
10
1.73833
20
-4.4851
11
1.74583
21
-4.48136
0
LINE
8
BLACK
6
CONTINUOUS
10
1.74583
20
-4.48136
11
1.75708
21
-4.48136
0
LINE
8
BLACK
6
CONTINUOUS
10
1.75708
20
-4.48136
11
1.76458
21
-4.4851
0
LINE
8
BLACK
6
CONTINUOUS
10
1.76458
20
-4.4851
11
1.76833
21
-4.48885
0
LINE
8
BLACK
6
CONTINUOUS
10
1.76833
20
-4.48885
11
1.77208
21
-4.49635
0
LINE
8
BLACK
6
CONTINUOUS
10
1.77208
20
-4.49635
11
1.77208
21
-4.51885
0
LINE
8
BLACK
6
CONTINUOUS
10
1.77208
20
-4.51885
11
1.76833
21
-4.52635
0
LINE
8
BLACK
6
CONTINUOUS
10
1.76833
20
-4.52635
11
1.76458
21
-4.5301
0
LINE
8
BLACK
6
CONTINUOUS
10
1.76458
20
-4.5301
11
1.75708
21
-4.53385
0
LINE
8
BLACK
6
CONTINUOUS
10
1.75708
20
-4.53385
11
1.74583
21
-4.53385
0
LINE
8
BLACK
6
CONTINUOUS
10
1.81707
20
-4.53385
11
1.80957
21
-4.5301
0
LINE
8
BLACK
6
CONTINUOUS
10
1.80957
20
-4.5301
11
1.80582
21
-4.5226
0
LINE
8
BLACK
6
CONTINUOUS
10
1.80582
20
-4.5226
11
1.80582
21
-4.45511
0
LINE
8
BLACK
6
CONTINUOUS
10
1.87706
20
-4.5301
11
1.86956
21
-4.53385
0
LINE
8
BLACK
6
CONTINUOUS
10
1.86956
20
-4.53385
11
1.85457
21
-4.53385
0
LINE
8
BLACK
6
CONTINUOUS
10
1.85457
20
-4.53385
11
1.84707
21
-4.5301
0
LINE
8
BLACK
6
CONTINUOUS
10
1.84707
20
-4.5301
11
1.84332
21
-4.5226
0
LINE
8
BLACK
6
CONTINUOUS
10
1.84332
20
-4.5226
11
1.84332
21
-4.4926
0
LINE
8
BLACK
6
CONTINUOUS
10
1.84332
20
-4.4926
11
1.84707
21
-4.4851
0
LINE
8
BLACK
6
CONTINUOUS
10
1.84707
20
-4.4851
11
1.85457
21
-4.48136
0
LINE
8
BLACK
6
CONTINUOUS
10
1.85457
20
-4.48136
11
1.86956
21
-4.48136
0
LINE
8
BLACK
6
CONTINUOUS
10
1.86956
20
-4.48136
11
1.87706
21
-4.4851
0
LINE
8
BLACK
6
CONTINUOUS
10
1.87706
20
-4.4851
11
1.88081
21
-4.4926
0
LINE
8
BLACK
6
CONTINUOUS
10
1.88081
20
-4.4926
11
1.88081
21
-4.5001
0
LINE
8
BLACK
6
CONTINUOUS
10
1.88081
20
-4.5001
11
1.84332
21
-4.5076
0
LINE
8
BLACK
6
CONTINUOUS
10
1.91081
20
-4.5301
11
1.91831
21
-4.53385
0
LINE
8
BLACK
6
CONTINUOUS
10
1.91831
20
-4.53385
11
1.93331
21
-4.53385
0
LINE
8
BLACK
6
CONTINUOUS
10
1.93331
20
-4.53385
11
1.9408
21
-4.5301
0
LINE
8
BLACK
6
CONTINUOUS
10
1.9408
20
-4.5301
11
1.94455
21
-4.5226
0
LINE
8
BLACK
6
CONTINUOUS
10
1.94455
20
-4.5226
11
1.94455
21
-4.51885
0
LINE
8
BLACK
6
CONTINUOUS
10
1.94455
20
-4.51885
11
1.9408
21
-4.51135
0
LINE
8
BLACK
6
CONTINUOUS
10
1.9408
20
-4.51135
11
1.93331
21
-4.5076
0
LINE
8
BLACK
6
CONTINUOUS
10
1.93331
20
-4.5076
11
1.92206
21
-4.5076
0
LINE
8
BLACK
6
CONTINUOUS
10
1.92206
20
-4.5076
11
1.91456
21
-4.50385
0
LINE
8
BLACK
6
CONTINUOUS
10
1.91456
20
-4.50385
11
1.91081
21
-4.49635
0
LINE
8
BLACK
6
CONTINUOUS
10
1.91081
20
-4.49635
11
1.91081
21
-4.4926
0
LINE
8
BLACK
6
CONTINUOUS
10
1.91081
20
-4.4926
11
1.91456
21
-4.4851
0
LINE
8
BLACK
6
CONTINUOUS
10
1.91456
20
-4.4851
11
1.92206
21
-4.48136
0
LINE
8
BLACK
6
CONTINUOUS
10
1.92206
20
-4.48136
11
1.93331
21
-4.48136
0
LINE
8
BLACK
6
CONTINUOUS
10
1.93331
20
-4.48136
11
1.9408
21
-4.4851
0
LINE
8
BLACK
6
CONTINUOUS
10
1.9708
20
-4.56385
11
1.97455
21
-4.5601
0
LINE
8
BLACK
6
CONTINUOUS
10
1.97455
20
-4.5601
11
1.98205
21
-4.54885
0
LINE
8
BLACK
6
CONTINUOUS
10
1.98205
20
-4.54885
11
1.9858
21
-4.54135
0
LINE
8
BLACK
6
CONTINUOUS
10
1.9858
20
-4.54135
11
1.98955
21
-4.5301
0
LINE
8
BLACK
6
CONTINUOUS
10
1.98955
20
-4.5301
11
1.9933
21
-4.51135
0
LINE
8
BLACK
6
CONTINUOUS
10
1.9933
20
-4.51135
11
1.9933
21
-4.49635
0
LINE
8
BLACK
6
CONTINUOUS
10
1.9933
20
-4.49635
11
1.98955
21
-4.47761
0
LINE
8
BLACK
6
CONTINUOUS
10
1.98955
20
-4.47761
11
1.9858
21
-4.46636
0
LINE
8
BLACK
6
CONTINUOUS
10
1.9858
20
-4.46636
11
1.98205
21
-4.45886
0
LINE
8
BLACK
6
CONTINUOUS
10
1.98205
20
-4.45886
11
1.97455
21
-4.44761
0
LINE
8
BLACK
6
CONTINUOUS
10
1.97455
20
-4.44761
11
1.9708
21
-4.44386
  0
ENDSEC
  0
EOF
