%TF.GenerationSoftware,KiCad,Pcbnew,(6.99.0-5337-gc57e6db79a-dirty)*%
%TF.CreationDate,2023-01-12T21:24:40-05:00*%
%TF.ProjectId,hhkb,68686b62-2e6b-4696-9361-645f70636258,rev?*%
%TF.SameCoordinates,Original*%
%TF.FileFunction,Soldermask,Top*%
%TF.FilePolarity,Negative*%
%FSLAX46Y46*%
G04 Gerber Fmt 4.6, Leading zero omitted, Abs format (unit mm)*
G04 Created by KiCad (PCBNEW (6.99.0-5337-gc57e6db79a-dirty)) date 2023-01-12 21:24:40*
%MOMM*%
%LPD*%
G01*
G04 APERTURE LIST*
%ADD10C,1.750000*%
%ADD11C,3.987800*%
%ADD12R,1.500000X1.000000*%
%ADD13O,1.070000X1.800000*%
%ADD14R,1.070000X1.800000*%
%ADD15C,3.048000*%
%TA.AperFunction,Profile*%
%ADD16C,0.150000*%
%TD*%
G04 APERTURE END LIST*
D10*
%TO.C,SW_LCTRL2*%
X13156000Y-86903500D03*
D11*
X18236000Y-86903500D03*
D10*
X23316000Y-86903500D03*
%TD*%
D12*
%TO.C,LED2*%
X164839999Y-85419999D03*
D13*
X167924999Y-87019999D03*
D12*
X164839999Y-88619999D03*
D13*
X165384999Y-87019999D03*
D14*
X166654999Y-87019999D03*
D12*
X169739999Y-88619999D03*
D13*
X169194999Y-87019999D03*
D12*
X169739999Y-85419999D03*
%TD*%
%TO.C,LED3*%
X175839999Y-85419999D03*
D13*
X178924999Y-87019999D03*
D12*
X175839999Y-88619999D03*
D13*
X176384999Y-87019999D03*
D14*
X177654999Y-87019999D03*
D12*
X180739999Y-88619999D03*
D13*
X180194999Y-87019999D03*
D12*
X180739999Y-85419999D03*
%TD*%
D10*
%TO.C,SW_0*%
X194131000Y-10703500D03*
D11*
X199211000Y-10703500D03*
D10*
X204291000Y-10703500D03*
%TD*%
%TO.C,SW_1*%
X22681000Y-10703500D03*
D11*
X27761000Y-10703500D03*
D10*
X32841000Y-10703500D03*
%TD*%
%TO.C,SW_2*%
X41731000Y-10703500D03*
D11*
X46811000Y-10703500D03*
D10*
X51891000Y-10703500D03*
%TD*%
%TO.C,SW_3*%
X60781000Y-10703500D03*
D11*
X65861000Y-10703500D03*
D10*
X70941000Y-10703500D03*
%TD*%
%TO.C,SW_6*%
X117931000Y-10703500D03*
D11*
X123011000Y-10703500D03*
D10*
X128091000Y-10703500D03*
%TD*%
%TO.C,SW_7*%
X136981000Y-10703500D03*
D11*
X142061000Y-10703500D03*
D10*
X147141000Y-10703500D03*
%TD*%
%TO.C,SW_8*%
X156031000Y-10703500D03*
D11*
X161111000Y-10703500D03*
D10*
X166191000Y-10703500D03*
%TD*%
%TO.C,SW_9*%
X175081000Y-10703500D03*
D11*
X180161000Y-10703500D03*
D10*
X185241000Y-10703500D03*
%TD*%
%TO.C,SW_A1*%
X36968500Y-48803500D03*
D11*
X42048500Y-48803500D03*
D10*
X47128500Y-48803500D03*
%TD*%
%TO.C,SW_APOS1*%
X227468500Y-48803500D03*
D11*
X232548500Y-48803500D03*
D10*
X237628500Y-48803500D03*
%TD*%
%TO.C,SW_B1*%
X122693500Y-67853500D03*
D11*
X127773500Y-67853500D03*
D10*
X132853500Y-67853500D03*
%TD*%
%TO.C,SW_BACKSP1*%
X265568500Y-29753500D03*
D11*
X270648500Y-29753500D03*
D10*
X275728500Y-29753500D03*
%TD*%
%TO.C,SW_BKSLS1*%
X251281000Y-10703500D03*
D11*
X256361000Y-10703500D03*
D10*
X261441000Y-10703500D03*
%TD*%
%TO.C,SW_C1*%
X84593500Y-67853500D03*
D11*
X89673500Y-67853500D03*
D10*
X94753500Y-67853500D03*
%TD*%
%TO.C,SW_CAP1*%
X10774750Y-48803500D03*
D11*
X15854750Y-48803500D03*
D10*
X20934750Y-48803500D03*
%TD*%
%TO.C,SW_COLON1*%
X208418500Y-48803500D03*
D11*
X213498500Y-48803500D03*
D10*
X218578500Y-48803500D03*
%TD*%
%TO.C,SW_COMMA1*%
X179843500Y-67853500D03*
D11*
X184923500Y-67853500D03*
D10*
X190003500Y-67853500D03*
%TD*%
%TO.C,SW_D1*%
X75068500Y-48803500D03*
D11*
X80148500Y-48803500D03*
D10*
X85228500Y-48803500D03*
%TD*%
%TO.C,SW_E1*%
X70306000Y-29753500D03*
D11*
X75386000Y-29753500D03*
D10*
X80466000Y-29753500D03*
%TD*%
%TO.C,SW_ENTER1*%
X258424750Y-48803500D03*
D11*
X263504750Y-48803500D03*
D10*
X268584750Y-48803500D03*
%TD*%
%TO.C,SW_EQ1*%
X232231000Y-10703500D03*
D11*
X237311000Y-10703500D03*
D10*
X242391000Y-10703500D03*
%TD*%
%TO.C,SW_F13*%
X94118500Y-48803500D03*
D11*
X99198500Y-48803500D03*
D10*
X104278500Y-48803500D03*
%TD*%
%TO.C,SW_G1*%
X113168500Y-48803500D03*
D11*
X118248500Y-48803500D03*
D10*
X123328500Y-48803500D03*
%TD*%
%TO.C,SW_H1*%
X132218500Y-48803500D03*
D11*
X137298500Y-48803500D03*
D10*
X142378500Y-48803500D03*
%TD*%
%TO.C,SW_I1*%
X165556000Y-29753500D03*
D11*
X170636000Y-29753500D03*
D10*
X175716000Y-29753500D03*
%TD*%
%TO.C,SW_J1*%
X151268500Y-48803500D03*
D11*
X156348500Y-48803500D03*
D10*
X161428500Y-48803500D03*
%TD*%
%TO.C,SW_K1*%
X170318500Y-48803500D03*
D11*
X175398500Y-48803500D03*
D10*
X180478500Y-48803500D03*
%TD*%
%TO.C,SW_L1*%
X189368500Y-48803500D03*
D11*
X194448500Y-48803500D03*
D10*
X199528500Y-48803500D03*
%TD*%
%TO.C,SW_LALT1*%
X56018500Y-86903500D03*
D11*
X61098500Y-86903500D03*
D10*
X66178500Y-86903500D03*
%TD*%
%TO.C,SW_LBRAC1*%
X222706000Y-29753500D03*
D11*
X227786000Y-29753500D03*
D10*
X232866000Y-29753500D03*
%TD*%
%TO.C,SW_LMOD1*%
X32206000Y-86903500D03*
D11*
X37286000Y-86903500D03*
D10*
X42366000Y-86903500D03*
%TD*%
%TO.C,SW_LSH1*%
X15537250Y-67853500D03*
D11*
X20617250Y-67853500D03*
D10*
X25697250Y-67853500D03*
%TD*%
%TO.C,SW_M1*%
X160793500Y-67853500D03*
D11*
X165873500Y-67853500D03*
D10*
X170953500Y-67853500D03*
%TD*%
%TO.C,SW_MINUS1*%
X213181000Y-10703500D03*
D11*
X218261000Y-10703500D03*
D10*
X223341000Y-10703500D03*
%TD*%
%TO.C,SW_N1*%
X141743500Y-67853500D03*
D11*
X146823500Y-67853500D03*
D10*
X151903500Y-67853500D03*
%TD*%
%TO.C,SW_O1*%
X184606000Y-29753500D03*
D11*
X189686000Y-29753500D03*
D10*
X194766000Y-29753500D03*
%TD*%
%TO.C,SW_P1*%
X203656000Y-29753500D03*
D11*
X208736000Y-29753500D03*
D10*
X213816000Y-29753500D03*
%TD*%
%TO.C,SW_PERIOD1*%
X198893500Y-67853500D03*
D11*
X203973500Y-67853500D03*
D10*
X209053500Y-67853500D03*
%TD*%
%TO.C,SW_Q1*%
X32206000Y-29753500D03*
D11*
X37286000Y-29753500D03*
D10*
X42366000Y-29753500D03*
%TD*%
%TO.C,SW_R1*%
X89356000Y-29753500D03*
D11*
X94436000Y-29753500D03*
D10*
X99516000Y-29753500D03*
%TD*%
%TO.C,SW_RALT1*%
X208418500Y-86903500D03*
D11*
X213498500Y-86903500D03*
D10*
X218578500Y-86903500D03*
%TD*%
%TO.C,SW_RBRAC1*%
X241756000Y-29753500D03*
D11*
X246836000Y-29753500D03*
D10*
X251916000Y-29753500D03*
%TD*%
%TO.C,SW_RFN1*%
X270331000Y-67853500D03*
D11*
X275411000Y-67853500D03*
D10*
X280491000Y-67853500D03*
%TD*%
%TO.C,SW_RMOD1*%
X232231000Y-86903500D03*
D11*
X237311000Y-86903500D03*
D10*
X242391000Y-86903500D03*
%TD*%
%TO.C,SW_RSH1*%
X244137250Y-67853500D03*
D11*
X249217250Y-67853500D03*
D10*
X254297250Y-67853500D03*
%TD*%
%TO.C,SW_S1*%
X56018500Y-48803500D03*
D11*
X61098500Y-48803500D03*
D10*
X66178500Y-48803500D03*
%TD*%
%TO.C,SW_SLASH1*%
X217943500Y-67853500D03*
D11*
X223023500Y-67853500D03*
D10*
X228103500Y-67853500D03*
%TD*%
D15*
%TO.C,SW_SPACE1*%
X187298400Y-93888500D03*
D11*
X187298400Y-78648500D03*
D10*
X142378500Y-86903500D03*
D11*
X137298500Y-86903500D03*
D10*
X132218500Y-86903500D03*
D15*
X87298600Y-93888500D03*
D11*
X87298600Y-78648500D03*
%TD*%
D10*
%TO.C,SW_T1*%
X108406000Y-29753500D03*
D11*
X113486000Y-29753500D03*
D10*
X118566000Y-29753500D03*
%TD*%
%TO.C,SW_TAB1*%
X8393500Y-29753500D03*
D11*
X13473500Y-29753500D03*
D10*
X18553500Y-29753500D03*
%TD*%
%TO.C,SW_ESC1*%
X3631000Y-10703500D03*
D11*
X8711000Y-10703500D03*
D10*
X13791000Y-10703500D03*
%TD*%
%TO.C,SW_U1*%
X146506000Y-29753500D03*
D11*
X151586000Y-29753500D03*
D10*
X156666000Y-29753500D03*
%TD*%
%TO.C,SW_V1*%
X103643500Y-67853500D03*
D11*
X108723500Y-67853500D03*
D10*
X113803500Y-67853500D03*
%TD*%
%TO.C,SW_W1*%
X51256000Y-29753500D03*
D11*
X56336000Y-29753500D03*
D10*
X61416000Y-29753500D03*
%TD*%
%TO.C,SW_X1*%
X65543500Y-67853500D03*
D11*
X70623500Y-67853500D03*
D10*
X75703500Y-67853500D03*
%TD*%
%TO.C,SW_Y1*%
X127456000Y-29753500D03*
D11*
X132536000Y-29753500D03*
D10*
X137616000Y-29753500D03*
%TD*%
%TO.C,SW_Z1*%
X46493500Y-67853500D03*
D11*
X51573500Y-67853500D03*
D10*
X56653500Y-67853500D03*
%TD*%
%TO.C,SW_4*%
X79831000Y-10703500D03*
D11*
X84911000Y-10703500D03*
D10*
X89991000Y-10703500D03*
%TD*%
%TO.C,SW_5*%
X98881000Y-10703500D03*
D11*
X103961000Y-10703500D03*
D10*
X109041000Y-10703500D03*
%TD*%
D12*
%TO.C,LED7*%
X97124999Y-85469999D03*
D13*
X100209999Y-87069999D03*
D12*
X97124999Y-88669999D03*
D13*
X97669999Y-87069999D03*
D14*
X98939999Y-87069999D03*
D12*
X102024999Y-88669999D03*
D13*
X101479999Y-87069999D03*
D12*
X102024999Y-85469999D03*
%TD*%
D10*
%TO.C,SW_TICK1*%
X270331000Y-10703500D03*
D11*
X275411000Y-10703500D03*
D10*
X280491000Y-10703500D03*
%TD*%
D12*
%TO.C,LED5*%
X119124999Y-85469999D03*
D13*
X122209999Y-87069999D03*
D12*
X119124999Y-88669999D03*
D13*
X119669999Y-87069999D03*
D14*
X120939999Y-87069999D03*
D12*
X124024999Y-88669999D03*
D13*
X123479999Y-87069999D03*
D12*
X124024999Y-85469999D03*
%TD*%
%TO.C,LED6*%
X108124999Y-85469999D03*
D13*
X111209999Y-87069999D03*
D12*
X108124999Y-88669999D03*
D13*
X108669999Y-87069999D03*
D14*
X109939999Y-87069999D03*
D12*
X113024999Y-88669999D03*
D13*
X112479999Y-87069999D03*
D12*
X113024999Y-85469999D03*
%TD*%
%TO.C,LED4*%
X153839999Y-85419999D03*
D13*
X156924999Y-87019999D03*
D12*
X153839999Y-88619999D03*
D13*
X154384999Y-87019999D03*
D14*
X155654999Y-87019999D03*
D12*
X158739999Y-88619999D03*
D13*
X158194999Y-87019999D03*
D12*
X158739999Y-85419999D03*
%TD*%
D16*
X281000000Y-100000000D02*
G75*
G03*
X285000000Y-96000000I0J4000000D01*
G01*
X4000000Y0D02*
G75*
G03*
X0Y-4000000I0J-4000000D01*
G01*
X4000000Y-100000000D02*
X281000000Y-100000000D01*
X285000000Y-96000000D02*
X285000000Y-4000000D01*
X0Y-4000000D02*
X0Y-96000000D01*
X285000000Y-4000000D02*
G75*
G03*
X281000000Y0I-4000000J0D01*
G01*
X4000000Y0D02*
X281000000Y0D01*
X0Y-96000000D02*
G75*
G03*
X4000000Y-100000000I4000000J0D01*
G01*
M02*
