%TF.GenerationSoftware,KiCad,Pcbnew,(6.99.0-5337-gc57e6db79a-dirty)*%
%TF.CreationDate,2023-01-12T21:56:55-05:00*%
%TF.ProjectId,hhkb,68686b62-2e6b-4696-9361-645f70636258,rev?*%
%TF.SameCoordinates,Original*%
%TF.FileFunction,Soldermask,Bot*%
%TF.FilePolarity,Negative*%
%FSLAX46Y46*%
G04 Gerber Fmt 4.6, Leading zero omitted, Abs format (unit mm)*
G04 Created by KiCad (PCBNEW (6.99.0-5337-gc57e6db79a-dirty)) date 2023-01-12 21:56:55*
%MOMM*%
%LPD*%
G01*
G04 APERTURE LIST*
G04 Aperture macros list*
%AMRoundRect*
0 Rectangle with rounded corners*
0 $1 Rounding radius*
0 $2 $3 $4 $5 $6 $7 $8 $9 X,Y pos of 4 corners*
0 Add a 4 corners polygon primitive as box body*
4,1,4,$2,$3,$4,$5,$6,$7,$8,$9,$2,$3,0*
0 Add four circle primitives for the rounded corners*
1,1,$1+$1,$2,$3*
1,1,$1+$1,$4,$5*
1,1,$1+$1,$6,$7*
1,1,$1+$1,$8,$9*
0 Add four rect primitives between the rounded corners*
20,1,$1+$1,$2,$3,$4,$5,0*
20,1,$1+$1,$4,$5,$6,$7,0*
20,1,$1+$1,$6,$7,$8,$9,0*
20,1,$1+$1,$8,$9,$2,$3,0*%
%AMHorizOval*
0 Thick line with rounded ends*
0 $1 width*
0 $2 $3 position (X,Y) of the first rounded end (center of the circle)*
0 $4 $5 position (X,Y) of the second rounded end (center of the circle)*
0 Add line between two ends*
20,1,$1,$2,$3,$4,$5,0*
0 Add two circle primitives to create the rounded ends*
1,1,$1,$2,$3*
1,1,$1,$4,$5*%
G04 Aperture macros list end*
%ADD10O,1.070000X1.800000*%
%ADD11R,1.070000X1.800000*%
%ADD12C,1.750000*%
%ADD13C,3.987800*%
%ADD14C,3.000000*%
%ADD15C,2.250000*%
%ADD16C,3.048000*%
%ADD17HorizOval,2.250000X0.655001X0.730000X-0.655001X-0.730000X0*%
%ADD18HorizOval,2.250000X0.020000X0.290000X-0.020000X-0.290000X0*%
%ADD19R,1.200000X0.900000*%
%ADD20RoundRect,0.250000X-0.250000X-0.475000X0.250000X-0.475000X0.250000X0.475000X-0.250000X0.475000X0*%
%ADD21RoundRect,0.250000X-0.262500X-0.450000X0.262500X-0.450000X0.262500X0.450000X-0.262500X0.450000X0*%
%ADD22R,1.800000X1.100000*%
%ADD23RoundRect,0.250000X-0.475000X0.250000X-0.475000X-0.250000X0.475000X-0.250000X0.475000X0.250000X0*%
%ADD24RoundRect,0.250000X0.475000X-0.250000X0.475000X0.250000X-0.475000X0.250000X-0.475000X-0.250000X0*%
%ADD25RoundRect,0.250000X0.250000X0.475000X-0.250000X0.475000X-0.250000X-0.475000X0.250000X-0.475000X0*%
%ADD26RoundRect,0.150000X-0.150000X-0.625000X0.150000X-0.625000X0.150000X0.625000X-0.150000X0.625000X0*%
%ADD27RoundRect,0.250000X-0.350000X-0.650000X0.350000X-0.650000X0.350000X0.650000X-0.350000X0.650000X0*%
%ADD28RoundRect,0.250000X0.262500X0.450000X-0.262500X0.450000X-0.262500X-0.450000X0.262500X-0.450000X0*%
%ADD29RoundRect,0.250000X-0.450000X0.262500X-0.450000X-0.262500X0.450000X-0.262500X0.450000X0.262500X0*%
%ADD30R,0.550000X1.500000*%
%ADD31RoundRect,0.062500X-0.062500X0.475000X-0.062500X-0.475000X0.062500X-0.475000X0.062500X0.475000X0*%
%ADD32R,1.500000X0.550000*%
%ADD33RoundRect,0.062500X-0.475000X0.062500X-0.475000X-0.062500X0.475000X-0.062500X0.475000X0.062500X0*%
%ADD34R,5.200000X5.200000*%
%ADD35R,1.200000X1.400000*%
%ADD36RoundRect,0.250000X0.450000X-0.262500X0.450000X0.262500X-0.450000X0.262500X-0.450000X-0.262500X0*%
%ADD37R,2.200000X2.200000*%
%TA.AperFunction,Profile*%
%ADD38C,0.150000*%
%TD*%
G04 APERTURE END LIST*
D10*
%TO.C,LED2*%
X167924999Y-87019999D03*
X165384999Y-87019999D03*
D11*
X166654999Y-87019999D03*
D10*
X169194999Y-87019999D03*
%TD*%
%TO.C,LED3*%
X178924999Y-87019999D03*
X176384999Y-87019999D03*
D11*
X177654999Y-87019999D03*
D10*
X180194999Y-87019999D03*
%TD*%
D12*
%TO.C,SW_0*%
X194131000Y-10703500D03*
D13*
X199211000Y-10703500D03*
D12*
X204291000Y-10703500D03*
D14*
X195161000Y-6753500D03*
D15*
X195401000Y-8163500D03*
X196586000Y-6778500D03*
X201751000Y-5623500D03*
X202586000Y-6453500D03*
D14*
X203161000Y-5753500D03*
%TD*%
D12*
%TO.C,SW_1*%
X22681000Y-10703500D03*
D13*
X27761000Y-10703500D03*
D12*
X32841000Y-10703500D03*
D14*
X23711000Y-6753500D03*
D15*
X23951000Y-8163500D03*
X25136000Y-6778500D03*
X30301000Y-5623500D03*
X31136000Y-6453500D03*
D14*
X31711000Y-5753500D03*
%TD*%
D12*
%TO.C,SW_2*%
X41731000Y-10703500D03*
D13*
X46811000Y-10703500D03*
D12*
X51891000Y-10703500D03*
D14*
X42761000Y-6753500D03*
D15*
X43001000Y-8163500D03*
X44186000Y-6778500D03*
X49351000Y-5623500D03*
X50186000Y-6453500D03*
D14*
X50761000Y-5753500D03*
%TD*%
D12*
%TO.C,SW_3*%
X60781000Y-10703500D03*
D13*
X65861000Y-10703500D03*
D12*
X70941000Y-10703500D03*
D14*
X61811000Y-6753500D03*
D15*
X62051000Y-8163500D03*
X63236000Y-6778500D03*
X68401000Y-5623500D03*
X69236000Y-6453500D03*
D14*
X69811000Y-5753500D03*
%TD*%
D12*
%TO.C,SW_6*%
X117931000Y-10703500D03*
D13*
X123011000Y-10703500D03*
D12*
X128091000Y-10703500D03*
D14*
X118961000Y-6753500D03*
D15*
X119201000Y-8163500D03*
X120386000Y-6778500D03*
X125551000Y-5623500D03*
X126386000Y-6453500D03*
D14*
X126961000Y-5753500D03*
%TD*%
D12*
%TO.C,SW_7*%
X136981000Y-10703500D03*
D13*
X142061000Y-10703500D03*
D12*
X147141000Y-10703500D03*
D14*
X138011000Y-6753500D03*
D15*
X138251000Y-8163500D03*
X139436000Y-6778500D03*
X144601000Y-5623500D03*
X145436000Y-6453500D03*
D14*
X146011000Y-5753500D03*
%TD*%
D12*
%TO.C,SW_8*%
X156031000Y-10703500D03*
D13*
X161111000Y-10703500D03*
D12*
X166191000Y-10703500D03*
D14*
X157061000Y-6753500D03*
D15*
X157301000Y-8163500D03*
X158486000Y-6778500D03*
X163651000Y-5623500D03*
X164486000Y-6453500D03*
D14*
X165061000Y-5753500D03*
%TD*%
D12*
%TO.C,SW_9*%
X175081000Y-10703500D03*
D13*
X180161000Y-10703500D03*
D12*
X185241000Y-10703500D03*
D14*
X176111000Y-6753500D03*
D15*
X176351000Y-8163500D03*
X177536000Y-6778500D03*
X182701000Y-5623500D03*
X183536000Y-6453500D03*
D14*
X184111000Y-5753500D03*
%TD*%
D12*
%TO.C,SW_A1*%
X36968500Y-48803500D03*
D13*
X42048500Y-48803500D03*
D12*
X47128500Y-48803500D03*
D14*
X37998500Y-44853500D03*
D15*
X38238500Y-46263500D03*
X39423500Y-44878500D03*
X44588500Y-43723500D03*
X45423500Y-44553500D03*
D14*
X45998500Y-43853500D03*
%TD*%
D12*
%TO.C,SW_APOS1*%
X227468500Y-48803500D03*
D13*
X232548500Y-48803500D03*
D12*
X237628500Y-48803500D03*
D14*
X228498500Y-44853500D03*
D15*
X228738500Y-46263500D03*
X229923500Y-44878500D03*
X235088500Y-43723500D03*
X235923500Y-44553500D03*
D14*
X236498500Y-43853500D03*
%TD*%
D12*
%TO.C,SW_B1*%
X122693500Y-67853500D03*
D13*
X127773500Y-67853500D03*
D12*
X132853500Y-67853500D03*
D14*
X123723500Y-63903500D03*
D15*
X123963500Y-65313500D03*
X125148500Y-63928500D03*
X130313500Y-62773500D03*
X131148500Y-63603500D03*
D14*
X131723500Y-62903500D03*
%TD*%
D12*
%TO.C,SW_BACKSP1*%
X265568500Y-29753500D03*
D13*
X270648500Y-29753500D03*
D12*
X275728500Y-29753500D03*
D14*
X266598500Y-25803500D03*
D15*
X266838500Y-27213500D03*
X268023500Y-25828500D03*
X273188500Y-24673500D03*
X274023500Y-25503500D03*
D14*
X274598500Y-24803500D03*
%TD*%
D12*
%TO.C,SW_BKSLS1*%
X251281000Y-10703500D03*
D13*
X256361000Y-10703500D03*
D12*
X261441000Y-10703500D03*
D14*
X252311000Y-6753500D03*
D15*
X252551000Y-8163500D03*
X253736000Y-6778500D03*
X258901000Y-5623500D03*
X259736000Y-6453500D03*
D14*
X260311000Y-5753500D03*
%TD*%
D12*
%TO.C,SW_C1*%
X84593500Y-67853500D03*
D13*
X89673500Y-67853500D03*
D12*
X94753500Y-67853500D03*
D14*
X85623500Y-63903500D03*
D15*
X85863500Y-65313500D03*
X87048500Y-63928500D03*
X92213500Y-62773500D03*
X93048500Y-63603500D03*
D14*
X93623500Y-62903500D03*
%TD*%
D12*
%TO.C,SW_CAP1*%
X10774750Y-48803500D03*
D13*
X15854750Y-48803500D03*
D12*
X20934750Y-48803500D03*
D14*
X11804750Y-44853500D03*
D15*
X12044750Y-46263500D03*
X13229750Y-44878500D03*
X18394750Y-43723500D03*
X19229750Y-44553500D03*
D14*
X19804750Y-43853500D03*
%TD*%
D12*
%TO.C,SW_COLON1*%
X208418500Y-48803500D03*
D13*
X213498500Y-48803500D03*
D12*
X218578500Y-48803500D03*
D14*
X209448500Y-44853500D03*
D15*
X209688500Y-46263500D03*
X210873500Y-44878500D03*
X216038500Y-43723500D03*
X216873500Y-44553500D03*
D14*
X217448500Y-43853500D03*
%TD*%
D12*
%TO.C,SW_COMMA1*%
X179843500Y-67853500D03*
D13*
X184923500Y-67853500D03*
D12*
X190003500Y-67853500D03*
D14*
X180873500Y-63903500D03*
D15*
X181113500Y-65313500D03*
X182298500Y-63928500D03*
X187463500Y-62773500D03*
X188298500Y-63603500D03*
D14*
X188873500Y-62903500D03*
%TD*%
D12*
%TO.C,SW_D1*%
X75068500Y-48803500D03*
D13*
X80148500Y-48803500D03*
D12*
X85228500Y-48803500D03*
D14*
X76098500Y-44853500D03*
D15*
X76338500Y-46263500D03*
X77523500Y-44878500D03*
X82688500Y-43723500D03*
X83523500Y-44553500D03*
D14*
X84098500Y-43853500D03*
%TD*%
D12*
%TO.C,SW_E1*%
X70306000Y-29753500D03*
D13*
X75386000Y-29753500D03*
D12*
X80466000Y-29753500D03*
D14*
X71336000Y-25803500D03*
D15*
X71576000Y-27213500D03*
X72761000Y-25828500D03*
X77926000Y-24673500D03*
X78761000Y-25503500D03*
D14*
X79336000Y-24803500D03*
%TD*%
D12*
%TO.C,SW_ENTER1*%
X258424750Y-48803500D03*
D13*
X263504750Y-48803500D03*
D12*
X268584750Y-48803500D03*
D14*
X259454750Y-44853500D03*
D15*
X259694750Y-46263500D03*
X260879750Y-44878500D03*
X266044750Y-43723500D03*
X266879750Y-44553500D03*
D14*
X267454750Y-43853500D03*
%TD*%
D12*
%TO.C,SW_EQ1*%
X232231000Y-10703500D03*
D13*
X237311000Y-10703500D03*
D12*
X242391000Y-10703500D03*
D14*
X233261000Y-6753500D03*
D15*
X233501000Y-8163500D03*
X234686000Y-6778500D03*
X239851000Y-5623500D03*
X240686000Y-6453500D03*
D14*
X241261000Y-5753500D03*
%TD*%
D12*
%TO.C,SW_F1*%
X94118500Y-48803500D03*
D13*
X99198500Y-48803500D03*
D12*
X104278500Y-48803500D03*
D14*
X95148500Y-44853500D03*
D15*
X95388500Y-46263500D03*
X96573500Y-44878500D03*
X101738500Y-43723500D03*
X102573500Y-44553500D03*
D14*
X103148500Y-43853500D03*
%TD*%
D12*
%TO.C,SW_G1*%
X113168500Y-48803500D03*
D13*
X118248500Y-48803500D03*
D12*
X123328500Y-48803500D03*
D14*
X114198500Y-44853500D03*
D15*
X114438500Y-46263500D03*
X115623500Y-44878500D03*
X120788500Y-43723500D03*
X121623500Y-44553500D03*
D14*
X122198500Y-43853500D03*
%TD*%
D12*
%TO.C,SW_H1*%
X132218500Y-48803500D03*
D13*
X137298500Y-48803500D03*
D12*
X142378500Y-48803500D03*
D14*
X133248500Y-44853500D03*
D15*
X133488500Y-46263500D03*
X134673500Y-44878500D03*
X139838500Y-43723500D03*
X140673500Y-44553500D03*
D14*
X141248500Y-43853500D03*
%TD*%
D12*
%TO.C,SW_I1*%
X165556000Y-29753500D03*
D13*
X170636000Y-29753500D03*
D12*
X175716000Y-29753500D03*
D14*
X166586000Y-25803500D03*
D15*
X166826000Y-27213500D03*
X168011000Y-25828500D03*
X173176000Y-24673500D03*
X174011000Y-25503500D03*
D14*
X174586000Y-24803500D03*
%TD*%
D12*
%TO.C,SW_J1*%
X151268500Y-48803500D03*
D13*
X156348500Y-48803500D03*
D12*
X161428500Y-48803500D03*
D14*
X152298500Y-44853500D03*
D15*
X152538500Y-46263500D03*
X153723500Y-44878500D03*
X158888500Y-43723500D03*
X159723500Y-44553500D03*
D14*
X160298500Y-43853500D03*
%TD*%
D12*
%TO.C,SW_K1*%
X170318500Y-48803500D03*
D13*
X175398500Y-48803500D03*
D12*
X180478500Y-48803500D03*
D14*
X171348500Y-44853500D03*
D15*
X171588500Y-46263500D03*
X172773500Y-44878500D03*
X177938500Y-43723500D03*
X178773500Y-44553500D03*
D14*
X179348500Y-43853500D03*
%TD*%
D12*
%TO.C,SW_L1*%
X189368500Y-48803500D03*
D13*
X194448500Y-48803500D03*
D12*
X199528500Y-48803500D03*
D14*
X190398500Y-44853500D03*
D15*
X190638500Y-46263500D03*
X191823500Y-44878500D03*
X196988500Y-43723500D03*
X197823500Y-44553500D03*
D14*
X198398500Y-43853500D03*
%TD*%
D12*
%TO.C,SW_LALT1*%
X56018500Y-86903500D03*
D13*
X61098500Y-86903500D03*
D12*
X66178500Y-86903500D03*
D14*
X57048500Y-82953500D03*
D15*
X57288500Y-84363500D03*
X58473500Y-82978500D03*
X63638500Y-81823500D03*
X64473500Y-82653500D03*
D14*
X65048500Y-81953500D03*
%TD*%
D12*
%TO.C,SW_LBRAC1*%
X222706000Y-29753500D03*
D13*
X227786000Y-29753500D03*
D12*
X232866000Y-29753500D03*
D14*
X223736000Y-25803500D03*
D15*
X223976000Y-27213500D03*
X225161000Y-25828500D03*
X230326000Y-24673500D03*
X231161000Y-25503500D03*
D14*
X231736000Y-24803500D03*
%TD*%
D12*
%TO.C,SW_LMOD1*%
X32206000Y-86903500D03*
D13*
X37286000Y-86903500D03*
D12*
X42366000Y-86903500D03*
D14*
X33236000Y-82953500D03*
D15*
X33476000Y-84363500D03*
X34661000Y-82978500D03*
X39826000Y-81823500D03*
X40661000Y-82653500D03*
D14*
X41236000Y-81953500D03*
%TD*%
D12*
%TO.C,SW_LSH1*%
X15537250Y-67853500D03*
D13*
X20617250Y-67853500D03*
D12*
X25697250Y-67853500D03*
D14*
X16567250Y-63903500D03*
D15*
X16807250Y-65313500D03*
X17992250Y-63928500D03*
X23157250Y-62773500D03*
X23992250Y-63603500D03*
D14*
X24567250Y-62903500D03*
%TD*%
D12*
%TO.C,SW_M1*%
X160793500Y-67853500D03*
D13*
X165873500Y-67853500D03*
D12*
X170953500Y-67853500D03*
D14*
X161823500Y-63903500D03*
D15*
X162063500Y-65313500D03*
X163248500Y-63928500D03*
X168413500Y-62773500D03*
X169248500Y-63603500D03*
D14*
X169823500Y-62903500D03*
%TD*%
D12*
%TO.C,SW_MINUS1*%
X213181000Y-10703500D03*
D13*
X218261000Y-10703500D03*
D12*
X223341000Y-10703500D03*
D14*
X214211000Y-6753500D03*
D15*
X214451000Y-8163500D03*
X215636000Y-6778500D03*
X220801000Y-5623500D03*
X221636000Y-6453500D03*
D14*
X222211000Y-5753500D03*
%TD*%
D12*
%TO.C,SW_N1*%
X141743500Y-67853500D03*
D13*
X146823500Y-67853500D03*
D12*
X151903500Y-67853500D03*
D14*
X142773500Y-63903500D03*
D15*
X143013500Y-65313500D03*
X144198500Y-63928500D03*
X149363500Y-62773500D03*
X150198500Y-63603500D03*
D14*
X150773500Y-62903500D03*
%TD*%
D12*
%TO.C,SW_O1*%
X184606000Y-29753500D03*
D13*
X189686000Y-29753500D03*
D12*
X194766000Y-29753500D03*
D14*
X185636000Y-25803500D03*
D15*
X185876000Y-27213500D03*
X187061000Y-25828500D03*
X192226000Y-24673500D03*
X193061000Y-25503500D03*
D14*
X193636000Y-24803500D03*
%TD*%
D12*
%TO.C,SW_P1*%
X203656000Y-29753500D03*
D13*
X208736000Y-29753500D03*
D12*
X213816000Y-29753500D03*
D14*
X204686000Y-25803500D03*
D15*
X204926000Y-27213500D03*
X206111000Y-25828500D03*
X211276000Y-24673500D03*
X212111000Y-25503500D03*
D14*
X212686000Y-24803500D03*
%TD*%
D12*
%TO.C,SW_PERIOD1*%
X198893500Y-67853500D03*
D13*
X203973500Y-67853500D03*
D12*
X209053500Y-67853500D03*
D14*
X199923500Y-63903500D03*
D15*
X200163500Y-65313500D03*
X201348500Y-63928500D03*
X206513500Y-62773500D03*
X207348500Y-63603500D03*
D14*
X207923500Y-62903500D03*
%TD*%
D12*
%TO.C,SW_Q1*%
X32206000Y-29753500D03*
D13*
X37286000Y-29753500D03*
D12*
X42366000Y-29753500D03*
D14*
X33236000Y-25803500D03*
D15*
X33476000Y-27213500D03*
X34661000Y-25828500D03*
X39826000Y-24673500D03*
X40661000Y-25503500D03*
D14*
X41236000Y-24803500D03*
%TD*%
D12*
%TO.C,SW_R1*%
X89356000Y-29753500D03*
D13*
X94436000Y-29753500D03*
D12*
X99516000Y-29753500D03*
D14*
X90386000Y-25803500D03*
D15*
X90626000Y-27213500D03*
X91811000Y-25828500D03*
X96976000Y-24673500D03*
X97811000Y-25503500D03*
D14*
X98386000Y-24803500D03*
%TD*%
D12*
%TO.C,SW_RALT1*%
X208418500Y-86903500D03*
D13*
X213498500Y-86903500D03*
D12*
X218578500Y-86903500D03*
D14*
X209448500Y-82953500D03*
D15*
X209688500Y-84363500D03*
X210873500Y-82978500D03*
X216038500Y-81823500D03*
X216873500Y-82653500D03*
D14*
X217448500Y-81953500D03*
%TD*%
D12*
%TO.C,SW_RBRAC1*%
X241756000Y-29753500D03*
D13*
X246836000Y-29753500D03*
D12*
X251916000Y-29753500D03*
D14*
X242786000Y-25803500D03*
D15*
X243026000Y-27213500D03*
X244211000Y-25828500D03*
X249376000Y-24673500D03*
X250211000Y-25503500D03*
D14*
X250786000Y-24803500D03*
%TD*%
D12*
%TO.C,SW_RFN1*%
X270331000Y-67853500D03*
D13*
X275411000Y-67853500D03*
D12*
X280491000Y-67853500D03*
D14*
X271361000Y-63903500D03*
D15*
X271601000Y-65313500D03*
X272786000Y-63928500D03*
X277951000Y-62773500D03*
X278786000Y-63603500D03*
D14*
X279361000Y-62903500D03*
%TD*%
D12*
%TO.C,SW_RMOD1*%
X232231000Y-86903500D03*
D13*
X237311000Y-86903500D03*
D12*
X242391000Y-86903500D03*
D14*
X233261000Y-82953500D03*
D15*
X233501000Y-84363500D03*
X234686000Y-82978500D03*
X239851000Y-81823500D03*
X240686000Y-82653500D03*
D14*
X241261000Y-81953500D03*
%TD*%
D12*
%TO.C,SW_RSH1*%
X244137250Y-67853500D03*
D13*
X249217250Y-67853500D03*
D12*
X254297250Y-67853500D03*
D14*
X245167250Y-63903500D03*
D15*
X245407250Y-65313500D03*
X246592250Y-63928500D03*
X251757250Y-62773500D03*
X252592250Y-63603500D03*
D14*
X253167250Y-62903500D03*
%TD*%
D12*
%TO.C,SW_S1*%
X56018500Y-48803500D03*
D13*
X61098500Y-48803500D03*
D12*
X66178500Y-48803500D03*
D14*
X57048500Y-44853500D03*
D15*
X57288500Y-46263500D03*
X58473500Y-44878500D03*
X63638500Y-43723500D03*
X64473500Y-44553500D03*
D14*
X65048500Y-43853500D03*
%TD*%
D12*
%TO.C,SW_SLASH1*%
X217943500Y-67853500D03*
D13*
X223023500Y-67853500D03*
D12*
X228103500Y-67853500D03*
D14*
X218973500Y-63903500D03*
D15*
X219213500Y-65313500D03*
X220398500Y-63928500D03*
X225563500Y-62773500D03*
X226398500Y-63603500D03*
D14*
X226973500Y-62903500D03*
%TD*%
D13*
%TO.C,SW_SPACE1*%
X87298600Y-78648500D03*
D16*
X87298600Y-93888500D03*
D12*
X132218500Y-86903500D03*
D13*
X137298500Y-86903500D03*
D12*
X142378500Y-86903500D03*
D13*
X187298400Y-78648500D03*
D16*
X187298400Y-93888500D03*
D17*
X134143500Y-83633499D03*
D15*
X134798500Y-82903500D03*
D18*
X139818499Y-82113499D03*
D15*
X139838500Y-81823500D03*
%TD*%
D12*
%TO.C,SW_T1*%
X108406000Y-29753500D03*
D13*
X113486000Y-29753500D03*
D12*
X118566000Y-29753500D03*
D14*
X109436000Y-25803500D03*
D15*
X109676000Y-27213500D03*
X110861000Y-25828500D03*
X116026000Y-24673500D03*
X116861000Y-25503500D03*
D14*
X117436000Y-24803500D03*
%TD*%
D12*
%TO.C,SW_TAB1*%
X8393500Y-29753500D03*
D13*
X13473500Y-29753500D03*
D12*
X18553500Y-29753500D03*
D14*
X9423500Y-25803500D03*
D15*
X9663500Y-27213500D03*
X10848500Y-25828500D03*
X16013500Y-24673500D03*
X16848500Y-25503500D03*
D14*
X17423500Y-24803500D03*
%TD*%
D12*
%TO.C,SW_ESC1*%
X3631000Y-10703500D03*
D13*
X8711000Y-10703500D03*
D12*
X13791000Y-10703500D03*
D14*
X4661000Y-6753500D03*
D15*
X4901000Y-8163500D03*
X6086000Y-6778500D03*
X11251000Y-5623500D03*
X12086000Y-6453500D03*
D14*
X12661000Y-5753500D03*
%TD*%
D12*
%TO.C,SW_U1*%
X146506000Y-29753500D03*
D13*
X151586000Y-29753500D03*
D12*
X156666000Y-29753500D03*
D14*
X147536000Y-25803500D03*
D15*
X147776000Y-27213500D03*
X148961000Y-25828500D03*
X154126000Y-24673500D03*
X154961000Y-25503500D03*
D14*
X155536000Y-24803500D03*
%TD*%
D12*
%TO.C,SW_V1*%
X103643500Y-67853500D03*
D13*
X108723500Y-67853500D03*
D12*
X113803500Y-67853500D03*
D14*
X104673500Y-63903500D03*
D15*
X104913500Y-65313500D03*
X106098500Y-63928500D03*
X111263500Y-62773500D03*
X112098500Y-63603500D03*
D14*
X112673500Y-62903500D03*
%TD*%
D12*
%TO.C,SW_W1*%
X51256000Y-29753500D03*
D13*
X56336000Y-29753500D03*
D12*
X61416000Y-29753500D03*
D14*
X52286000Y-25803500D03*
D15*
X52526000Y-27213500D03*
X53711000Y-25828500D03*
X58876000Y-24673500D03*
X59711000Y-25503500D03*
D14*
X60286000Y-24803500D03*
%TD*%
D12*
%TO.C,SW_X1*%
X65543500Y-67853500D03*
D13*
X70623500Y-67853500D03*
D12*
X75703500Y-67853500D03*
D14*
X66573500Y-63903500D03*
D15*
X66813500Y-65313500D03*
X67998500Y-63928500D03*
X73163500Y-62773500D03*
X73998500Y-63603500D03*
D14*
X74573500Y-62903500D03*
%TD*%
D12*
%TO.C,SW_Y1*%
X127456000Y-29753500D03*
D13*
X132536000Y-29753500D03*
D12*
X137616000Y-29753500D03*
D14*
X128486000Y-25803500D03*
D15*
X128726000Y-27213500D03*
X129911000Y-25828500D03*
X135076000Y-24673500D03*
X135911000Y-25503500D03*
D14*
X136486000Y-24803500D03*
%TD*%
D12*
%TO.C,SW_Z1*%
X46493500Y-67853500D03*
D13*
X51573500Y-67853500D03*
D12*
X56653500Y-67853500D03*
D14*
X47523500Y-63903500D03*
D15*
X47763500Y-65313500D03*
X48948500Y-63928500D03*
X54113500Y-62773500D03*
X54948500Y-63603500D03*
D14*
X55523500Y-62903500D03*
%TD*%
D12*
%TO.C,SW_4*%
X79831000Y-10703500D03*
D13*
X84911000Y-10703500D03*
D12*
X89991000Y-10703500D03*
D14*
X80861000Y-6753500D03*
D15*
X81101000Y-8163500D03*
X82286000Y-6778500D03*
X87451000Y-5623500D03*
X88286000Y-6453500D03*
D14*
X88861000Y-5753500D03*
%TD*%
D12*
%TO.C,SW_5*%
X98881000Y-10703500D03*
D13*
X103961000Y-10703500D03*
D12*
X109041000Y-10703500D03*
D14*
X99911000Y-6753500D03*
D15*
X100151000Y-8163500D03*
X101336000Y-6778500D03*
X106501000Y-5623500D03*
X107336000Y-6453500D03*
D14*
X107911000Y-5753500D03*
%TD*%
D10*
%TO.C,LED7*%
X100209999Y-87069999D03*
X97669999Y-87069999D03*
D11*
X98939999Y-87069999D03*
D10*
X101479999Y-87069999D03*
%TD*%
D12*
%TO.C,SW_TICK1*%
X270331000Y-10703500D03*
D13*
X275411000Y-10703500D03*
D12*
X280491000Y-10703500D03*
D14*
X271361000Y-6753500D03*
D15*
X271601000Y-8163500D03*
X272786000Y-6778500D03*
X277951000Y-5623500D03*
X278786000Y-6453500D03*
D14*
X279361000Y-5753500D03*
%TD*%
D10*
%TO.C,LED5*%
X122209999Y-87069999D03*
X119669999Y-87069999D03*
D11*
X120939999Y-87069999D03*
D10*
X123479999Y-87069999D03*
%TD*%
%TO.C,LED6*%
X111209999Y-87069999D03*
X108669999Y-87069999D03*
D11*
X109939999Y-87069999D03*
D10*
X112479999Y-87069999D03*
%TD*%
%TO.C,LED4*%
X156924999Y-87019999D03*
X154384999Y-87019999D03*
D11*
X155654999Y-87019999D03*
D10*
X158194999Y-87019999D03*
%TD*%
D12*
%TO.C,SW_LCTRL2*%
X13156000Y-86903500D03*
D13*
X18236000Y-86903500D03*
D12*
X23316000Y-86903500D03*
D14*
X14186000Y-82953500D03*
D15*
X14426000Y-84363500D03*
X15611000Y-82978500D03*
X20776000Y-81823500D03*
X21611000Y-82653500D03*
D14*
X22186000Y-81953500D03*
%TD*%
D19*
%TO.C,D16*%
X80148499Y-69503499D03*
X80148499Y-66203499D03*
%TD*%
D20*
%TO.C,C9*%
X166360000Y-81720000D03*
X168260000Y-81720000D03*
%TD*%
D21*
%TO.C,R1*%
X252045000Y-86530000D03*
X253870000Y-86530000D03*
%TD*%
D22*
%TO.C,SW1*%
X276379999Y-97739999D03*
X282579999Y-94039999D03*
X276379999Y-94039999D03*
X282579999Y-97739999D03*
%TD*%
D23*
%TO.C,C1*%
X254125375Y-78538625D03*
X254125375Y-80438625D03*
%TD*%
D24*
%TO.C,C2*%
X271340000Y-96850000D03*
X271340000Y-94950000D03*
%TD*%
%TO.C,C5*%
X267210000Y-96850000D03*
X267210000Y-94950000D03*
%TD*%
D25*
%TO.C,C6*%
X262580000Y-77100000D03*
X260680000Y-77100000D03*
%TD*%
D24*
%TO.C,C7*%
X269270000Y-96850000D03*
X269270000Y-94950000D03*
%TD*%
D19*
%TO.C,D2*%
X17909999Y-6359999D03*
X17909999Y-3059999D03*
%TD*%
%TO.C,D3*%
X22998499Y-31403499D03*
X22998499Y-28103499D03*
%TD*%
%TO.C,D4*%
X25379749Y-50453499D03*
X25379749Y-47153499D03*
%TD*%
%TO.C,D5*%
X30142249Y-69503499D03*
X30142249Y-66203499D03*
%TD*%
%TO.C,D7*%
X49192249Y-88553499D03*
X49192249Y-85253499D03*
%TD*%
%TO.C,D8*%
X61098499Y-69503499D03*
X61098499Y-66203499D03*
%TD*%
%TO.C,D9*%
X51573499Y-50453499D03*
X51573499Y-47153499D03*
%TD*%
%TO.C,D10*%
X46810999Y-31403499D03*
X46810999Y-28103499D03*
%TD*%
%TO.C,D11*%
X37285999Y-12353499D03*
X37285999Y-9053499D03*
%TD*%
%TO.C,D13*%
X56335999Y-12353499D03*
X56335999Y-9053499D03*
%TD*%
%TO.C,D14*%
X65860999Y-31403499D03*
X65860999Y-28103499D03*
%TD*%
%TO.C,D15*%
X70623499Y-50453499D03*
X70623499Y-47153499D03*
%TD*%
%TO.C,D17*%
X70489999Y-84059999D03*
X70489999Y-80759999D03*
%TD*%
%TO.C,D18*%
X99198499Y-69503499D03*
X99198499Y-66203499D03*
%TD*%
%TO.C,D19*%
X89673499Y-50453499D03*
X89673499Y-47153499D03*
%TD*%
%TO.C,D20*%
X84910999Y-33053499D03*
X84910999Y-29753499D03*
%TD*%
%TO.C,D21*%
X75385999Y-12353499D03*
X75385999Y-9053499D03*
%TD*%
%TO.C,D24*%
X94435999Y-12353499D03*
X94435999Y-9053499D03*
%TD*%
%TO.C,D25*%
X103960999Y-31403499D03*
X103960999Y-28103499D03*
%TD*%
%TO.C,D26*%
X108723499Y-50453499D03*
X108723499Y-47153499D03*
%TD*%
%TO.C,D27*%
X118248499Y-69503499D03*
X118248499Y-66203499D03*
%TD*%
%TO.C,D28*%
X146899999Y-81519999D03*
X146899999Y-78219999D03*
%TD*%
%TO.C,D29*%
X137298499Y-69503499D03*
X137298499Y-66203499D03*
%TD*%
%TO.C,D30*%
X127773499Y-50453499D03*
X127773499Y-47153499D03*
%TD*%
%TO.C,D31*%
X123010999Y-31403499D03*
X123010999Y-28103499D03*
%TD*%
%TO.C,D32*%
X113485999Y-12353499D03*
X113485999Y-9053499D03*
%TD*%
%TO.C,D35*%
X132535999Y-12353499D03*
X132535999Y-9053499D03*
%TD*%
%TO.C,D36*%
X142060999Y-31403499D03*
X142060999Y-28103499D03*
%TD*%
%TO.C,D37*%
X146823499Y-50453499D03*
X146823499Y-47153499D03*
%TD*%
%TO.C,D38*%
X156348499Y-69503499D03*
X156348499Y-66203499D03*
%TD*%
%TO.C,D39*%
X174109999Y-69029999D03*
X174109999Y-65729999D03*
%TD*%
%TO.C,D40*%
X165873499Y-50453499D03*
X165873499Y-47153499D03*
%TD*%
%TO.C,D41*%
X161110999Y-31403499D03*
X161110999Y-28103499D03*
%TD*%
%TO.C,D42*%
X151585999Y-12353499D03*
X151585999Y-9053499D03*
%TD*%
%TO.C,D46*%
X170635999Y-12353499D03*
X170635999Y-9053499D03*
%TD*%
%TO.C,D47*%
X180160999Y-31403499D03*
X180160999Y-28103499D03*
%TD*%
%TO.C,D48*%
X184923499Y-50453499D03*
X184923499Y-47153499D03*
%TD*%
%TO.C,D49*%
X194448499Y-69503499D03*
X194448499Y-66203499D03*
%TD*%
%TO.C,D50*%
X223019999Y-83639999D03*
X223019999Y-80339999D03*
%TD*%
%TO.C,D51*%
X213498499Y-69503499D03*
X213498499Y-66203499D03*
%TD*%
%TO.C,D52*%
X203973499Y-50453499D03*
X203973499Y-47153499D03*
%TD*%
%TO.C,D53*%
X199210999Y-31403499D03*
X199210999Y-28103499D03*
%TD*%
%TO.C,D54*%
X189685999Y-12353499D03*
X189685999Y-9053499D03*
%TD*%
%TO.C,D57*%
X208735999Y-12353499D03*
X208735999Y-9053499D03*
%TD*%
%TO.C,D58*%
X218260999Y-31403499D03*
X218260999Y-28103499D03*
%TD*%
%TO.C,D59*%
X223023499Y-50453499D03*
X223023499Y-47153499D03*
%TD*%
%TO.C,D60*%
X232548499Y-69503499D03*
X232548499Y-66203499D03*
%TD*%
%TO.C,D61*%
X246849999Y-88969999D03*
X246849999Y-85669999D03*
%TD*%
%TO.C,D62*%
X268267249Y-67853499D03*
X268267249Y-64553499D03*
%TD*%
%TO.C,D63*%
X242073499Y-50453499D03*
X242073499Y-47153499D03*
%TD*%
%TO.C,D64*%
X237310999Y-31403499D03*
X237310999Y-28103499D03*
%TD*%
%TO.C,D65*%
X227785999Y-12353499D03*
X227785999Y-9053499D03*
%TD*%
%TO.C,D68*%
X246835999Y-12353499D03*
X246835999Y-9053499D03*
%TD*%
%TO.C,D69*%
X256360999Y-31403499D03*
X256360999Y-28103499D03*
%TD*%
%TO.C,D70*%
X263589999Y-8239999D03*
X263589999Y-4939999D03*
%TD*%
%TO.C,D71*%
X273029749Y-50453499D03*
X273029749Y-47153499D03*
%TD*%
%TO.C,D72*%
X280369999Y-74549999D03*
X280369999Y-71249999D03*
%TD*%
%TO.C,D76*%
X281149999Y-25219999D03*
X281149999Y-21919999D03*
%TD*%
D26*
%TO.C,J1*%
X275630000Y-44585000D03*
X276630000Y-44585000D03*
X277630000Y-44585000D03*
X278630000Y-44585000D03*
D27*
X274330000Y-40710000D03*
X279930000Y-40710000D03*
%TD*%
D28*
%TO.C,R3*%
X277682500Y-83020000D03*
X275857500Y-83020000D03*
%TD*%
D29*
%TO.C,R4*%
X253720000Y-92417500D03*
X253720000Y-94242500D03*
%TD*%
D30*
%TO.C,U1*%
X258342624Y-81072624D03*
D31*
X259842625Y-83435125D03*
D30*
X259142624Y-81072624D03*
D31*
X260342625Y-83435125D03*
D30*
X259942624Y-81072624D03*
D31*
X260842625Y-83435125D03*
D30*
X260742624Y-81072624D03*
D31*
X261342625Y-83435125D03*
D30*
X261542624Y-81072624D03*
D31*
X261842625Y-83435125D03*
D30*
X262342624Y-81072624D03*
D31*
X262342625Y-83435125D03*
D30*
X263142624Y-81072624D03*
D31*
X262842625Y-83435125D03*
D30*
X263942624Y-81072624D03*
D31*
X263342625Y-83435125D03*
D30*
X264742624Y-81072624D03*
D31*
X263842625Y-83435125D03*
D30*
X265542624Y-81072624D03*
D31*
X264342625Y-83435125D03*
D30*
X266342624Y-81072624D03*
D31*
X264842625Y-83435125D03*
D32*
X268042624Y-82772624D03*
D33*
X265680125Y-84272625D03*
D32*
X268042624Y-83572624D03*
D33*
X265680125Y-84772625D03*
D32*
X268042624Y-84372624D03*
D33*
X265680125Y-85272625D03*
D32*
X268042624Y-85172624D03*
D33*
X265680125Y-85772625D03*
D32*
X268042624Y-85972624D03*
D33*
X265680125Y-86272625D03*
D32*
X268042624Y-86772624D03*
D33*
X265680125Y-86772625D03*
X265680125Y-87272625D03*
D32*
X268042624Y-87572624D03*
D33*
X265680125Y-87772625D03*
D32*
X268042624Y-88372624D03*
D33*
X265680125Y-88272625D03*
D32*
X268042624Y-89172624D03*
D33*
X265680125Y-88772625D03*
D32*
X268042624Y-89972624D03*
D33*
X265680125Y-89272625D03*
D32*
X268042624Y-90772624D03*
D31*
X264842625Y-90110125D03*
D30*
X266342624Y-92472624D03*
D31*
X264342625Y-90110125D03*
D30*
X265542624Y-92472624D03*
D31*
X263842625Y-90110125D03*
D30*
X264742624Y-92472624D03*
D31*
X263342625Y-90110125D03*
D30*
X263942624Y-92472624D03*
D31*
X262842625Y-90110125D03*
D30*
X263142624Y-92472624D03*
D31*
X262342625Y-90110125D03*
D30*
X262342624Y-92472624D03*
D31*
X261842625Y-90110125D03*
D30*
X261542624Y-92472624D03*
D31*
X261342625Y-90110125D03*
D30*
X260742624Y-92472624D03*
D31*
X260842625Y-90110125D03*
D30*
X259942624Y-92472624D03*
D31*
X260342625Y-90110125D03*
D30*
X259142624Y-92472624D03*
D31*
X259842625Y-90110125D03*
D30*
X258342624Y-92472624D03*
D33*
X259005125Y-89272625D03*
D32*
X256642624Y-90772624D03*
D33*
X259005125Y-88772625D03*
D32*
X256642624Y-89972624D03*
D33*
X259005125Y-88272625D03*
D32*
X256642624Y-89172624D03*
D33*
X259005125Y-87772625D03*
D32*
X256642624Y-88372624D03*
D33*
X259005125Y-87272625D03*
D32*
X256642624Y-87572624D03*
D33*
X259005125Y-86772625D03*
D32*
X256642624Y-86772624D03*
X256642624Y-85972624D03*
D33*
X259005125Y-86272625D03*
D32*
X256642624Y-85172624D03*
D33*
X259005125Y-85772625D03*
D32*
X256642624Y-84372624D03*
D33*
X259005125Y-85272625D03*
D32*
X256642624Y-83572624D03*
D33*
X259005125Y-84772625D03*
D32*
X256642624Y-82772624D03*
D33*
X259005125Y-84272625D03*
D34*
X262342624Y-86772624D03*
%TD*%
D35*
%TO.C,Y1*%
X271017624Y-87385124D03*
X271017624Y-85185124D03*
X272717624Y-85185124D03*
X272717624Y-87385124D03*
%TD*%
D20*
%TO.C,C3*%
X271640000Y-89430000D03*
X273540000Y-89430000D03*
%TD*%
%TO.C,C4*%
X271250000Y-81470000D03*
X273150000Y-81470000D03*
%TD*%
D25*
%TO.C,C10*%
X179080000Y-81650000D03*
X177180000Y-81650000D03*
%TD*%
D20*
%TO.C,C12*%
X155075000Y-81920000D03*
X156975000Y-81920000D03*
%TD*%
D23*
%TO.C,C11*%
X188610000Y-84305000D03*
X188610000Y-86205000D03*
%TD*%
D25*
%TO.C,C14*%
X111545000Y-81640000D03*
X109645000Y-81640000D03*
%TD*%
%TO.C,C15*%
X100625000Y-81340000D03*
X98725000Y-81340000D03*
%TD*%
D36*
%TO.C,R5*%
X277580000Y-53895000D03*
X277580000Y-52070000D03*
%TD*%
D19*
%TO.C,D77*%
X281139999Y-18659999D03*
X281139999Y-15359999D03*
%TD*%
D20*
%TO.C,C13*%
X121945000Y-81600000D03*
X123845000Y-81600000D03*
%TD*%
D36*
%TO.C,R2*%
X275630000Y-53895000D03*
X275630000Y-52070000D03*
%TD*%
%TO.C,R6*%
X190930000Y-86130000D03*
X190930000Y-84305000D03*
%TD*%
D37*
%TO.C,BUZ1*%
X191189999Y-81814999D03*
X204389999Y-81814999D03*
%TD*%
D19*
%TO.C,D12*%
X27789999Y-81439999D03*
X27789999Y-78139999D03*
%TD*%
D38*
X281000000Y-100000000D02*
G75*
G03*
X285000000Y-96000000I0J4000000D01*
G01*
X4000000Y0D02*
G75*
G03*
X0Y-4000000I0J-4000000D01*
G01*
X4000000Y-100000000D02*
X281000000Y-100000000D01*
X285000000Y-96000000D02*
X285000000Y-4000000D01*
X0Y-4000000D02*
X0Y-96000000D01*
X285000000Y-4000000D02*
G75*
G03*
X281000000Y0I-4000000J0D01*
G01*
X4000000Y0D02*
X281000000Y0D01*
X0Y-96000000D02*
G75*
G03*
X4000000Y-100000000I4000000J0D01*
G01*
M02*
